<svg xmlns="http://www.w3.org/2000/svg" viewBox="0 0 960 360" font-family="'Inter', 'Segoe UI', system-ui, sans-serif">

  <!-- Background -->
  <rect width="960" height="360" rx="16" fill="#F5F7F9" stroke="#E2E8ED" stroke-width="1"/>

  <!-- Title -->
  <text x="480" y="36" text-anchor="middle" fill="#00914B" font-size="12" font-weight="600" letter-spacing="1.5">CONSTRUCTION PRODUCTS REGULATION — ARTICLE 76</text>
  <text x="480" y="62" text-anchor="middle" fill="#1A2B36" font-size="18" font-weight="700">Minimum DPP Content Requirements</text>

  <!-- Card 1: DoPC -->
  <rect x="32" y="88" width="172" height="170" rx="12" fill="#FFFFFF" stroke="#E2E8ED" stroke-width="1"/>
  <!-- Clipboard/certificate icon -->
  <g transform="translate(118,120)" fill="none" stroke="#00914B" stroke-width="1.8" stroke-linecap="round" stroke-linejoin="round">
    <rect x="-14" y="-10" width="28" height="32" rx="3"/>
    <rect x="-8" y="-14" width="16" height="8" rx="2"/>
    <polyline points="-6,6 -2,10 6,2"/>
  </g>
  <text x="118" y="162" text-anchor="middle" fill="#1A2B36" font-size="12" font-weight="600">Declaration of</text>
  <text x="118" y="178" text-anchor="middle" fill="#1A2B36" font-size="12" font-weight="600">Performance &amp;</text>
  <text x="118" y="194" text-anchor="middle" fill="#1A2B36" font-size="12" font-weight="600">Conformity</text>
  <text x="118" y="218" text-anchor="middle" fill="#5A7080" font-size="10">Central document certifying</text>
  <text x="118" y="232" text-anchor="middle" fill="#5A7080" font-size="10">harmonised spec compliance</text>

  <!-- Card 2: Safety -->
  <rect x="216" y="88" width="172" height="170" rx="12" fill="#FFFFFF" stroke="#E2E8ED" stroke-width="1"/>
  <!-- Shield icon -->
  <g transform="translate(302,120)" fill="none" stroke="#E71846" stroke-width="1.8" stroke-linecap="round" stroke-linejoin="round">
    <path d="M0,-14 L14,-7 L14,4 C14,14 0,20 0,20 C0,20 -14,14 -14,4 L-14,-7 Z"/>
    <polyline points="-4,2 -1,6 5,0"/>
  </g>
  <text x="302" y="162" text-anchor="middle" fill="#1A2B36" font-size="12" font-weight="600">Safety</text>
  <text x="302" y="178" text-anchor="middle" fill="#1A2B36" font-size="12" font-weight="600">Information</text>
  <text x="302" y="218" text-anchor="middle" fill="#5A7080" font-size="10">Relevant to the product's</text>
  <text x="302" y="232" text-anchor="middle" fill="#5A7080" font-size="10">intended use</text>

  <!-- Card 3: Technical docs -->
  <rect x="400" y="88" width="172" height="170" rx="12" fill="#FFFFFF" stroke="#E2E8ED" stroke-width="1"/>
  <!-- Document/file stack icon -->
  <g transform="translate(486,120)" fill="none" stroke="#009BBB" stroke-width="1.8" stroke-linecap="round" stroke-linejoin="round">
    <path d="M-10,-12 L4,-12 L12,-4 L12,14 L-10,14 Z"/>
    <polyline points="4,-12 4,-4 12,-4"/>
    <line x1="-4" y1="2" x2="6" y2="2"/>
    <line x1="-4" y1="8" x2="6" y2="8"/>
  </g>
  <text x="486" y="162" text-anchor="middle" fill="#1A2B36" font-size="12" font-weight="600">Technical</text>
  <text x="486" y="178" text-anchor="middle" fill="#1A2B36" font-size="12" font-weight="600">Documentation</text>
  <text x="486" y="218" text-anchor="middle" fill="#5A7080" font-size="10">Test reports and</text>
  <text x="486" y="232" text-anchor="middle" fill="#5A7080" font-size="10">assessment results</text>

  <!-- Card 4: Labels -->
  <rect x="584" y="88" width="172" height="170" rx="12" fill="#FFFFFF" stroke="#E2E8ED" stroke-width="1"/>
  <!-- Tag/label icon -->
  <g transform="translate(670,120)" fill="none" stroke="#FFA92D" stroke-width="1.8" stroke-linecap="round" stroke-linejoin="round">
    <path d="M-12,-2 L-12,-14 L2,-14 L14,-2 L2,12 L-12,2 Z"/>
    <circle cx="-5" cy="-7" r="2.5" fill="#FFA92D"/>
  </g>
  <text x="670" y="162" text-anchor="middle" fill="#1A2B36" font-size="12" font-weight="600">Labels &amp;</text>
  <text x="670" y="178" text-anchor="middle" fill="#1A2B36" font-size="12" font-weight="600">Markings</text>
  <text x="670" y="218" text-anchor="middle" fill="#5A7080" font-size="10">Product labels and</text>
  <text x="670" y="232" text-anchor="middle" fill="#5A7080" font-size="10">CE markings</text>

  <!-- Card 5: Unique ID -->
  <rect x="768" y="88" width="172" height="170" rx="12" fill="#FFFFFF" stroke="#E2E8ED" stroke-width="1"/>
  <!-- QR/ID icon -->
  <g transform="translate(854,120)" fill="none" stroke="#93093F" stroke-width="1.8" stroke-linecap="round" stroke-linejoin="round">
    <rect x="-14" y="-10" width="28" height="28" rx="4"/>
    <rect x="-6" y="-6" width="12" height="12" rx="2" fill="none"/>
    <line x1="-14" y1="10" x2="-6" y2="10"/>
    <line x1="6" y1="10" x2="14" y2="10"/>
    <line x1="-14" y1="14" x2="-2" y2="14"/>
    <line x1="4" y1="14" x2="14" y2="14"/>
  </g>
  <text x="854" y="162" text-anchor="middle" fill="#1A2B36" font-size="12" font-weight="600">Unique Product</text>
  <text x="854" y="178" text-anchor="middle" fill="#1A2B36" font-size="12" font-weight="600">Identifier</text>
  <text x="854" y="218" text-anchor="middle" fill="#5A7080" font-size="10">Enabling traceability</text>
  <text x="854" y="232" text-anchor="middle" fill="#5A7080" font-size="10">across the supply chain</text>

  <!-- Footer: access note -->
  <rect x="200" y="282" width="560" height="46" rx="8" fill="#FFFFFF" stroke="#E2E8ED" stroke-width="1"/>
  <!-- QR code mini icon -->
  <g transform="translate(224,305)" fill="#00914B">
    <rect x="-8" y="-8" width="6" height="6"/>
    <rect x="2" y="-8" width="6" height="6"/>
    <rect x="-8" y="2" width="6" height="6"/>
    <rect x="3" y="3" width="4" height="4"/>
  </g>
  <text x="244" y="300" fill="#1A2B36" font-size="11" font-weight="600">Free-of-charge access</text>
  <text x="244" y="316" fill="#5A7080" font-size="10">Via data carrier (e.g. QR code) on product or packaging — with differentiated access levels per stakeholder</text>

  <!-- Source -->
  <text x="480" y="350" text-anchor="middle" fill="#8CA9BF" font-size="9">Source: Article 76, Regulation (EU) 2024/3110 — regenstudio.world</text>
</svg>
