<svg xmlns="http://www.w3.org/2000/svg" viewBox="0 0 960 340" font-family="'Inter', 'Segoe UI', system-ui, sans-serif">
  <defs>
    <linearGradient id="bg" x1="0" y1="0" x2="1" y2="1">
      <stop offset="0%" stop-color="#243644"/>
      <stop offset="100%" stop-color="#1B2833"/>
    </linearGradient>
    <linearGradient id="card-bg" x1="0" y1="0" x2="0" y2="1">
      <stop offset="0%" stop-color="#2C4A5C"/>
      <stop offset="100%" stop-color="#1E3545"/>
    </linearGradient>
  </defs>

  <!-- Background -->
  <rect width="960" height="340" rx="16" fill="url(#bg)"/>

  <!-- Title -->
  <text x="480" y="36" text-anchor="middle" fill="#AFF9D7" font-size="11" font-weight="600" letter-spacing="1.5">ARTICLE 76 — MINIMUM DPP CONTENT</text>
  <text x="480" y="60" text-anchor="middle" fill="#FFFFFF" font-size="17" font-weight="700">What the Digital Product Passport Must Contain</text>

  <!-- Card 1: DoPC -->
  <rect x="32" y="88" width="172" height="160" rx="12" fill="url(#card-bg)" stroke="#3A5A6E" stroke-width="1"/>
  <!-- Clipboard/certificate icon -->
  <g transform="translate(118,116)" fill="none" stroke="#AFF9D7" stroke-width="1.8" stroke-linecap="round" stroke-linejoin="round">
    <rect x="-14" y="-10" width="28" height="32" rx="3"/>
    <rect x="-8" y="-14" width="16" height="8" rx="2"/>
    <polyline points="-6,6 -2,10 6,2"/>
  </g>
  <text x="118" y="158" text-anchor="middle" fill="#FFFFFF" font-size="11" font-weight="600">Declaration of</text>
  <text x="118" y="173" text-anchor="middle" fill="#FFFFFF" font-size="11" font-weight="600">Performance &amp;</text>
  <text x="118" y="188" text-anchor="middle" fill="#FFFFFF" font-size="11" font-weight="600">Conformity</text>
  <text x="118" y="210" text-anchor="middle" fill="#8CA9BF" font-size="9">Central document certifying</text>
  <text x="118" y="222" text-anchor="middle" fill="#8CA9BF" font-size="9">harmonised spec compliance</text>

  <!-- Card 2: Safety -->
  <rect x="216" y="88" width="172" height="160" rx="12" fill="url(#card-bg)" stroke="#3A5A6E" stroke-width="1"/>
  <!-- Shield icon -->
  <g transform="translate(302,116)" fill="none" stroke="#AFF9D7" stroke-width="1.8" stroke-linecap="round" stroke-linejoin="round">
    <path d="M0,-14 L14,-7 L14,4 C14,14 0,20 0,20 C0,20 -14,14 -14,4 L-14,-7 Z"/>
    <polyline points="-4,2 -1,6 5,0"/>
  </g>
  <text x="302" y="158" text-anchor="middle" fill="#FFFFFF" font-size="11" font-weight="600">Safety</text>
  <text x="302" y="173" text-anchor="middle" fill="#FFFFFF" font-size="11" font-weight="600">Information</text>
  <text x="302" y="210" text-anchor="middle" fill="#8CA9BF" font-size="9">Relevant to the product's</text>
  <text x="302" y="222" text-anchor="middle" fill="#8CA9BF" font-size="9">intended use</text>

  <!-- Card 3: Technical docs -->
  <rect x="400" y="88" width="172" height="160" rx="12" fill="url(#card-bg)" stroke="#3A5A6E" stroke-width="1"/>
  <!-- Document/file stack icon -->
  <g transform="translate(486,116)" fill="none" stroke="#AFF9D7" stroke-width="1.8" stroke-linecap="round" stroke-linejoin="round">
    <path d="M-10,-12 L4,-12 L12,-4 L12,14 L-10,14 Z"/>
    <polyline points="4,-12 4,-4 12,-4"/>
    <line x1="-4" y1="2" x2="6" y2="2"/>
    <line x1="-4" y1="8" x2="6" y2="8"/>
  </g>
  <text x="486" y="158" text-anchor="middle" fill="#FFFFFF" font-size="11" font-weight="600">Technical</text>
  <text x="486" y="173" text-anchor="middle" fill="#FFFFFF" font-size="11" font-weight="600">Documentation</text>
  <text x="486" y="210" text-anchor="middle" fill="#8CA9BF" font-size="9">Test reports and</text>
  <text x="486" y="222" text-anchor="middle" fill="#8CA9BF" font-size="9">assessment results</text>

  <!-- Card 4: Labels -->
  <rect x="584" y="88" width="172" height="160" rx="12" fill="url(#card-bg)" stroke="#3A5A6E" stroke-width="1"/>
  <!-- Tag/label icon -->
  <g transform="translate(670,116)" fill="none" stroke="#AFF9D7" stroke-width="1.8" stroke-linecap="round" stroke-linejoin="round">
    <path d="M-12,-2 L-12,-14 L2,-14 L14,-2 L2,12 L-12,2 Z"/>
    <circle cx="-5" cy="-7" r="2.5" fill="#AFF9D7"/>
  </g>
  <text x="670" y="158" text-anchor="middle" fill="#FFFFFF" font-size="11" font-weight="600">Labels &amp;</text>
  <text x="670" y="173" text-anchor="middle" fill="#FFFFFF" font-size="11" font-weight="600">Markings</text>
  <text x="670" y="210" text-anchor="middle" fill="#8CA9BF" font-size="9">Product labels and</text>
  <text x="670" y="222" text-anchor="middle" fill="#8CA9BF" font-size="9">CE markings</text>

  <!-- Card 5: Unique ID -->
  <rect x="768" y="88" width="172" height="160" rx="12" fill="url(#card-bg)" stroke="#3A5A6E" stroke-width="1"/>
  <!-- Fingerprint/ID icon -->
  <g transform="translate(854,116)" fill="none" stroke="#AFF9D7" stroke-width="1.8" stroke-linecap="round" stroke-linejoin="round">
    <rect x="-14" y="-10" width="28" height="28" rx="4"/>
    <rect x="-6" y="-6" width="12" height="12" rx="2" fill="none"/>
    <line x1="-14" y1="10" x2="-6" y2="10"/>
    <line x1="6" y1="10" x2="14" y2="10"/>
    <line x1="-14" y1="14" x2="-2" y2="14"/>
    <line x1="4" y1="14" x2="14" y2="14"/>
  </g>
  <text x="854" y="158" text-anchor="middle" fill="#FFFFFF" font-size="11" font-weight="600">Unique Product</text>
  <text x="854" y="173" text-anchor="middle" fill="#FFFFFF" font-size="11" font-weight="600">Identifier</text>
  <text x="854" y="210" text-anchor="middle" fill="#8CA9BF" font-size="9">Enabling traceability</text>
  <text x="854" y="222" text-anchor="middle" fill="#8CA9BF" font-size="9">across the supply chain</text>

  <!-- Footer: access note -->
  <rect x="200" y="272" width="560" height="44" rx="8" fill="#1B2833" stroke="#3A5A6E" stroke-width="1"/>
  <!-- QR code mini icon -->
  <g transform="translate(224,294)" fill="#AFF9D7">
    <rect x="-8" y="-8" width="6" height="6"/>
    <rect x="2" y="-8" width="6" height="6"/>
    <rect x="-8" y="2" width="6" height="6"/>
    <rect x="3" y="3" width="4" height="4"/>
  </g>
  <text x="244" y="290" fill="#FFFFFF" font-size="10" font-weight="600">Free-of-charge access</text>
  <text x="244" y="304" fill="#8CA9BF" font-size="9">Via data carrier (e.g. QR code) on product or packaging — with differentiated access levels per stakeholder</text>

  <!-- Source -->
  <text x="480" y="332" text-anchor="middle" fill="#5A7A8F" font-size="8">Source: Article 76, Regulation (EU) 2024/3110 — regenstudio.world</text>
</svg>
