<svg viewBox="0 0 1200 600" fill="none" xmlns="http://www.w3.org/2000/svg" style="background:#ffffff;">
  <!-- BUILDING SIDE (left) - structured, angular triangles forming a building -->

  <!-- Building base / ground level -->
  <polygon points="180,520 160,560 200,560" fill="#1a1a2e" opacity="0.9"/>
  <polygon points="220,520 200,560 240,560" fill="#1a1a2e" opacity="0.85"/>
  <polygon points="260,520 240,560 280,560" fill="#1a1a2e" opacity="0.9"/>
  <polygon points="300,520 280,560 320,560" fill="#1a1a2e" opacity="0.85"/>
  <polygon points="340,520 320,560 360,560" fill="#1a1a2e" opacity="0.9"/>
  <polygon points="380,520 360,560 400,560" fill="#1a1a2e" opacity="0.85"/>

  <!-- Building lower floors -->
  <polygon points="190,480 170,520 210,520" fill="#93093F" opacity="0.9"/>
  <polygon points="230,480 210,520 250,520" fill="#E71846" opacity="0.85"/>
  <polygon points="270,480 250,520 290,520" fill="#93093F" opacity="0.9"/>
  <polygon points="310,480 290,520 330,520" fill="#E71846" opacity="0.85"/>
  <polygon points="350,480 330,520 370,520" fill="#93093F" opacity="0.9"/>
  <polygon points="390,480 370,520 410,520" fill="#E71846" opacity="0.8"/>

  <!-- Building mid-lower floors -->
  <polygon points="200,440 180,480 220,480" fill="#E71846" opacity="0.85"/>
  <polygon points="240,440 220,480 260,480" fill="#93093F" opacity="0.9"/>
  <polygon points="280,440 260,480 300,480" fill="#E71846" opacity="0.85"/>
  <polygon points="320,440 300,480 340,480" fill="#93093F" opacity="0.9"/>
  <polygon points="360,440 340,480 380,480" fill="#E71846" opacity="0.85"/>

  <!-- Building middle floors -->
  <polygon points="210,400 190,440 230,440" fill="#FFA92D" opacity="0.8"/>
  <polygon points="250,400 230,440 270,440" fill="#E71846" opacity="0.85"/>
  <polygon points="290,400 270,440 310,440" fill="#FFA92D" opacity="0.8"/>
  <polygon points="330,400 310,440 350,440" fill="#E71846" opacity="0.85"/>
  <polygon points="370,400 350,440 390,440" fill="#FFA92D" opacity="0.75"/>

  <!-- Building upper-mid floors -->
  <polygon points="220,360 200,400 240,400" fill="#FFA92D" opacity="0.85"/>
  <polygon points="260,360 240,400 280,400" fill="#FFA92D" opacity="0.8"/>
  <polygon points="300,360 280,400 320,400" fill="#E71846" opacity="0.75"/>
  <polygon points="340,360 320,400 360,400" fill="#FFA92D" opacity="0.8"/>

  <!-- Building upper floors -->
  <polygon points="230,320 210,360 250,360" fill="#009BBB" opacity="0.8"/>
  <polygon points="270,320 250,360 290,360" fill="#FFA92D" opacity="0.75"/>
  <polygon points="310,320 290,360 330,360" fill="#009BBB" opacity="0.8"/>

  <!-- Building top floors -->
  <polygon points="240,280 220,320 260,320" fill="#009BBB" opacity="0.85"/>
  <polygon points="280,280 260,320 300,320" fill="#009BBB" opacity="0.8"/>

  <!-- Building peak -->
  <polygon points="255,245 235,280 275,280" fill="#009BBB" opacity="0.9"/>

  <!-- TRANSITION ZONE (center) - triangles loosening, colors shifting from urban to green -->

  <!-- Transition row bottom -->
  <polygon points="420,520 400,560 440,560" fill="#93093F" opacity="0.7"/>
  <polygon points="460,510 440,550 480,550" fill="#E71846" opacity="0.6"/>
  <polygon points="500,525 475,560 525,560" fill="#FFA92D" opacity="0.55"/>

  <!-- Transition mid -->
  <polygon points="430,460 408,500 452,500" fill="#FFA92D" opacity="0.65"/>
  <polygon points="475,445 450,485 500,485" fill="#009BBB" opacity="0.6"/>
  <polygon points="520,470 498,510 542,510" fill="#00914B" opacity="0.5"/>

  <!-- Transition upper -->
  <polygon points="440,390 418,430 462,430" fill="#009BBB" opacity="0.6"/>
  <polygon points="490,380 465,420 515,420" fill="#00914B" opacity="0.55"/>
  <polygon points="460,330 438,370 482,370" fill="#009BBB" opacity="0.5"/>
  <polygon points="510,340 488,378 532,378" fill="#00914B" opacity="0.5"/>

  <!-- Transition top -->
  <polygon points="440,280 420,315 460,315" fill="#00914B" opacity="0.45"/>
  <polygon points="490,290 470,325 510,325" fill="#65DD35" opacity="0.4"/>

  <!-- TREE SIDE (right) - organic, scattered triangles forming a tree canopy -->

  <!-- Tree trunk - a few brown/dark triangles -->
  <polygon points="750,520 735,560 765,560" fill="#1a1a2e" opacity="0.5"/>
  <polygon points="755,480 738,520 772,520" fill="#1a1a2e" opacity="0.45"/>
  <polygon points="752,445 734,480 770,480" fill="#1a1a2e" opacity="0.35"/>

  <!-- Lower canopy - dense greens -->
  <polygon points="680,420 650,465 710,465" fill="#00914B" opacity="0.85"/>
  <polygon points="740,410 710,455 770,455" fill="#65DD35" opacity="0.8"/>
  <polygon points="800,420 770,465 830,465" fill="#00914B" opacity="0.85"/>
  <polygon points="830,430 805,470 855,470" fill="#65DD35" opacity="0.75"/>
  <polygon points="650,430 625,470 675,470" fill="#65DD35" opacity="0.7"/>

  <!-- Mid canopy -->
  <polygon points="700,360 668,405 732,405" fill="#65DD35" opacity="0.85"/>
  <polygon points="760,350 728,395 792,395" fill="#00914B" opacity="0.9"/>
  <polygon points="820,365 790,408 850,408" fill="#65DD35" opacity="0.8"/>
  <polygon points="660,370 632,410 688,410" fill="#00914B" opacity="0.75"/>
  <polygon points="860,380 835,418 885,418" fill="#00914B" opacity="0.65"/>
  <polygon points="620,390 595,428 645,428" fill="#00914B" opacity="0.55"/>

  <!-- Upper canopy -->
  <polygon points="720,300 685,348 755,348" fill="#00914B" opacity="0.9"/>
  <polygon points="780,290 745,338 815,338" fill="#65DD35" opacity="0.85"/>
  <polygon points="840,310 810,355 870,355" fill="#00914B" opacity="0.7"/>
  <polygon points="660,315 632,358 688,358" fill="#65DD35" opacity="0.7"/>
  <polygon points="880,330 855,368 905,368" fill="#65DD35" opacity="0.5"/>
  <polygon points="600,340 578,375 622,375" fill="#65DD35" opacity="0.4"/>

  <!-- Top canopy -->
  <polygon points="740,245 705,293 775,293" fill="#65DD35" opacity="0.9"/>
  <polygon points="800,250 768,295 832,295" fill="#00914B" opacity="0.8"/>
  <polygon points="680,260 650,305 710,305" fill="#00914B" opacity="0.8"/>
  <polygon points="850,270 822,310 878,310" fill="#65DD35" opacity="0.6"/>
  <polygon points="630,275 605,312 655,312" fill="#00914B" opacity="0.55"/>

  <!-- Crown -->
  <polygon points="760,195 728,240 792,240" fill="#65DD35" opacity="0.9"/>
  <polygon points="720,210 692,250 748,250" fill="#00914B" opacity="0.85"/>
  <polygon points="800,210 775,248 825,248" fill="#00914B" opacity="0.75"/>
  <polygon points="840,230 818,265 862,265" fill="#65DD35" opacity="0.55"/>
  <polygon points="670,225 648,260 692,260" fill="#65DD35" opacity="0.6"/>

  <!-- Tree top -->
  <polygon points="755,155 730,195 780,195" fill="#00914B" opacity="0.9"/>
  <polygon points="720,170 698,205 742,205" fill="#65DD35" opacity="0.8"/>
  <polygon points="790,170 770,205 810,205" fill="#65DD35" opacity="0.7"/>

  <!-- Apex -->
  <polygon points="755,120 738,155 772,155" fill="#00914B" opacity="0.9"/>

  <!-- Scattered leaf triangles floating away from the tree -->
  <polygon points="900,280 890,300 910,300" fill="#65DD35" opacity="0.35"/>
  <polygon points="930,240 918,262 942,262" fill="#00914B" opacity="0.3"/>
  <polygon points="580,230 568,252 592,252" fill="#65DD35" opacity="0.3"/>
  <polygon points="920,350 910,370 930,370" fill="#00914B" opacity="0.25"/>
  <polygon points="560,310 550,328 570,328" fill="#00914B" opacity="0.25"/>
  <polygon points="950,190 938,212 962,212" fill="#65DD35" opacity="0.2"/>
  <polygon points="550,180 540,198 560,198" fill="#65DD35" opacity="0.2"/>
  <polygon points="980,300 970,318 990,318" fill="#00914B" opacity="0.15"/>

  <!-- Small accent triangles in brand colors scattered throughout -->
  <polygon points="140,540 130,558 150,558" fill="#009BBB" opacity="0.3"/>
  <polygon points="110,490 100,508 120,508" fill="#E71846" opacity="0.25"/>
  <polygon points="160,450 150,468 170,468" fill="#FFA92D" opacity="0.2"/>
  <polygon points="1020,420 1010,438 1030,438" fill="#009BBB" opacity="0.2"/>
  <polygon points="1050,360 1040,378 1060,378" fill="#E71846" opacity="0.15"/>
  <polygon points="100,350 90,368 110,368" fill="#00914B" opacity="0.15"/>

  <!-- Ground line - subtle -->
  <line x1="100" y1="562" x2="1100" y2="562" stroke="#1a1a2e" stroke-width="0.5" opacity="0.1"/>
</svg>
