<?xml version="1.0" encoding="UTF-8"?>
<svg id="Camada_2" data-name="Camada 2" xmlns="http://www.w3.org/2000/svg" viewBox="0 0 1046.12 492.47">
  <defs>
    <style>
      .cls-1 {
        stroke: #fff;
        stroke-miterlimit: 10;
        stroke-width: .8px;
      }

      .cls-1, .cls-2 {
        fill: #fff;
      }
    </style>
  </defs>
  <g id="Camada_2-2" data-name="Camada 2">
    <g id="Camada_1-21" data-name="Camada 1-21">
      <g>
        <path class="cls-1" d="M185.53,203.97c-32.9-32.8-65.7-65.7-98.6-98.5,1.6-.4,1.7-1.4,1.1-2.8-1.2-3-1.3-6.1,0-9.2,2.9-3.3,6.6-3.8,10.6-2.6.6.2,1.3.7,1.9-.1.3.3.7.5,1,.8,14.7,14.7,29.4,29.4,44.2,44.2,0,.2-.1.5-.2.7-.2,0-.3.2-.3.4-3.3,4.2-5.6,9-8.6,13.4-.4.6-.8,1.5.4,2,.5.2.9.1,1.2-.2h.1c7.5.8,14.9-.1,22.4-1,.7.3,1.3.2,1.9-.1,4.5.9,9.1.9,13.6,1.4,5.8.6,11.7,1.4,17.5,2.1,6.8,6.9,13.5,13.8,20.2,20.7-3-.6-4.4-3.2-6.1-5.2-3.3-3.8-7.5-4.8-12-5.3-2.3-.2-4.6,0-7-.5-5.9-1.3-11.9-2-18.4-3.7l42.1,42.1c-.6-1.2-1.5-2.1-2.4-3.1-1.4-1.4.1-1.3.9-1.6,4.7,2.1,9.6,3.6,14.6,4.9,4.6,1.4,9.1,2.9,13.7,4.1,2.7.7,5.3,2.1,8.2,1.7.4.5.9,1,1.6,1.1,2.4,2.5,4.8,5,7.2,7.6-1.6,1.7-3.6,3.1-4.7,5.2-.8,1.5-1.9,1.7-3.6,1.3-5.5-1-11.1-1.8-17.1-2.7l18.4,18.4c6,6,12.1,12.1,18.5,18.5,0-1.2.2-1.8.1-2.2-1.2-8.5-2.4-16.9-3.6-25.4-.2-1.5-.9-3.1.3-4.6.1-.1.5-.3.4-.4-1.6-4.1-2.8-8.3-5-12,4.3-3,9.4-4.1,14.2-5.9,1.2,1.7.4,3.4,0,5-1.4,5.8-3,11.6-4.3,17.5-.3,1.4-1,3.1-.3,4.5,1.9,3.8,3.9,7.6,5.9,11.3-5.7,10.1-11.3,20.3-16,30.9l-.6.4c-.1-.1-.3-.1-.5,0h-.2c-8.9-8.8-17.9-17.8-26.8-26.7,1.5-5.9,2.8-11.9,4.4-17.7.6-2.2.1-3.6-1.3-5.2-3.1-3.6-5.9-7.3-8.9-11-2.7-3.3-4.8-7.1-8.4-9.6-.8-1.3-2.2-.9-3.3-1-9.6-.6-19.2-1.1-28.8-1.6h0l.4-.3Z"/>
        <path class="cls-1" d="M259.23,276.87c.2-.1.4-.2.6-.4,1.8,0,3.4-.7,5-1.3,7.4-2.8,14.8-5.7,22.2-8.5.6-.4,1-.9,1.3-1.6,4.9-11.9,9.6-23.8,13.7-35.9,0-.1,0-.2-.2-.2.1,0,.2-.1.3-.2h0c.2.2.5.4.7.5,1.1,1.9,2.2,3.7,3.2,5.6,6,11.1,12.5,22,19.4,32.6-1.1.5-2.2.3-3.3.2-10.3-.3-20.6-.5-31-.9-2.7-.1-3.4.6-2.7,3.1,2.2,8.5,4.4,17,6.6,25.4-.3.3-.5.6-.8.8-10.9-6-22.4-10.6-33.4-16.2-1.8-.9-2.9-.7-3.8,1.3-3.3,7.2-6.6,14.3-10.1,21.4-2.1,4.3-3,9.2-6.8,12.6h-.2c-6.4-10.2-12.8-20.3-19.2-30.4-1,.4-.8,1.1-.9,1.6-.9,5.8-1.7,11.7-2.7,17.5-.4,2.6-.8,5.2-2,7.7-8.1-3.6-16.1-7.1-24.1-10.7,5.4-4.4,11.7-7.5,17.5-11.3,3.6-2.4,8-3.7,11.2-6.7.7-.2,1.4-.5,2.1-.5,10.3-.5,20.4-2.5,30.6-3.7,2.1-.2,4.3,0,6-1.6h.2c.1.1.3.1.5,0h0l.1-.2Z"/>
        <path class="cls-1" d="M344.93,130.77c1,.8.8,1.9.8,2.9-1.1,1.1-1.9,2.4-2.4,3.9-4.7,11.4-10.2,22.5-15.1,33.8-1.2,2.6-2.5,3.3-5,3.1-11.3-1.1-22.6-2.2-33.9-3.3-.6-1.1-.8-2.3-.9-3.5-.8-9.5-1.6-19-2.4-28.5-2.3-6.4-4.5-12.7-7.6-18.7-2.4-4.7-4.4-9.5-6.5-14.4-.3-.7-.8-1.2-.1-1.9,1,1.7,3.1,1.8,4.6,2.9,6.5,4.9,13.7,8.7,19.7,14.3.7.6,1.5,1,2.5.7.7.2,1.4.5,2.1.6,10.9,2,21.7,4.1,32.6,6.1,3.9.7,7.8,1.4,11.7,2.2h0l-.1-.2ZM320.53,168.17c.6.4.9,1.8,1.8,1,.8-.7,0-1.4-.4-2.1-3.7-6.9-7.5-13.8-11.1-20.7-3.5-6.8-7.4-13.4-11.4-19.9-1.1-1.8-2.1-1.9-3.3.1-2.2,3.7-4.5,7.2-6.9,10.8-.6.9-.7,1.6.1,2.4,2.5,2.4,4.7,5.2,7.5,7.2,8.6,6.2,15.6,14.3,23.7,21.1v.1Z"/>
        <path class="cls-1" d="M289.33,171.07c11.3,1.1,22.6,2.2,33.9,3.3,2.5.2,3.9-.4,5-3.1,5-11.3,10.5-22.3,15.1-33.8.6-1.4,1.3-2.7,2.4-3.9,1.4,4,1.8,8.2,2.7,12.2,2.9,13.5,4.1,27.3,5.8,41,.3,2.1-.6,4-1.1,6-1.9,8.2-4.1,16.3-6.2,24.4,0,.4-.4.7-.6,1-.6-.7-1.2-1.4-2.2-.7-1-.7-2.3-.7-3.1-1.8-.4-.1-.8-.2-1.1-.3h0c-.4-.3-.8-.6-1.3-.4-.2,0-.3,0-.3-.2-.4-.5-.8-.9-1.5-.7h0c-.4-.3-.8-.7-1.3-.4h0c-2.6-2.2-5.6-3.6-8.8-4.6-1.7-.5-2.1-1.2-.8-2.5,1.1-1.1.9-2.3.9-3.6-.1-4.9-2.2-9.5-2.4-14.4,0-2.6-1-4-3.7-4.7-2.6-.7-3.2,1.1-4.3,2.4-3.6,4.3-7.2,8.6-11.2,12.6-1.2,1.2-2.2,1-2.8-.5-4.1-9.1-9.9-17.4-13.3-26.9,0-.2.1-.4.2-.6h0v.2Z"/>
        <path class="cls-1" d="M344.93,130.77c-3.9-.7-7.8-1.4-11.7-2.2-10.9-2-21.7-4.1-32.6-6.1-.7-.1-1.4-.4-2.1-.6,4.9-13,11.6-25.2,17.3-37.8-.3-.2-.4-.3-.5-.2-9.3,3.1-18,7.6-27.1,11.2-5.2,2-10.2,4.5-15.3,7-1.6.8-2.2.2-2.2-1.5.2-3.9.3-7.8.5-11.7.4-7.9,1-15.7,1.2-23.6,0-3.3.9-6.7-.4-9.9,8.5,4.3,16.4,9.7,24.5,14.6,5.8,3.5,11.4,7.3,17.2,10.7,3.1,1.8,4.3,4.9,6,7.6,8.5,13.6,17,27.2,24.6,41.4.2.4.3.8.4,1.1h.2Z"/>
        <path class="cls-1" d="M272.23,55.37c1.3,3.3.5,6.6.4,9.9-.2,7.9-.8,15.7-1.2,23.6-.2,3.9-.3,7.8-.5,11.7,0,1.7.5,2.3,2.2,1.5,5-2.5,10.1-4.9,15.3-7,9.1-3.6,17.8-8.2,27.1-11.2,0,0,.2,0,.5.2-5.7,12.6-12.5,24.8-17.3,37.8-1,.2-1.8,0-2.5-.7-6-5.6-13.2-9.4-19.7-14.3-1.4-1.1-3.5-1.2-4.6-2.9-.4-.4-.7-.8-1.1-1.1-3.2-1.8-5.8-5.1-10-4.9-.4-.4-.9-.8-1.3-1.2-.5-.6-1.1-.7-1.7-.2-.7-.6-1.5-1.3-2.2-1.9-2-1-3.7-2.6-6.1-2.7-.7-.4-1.4-.8-2.2-1.3h-.9c-.7-.7-1.5-1.3-2.2-2-.5-.3-.9,0-1.3.2-.6-.5-1.2-1.1-1.8-1.6-.2-1.4-3.7-1.3-1.9-3.2,3.2-3.6,6.7-6.9,10.3-10,4.5-4,9.3-7.8,13.9-11.7,1.2-1,1.8-2.3.6-3.4-1.8-1.6-2.4-3.9-3.8-5.8,4,.5,8.1,1,12,2.3h0v-.1Z"/>
        <path class="cls-1" d="M121.93,9.77c5.2-2,10.8-2.3,16.2-3.4,10.1-2,20.4-3.7,30.5-5.7,3.6-.7,6.8,0,9.6,1.9,4,2.5,8.4,4.3,11.7,7.8,1.1,1.2,2.4.8,3.7.4,15.8-4.5,31.8-4,47.9-1.7.3,0,.5.3.8.5-.7,2.3-1.6,4.6-2.7,6.7-1.7,3.4-3,7.1-4.4,10.7-3.8,6.6-6.1,14-10.1,20.5-1.8-.4-2.8-2-4.1-3.2-9.6-9-17.1-19.9-26.4-29.2-2.5-2.4-4.7-3.8-7.9-1.8-3.7-1.3-6.4-4.6-10.5-4.9-1-.9-2.1-1.1-3.4-.5h-1.8c-1.4-.7-2.7-.5-3.9.4-.9-.4-1.6-.2-2.2.4h-.9c-.7,0-1.4-.3-2.1-.2-7.3.9-14.5,1.8-21.8,2.8-.9-.4-1.8-.1-2.7,0-4.4.4-8.8.7-13.3,1-1.8.1-3.2-.3-2.3-2.7h0l.1.2Z"/>
        <path class="cls-1" d="M145.93,135.67c-14.7-14.7-29.4-29.4-44.1-44.2-.8-4.6-2-9.3,1.8-13.2,4.2-2.6,8.2-1.3,12.2.7.9-.6-.2-1.5.4-2.3.2.1.5.2.7.4,11,11.7,22.5,22.9,34.1,34,7.2,7.3,14.3,14.5,21.5,21.8-4.5-1.4-9.1-2.8-13.6-4.2-1.9-.6-3.6-.7-4.8,1.3-3.1,1.5-5.2,4.2-8,6.1,0-.1-.2-.2-.2-.4h0Z"/>
        <path class="cls-1" d="M172.43,132.87c-7.2-7.3-14.3-14.5-21.5-21.8,3.7-1.2,7.7-1.2,11.5-1.8,1.2-.2,2,.4,2.6,1.2,4,5.4,9.6,7.9,15.9,9.6,4.2,1.1,8.2,2.7,12.6,3.9-6-8.6-10.4-18-16.7-26.3,1.1-.9,1.2-2.1.8-3.4.7-1.9.9-3.9,1.2-5.9.6-3.8.2-7.9,2.8-11.3.1-.1.2-.2.4-.2.7.1,1.1-.2,1.4-.8.3-.2.6-.3.8-.5.7.2,1.1-.1,1.4-.7.3-.2.6-.4.8-.6.3-.1.6-.3.9-.4.3-.2.5-.3.8-.5,2.6.3,4-1.7,5.6-3.2h0c1.4.2,1.9-.9,2.6-1.7h0c1.2.3,1.6-.6,2.2-1.3h0c1.3.3,1.7-.7,2.3-1.5,0-.2.1-.2.3-.2.9.3,1.4-.2,1.8-.9h0c2.9-.6,4.9-2.5,7-4.3.1-.1.3-.2.4-.3.8,0,1.3-.4,1.7-1,4.1-2.6,8.1-5.2,12.2-7.8,2.4-.2,3.7-2,5.2-3.5h0c2.3,0,3.7-1.9,5.4-2.9,2.2-1.4,2.6-.3,2.7,1.5-.7.7-1.5,1.5-2.2,2.2,0-.1-.2-.2-.3-.2-1.6-.2-2,1.4-3,2-.6.6-1.4,1.1-1.5,2-.3.3-.6.5-1,.8-.3.2-.7.4-1,.6h0c-.4,0-.9-.4-1.1-.3-3.4,2.1-6.2,4.8-8.6,8-2.5,2.2-4.9,4.3-7.4,6.5-1.8.9-3.5,2-4.9,3.5-6.8,6.8-13.6,13.6-20.4,20.4-1.2,1.2-2.2,2.4-2.4,4.1-.1.2-.3.3-.5.5v.8c2.6,3.8,4.2,8.2,7.2,11.7h0c0,.3.2.6.3.9,4.2,7.5,8.3,15,12.5,22.6v1.3c-9.1-.2-18.4.4-27.6.6-1.1-.5-2.1-1-3.1-1.4h-.1Z"/>
        <path class="cls-1" d="M344.13,217.67c1-.8,1.6,0,2.2.7-1.2,4.6-3.4,8.7-5.2,13.1-4.5,11.2-9,22.4-13.5,33.5-.4,1-1,2-1.4,3-.3-.2-.5-.4-.8-.6-6.9-10.6-13.4-21.5-19.4-32.6-1-1.9-2.1-3.7-3.2-5.6,3.2-.6,6.3-1.4,9.5-1.9,10.5-1.9,20.7-5.1,31-7.4,1.2-.3,2.8-.7.7-2.1h0l.1-.1Z"/>
        <path class="cls-1" d="M240.23,315.17c3.8-3.4,4.7-8.3,6.8-12.6,3.4-7.1,6.8-14.2,10-21.4.9-2,2-2.2,3.8-1.3,11,5.6,22.5,10.2,33.4,16.2-2.7,2.9-6.5,4.3-9.5,6.9-1.9-.3-3.1,1-4.3,1.9-4.9,3.5-10.5,4.8-16.2,5.8-8,1.4-16,2.9-24,4.4h0v.1Z"/>
        <path class="cls-1" d="M219.83,282.77c-3.2,3.1-7.6,4.3-11.2,6.7-5.8,3.8-12.1,6.9-17.5,11.3h-.2l-.1-.2c0-.1-.2-.2-.3-.4-.4-1-.7-1.9-1-2.9-1.9-8.8-5.4-17-7.5-25.7-.1-.5-.7-1-1.1-1.4-.2-1.5-.4-2.9-1.1-4.4-3.3-6.9-6.3-14-9.5-20.9-2.2-4.8-3.8-9.9-6.9-14.2-.2-.7,0-1.2.7-1.4v.3c.6.4,1.1.9,1.7,1.3,5.8,4.1,12.2,7.2,17.5,12,.2.3.3.6.5.9-.2.4-.6.7-.6,1.1-.3,7.6-.6,15.1-.9,22.7,0,1.6,1,1.6,2,1.5,3.6-.2,7.2-.4,10.7-.6,2.6,1.6,5.3,3.1,7.8,4.7,5.5,3.5,11.7,5.8,16.9,9.7h0l.1-.1Z"/>
        <path class="cls-1" d="M260.23,53.17c1.3,1.9,1.9,4.2,3.8,5.8,1.2,1.1.6,2.4-.6,3.4-4.7,3.9-9.4,7.7-13.9,11.7-3.6,3.2-7.1,6.5-10.3,10-1.7,1.9,1.8,1.8,1.9,3.2-2.2.5-3.3-1.2-4.8-2.3,0-2.5.1-5.1.1-7.6.1-9.2.2-18.4-.6-27.6.2-.2.4-.5.5-.7,8,1.1,15.9,2.3,23.8,4h0l.1.1Z"/>
        <path class="cls-1" d="M311.23,301.17c4.6-3.1,8.1-7.4,11.9-11.3,2-2.1,3.2-2.8,5.4-.2,3.2,3.8,7.4,6.7,10.2,11,4.2,4.5,7.2,9.3,5.6,15.8-1,4.2-4,7-6.9,9.8-4.5-3.4-8.3-7.4-12.3-11.3-1.7-2.3-.8-4,1.2-5.6.8-.6,1.8-1.3,1.9-2.6.8-2.1,3.1-3.3,3.3-5.9-3.7,2.6-6.9,5.7-9.8,9.2-.6.8.3,1.5.8,2.1-.1.2-.2.4-.3.6-.5.4-1,.8-1.5,1.2l-1.5-1.5v-2.1c3.4-3.5,7.1-6.7,9.9-10.8-3.7,2.4-6,6.1-9.8,8.3-.2.1-.3.2-.5.4-2.8-1.9-4.5-5-7.5-6.7v-.4h-.1Z"/>
        <path class="cls-1" d="M325.43,267.37c.3.2.5.4.8.6-3.2,3.1-6.3,6.2-9.5,9.3-4.5,3.4-8.3,7.5-12.4,11.3-2.8,2.6-5.9,4.8-9.3,6.7-2.2-8.5-4.4-17-6.6-25.4-.7-2.5,0-3.2,2.7-3.1,10.3.4,20.6.6,31,.9,1.1,0,2.2.3,3.3-.2h0v-.1Z"/>
        <path class="cls-1" d="M235.13,27.07c1.5-3.6,2.7-7.2,4.4-10.7,1.1-2.2,2-4.4,2.7-6.8.3,0,.5.1.8.2h0c2.9.7,5.9,1.4,8.6,2.6,3.5,1.9,7.2,3.4,11.2,4.1h-.1c1.2,1.4,3.1,1.5,4.6,2.4,1.7.9,2.1,1.4.2,2.9-4.9,3.9-10.5,6.5-15.9,9.6-3.2,1.8-5.9,4.4-9.3,5.8-.8-.9-1.6-2-2.8-2.1-2.2-.2-2.7-1.6-3.3-3.5-.5-1.5.6-3.4-1.2-4.5h.1Z"/>
        <path class="cls-1" d="M164.13,229.47v-.3c1.2-2.9,3.5-5,5.5-7.3,5.2-6.1,10.6-12,16-18,9.6.5,19.2,1.1,28.8,1.6,1.2,0,2.5-.3,3.3,1-.2.4-.5.8-.7,1.2-.3.2-.6.4-.8.7-.2,0-.5.2-.7.2-.4.2-.9.3-1.3.5-.6-.2-1,0-1.3.5-4.5,2.3-9.1,4.7-13.6,7-4.7-3.4-9.4-6.9-14.6-10.8.9,6.4.7,12,.6,17.7-1,.4-1.9.9-2.9,1.3-6.1,1.5-12.2,3-18.3,4.5h0v.2Z"/>
        <path class="cls-1" d="M325.13,314.87c4,3.9,7.8,8,12.3,11.3.3.2.5.5.8.7-1.9,2.3-3.9,4.5-6.4,6.2-6.3,4.2-13.1,3.4-18.7-2-1.3-1.3-2.6-2.5-4-3.8l9.2-9.2c-1.4-.9-2.8.8-3.4-.7-.5-1.2.9-1.7,1.4-2.5h.5c1.8,1.7,2.9.2,4-1,.5-.4,1-.8,1.5-1.2.2,1.8,1.6,2,2.9,2.2h-.1Z"/>
        <path class="cls-1" d="M121.93,9.77c-1,2.4.5,2.8,2.3,2.7,4.4-.3,8.8-.6,13.3-1,.9,0,1.8-.3,2.7,0,2.9,5.9,6.9,11.2,10.5,16.7.4,2.4.9,4.8,1.3,7.2-.2.3-.2.6.1.8h0c-.7.7-1.4,1.4-2.1,2.1-.4-.3-.7-.6-1.1-.9-.2-.7-.6-1-1.3-1-4.7-4.1-9.4-8.2-14.6-11.7-.7-.5-1.3-1-2-1.5-.6-1.2-1.7-1.8-2.9-2.3-.3-.2-.7-.5-1.1-.7-.4-.8-1.2-1.2-1.9-1.6-.5-.4-1-.8-1.6-1.2-.5-1-1.5-1.4-2.4-1.8-.7-.5-1.3-1-2-1.5-.7-.6-1.3-1.3-2-2,.2-.8.9-1,1.6-1.3h-.1c.9-.7,2-.9,3.2-1.1h0l.1.1Z"/>
        <path class="cls-1" d="M134.23,33.77c.5.5,1,.9,1.5,1.4,0,.3.1.4.4.3,7.2,5.9,14.3,11.9,20.6,18.7.7,2.3,2.9,3.3,4.2,5,.8,1,1.4,1.8.6,3.2-2.7,4.8-5.4,9.7-7.3,15-.4,1.2-1.1,2.2-1.9,3-2.5-5.7-3.1-12-4.8-17.9-1.7-6.2-2.6-12.5-4.8-18.6.5-1.3-.5-1.5-1.2-2-2.5-1.7-5.2-3-7.3-5.2,0-1.6-1.2-2.8-2.3-4.4,1.2.7,1.8,1.1,2.5,1.5h-.2Z"/>
        <path class="cls-1" d="M134.03,36.77c2.1,2.3,4.8,3.6,7.3,5.2.7.5,1.8.7,1.2,2-2.1.5-3,2.1-4,3.8-1.7,2.7-2.8,5.8-5.3,8-5-6.3-9.1-13.3-13.3-20.2-2.6-4.2-4.9-8.7-7-13.2-.5-1.1-1.3-2.3.6-3,.9,1,1.7,2.1,2.7,2.9,4.9,4.1,9.9,8.1,14.9,12.2.6.6,1.1,1.5,2.1,1.4.3.3.6.5.9.8h0l-.1.1Z"/>
        <path class="cls-1" d="M215.33,311.47c1.2-2.4,1.6-5,2-7.7.9-5.8,1.8-11.7,2.7-17.5,0-.6,0-1.3.9-1.6,6.4,10.1,12.8,20.3,19.2,30.4-8.3-1-16.6-1.7-24.8-3.6h0Z"/>
        <path class="cls-1" d="M163.43,230.67c3.1,4.4,4.7,9.5,6.9,14.2,3.2,6.9,6.2,14,9.5,20.9.7,1.5.9,2.9,1.1,4.4,0,.2-.2.3-.4.4-5.4-5.8-12.8-8.6-19.7-12-.9-.6-.9-1.5-.7-2.5,1.5-8.4,2.1-17,3.2-25.5h0l.1.1Z"/>
        <path class="cls-1" d="M103.53,78.27c-3.9,4-2.7,8.6-1.8,13.2-.3-.3-.7-.5-1-.8-.8-.9-1.7-1.8-2.5-2.7-8.8-9.3-18.5-17.6-26.7-27.6.4-.6.8-1.3,1.2-1.9h.5c9.6,6.1,19.2,12.1,28.8,18.2.6.4.9,1,1.4,1.6h.1Z"/>
        <path class="cls-1" d="M236.43,49.07c-.2.2-.4.5-.5.7-4.3,1.4-6.9,5.2-10.3,7.8-1.7,1.3-4.4,2.3-4.7,4.4-.3,2.4,2.2,3.6,4.1,4.9.2.2.2.6.4.8,3.4,3,3,7.9,5.8,11.2,1.4,1.6.9,2.7-.5,3.8-8.3-3-16.6-6.1-24.9-9.1,1.9-1.9,3.8-3.8,5.7-5.7,2.5-2.2,4.9-4.3,7.4-6.5,3.7-2,6.6-4.9,9.7-7.8h0c.5.1.9,0,1-.6.3-.3.6-.5,1-.8.6-.6,1.3-1.1,1.9-1.7.8-.9,2.1-1.2,2.6-2.4.1,0,.3,0,.3.2.4.2.8.5,1.1.7h0l-.1.1Z"/>
        <path class="cls-1" d="M88.23,93.47c-1.4,3-1.2,6.1,0,9.2.5,1.4.4,2.3-1.1,2.8-2.1-1.4-2.7-3.7-3.9-5.7-6.3-11.1-12.5-22.2-18.8-33.3,1.4-1,2.2-2.9,4.2-2.9,2.6,3.7,5.3,7.4,7.8,11.2,4,6.2,7.9,12.5,11.8,18.8h0v-.1Z"/>
        <path class="cls-1" d="M152.23,80.47c.9-.9,1.5-1.9,1.9-3,1.9-5.2,4.6-10.1,7.3-15,.8-1.4.3-2.2-.6-3.2-1.4-1.7-3.6-2.7-4.2-5,7.8,6.9,13.9,15.2,20.5,23.1-2.7,1.4-5.6,1.6-8.5,1.9-5,.6-10,1.1-15,2.2h0c-.3,0-.6,0-.8.1h0c-.2-.4-.4-.7-.6-1.1h0Z"/>
        <path class="cls-1" d="M295.13,295.27c3.4-1.9,6.5-4.1,9.3-6.7,4.1-3.8,7.9-8,12.4-11.3.3.5.7,1,1,1.5-1,0-1.7.1-2.5,1.2-3.2,4.1-6.8,7.9-11,10.9-1.4,1-1.3,1.8-.2,2.9,1.4,1.4,2.7,2.8,4.1,4.2-1.4,1.4-2.7,2.8-4.1,4.3-.5.5-1.1,1.1-1.6,1.7-.4.5-.8.9-1.3,1.4-2.2,2-4.7,3.8-6,6.6-1,1.3-1.6,0-2.1-.5-2.8-2.7-5.5-5.5-8.2-8.2,2.9-2.6,6.8-4,9.5-6.9.3-.3.5-.6.8-.8h0l-.1-.3Z"/>
        <path class="cls-1" d="M152.23,80.47c.2.4.4.8.6,1.1,0,.1-.2.3-.3.4-5.3-5.3-8.8-12-13.4-17.9-2.1-2.7-3.9-5.5-5.9-8.3,2.5-2.2,3.7-5.3,5.3-8,1-1.7,1.9-3.3,4-3.8,2.2,6,3.1,12.4,4.8,18.5,1.7,6,2.3,12.2,4.8,17.9h0l.1.1Z"/>
        <path class="cls-1" d="M153.63,81.37c4.9-1.2,10-1.7,15-2.2,2.9-.3,5.9-.5,8.5-1.9.9.2,1.8.3,2.7-.2h1.7c-2.5,3.4-2.2,7.5-2.8,11.3-.3,2-.5,4-1.2,5.9-1.2,1-2.4.6-3.4,0-6.8-4.3-13.3-9.1-20.5-12.7h0v-.2Z"/>
        <path class="cls-1" d="M311.23,301.57c3,1.7,4.7,4.8,7.5,6.7-1.5,1.5-1,2.7.4,3.9v.3c-.8.8-1.6,1.6-2.4,2.5h-.5c-3.9-.7-6.2,1.8-8.4,4.3-.9,1-1.7,2.3-2.5,3.4-2.9-1.8-5.1-4.3-7.2-6.8.9-.9,1.8-1.7,2.6-2.6,1.2-1.5,3.5-2.3,3.2-4.8.6-.6,1.1-1.2,1.7-1.7.8,0,1.2-.4,1.2-1.2,1.5-1.3,3-2.6,4.4-3.9h0v-.1Z"/>
        <path class="cls-1" d="M180.63,270.57c.1-.1.3-.2.4-.4.4.5.9.9,1.1,1.4,2.2,8.7,5.6,17,7.5,25.7-.3.4-.6.7-.9,1.1-.2-.2-.5-.3-.7-.5-.7-2.4-2.4-3.9-4.7-4.8-2.9-2.9-5.7-5.8-8.6-8.6-.7-.6-1.2-1.8-2.5-1.1-.6-.2-.6-.8-.6-1.3,3.6-3.4,5.9-7.8,9.1-11.6h0l-.1.1Z"/>
        <path class="cls-1" d="M180.63,270.57c-3.2,3.8-5.5,8.1-9.1,11.6-2.2-3-3.1-6.6-4.6-9.9-2.1-4.5-4-9.1-6-13.6,6.9,3.4,14.2,6.1,19.7,12h0v-.1Z"/>
        <path class="cls-1" d="M308.03,297.87c-1.4-1.4-2.7-2.8-4.1-4.2-1.1-1.1-1.2-1.9.2-2.9,4.2-3,7.8-6.9,11-10.9.8-1,1.6-1.1,2.5-1.2,1,.7,1.9,1.5,2.6,2.6,0,1.2.5,1.8,1.7,1.8.3,1.2-.8,1.5-1.3,2.1-4.1,4.2-8.2,8.4-12.3,12.6h-.4l.1.1Z"/>
        <path class="cls-1" d="M73.33,58.47h-.5c-.2-.4-.6-.6-1-.4-1-.7-2.1-1.3-2.9-2.2-4.3-3.9-8.6-7.9-12.9-11.8-1.1-1.3-2.4-2.3-3.8-3.3-.9-.7-2.7-1.3-1.7-3.2,8.8,4.3,17,9.7,25.6,14.4,1.2.7.9,1.4.3,2.2-1,1.4-2,2.8-3,4.3h-.1Z"/>
        <path class="cls-1" d="M50.43,37.67c-1,1.9.8,2.5,1.7,3.2,1.4,1,2.7,2.1,3.8,3.3-.5.9-.7,1.8.2,2.5,1.8,1.5,3.2,3.5,4.3,5.4,1.9,3.1,5.4,4.9,6.5,8.6.4,1.3,1.5,1.3,2.4.5,1-.8,2-1.7,2.4-3.1.5-.1.8,0,1,.4-.4.6-.8,1.3-1.2,1.9-1.2.8-2.2,1.8-3,3-2.1,0-2.9,1.9-4.2,2.9-4.4-6.4-7.6-13.4-11.6-20-2.2-3.5-4.2-7.1-6.5-11,2,.2,3.1,1.3,4.2,2.3h0v.1Z"/>
        <path class="cls-1" d="M178.63,74.57c-3.9-6.3-7.8-12.8-12.3-18.7.6-.7,1.7-1.2,1.1-2.5.2-.3.5-.6.7-.9,1,0,.9-.7.6-1.4.1-.2.2-.4.3-.5.2-.3.5-.6.8-.9.6-.2,1.2-.2,1.8.1,2.4,4.4,3.5,9.3,4.9,14.1,1,3.5,2.7,6.8,2.4,10.6h-.2l-.1.1Z"/>
        <path class="cls-1" d="M123.73,17.37c.5.4,1,.8,1.6,1.2.2,1.1.7,1.8,1.9,1.6.3.2.7.5,1,.7.6,1.2,1.3,2.4,2.9,2.3.7.5,1.3,1,2,1.5.3,1.3,1.4,1.9,2.4,2.7,6.2,5,12.4,9.9,17.8,15.8-11.4-8.7-22.8-17.4-34.2-26-1.4-1.1-2.2-2.4-1.9-4.2.6.5,1.1,1.4,2.1,1.1.7.5,1.3,1,2,1.5.3,1.3,1.2,1.8,2.4,1.8h0Z"/>
        <path class="cls-1" d="M305.33,322.67c.8-1.1,1.6-2.3,2.5-3.4,2.2-2.5,4.5-5,8.4-4.3-.5.8-1.9,1.3-1.4,2.5.7,1.4,2-.2,3.4.7l-9.2,9.2c-.8-1.9-3.6-2.3-3.8-4.7h.1Z"/>
        <path class="cls-1" d="M134.03,36.77c-.3-.3-.6-.5-.9-.8-.6-.7-1.1-1.5-2.1-1.4-5-4.1-9.9-8.1-14.9-12.2-1-.8-1.8-1.9-2.7-2.9,2.2-1.2,4,.4,5.2,1.4,4.7,4.1,9.9,7.7,14.6,11.8.4.3.7.8,1,1.2-.7-.4-1.3-.8-2.5-1.5,1.1,1.7,2.2,2.8,2.3,4.4h0Z"/>
        <path class="cls-1" d="M153.63,81.37c7.2,3.6,13.7,8.4,20.5,12.7,1,.7,2.2,1.1,3.4,0,.4,1.3.3,2.5-.8,3.4-8.1-5.2-16.2-10.4-24.3-15.7.1-.1.2-.3.3-.4h.9Z"/>
        <path class="cls-1" d="M167.43,53.37c.6,1.2-.5,1.7-1.1,2.5-3.4-3.4-6.7-6.7-10.1-10.1-1.3-3.2-4.7-4.5-6.2-7.5.7-.7,1.4-1.3,2.1-2,2.7,4.7,6.3,8.5,11.1,11.2-1,.5-1.9-.7-3.1.1,1.3,1.9,2.5,3.8,4.1,5.5,1.1,1.1,2,1.1,3.2.3h0ZM158.73,46.27c.2-.2.2-.3-.1-.3,0,0,0,.1-.1.2,0,0,.2,0,.2.1h0Z"/>
        <path class="cls-1" d="M303.93,308.37c.2,2.5-2,3.3-3.2,4.8-.8.9-1.7,1.7-2.6,2.6,0-2-1.5-3-3-4,1.4-2.8,3.8-4.5,6-6.6.9,1,1.9,2.1,2.8,3.1h0v.1Z"/>
        <path class="cls-1" d="M338.13,326.87c-.3-.2-.5-.5-.8-.7,2.9-2.9,5.9-5.7,6.9-9.8,1.6-6.5-1.5-11.4-5.6-15.8,7.7,4.6,9.9,14.7,3.6,22.2-1.2,1.5-2.8,2.7-4.1,4.1h0Z"/>
        <path class="cls-1" d="M308.03,297.87h.4c.9,1.1,1.9,2.2,2.8,3.2,0,.1.1.3,0,.5-1.5,1.3-3,2.6-4.4,3.9-1-1.1-1.9-2.2-2.9-3.2,1.4-1.4,2.7-2.8,4.1-4.3h0v-.1Z"/>
        <path class="cls-1" d="M181.53,76.97h-1.7c-.2-.4-.4-.8-.6-1.3.1,0,.2-.2.3-.4.2-.1.4-.3.6-.4,1.1,1,2,.2,3-.3,7.8-3.9,14.8-9.3,22.5-13.3-1,1-2,2-3,2.9h0c-.8,0-1.3.4-1.8.9-.1,0-.2,0-.3.2-1,.2-1.7.8-2.3,1.5h0c-1,0-1.6.6-2.2,1.3h0c-1.2.1-1.9,1-2.6,1.7h0c-2.2.5-3.8,2.1-5.6,3.2-.3.2-.5.3-.8.5-.3.1-.6.3-.9.4-.3.2-.6.4-.8.6-.6,0-1,.2-1.4.7-.3.2-.6.3-.8.5-.6,0-1,.3-1.4.8-.1,0-.3.1-.4.2h0l.2.3Z"/>
        <path class="cls-1" d="M242.33,38.97c.2-.2.4-.3.6-.5.9.2,1.9,0,2.6.9-.4.5-.9.8-1.6.6-.2.2-.4.4-.7.6-2,1.8-3.4,4.2-5.8,5.6-.1-1.9-.5-2.9-2.7-1.5-1.7,1.1-3.2,2.8-5.4,2.9,3.4-2.9,7.4-4.9,11-7.4,1,0,1.4-.7,2-1.2h0Z"/>
        <path class="cls-1" d="M150.03,38.27c1.5,3,4.9,4.3,6.2,7.5-1-.9-2-1.8-3-2.6-5.4-5.9-11.6-10.8-17.8-15.8-.9-.8-2.1-1.3-2.4-2.7,5.2,3.5,9.9,7.5,14.6,11.7l1.3,1c.4.3.7.6,1.1.9h0Z"/>
        <path class="cls-1" d="M247.73,35.47c2.7-2,5-4.7,8.8-4.9-2.3,2.7-5.2,4.5-8,6.5-.4-.5,1.4-2-.7-1.6h-.1Z"/>
        <path class="cls-1" d="M263.03,16.57c-4-.7-7.7-2.2-11.2-4.1,3.8,1.2,7.7,2.1,11.2,4.1Z"/>
        <path class="cls-1" d="M172.13,283.47c1.3-.7,1.8.5,2.5,1.1,2.9,2.8,5.8,5.7,8.6,8.6h0c-.1.1-.3.2-.4.3-3.6-3.4-7.1-6.7-10.7-10.1h0v.1Z"/>
        <path class="cls-1" d="M247.73,35.47c2.2-.3.4,1.1.7,1.6-.7.6-1.4,1.1-2,1.7-.8-.9-.5-1.8.3-2.5.3-.3.7-.5,1-.8Z"/>
        <path class="cls-1" d="M183.23,293.17c2.3.9,3.9,2.4,4.7,4.8l-.2.2c-.4-.4-.9-.9-1.4-1.3-.5-1.7-2.1-2.5-3.1-3.7h0Z"/>
        <path class="cls-1" d="M246.73,36.27c-.8.8-1.1,1.6-.3,2.5-.3.2-.6.4-.9.6-.7-.8-1.7-.7-2.6-.9,1-1.2,2.2-1.9,3.8-2.2h0Z"/>
        <path class="cls-1" d="M183.23,293.17c1.1,1.2,2.7,2,3.1,3.7-1.2-1.1-2.4-2.3-3.5-3.4.1-.1.2-.2.4-.3h0Z"/>
        <path class="cls-1" d="M187.73,298.17l.2-.2c.2.2.5.3.7.5.6.6,1.3,1.2,1.9,1.8.1.1.2.2.3.4-1.6-.1-2.2-1.5-3.1-2.4h0v-.1Z"/>
        <path class="cls-1" d="M322.03,283.17c-1.2,0-1.7-.6-1.7-1.8.7.5,1.4,1,1.7,1.8Z"/>
        <path class="cls-1" d="M119.33,14.07c-1,.2-1.5-.6-2.1-1.1,0-.3.1-.5.2-.8.7.6,1.3,1.3,2,2h0l-.1-.1Z"/>
        <path class="cls-1" d="M243.33,40.57c.2-.2.4-.4.7-.6.4.9-.5.3-.7.6Z"/>
        <path class="cls-1" d="M179.63,75.47c0,.2-.2.3-.3.4-.2-.4-.4-.8-.6-1.2h.2c.2.3.5.6.7.9h0v-.1Z"/>
        <path class="cls-1" d="M118.83,10.87h.1-.1Z"/>
        <path class="cls-1" d="M136.13,35.47c-.3,0-.4,0-.4-.3.2,0,.3.1.4.3Z"/>
        <path class="cls-1" d="M214.23,174.97c4.6,3.7,8.4,8.1,12.6,12.2-5.1,3.5-10.3,7-15.4,10.5-.8.3-2.3.1-.9,1.6.9.9,1.8,1.9,2.4,3.1l-42.1-42.1c6.4,1.8,12.4,2.4,18.4,3.7,2.4.5,4.7.3,7,.5,4.5.5,8.7,1.5,12,5.3,1.7,2,3.1,4.6,6.1,5.2h-.1Z"/>
        <path class="cls-1" d="M265.03,225.67c-1.2,1.5-.5,3.1-.3,4.6,1.2,8.5,2.4,16.9,3.6,25.4,0,.5,0,1-.1,2.2l-18.5-18.5-18.4-18.4c6,.9,11.5,1.7,17.1,2.7,1.7.3,2.9.1,3.6-1.3,1.1-2.2,3.1-3.6,4.7-5.2,2.9,2.7,5.9,5.3,8.3,8.5h0Z"/>
        <path class="cls-1" d="M206.13,151.47c-3.9,1.7-8.1,1.8-12.2,2.8-5.8-.7-11.7-1.4-17.5-2.1-4.6-.5-9.1-.4-13.6-1.4.1-1.9,1.8-2.6,2.8-3.9,3.1-4,6.7-7.6,9.2-12.1.1,0,.3-.1.4-.2,3.9,6.5,10.2,10.8,14.7,16.8,1,1.3,1.7.8,2.5-.4,2.3-3.8,4.6-7.5,7.1-11.1,1.1-1.7,1.8-3.9,4-4.6.3,3.2.6,6.4.9,9.6.2,2.3,0,4.7,1.8,6.5h0l-.1.1Z"/>
        <path class="cls-1" d="M287.03,266.67c-7.4,2.8-14.8,5.7-22.2,8.5-1.6.6-3.2,1.3-5,1.3,4.7-10.6,10.3-20.8,16-30.9h.1c0,.1.1.3.1.3,3.6,6.9,7.3,13.8,10.9,20.7h0l.1.1Z"/>
        <path class="cls-1" d="M217.03,207.77c.2-.4.5-.8.7-1.2,3.6,2.5,5.7,6.3,8.4,9.6,3,3.6,5.8,7.4,8.9,11,1.4,1.6,1.9,3,1.3,5.2-1.6,5.9-3,11.8-4.4,17.7h-.1c-1.4-.7-2.8-1.4-4.1-2.1,0-.2,0-.4-.1-.7,2.2-2.5,3.1-5.7,4.3-8.7,1-2.5,3.1-4.6,2.6-7.6.9-1.6-.6-1.4-1.3-1.6-3.5-1.3-7.2-2.2-10.9-2.8-2.1-.3-2.8-1.1-3-3.3-.4-4.9,0-10-1.6-14.8-.1-.2-.2-.5-.4-.8h0l-.3.1Z"/>
        <path class="cls-1" d="M247.83,208.57c-2.9.4-5.5-1-8.2-1.7-4.6-1.2-9.1-2.8-13.7-4.1,1-.6,1.9-1.1,2.9-1.6,2.9-1.6,6.2-2,8.8-4.1h.9c3.9-1.9,7.8-3.7,11.7-5.6.7,1,2.4,1.4,1.9,3.2-1.5,4.7-2.9,9.4-4.4,14h0l.1-.1Z"/>
        <path class="cls-1" d="M274.63,207.37c-4.8,1.8-9.9,2.9-14.2,5.9-.2-.1-.5-.2-.7-.3,0-.7.1-1.4,0-2.1-1.1-5-2.5-10-3.4-15.1-.3-2-.4-4.3-2.2-5.9.3-.3.6-.6.9-.9.1-.2.3-.2.6-.2,1.4,1.4,2.8,2.7,4.3,3.9,5.6,4.4,11.2,8.9,16.4,13.7-.6.3-1.2.7-1.8,1h.1Z"/>
        <path class="cls-1" d="M274.63,207.37c.6-.3,1.2-.7,1.8-1,.1.1.3.2.5.2.2.3.4.6.6.9-.6,1.1-.4,2.4-.4,3.6.1,5.3.3,10.6.4,15.9,0,4.5,0,9-.8,13.4-.3,1.7-.7,3.4,2.3,1.7,2.7-1.4,5.1-3.2,7.7-4.7,4.7-2.6,8.9-6.1,13.9-7.9h0c-1,1.2-2.1,2-3.4,2.7-7.1,4.5-14.2,9.1-21.2,13.7h-.1c0-.1-.1-.3-.1-.3-2-3.8-4-7.5-5.9-11.3-.7-1.4,0-3.1.3-4.5,1.3-5.9,2.9-11.6,4.3-17.5.4-1.6,1.2-3.3,0-5h0l.1.1Z"/>
        <path class="cls-1" d="M237.63,196.97c-2.6,2-6,2.5-8.8,4.1-1,.5-1.9,1.1-2.9,1.6-5-1.4-9.9-2.9-14.6-4.9,5.1-3.5,10.3-7,15.4-10.5.3.1.6.3,1,.4,2.9,3.5,6.6,6.2,9.9,9.3h0Z"/>
        <path class="cls-1" d="M160.83,151.07c-7.4.8-14.9,1.7-22.4.9,2.3-3.1,5.7-4.7,8.7-7,2.9-2.2,5.4-4.7,7.9-7.3h.8c1.9,4.4,4.1,8.6,5.1,13.4h-.1Z"/>
        <path class="cls-1" d="M160.83,151.07c-.9-4.7-3.2-9-5.1-13.4.3-.2.6-.5.8-.7.2,0,.3,0,.5.2.5.3.9,0,1.3-.3,5.4-1.2,10.9-1.6,16.4-1.8-2.5,4.5-6.1,8.1-9.2,12.1-1,1.2-2.7,2-2.8,3.9-.6.4-1.3.4-1.9.1h0v-.1Z"/>
        <path class="cls-1" d="M254.13,189.87c1.8,1.6,1.9,3.9,2.2,5.9.8,5.1,2.3,10,3.4,15.1.1.7,0,1.4,0,2.1-3.6-.5-6.7-2.7-10.3-3.3-.7,0-1.2-.6-1.6-1.1,1.5-4.7,2.9-9.4,4.4-14,.6-1.8-1.2-2.1-1.9-3.2,1.1-1,2.5-1.1,3.9-1.5h-.1Z"/>
        <path class="cls-1" d="M155.03,137.77c-2.4,2.6-5,5.1-7.9,7.3-3,2.2-6.4,3.9-8.7,7h-.1c-.5-.5-.9-.2-1.2.2-1.2-.5-.8-1.4-.4-2,3-4.4,5.3-9.2,8.6-13.4,3.1,1.6,6.5.2,9.7.9h0Z"/>
        <path class="cls-1" d="M155.03,137.77c-3.2-.8-6.6.6-9.7-.9,0-.2.1-.3.3-.4.2,0,.3-.2.4-.4,2.8-1.9,4.9-4.6,8-6.1,1.7,2,.8,5,2.5,7-.3.2-.6.5-.8.7h-.8l.1.1Z"/>
        <path class="cls-1" d="M137.13,152.17c.4-.4.7-.7,1.2-.2-.4.3-.8.4-1.2.2Z"/>
        <path class="cls-1" d="M146.13,136.07c-.1.2-.3.3-.4.4,0-.2.1-.5.2-.7,0,.1.2.2.2.4h0v-.1Z"/>
        <path class="cls-1" d="M259.23,276.87c-.2.2-.4.2-.5,0h.5Z"/>
        <path class="cls-1" d="M344.13,217.67c2.1,1.4.6,1.8-.7,2.1-10.4,2.4-20.6,5.5-31,7.4-3.2.6-6.4,1.3-9.5,1.9-.2-.1-.5-.3-.7-.5,1-2.2.8-4.4.6-6.7.2-5.8.4-11.6.6-17.4.1-4.1.4-4.1,3.9-2.4,9.1,4.6,18.7,8.2,28.3,11.7h0c.4.3.8.6,1.3.4h0c.4.4.9.7,1.5.7,0,.2.1.2.3.2.4.1.9.3,1.3.4h0c.4,0,.8.2,1.1.3.8,1,2.1,1.1,3.1,1.8l-.1.1Z"/>
        <path class="cls-1" d="M277.43,207.47c-.2-.3-.4-.6-.6-.9,2-4.6,3.7-9.3,5.9-13.8,1.7-3.3,2.5-7.1,5.6-9.7,2.8,7.8,4.8,15.8,7,23.7,2.1,7.3,3.6,14.8,6.9,21.8,0,0-.2.1-.3.2-.1-.1-.3-.1-.5-.1-1.6-.9-2.9-2.2-4.2-3.5-6.3-6.2-12.9-12.2-19.8-17.8h0v.1Z"/>
        <path class="cls-1" d="M276.23,245.87c7.1-4.6,14.1-9.1,21.2-13.7,1.2-.8,2.4-1.6,3.4-2.6.5-.2.9-.4,1.3-.6-4.1,12.1-8.8,24.1-13.7,36-.3.7-.7,1.2-1.3,1.6-3.6-6.9-7.3-13.8-10.9-20.7h0Z"/>
        <path class="cls-1" d="M302.23,228.67c-3.2-7-4.8-14.5-6.9-21.8-2.2-7.9-4.2-16-7-23.7,0-1.9-1-2.6-2.7-2.1-10,2.6-20,5.2-29.9,7.8-.2,0-.4,0-.6.2-1.6-1-3.6,1.3-5.1-.7,4.9-2.3,10.4-3.2,15.4-5.1.9-.3,1.9-.6,2.8-.9,3,1.3,5.6.2,8.1-1.4.2-.1.4-.3.6-.4.6.5,1.1.5,1.6,0h.1c3,.4,5.8,0,8.2-2.2,2.1-.8,2.7.5,3.3,2.2,4.5,12.5,8.1,25.2,10.7,38.3.3,1.4.9,2.4,2,3.3.2,2.3.4,4.5-.6,6.7h0v-.2Z"/>
        <path class="cls-1" d="M302.13,229.07c-.5.2-.9.4-1.3.6h0c.2-.4.5-.7.7-.9.2,0,.3,0,.5.1.1,0,.2.1.2.2h-.1Z"/>
        <path class="cls-1" d="M289.33,171.07c0,.2-.1.4-.2.6-4.4-.9-8.7-1.9-13.1-2.7-6.4-1.2-12.7-3-19.2-3.6-.3-.5-.6-1-.9-1.5-.4-4-.8-8.1-1.1-12.1-.3-4.2-1.6-8.4-.8-12.6,7.7,0,15.3.2,23,0,3,0,6.1,1.2,9-.2.8,9.5,1.6,19,2.4,28.5.1,1.2.2,2.4.9,3.5h0v.1Z"/>
        <path class="cls-1" d="M286.03,139.07c-3,1.3-6,0-9,.2-7.7.2-15.3,0-23,0v-.4c1.1-.9,1.1-2.4,1.6-3.5,1.6-3.8,3.7-7.4,4.7-11.5,4-6,6.7-12.5,8.9-19.3.4-1.2-.2-1.7-1.1-2.2-2.5-1.4-4.9-2.9-7.4-4.3,4.2-.2,6.8,3.1,10,4.9.4.2.7.7,1.1,1.1-.7.7-.2,1.3.1,1.9,2.1,4.8,4.1,9.7,6.5,14.4,3,6,5.3,12.4,7.6,18.7h0Z"/>
        <path class="cls-1" d="M320.53,168.17c-8.2-6.7-15.1-14.8-23.7-21.1-2.8-2-5-4.8-7.5-7.2-.8-.8-.7-1.5-.1-2.4,2.4-3.6,4.7-7.1,6.9-10.8,1.2-2,2.3-1.9,3.3-.1,4,6.5,7.9,13.1,11.4,19.9,3.6,6.9,7.4,13.8,11.1,20.7.4.7,1.3,1.4.4,2.1-.9.8-1.3-.6-1.8-1v-.1Z"/>
        <path class="cls-1" d="M256.83,165.47c6.5.6,12.8,2.4,19.2,3.6,4.4.8,8.8,1.8,13.1,2.7,3.4,9.5,9.2,17.8,13.3,26.9.7,1.5,1.6,1.7,2.8.5,4-3.9,7.5-8.3,11.2-12.6,1.1-1.3,1.8-3.1,4.3-2.4,2.7.7,3.6,2.1,3.7,4.7.2,4.9,2.3,9.5,2.4,14.4,0,1.4.3,2.6-.9,3.6-1.3,1.3-1,2,.8,2.5,3.2.9,6.2,2.4,8.8,4.6-9.6-3.6-19.1-7.2-28.3-11.7-3.5-1.8-3.8-1.7-3.9,2.4-.2,5.8-.4,11.6-.6,17.4-1-.9-1.7-1.9-2-3.3-2.6-13-6.2-25.8-10.7-38.3-.6-1.7-1.2-3-3.3-2.2-2.9.2-5.7.3-8.2,2.2h-.1c-.6-.5-1.1-.6-1.6,0-.2.1-.4.3-.6.4-3-1.5-5.5.1-8.1,1.4-.9.3-1.9.6-2.8.9-3.2-5.7-6.3-11.5-8.6-17.6h0l.1-.1Z"/>
        <path class="cls-1" d="M336.93,214.37c-.5.2-1-.1-1.3-.4.6-.2,1,0,1.3.4Z"/>
        <path class="cls-1" d="M338.43,215.07c-.6,0-1.1-.2-1.5-.7.7-.2,1.1.2,1.5.7Z"/>
        <path class="cls-1" d="M339.93,215.67c-.4-.1-.9-.3-1.3-.4.5-.2.9,0,1.3.4Z"/>
        <path class="cls-1" d="M341.03,215.97c-.4-.1-.8-.2-1.1-.3.4.1.8.2,1.1.3Z"/>
        <path class="cls-1" d="M260.73,98.07c2.5,1.4,4.9,2.9,7.4,4.3.8.5,1.5.9,1.1,2.2-2.2,6.8-4.9,13.3-8.9,19.3-1.4-.6-3.1-.6-4.2-1.7-2.5-2.6-4.8-5.4-6.6-8.5-.8-1.4-1.4-1.5-2.8-1-5.1,1.8-10.3,3.2-15.4,4.9-1.4.4-2.4.4-2.9-1.2v-1.6c.1-.8.3-1.6.5-2.4,2-8.7,4.6-17.2,6.1-26,.4-.4.9-.9,1.3-1.3,1.4,1.1,2.6,2.8,4.8,2.3.6.5,1.2,1.1,1.8,1.6.5.2.9,0,1.3-.2.7.7,1.5,1.3,2.2,2h.9c.7.4,1.4.8,2.2,1.3,1.8,1.3,3.2,3.7,6.1,2.7.7.6,1.5,1.3,2.2,1.9.5.7,1.1.7,1.7.2.4.4.9.8,1.3,1.2h-.1Z"/>
        <path class="cls-1" d="M255.43,94.77c-2.9,1-4.2-1.4-6.1-2.7,2.4.1,4.1,1.7,6.1,2.7Z"/>
        <path class="cls-1" d="M259.43,96.87c-.6.4-1.2.4-1.7-.2.6-.4,1.2-.4,1.7.2Z"/>
        <path class="cls-1" d="M244.13,88.67c-.4.3-.8.5-1.3.2.4-.3.8-.6,1.3-.2Z"/>
        <path class="cls-1" d="M247.23,90.77h-.9.9Z"/>
        <path class="cls-1" d="M179.63,75.47c-.2-.3-.5-.6-.7-.9.3-3.8-1.4-7.2-2.4-10.6-1.4-4.8-2.5-9.7-4.9-14.1.3-.2.5-.5.8-.7.3,0,.6,0,.8-.1h0c.4.3.8.5,1.2,0,.5-.3.9-.6,1.4-.8.3,0,.6,0,.9-.2,1.9-.6,3.6-1.4,5.1-2.8.7-.5,1.7-.6,2.2-1.5.3-.2.6-.5.9-.7,4.2-2.2,6.6-5.6,7.1-10.4.1-.4.3-.9.4-1.3.8-1.1.8-2.3,0-3.5h0c.5-2.5-.2-4.7-1.5-6.7-3.7-5.9-9.2-9.4-15.5-11.9.2-.3.5-.6.8-.8,4.1.4,6.8,3.6,10.5,4.9,4.7,4.2,8.1,9.1,8.5,15.7-.1.5-.4,1-.5,1.5-3,15.4-8.8,29.8-14.4,44.3l-.6.4h0l-.1.2Z"/>
        <path class="cls-1" d="M195.13,29.27c-.4-6.6-3.8-11.5-8.5-15.7,3.2-2.1,5.4-.7,7.9,1.8,9.3,9.2,16.8,20.1,26.4,29.2,1.2,1.2,2.2,2.7,4.1,3.2.2.2.3.3.5.5-.3.2-.6.5-.8.8-.8-.5-1.7-.8-2.3-1.5-4.6-4.3-10-7.3-15.4-10.6-4-2.5-8.4-4.3-11.9-7.6h0v-.1Z"/>
        <path class="cls-1" d="M150.63,28.17c-3.6-5.5-7.6-10.8-10.5-16.7,7.3-.9,14.5-1.9,21.8-2.8.7,0,1.4.1,2.1.2v.4c-3.8,1.4-6.6,4-8.7,7.4-2.1,2.4-3.4,5-3.5,8.2-.3.4-.5.8-.3,1.3h0c0,.4,0,.7-.1,1-.2.1-.2.3-.2.5l-.5.5h-.1Z"/>
        <path class="cls-1" d="M225.53,48.17c-.2-.2-.3-.3-.5-.5,4.1-6.5,6.3-13.9,10.1-20.5,1.8,1.1.7,3,1.2,4.5.6,1.9,1,3.3,3.3,3.5,1.3.1,2,1.2,2.8,2.1-4.7,3.3-9.5,6.5-14.2,9.8-.9.6-1.7,1.1-2.8,1h0l.1.1Z"/>
        <path class="cls-1" d="M176.23,8.67c-.2.3-.5.6-.8.8-.9-.3-1.8-.6-2.7-.9v-.4c1.2-.6,2.4-.4,3.4.5h.1Z"/>
        <path class="cls-1" d="M167.13,8.57c1.2-.9,2.5-1.1,3.9-.4v.4c-1.3.3-2.6.7-3.9.4v-.4Z"/>
        <path class="cls-1" d="M164.93,8.97c.6-.6,1.4-.9,2.2-.4v.4c-.7.1-1.4.3-2.2.4v-.3h0v-.1Z"/>
        <path class="cls-1" d="M164.13,8.97h.9v.3h-.9v-.4h0v.1Z"/>
        <path class="cls-1" d="M171.03,8.17h.9v.4h-.9v-.4h0Z"/>
        <path class="cls-1" d="M171.93,8.17h.9v.4h-.9v-.4h0Z"/>
        <path class="cls-1" d="M156.63,136.97c-1.7-2-.8-5-2.5-7,1.2-2,2.9-1.9,4.8-1.3,4.5,1.4,9.1,2.8,13.6,4.2,1.1.5,2.1,1,3.1,1.4-.2.1-.3.3-.4.4-.1,0-.2.2-.4.2-5.5.2-11,.6-16.4,1.8-.4.1-.9.2-1.3.3-.1,0-.3-.1-.5-.2h0v.2Z"/>
        <path class="cls-1" d="M203.33,133.67c0-.4,0-.9-.1-1.3.2-.4.6-.9.7-1.4,1.1-9.6,3.1-19.1,3.6-28.8.1-1.6-.2-3.6,2.1-4.2.3.5.6,1,.8,1.5,1.6,5.2,3.1,10.3,4.6,15.5,0,.2,0,.4.2.5h0c-.1.5,0,.9.4,1.3h0c0,1.2.3,2.3,1,3.4h0c.3,2,.4,4,1,5.9,1.8,6.4,3.7,12.7,5.6,19.1-1.5.5-2.4-.4-3.5-1.2-.4-.4-.9-.9-1.6-.9h-.2c-.8-.7-1.3-1.7-2.5-1.7h-.1c-.5-.4-1-.7-1.6-1-.2-.1-.4-.3-.6-.4-2-1.8-4.3-3.4-6.9-4.1-.3-.2-.6-.5-.9-.7-.4-.8-1.3-1.1-2.1-1.5h.1Z"/>
        <path class="cls-1" d="M210.43,99.57c-.3-.5-.6-1-.8-1.5-.3-.9,0-2.2-1.6-2.2-2.3-1.1-4.8-.5-7.1-.4-5.8.1-11.5.3-17.2.5.2-1.7,1.3-2.9,2.4-4.1,6.8-6.8,13.6-13.6,20.4-20.4,1.4-1.4,3.1-2.6,4.9-3.5-1.9,1.9-3.8,3.8-5.7,5.7,0,.2-.1.4-.2.6.6,7,2.2,13.8,4.1,20.5,0,.2.4.4.7.6,1.3,1.8,2.8,3.5,4.1,5.3,2.8,3.7,6,7.1,8,11.4-2.6-.9-3.2-3.7-4.9-5.5-2.3-2.4-3.1-6.2-7-7.1h0l-.1.1Z"/>
        <path class="cls-1" d="M208.03,95.77c1.5,0,1.3,1.3,1.6,2.2-2.3.6-2,2.6-2.1,4.2-.6,9.7-2.5,19.2-3.6,28.8,0,.5-.4.9-.7,1.4-4.2-7.5-8.3-15-12.5-22.5,0-.3-.2-.6-.3-.8h0c6-4.3,11.9-8.6,17.6-13.2h0v-.1Z"/>
        <path class="cls-1" d="M203.33,133.67c.8.4,1.6.7,2.1,1.5-.7,0-1.3.1-2,.2-2.2.8-2.9,2.9-4,4.6-2.5,3.6-4.8,7.3-7.1,11.1-.8,1.3-1.5,1.8-2.5.4-4.5-6-10.8-10.3-14.7-16.8.1-.2.3-.3.4-.4,9.2-.2,18.5-.8,27.8-.6Z"/>
        <path class="cls-1" d="M208.03,95.77c-5.7,4.6-11.6,8.9-17.6,13.2-3-3.5-4.6-7.9-7.2-11.7v-.8c.1-.2.3-.3.5-.5,5.8-.2,11.5-.3,17.2-.5,2.4,0,4.8-.7,7.1.4h0v-.1Z"/>
        <path class="cls-1" d="M228.53,53.67c-3,2.8-6,5.7-9.7,7.8,2.4-3.2,5.1-6,8.6-8,.2-.1.7.2,1.1.3h0v-.1Z"/>
        <path class="cls-1" d="M202.83,64.37c1-1,2-2,3-2.9,1.2-.6,2.4-1.2,3.6-1.8.1.2.3.3.4.5-2.1,1.8-4.2,3.7-7,4.3h0v-.1Z"/>
        <path class="cls-1" d="M188.03,73.37c1.8-1.2,3.4-2.7,5.6-3.2-1.6,1.6-3,3.5-5.6,3.2Z"/>
        <path class="cls-1" d="M224.13,51.07c1.5-1.5,3.3-2.5,5.2-3.5-1.5,1.5-2.8,3.3-5.2,3.5Z"/>
        <path class="cls-1" d="M235.03,48.17c-.5,1.2-1.9,1.5-2.6,2.4-.1,0-.2-.2-.4-.3,1-.6,1.4-2.3,3-2h0v-.1Z"/>
        <path class="cls-1" d="M193.63,70.07c.8-.8,1.4-1.6,2.6-1.7-.7.8-1.2,2-2.6,1.7Z"/>
        <path class="cls-1" d="M232.03,50.17c.1.1.2.2.4.3-.6.6-1.3,1.1-1.9,1.7.2-.9,1-1.4,1.5-2Z"/>
        <path class="cls-1" d="M196.23,68.37c.6-.7,1.2-1.3,2.2-1.3-.6.7-1,1.6-2.2,1.3Z"/>
        <path class="cls-1" d="M198.43,67.07c.6-.7,1.3-1.3,2.3-1.5-.6.8-1,1.8-2.3,1.5Z"/>
        <path class="cls-1" d="M210.23,59.87c.4-.5.9-1,1.7-1-.4.6-.9,1.1-1.7,1Z"/>
        <path class="cls-1" d="M201.03,65.37c.5-.5,1-1,1.8-.9-.4.7-.9,1.2-1.8.9Z"/>
        <path class="cls-1" d="M181.93,76.77c.3-.5.8-.8,1.4-.8-.3.6-.6.9-1.4.8Z"/>
        <path class="cls-1" d="M184.03,75.47c.4-.4.8-.7,1.4-.7-.3.5-.7.8-1.4.7Z"/>
        <path class="cls-1" d="M229.53,52.97c-.1.5-.5.7-1,.6.3-.2.7-.4,1-.6Z"/>
        <path class="cls-1" d="M186.33,74.27c.3-.1.6-.3.9-.4-.3.1-.6.3-.9.4Z"/>
        <path class="cls-1" d="M190.43,108.97c0,.3.2.6.3.8,0-.3-.2-.6-.3-.8Z"/>
        <path class="cls-1" d="M183.13,96.37v.8-.8Z"/>
        <path class="cls-1" d="M183.83,243.67c4.1,8.1,8.4,16,11.2,24.6-3.6.2-7.1.5-10.7.6-1,0-2.1.1-2-1.5.3-7.6.6-15.1.9-22.7,0-.4.4-.7.6-1.1h0v.1Z"/>
        <path class="cls-1" d="M183.43,241.77c0,.3-.1.7-.2,1-5.3-4.8-11.8-7.9-17.5-12-.6-.4-1.1-.9-1.7-1.3,6.1-1.5,12.2-3,18.3-4.5,1.3.6,1.1,1.7,1.1,2.9v13.9h0Z"/>
        <path class="cls-1" d="M190.53,300.27c-.6-.6-1.3-1.2-1.9-1.8.3-.4.6-.7.9-1.1.4,1,.7,1.9,1,2.9Z"/>
        <path class="cls-1" d="M236.33,85.07c-.4.4-.9.9-1.3,1.3-.2-.2-.4-.3-.5-.5v-.8h.3-.3c-1-1.3-2.9-1.1-3.9-2.3,1.4-1.1,1.9-2.3.5-3.8-2.8-3.2-2.4-8.2-5.8-11.2-.2-.2-.2-.6-.4-.8-1.8-1.3-4.4-2.5-4.1-4.9.3-2.2,3-3.2,4.7-4.4,3.4-2.6,6-6.4,10.3-7.8.8,9.2.7,18.4.6,27.6,0,2.5-.1,5.1-.1,7.6h0Z"/>
        <path class="cls-1" d="M322.53,312.07c-.4-.6-1.4-1.4-.8-2.1,2.9-3.5,6.1-6.6,9.8-9.2-.2,2.6-2.5,3.8-3.3,5.9-2.1,1.6-4,3.4-5.7,5.4h0Z"/>
        <path class="cls-1" d="M319.23,307.87c3.8-2.1,6.2-5.9,9.8-8.3-2.8,4.1-6.5,7.3-9.9,10.8.3-.8.6-1.6,0-2.5h.1Z"/>
        <path class="cls-1" d="M322.53,312.07c1.7-2,3.6-3.8,5.7-5.4,0,1.3-1.1,1.9-1.9,2.6-2,1.6-2.9,3.3-1.2,5.6-1.4-.2-2.7-.4-2.9-2.2.1-.2.2-.4.3-.6h0Z"/>
        <path class="cls-1" d="M316.73,314.87c.8-.8,1.6-1.6,2.4-2.5l1.5,1.5c-1.1,1.2-2.1,2.7-4,1h.1Z"/>
        <path class="cls-1" d="M319.23,307.87c.5.9.2,1.7,0,2.5v1.8c-1.4-1.1-1.9-2.4-.4-3.9.1-.1.3-.3.5-.4h-.1Z"/>
        <path class="cls-1" d="M185.23,223.67c.2-5.7.4-11.4-.6-17.7,5.2,3.9,9.9,7.3,14.6,10.8v.2c-4.4,2.1-8.9,4.2-13,6.9-.4,0-.7-.1-1-.2h0Z"/>
        <path class="cls-1" d="M217.03,207.77c.1.2.2.5.3.8-3.1,5-5.4,10.3-7.5,15.8-.6,0-1.2-.1-1.9-.2-2.5-2.8-5.8-4.7-8.6-7.1v-.2c4.5-2.3,9-4.7,13.6-7,.5,0,.9-.1,1.3-.5.4-.2.9-.3,1.3-.5.3.1.6.1.7-.2.3-.2.6-.4.8-.7h0v-.2Z"/>
        <path class="cls-1" d="M185.23,223.67c.4,0,.7.1,1,.2,1,1,2.3.5,3.4.6,1.7.2,3.4-.5,4.9.7-3.7,5.5-7.5,11.1-11.2,16.6v-13.9c0-1.1.2-2.3-1.1-2.9,1-.4,1.9-.9,2.9-1.3h.1Z"/>
        <path class="cls-1" d="M214.13,209.17c-.3.4-.7.6-1.3.5.3-.5.7-.7,1.3-.5Z"/>
        <path class="cls-1" d="M216.23,208.47c-.1.4-.4.4-.7.2.2,0,.5-.2.7-.2Z"/>
        <path class="cls-1" d="M150.63,28.17c.2-.1.3-.3.5-.5,1.3,2.8,3.4,5,5.9,6.9.4.5.8.9,1.1,1.4,6.5,10.4,17.4,9.6,26.8,3.5.7.2.8-.3,1.1-.8,2-3.8,3.2-7.8,3.2-12.2,1.3-.1,2.3.5,3.2,1.3h0c-1,1.2-.9,2.3,0,3.5-.1.4-.3.9-.4,1.3-1.8,2.5-2.4,5.8-5.1,7.8-.9.6-1.9,1.3-2,2.6-.3.2-.6.5-.9.7-1.4-.5-1.9.3-2.2,1.5-1.5,1.3-3.2,2.1-5.1,2.8-.3,0-.6,0-.9.2-.5.3-.9.6-1.4.8-.4-.2-.8-.4-1.2,0h0c-.3,0-.6,0-.8.1-.3.2-.5.5-.8.7-.6-.3-1.1-.3-1.8-.1-.7-.4-1.4-.8-2.2-.5h0c-.7-.7-1.5-1.1-2.5-.9h0c-.4-.2-.8-.4-1.2-.5-.1-.1-.3-.2-.5-.2-4.8-2.7-8.4-6.5-11.1-11.2h0c0-.3-.1-.6-.1-.9-.4-2.4-.9-4.8-1.3-7.2h0l-.3-.1Z"/>
        <path class="cls-1" d="M131.13,23.17c-1.6,0-2.3-1.1-2.9-2.3,1.2.5,2.2,1.1,2.9,2.3Z"/>
        <path class="cls-1" d="M123.73,17.37c-1.2,0-2.2-.5-2.4-1.8,1,.4,1.9.8,2.4,1.8Z"/>
        <path class="cls-1" d="M127.13,20.17c-1.2.2-1.8-.5-1.9-1.6.7.4,1.5.8,1.9,1.6Z"/>
        <path class="cls-1" d="M148.93,37.37l-1.3-1c.7,0,1.1.4,1.3,1Z"/>
        <path class="cls-1" d="M151.93,35.47c0,.3.1.5.1.8-.3-.2-.3-.5-.1-.8Z"/>
        <path class="cls-1" d="M131.03,34.57c1.1,0,1.6.8,2.1,1.4-1.1,0-1.5-.8-2.1-1.4Z"/>
        <path class="cls-1" d="M234.63,85.07v.8c-4.5,1-8.6,3.2-13,4.5-1.3-1.1-1.2-2.5-1.1-3.9,0-1.4-.4-2.4-1.9-2.6-5.4-.6-9.8-2.6-11.8-8.2-.2-.5-.8-.9-1.2-1.4,0-.2.1-.4.2-.6,8.3,3,16.6,6.1,24.9,9.1,1.1,1.2,3,.9,3.9,2.3h0Z"/>
        <path class="cls-1" d="M153.63,81.47h-.8.8Z"/>
        <path class="cls-1" d="M303.93,308.37c-.9-1-1.9-2.1-2.8-3.1.4-.5.8-.9,1.3-1.4,1.4.6,2.2,1.9,3.3,2.8-.6.6-1.1,1.2-1.7,1.7h-.1Z"/>
        <path class="cls-1" d="M305.63,306.57c-1.1-1-1.9-2.2-3.3-2.8.5-.5,1.1-1.1,1.6-1.7,1,1.1,1.9,2.2,2.9,3.2,0,.8-.4,1.2-1.2,1.2h0v.1Z"/>
        <path class="cls-1" d="M71.83,58.17c-.4,1.4-1.3,2.3-2.4,3.1-1,.8-2.1.7-2.4-.5-1.1-3.7-4.6-5.5-6.5-8.6-1.2-1.9-2.5-3.9-4.3-5.4-.8-.7-.7-1.6-.2-2.5,4.3,3.9,8.6,7.9,12.9,11.8.9.8,2,1.5,2.9,2.2h0v-.1Z"/>
        <path class="cls-1" d="M163.23,47.47c.2,0,.3.1.5.2.2.6.6.9,1.2.5h0c.6,1,1.4,1.5,2.5,1h0c.5.5,1,.9,1.5,1.4-.1.2-.2.4-.3.5-.6.3-.9.7-.6,1.4-.2.3-.5.6-.7.9-1.2.8-2.1.8-3.2-.3-1.6-1.7-2.8-3.6-4.1-5.5,1.2-.8,2.1.4,3.1-.1h.1Z"/>
        <path class="cls-1" d="M169.03,50.67c-.5-.5-1-.9-1.5-1.4.8-.3,1.5,0,2.2.5-.2.3-.5.6-.8.9h.1Z"/>
        <path class="cls-1" d="M168.13,52.57c-.3-.7,0-1.1.6-1.4.2.7.4,1.3-.6,1.4Z"/>
        <path class="cls-1" d="M209.33,59.67c-1.2.6-2.4,1.2-3.6,1.8-7.8,4-14.7,9.3-22.5,13.3-1,.5-1.9,1.3-3,.3,5.7-14.5,11.5-28.9,14.4-44.3.1-.5.3-1,.5-1.5,3.5,3.2,7.9,5.1,11.9,7.6,5.3,3.3,10.8,6.2,15.4,10.6.6.6,1.6,1,2.3,1.5-3.8,3.7-8.6,5.8-12.9,8.6-.9.6-2,1-2.4,2.2h0l-.1-.1Z"/>
        <path class="cls-1" d="M242.33,38.97c-.6.5-1,1.3-2,1.2.6-.6,1-1.3,2-1.2Z"/>
        <path class="cls-1" d="M158.73,46.27s-.2,0-.2-.1c0,0,0-.2.1-.2.3,0,.3.2.1.3h0Z"/>
        <path class="cls-1" d="M227.43,247.97c1.4.7,2.8,1.4,4.1,2.1-3.6,4.3-7.9,7.7-12.2,11.2-1.8-2.5-1.2-5.5-1.9-8.2-.2-.7,0-2.1-1.1-1.7-2.1.7-4.5.9-5.8,3.1-4.1-.5-6.3.8-6.3,3.9-3.3-.5-5.3-2.4-5.9-5.6-.5-2.7-1-5.4-1.5-8.1,1.8.9,2.6.1,3.1-1.5.2-.1.4,0,.5.1.9,2.4,1.9,4.8,2.8,7.2,0,1.5-1.7,2.5-1.2,4.7,1.6-2.5,3.6-3,5.9-3,.8.3,1.5,1.2,2.5.3,2.4-1.1,4.8-2.1,7.2-3.2,2.6-.1,5.1-.3,7.7-.4,1,.4,1.4-.5,1.9-1h0l.2.1Z"/>
        <path class="cls-1" d="M194.73,225.17c-1.5-1.1-3.3-.5-4.9-.7-1.2-.1-2.4.3-3.4-.6,4.1-2.8,8.6-4.8,13-6.9,2.8,2.4,6.1,4.3,8.6,7.1-.2.2-.5.5-.7.8-4.2-.4-8.4-.7-12.6.4h0v-.1Z"/>
        <path class="cls-1" d="M207.23,224.87c.2-.2.5-.5.7-.8.6,0,1.2.1,1.9.2,1.9,1,3.9,1,5.9,1.2,2.5.3,3.8,1.3,4.1,4,.2,2.4-.2,4.9,1.4,7.1,0,.4-.1.9-.1,1.3-.4.4-.9.9-1.3,1.3,0-1.3-1-1.9-1.8-2.7-3.6-3.9-7.2-7.7-10.8-11.6h0Z"/>
        <path class="cls-1" d="M210.63,254.57c1.3-2.2,3.8-2.4,5.8-3.1,1.2-.4,1,1,1.1,1.7.6,2.7.1,5.7,1.9,8.2-4,1.2-7.5-.4-10.9-2.2.9-.8,1.7-1.9,3.1-2.1v-.8c0-.7-.5-1.2-1-1.6h0v-.1Z"/>
        <path class="cls-1" d="M210.53,252.57c-.9.9-1.7,0-2.5-.3-1.5-.8-1.6-5.3-4.7-1.7-.9-2.4-1.9-4.8-2.8-7.2.2-.3.3-.6.5-.8,1.2-.6,2.5-1.2,3.7-1.8,1.2.4,2.5.7,3.7,1.1-2.4,2.8-2,5.1,1.6,8.3,0,.8-.3,1.7.4,2.4h.1Z"/>
        <path class="cls-1" d="M219.83,239.17c.4-.4.9-.9,1.3-1.3,2.7,2.7,3.7,6.6,6.2,9.5,0,.2,0,.4.1.7-.5.5-.9,1.4-1.9,1,1-1.2.5-1.6-.9-1.8-2.2-.4-4.1-1.4-5.8-2.9,0-1.8.4-3.5.9-5.1h0l.1-.1Z"/>
        <path class="cls-1" d="M210.13,250.17c-3.6-3.2-4.1-5.5-1.6-8.3,1.2-1.2,2.5-2.5,3.8-3.8,1.1.3.6,1.1.4,1.7-.8,3.4-1.7,6.9-2.5,10.3h0l-.1.1Z"/>
        <path class="cls-1" d="M212.23,238.07c-1.2,1.2-2.5,2.5-3.8,3.8-1.2-.4-2.5-.7-3.7-1.1-1-1-2.1-1.9-3.5-1.1s-.6,1.9-.3,2.9c-.2.3-.3.6-.5.8-.1-.2-.3-.2-.5-.1-.6-.4-1.3-.8-1.9-1.2.5-2.5,2.8-3.7,4.3-5.4,1.6,3,5.5,3.4,7.9.8.8-.3,1.3.5,2,.7h0v-.1Z"/>
        <path class="cls-1" d="M210.63,254.57c.5.4,1,.9,1,1.6v.8c-1.3.2-2.1,1.3-3.1,2.1-1.5.2-2.8-.1-4.2-.7,0-3.1,2.2-4.4,6.3-3.9h0v.1Z"/>
        <path class="cls-1" d="M218.83,244.27c1.7,1.5,3.6,2.6,5.8,2.9,1.4.2,1.9.6.9,1.8-2.6.1-5.1.3-7.7.4.4-1.7.7-3.4,1-5.1h0Z"/>
        <path class="cls-1" d="M210.23,237.37c-2.3,2.6-6.3,2.2-7.9-.8.5-1.4,1.5-.6,2.2-.5,1.9.4,3.7.8,5.6,1.2l.1.1Z"/>
        <path class="cls-1" d="M198.03,241.97c.6.4,1.3.8,1.9,1.2-.4,1.6-1.3,2.5-3.1,1.5-.9-1.5.2-2.1,1.1-2.8h0l.1.1Z"/>
        <path class="cls-1" d="M256.83,165.47c2.4,6.1,5.4,11.9,8.6,17.6-5.1,1.9-10.5,2.8-15.4,5.1h-.3c-4.8-6.8-10.5-12.9-15.6-19.4-3.7-4.6-7.7-9-11.1-13.9,1.2-1.5,3.6-1.1,4.8-2.8h1c7.9,4.8,16.6,8,25,11.9.8.4,1.6.3,2.3,0,.3.5.6,1,.9,1.5h-.2Z"/>
        <path class="cls-1" d="M227.63,152.07c-1.1,1.8-3.5,1.3-4.8,2.8-1.6-2-3.3-4.1-4.9-6.1,1-1.1,2.6-.9,3.8-1.5.8-.4,2.1-.4,1.6-1.9-1.9-6.4-3.8-12.7-5.6-19.1-.5-1.9-.7-3.9-1-5.9,3.7,2.2,6.8,0,10.1-1.3.1,1.8.4,3.7.4,5.5.2,9.2.3,18.4.5,27.6h0l-.1-.1Z"/>
        <path class="cls-1" d="M223.23,145.37c.6,1.5-.8,1.5-1.6,1.9-1.2.7-2.8.4-3.8,1.5-4.1,0-7.8,2.2-11.8,2.7-1.9-1.8-1.6-4.2-1.8-6.5-.3-3.2-.6-6.4-.9-9.6.7,0,1.3-.1,2-.2.3.2.6.5.9.7,1.5,2.8,4.3,3.2,6.9,4.1.2.1.4.3.6.4.3.7.7,1.2,1.6,1h.1c.7.8,1.1,2,2.5,1.6h.2c.3.8.7,1.3,1.6,1,1,.8,2,1.7,3.5,1.2h0v.2Z"/>
        <path class="cls-1" d="M249.63,188.17h.3c1.4,2,3.5-.3,5.1.7-.3.3-.6.6-.9.9-1.3.4-2.8.5-3.9,1.5-3.9,1.8-7.8,3.7-11.7,5.5h-.9c-3.4-3.1-7-5.8-9.9-9.3,5.8-.5,11.4.6,17.2.7,1.6,0,3.2.8,4.8-.2h0l-.1.2Z"/>
        <path class="cls-1" d="M221.23,236.47c-1.6-2.1-1.2-4.7-1.4-7.1-.3-2.7-1.6-3.7-4.1-4-2-.2-4.1-.1-5.9-1.2,2.1-5.4,4.4-10.8,7.5-15.8,1.6,4.8,1.2,9.9,1.6,14.8.2,2.1.9,3,3,3.3,3.7.6,7.4,1.4,10.9,2.8.6.2,2.2,0,1.3,1.6-.5.1-1,.1-1.4.3-3.9,1.7-7.7,3.5-11.5,5.2h0v.1Z"/>
        <path class="cls-1" d="M221.23,236.47c3.8-1.7,7.7-3.5,11.5-5.2.4-.2.9-.2,1.4-.3.5,3-1.6,5.1-2.6,7.6-1.2,3-2.1,6.2-4.3,8.7-2.4-2.9-3.5-6.8-6.2-9.5,0-.4.1-.9.1-1.3h.1Z"/>
        <path class="cls-1" d="M237.63,196.97h.9-.9Z"/>
        <path class="cls-1" d="M255.63,188.77c10-2.6,20-5.2,30-7.8,1.8-.5,2.8.1,2.7,2.1-3,2.5-3.9,6.4-5.6,9.7-2.3,4.4-4,9.2-5.9,13.8-.2,0-.3,0-.5-.2-5.2-4.9-10.8-9.3-16.4-13.7-1.5-1.2-3-2.5-4.3-3.9h0Z"/>
        <path class="cls-1" d="M301.43,228.67c-.2.3-.5.5-.7.8-5.1,1.9-9.3,5.4-13.9,7.9-2.6,1.4-5.1,3.2-7.7,4.7-3,1.6-2.6,0-2.3-1.7.8-4.5.8-8.9.8-13.4-.1-5.3-.3-10.6-.4-15.9,0-1.2-.3-2.5.4-3.6,6.9,5.6,13.5,11.5,19.8,17.8,1.3,1.3,2.6,2.6,4.2,3.5h0l-.2-.1Z"/>
        <path class="cls-1" d="M157.13,137.17c.4-.1.9-.2,1.3-.3-.4.4-.8.6-1.3.3Z"/>
        <path class="cls-1" d="M268.23,182.17c2.6-1.3,5.1-2.9,8.1-1.4-2.5,1.6-5.1,2.7-8.1,1.4Z"/>
        <path class="cls-1" d="M278.63,180.37c2.4-1.9,5.3-1.9,8.2-2.2-2.4,2.1-5.1,2.6-8.2,2.2Z"/>
        <path class="cls-1" d="M276.93,180.47c.5-.6,1.1-.6,1.6,0-.5.6-1.1.6-1.6,0Z"/>
        <path class="cls-1" d="M255.93,163.97c-.8.3-1.5.4-2.3,0-8.4-3.9-17.1-7.1-25-11.9,6.4-3.6,12.9-7.3,19.4-10.7,2.6-1.4,4-2.6,1.9-5.3,1.4.9,2.8,1.9,4.1,2.8v.4c-.8,4.3.5,8.4.8,12.6.3,4,.7,8.1,1.1,12.1h0Z"/>
        <path class="cls-1" d="M254.03,138.77c-1.4-.9-2.8-1.9-4.1-2.8-.4-.4-.9-.8-1.3-1.2-.2-.2-.4-.3-.6-.5l-.8-.7c-1.1-1.1-2.3-2-3.8-2.6-.3-.3-.7-.6-1-.8s-.5-.5-.8-.7c-.8-.6-1.7-1.3-2.5-1.9-.4-1.2-1.6-1.3-2.6-1.8-2.2-1.8-4.4-3.6-6.7-5.4,0-.8-.3-1-1-.8-.5-.6-1-1.3-1.6-1.9.4-.4.7-.8,1.1-1.2.5,1.6,1.5,1.6,2.9,1.2,5.1-1.7,10.3-3.2,15.4-4.9,1.4-.5,2-.4,2.8,1,1.9,3.1,4.1,5.9,6.6,8.5,1.1,1.1,2.8,1.1,4.2,1.7-1,4.1-3.1,7.7-4.7,11.5-.5,1.2-.5,2.6-1.6,3.5h0l.1-.2Z"/>
        <path class="cls-1" d="M228.43,116.37c-.4.4-.7.8-1.1,1.2-.2.2-.4.3-.6.5l-.7-.8c.4-2.4-1.9-2.9-2.9-4.3l-.8-.9c-2-4.2-5.2-7.7-8-11.4-1.3-1.8-2.8-3.5-4.1-5.3,3.8-1.7,7.5-3.3,11.3-5,4.4-1.3,8.5-3.5,13-4.5.2.2.4.3.5.5-1.5,8.8-4.1,17.3-6.1,26-.2.8-.3,1.6-.5,2.4v1.6h0Z"/>
        <path class="cls-1" d="M228.53,115.47v-.8.8Z"/>
        <path class="cls-1" d="M192.43,27.97c-.9-.9-1.9-1.5-3.2-1.3-.4-.7-.7-1.3-1.1-2,.3-.9-.2-1.6-.6-2.4-.2-.5-.3-1-.6-1.3-7.9-9.9-17.7-11.3-28.1-4-.3.4-.6.7-.8,1.1-.2-1.8.7-2.8,2.3-3.4,1.7-.7,3.3-1.6,5-2.5-2.2-.9-4.1-.8-5.8.8-1.4,1.3-2.6,2.9-4.3,3.9,2.2-3.3,4.9-5.9,8.7-7.4h.9c.7-.1,1.4-.3,2.2-.4,1.4.3,2.6-.1,3.9-.4h1.8c.9.3,1.8.6,2.7.9,6.3,2.5,11.8,6,15.5,11.9,1.3,2,2,4.2,1.5,6.7h0v-.2Z"/>
        <path class="cls-1" d="M184.93,43.17c.1-1.3,1.1-2,2-2.6,2.7-2,3.3-5.3,5.1-7.8-.5,4.7-2.9,8.1-7.1,10.4h0Z"/>
        <path class="cls-1" d="M192.33,31.47c-.8-1.2-.9-2.3,0-3.5.7,1.2.8,2.3,0,3.5Z"/>
        <path class="cls-1" d="M181.83,45.37c.2-1.2.8-1.9,2.2-1.5-.5.9-1.4,1-2.2,1.5Z"/>
        <path class="cls-1" d="M173.23,49.07c.4-.3.8-.2,1.2,0-.4.4-.8.2-1.2,0Z"/>
        <path class="cls-1" d="M172.33,49.17c.3,0,.6,0,.8-.1-.3,0-.6,0-.8.1Z"/>
        <path class="cls-1" d="M175.83,48.27c.3,0,.6,0,.9-.2-.3,0-.6,0-.9.2Z"/>
        <path class="cls-1" d="M155.33,16.77c1.7-1,2.9-2.6,4.3-3.9,1.7-1.6,3.6-1.7,5.8-.8-1.7.8-3.3,1.8-5,2.5-1.6.7-2.5,1.6-2.3,3.4-1.3,4.4-3,8.7-1.5,13.4-.5,1.2.6,2.1.5,3.2-2.4-1.9-4.5-4-5.9-6.9,0-.2,0-.4.2-.5,0-.3,0-.6.1-.9h0c.3-.4.6-.8.3-1.3.1-3.2,1.5-5.9,3.5-8.2h0Z"/>
        <path class="cls-1" d="M151.83,24.97c.2.5,0,.9-.3,1.3-.2-.5,0-.9.3-1.3Z"/>
        <path class="cls-1" d="M151.43,26.27c0,.3,0,.6-.1.9,0-.3,0-.6.1-.9Z"/>
        <path class="cls-1" d="M222.33,112.07c.3.3.5.6.8.9-.6,2.5,1.8,3,2.9,4.3.2.2.4.5.7.8v1c-3.3,1.2-6.4,3.5-10.1,1.3h0c1.1-1.6.2-2.6-1-3.5h0c.4-.5,0-.9-.4-1.3h0c.2-.2.3-.4-.2-.4-1.6-5.2-3.1-10.3-4.6-15.5,3.9.8,4.7,4.7,7,7.1,1.7,1.8,2.3,4.5,4.9,5.5h0v-.2Z"/>
        <path class="cls-1" d="M213.23,140.07c-2.6-.9-5.5-1.4-6.9-4.1,2.7.8,4.9,2.3,6.9,4.1Z"/>
        <path class="cls-1" d="M215.63,116.87c1.2.9,2.1,1.9,1,3.5-.7-1.1-1-2.2-1-3.5Z"/>
        <path class="cls-1" d="M218.03,143.07c-1.4.4-1.8-.8-2.5-1.6,1.1,0,1.7,1,2.5,1.6Z"/>
        <path class="cls-1" d="M215.43,141.47c-.9.3-1.3-.3-1.6-1,.5.3,1,.6,1.6,1Z"/>
        <path class="cls-1" d="M219.83,144.07c-.8.2-1.3-.2-1.6-.9.7,0,1.1.5,1.6.9Z"/>
        <path class="cls-1" d="M215.33,115.47c.5.4.8.8.4,1.4-.4-.4-.5-.9-.4-1.4Z"/>
        <path class="cls-1" d="M215.13,115.07c.5,0,.4.2.2.5-.2-.1-.2-.3-.2-.5Z"/>
        <path class="cls-1" d="M221.53,90.37c-3.8,1.7-7.5,3.3-11.3,5-.2-.2-.6-.3-.7-.6-1.8-6.8-3.4-13.6-4.1-20.6.4.5,1,.9,1.2,1.4,2,5.6,6.4,7.6,11.8,8.2,1.5.2,2,1.2,1.9,2.6,0,1.4-.2,2.9,1.1,3.9h0l.1.1Z"/>
        <path class="cls-1" d="M234.63,85.07h.3-.3Z"/>
        <path class="cls-1" d="M184.93,39.57c-5.3-4.4-9.4-9.9-13.4-15.4.9-.6,1.6,0,2.2.6,1,2.7,3.1,4.8,4.5,7.2.9,1.6,2,1.3,3.1,0,2.2-2.5,4.5-4.9,6.8-7.4.4.7.7,1.3,1.1,2,0,4.3-1.2,8.4-3.2,12.2-.2.5-.4.9-1.1.8h0Z"/>
        <path class="cls-1" d="M167.53,49.27c-1.2.6-1.9,0-2.5-.9,1-.1,1.8.3,2.5.9Z"/>
        <path class="cls-1" d="M164.93,48.27c-.6.3-1,0-1.2-.5.4.2.8.3,1.2.5Z"/>
        <path class="cls-1" d="M203.33,250.57c3.1-3.6,3.3.9,4.7,1.7-2.3,0-4.4.5-5.9,3-.5-2.2,1.1-3.2,1.2-4.7h0Z"/>
        <path class="cls-1" d="M211.53,256.97v-.8.8Z"/>
        <path class="cls-1" d="M201.03,242.57c-.3-1-1.1-2.2.3-2.9s2.5.1,3.5,1.1c-1.2.6-2.5,1.2-3.7,1.8h-.1Z"/>
        <path class="cls-1" d="M226.73,118.97v-1c.2-.2.4-.3.6-.5.5.6,1,1.3,1.6,1.9,0,.7.3,1,1,.8,2.2,1.8,4.4,3.6,6.7,5.4.6,1,1.1,2.1,2.6,1.8.8.6,1.7,1.3,2.5,1.9-.1.7,0,1,.8.7.3.3.7.6,1,.8,1,1.2,1.7,2.9,3.8,2.6.3.2.5.4.8.7,0,.4.1.6.6.5.4.4.9.8,1.3,1.2,2.1,2.7.7,4-1.9,5.3-6.6,3.4-12.9,7.1-19.4,10.7h-1c-.2-9.2-.3-18.4-.5-27.6,0-1.8-.2-3.7-.4-5.5h0l-.1.3Z"/>
        <path class="cls-1" d="M247.23,133.57c-2.1.3-2.7-1.4-3.8-2.6,1.4.6,2.6,1.6,3.8,2.6Z"/>
        <path class="cls-1" d="M239.13,127.47c-1.5.3-2-.8-2.6-1.8,1,.5,2.1.6,2.6,1.8Z"/>
        <path class="cls-1" d="M229.83,120.27c-.7.2-1,0-1-.8.7-.2,1.1,0,1,.8Z"/>
        <path class="cls-1" d="M242.43,130.17c-.7.3-.9,0-.8-.7.3.2.5.5.8.7Z"/>
        <path class="cls-1" d="M248.53,134.77c-.4,0-.6,0-.6-.5.2.2.4.3.6.5Z"/>
        <path class="cls-1" d="M226.13,117.27c-1.1-1.4-3.5-1.9-2.9-4.3,1.1,1.4,3.3,1.9,2.9,4.3Z"/>
        <path class="cls-1" d="M170.63,23.47c-2.7,2.4-5.9,3.3-9.5,3.1-.7,0-1.5.3-1.7-.7-.2-.8.4-1.2.9-1.8,1.2-1.4,4.2-1.4,3.4-4.3,2.5.9,5,1.8,6.9,3.6h0v.1Z"/>
        <path class="cls-1" d="M166.93,492.07h.1-.1Z"/>
      </g>
      <g>
        <path class="cls-2" d="M444.09,181.85h-14.89l-4.58-15.49c-.9-3.19-1.87-5.67-2.83-7.47-.9-1.75-2.23-3.13-3.8-4.04s-3.74-1.39-6.39-1.39h-10.13v28.39h-14.11v-70.05h28.33c8.56,0,14.83,1.69,18.93,5.06,4.1,3.38,6.09,8.62,6.09,15.73s-1.21,8.32-3.68,11.09-5.79,4.58-10.07,5.43c3.38,1.15,5.97,3.13,7.72,5.91,1.75,2.83,3.32,6.63,4.82,11.39l4.58,15.43h0ZM423.59,140.02c1.99-1.63,2.95-4.1,2.95-7.35s-.96-5.73-2.95-7.35c-1.99-1.63-4.46-2.47-7.54-2.47h-14.59v19.59h14.59c3.07,0,5.61-.78,7.54-2.47v.06Z"/>
        <path class="cls-2" d="M458.19,176.22c-3.86-3.74-5.79-9.16-5.79-16.22v-26.4c0-7.05,1.93-12.48,5.79-16.22,3.86-3.74,10.25-5.61,19.11-5.61h23.39v11.03h-23.39c-3.68,0-6.39.84-8.14,2.59s-2.65,4.46-2.65,8.2v7.72h29.84v11.03h-29.84v7.72c0,3.68.9,6.39,2.65,8.14s4.46,2.65,8.14,2.65h23.63v11.03h-23.63c-8.86,0-15.25-1.87-19.11-5.61h0v-.06Z"/>
        <path class="cls-2" d="M515.94,176.58c-5.06-4.28-7.54-10.67-7.54-19.05v-21.4c0-8.38,2.53-14.77,7.54-19.05,5-4.28,12.3-6.45,21.88-6.45s12.48,1.09,16.88,3.32c4.34,2.17,7.84,5.49,10.37,9.83l-10.73,7.29c-2.05-3.32-4.28-5.73-6.63-7.23s-5.61-2.17-9.89-2.17-9.22,1.21-11.63,3.68c-2.41,2.41-3.68,6.03-3.68,10.85v21.4c0,4.82,1.21,8.44,3.68,10.85s6.33,3.68,11.63,3.68,8.2-.78,10.67-2.35,3.68-3.86,3.68-6.87v-3.13c0-4.16-1.93-6.21-5.73-6.21h-11.39v-11.03h15.43c5.3,0,9.28,1.21,11.82,3.68,2.53,2.47,3.8,6.33,3.8,11.51v6.09c0,6.03-2.53,10.73-7.6,14.11s-11.94,5.12-20.62,5.12-16.82-2.17-21.88-6.45h-.06Z"/>
        <path class="cls-2" d="M581.47,176.22c-3.86-3.74-5.79-9.16-5.79-16.22v-26.4c0-7.05,1.93-12.48,5.79-16.22,3.86-3.74,10.25-5.61,19.11-5.61h23.39v11.03h-23.39c-3.68,0-6.39.84-8.14,2.59s-2.65,4.46-2.65,8.2v7.72h29.84v11.03h-29.84v7.72c0,3.68.9,6.39,2.65,8.14s4.46,2.65,8.14,2.65h23.63v11.03h-23.63c-8.86,0-15.25-1.87-19.11-5.61h0v-.06Z"/>
        <path class="cls-2" d="M693.83,111.8v53.53c0,5.43-1.09,9.52-3.32,12.3s-5.73,4.22-10.61,4.22h-9.89l-20.62-47.74v47.74h-13.2v-70.05h15.91l25.44,58.05h.18c1.15,0,1.93-.48,2.29-1.45.42-.96.6-2.71.6-5.24v-51.36s13.2,0,13.2,0Z"/>
        <path class="cls-2" d="M725.54,180.13c-3.98-1.81-7.47-4.7-10.55-8.62l2.29-2.11c2.95,3.86,6.09,6.63,9.52,8.2,3.38,1.63,7.78,2.41,13.14,2.41s12.6-1.45,16.58-4.4,5.97-6.99,5.97-12.18-.72-5.37-2.23-7.23c-1.45-1.87-3.92-3.5-7.41-4.82s-8.44-2.59-14.89-3.8c-7.41-1.39-12.72-3.56-16.03-6.45-3.26-2.89-4.88-6.93-4.88-12.06s.96-6.69,2.89-9.46c1.93-2.77,4.64-4.94,8.14-6.45s7.41-2.29,11.94-2.29c11.15,0,18.93,3.62,23.39,10.91l-2.41,1.87c-1.81-3.26-4.46-5.79-8.08-7.47-3.56-1.69-7.9-2.53-12.96-2.53s-7.23.66-10.19,1.99c-3.01,1.33-5.37,3.19-6.99,5.61-1.69,2.41-2.47,5.12-2.47,8.08s1.63,7.41,4.82,9.89c3.26,2.47,8.38,4.34,15.37,5.61,6.45,1.15,11.51,2.47,15.13,3.98s6.21,3.5,7.78,5.85,2.35,5.37,2.35,9.04c0,6.15-2.23,10.85-6.63,14.17-4.46,3.32-10.79,4.94-19.05,4.94s-10.37-.9-14.35-2.71h0l-.18.06Z"/>
        <path class="cls-2" d="M795.89,114.58h-23.63v-2.77h50.46v2.77h-23.63v67.27h-3.19v-67.27h0Z"/>
        <path class="cls-2" d="M840.68,177.24c-4.64-3.38-6.93-8.02-6.93-13.8v-52.14h3.19v52.14c0,4.94,2.05,8.86,6.15,11.75s9.58,4.34,16.46,4.34,12.36-1.45,16.46-4.34,6.15-6.81,6.15-11.75v-52.14h3.19v52.14c0,5.79-2.29,10.43-6.93,13.8s-10.91,5.12-18.87,5.12-14.23-1.69-18.87-5.12h0Z"/>
        <path class="cls-2" d="M902.89,111.8h24.23c7.05,0,12.66,1.15,16.82,3.38,4.16,2.29,7.11,5.97,8.98,11.03,1.87,5.06,2.83,11.94,2.83,20.62s-.9,15.55-2.83,20.62c-1.87,5.06-4.88,8.74-8.98,11.03s-9.77,3.38-16.82,3.38h-24.23v-70.05h0ZM927.12,179.08c6.33,0,11.33-1.02,15.01-3.07s6.33-5.43,7.96-10.13,2.47-11.03,2.47-18.99-.84-14.23-2.53-18.93c-1.69-4.64-4.34-8.08-8.02-10.19-3.68-2.11-8.62-3.13-14.89-3.13h-21.04v64.44h21.04Z"/>
        <path class="cls-2" d="M972.22,111.8h3.19v70.05h-3.19v-70.05h0Z"/>
        <path class="cls-2" d="M999.4,176.25c-4.64-4.4-6.93-10.67-6.93-18.81v-21.22c0-8.14,2.29-14.41,6.93-18.81s11.27-6.63,19.89-6.63,15.25,2.17,19.89,6.63c4.64,4.4,6.93,10.67,6.93,18.81v21.22c0,8.14-2.29,14.41-6.93,18.81-4.64,4.4-11.27,6.63-19.89,6.63s-15.25-2.17-19.89-6.63ZM1036.72,174.2c4.1-3.92,6.15-9.46,6.15-16.76v-21.22c0-7.29-2.05-12.84-6.15-16.76-4.1-3.92-9.95-5.85-17.48-5.85s-13.38,1.93-17.48,5.85-6.15,9.46-6.15,16.76v21.22c0,7.29,2.05,12.84,6.15,16.76s9.95,5.85,17.48,5.85,13.38-1.93,17.48-5.85Z"/>
      </g>
    </g>
    <g>
      <path class="cls-1" d="M96.03,139.47c-2.3-16.5-21.2-43.5-30.1-59.2-5.4-9.6-11.2-19.4-15.1-29.7-1.7-4.7-2.7-9.7-4.6-14.3C42.03,63.87,10.03,107.17,3.43,127.57c-3.4,10.4-4.4,21.7-.6,32.2,3.4,9.4,12.4,20.5,21.6,25.7,1.5.8,24.9,12.6,51.3-2.6,13.8-9.9,22.8-25.6,20.4-43.3h0l-.1-.1ZM85.13,159.57c-.8.1-1.3-2.7-1.9-3.1l.3-.3c.4.5,2.9,1.5,2.9,1.9,0,.1-1.2,1.5-1.3,1.5h0ZM81.73,117.47c.3.7,2.8,10.5,3.2,12.5-5.2-1.7-10.4-3.3-15.6-5,4.2-4,5.7-6.8,11.7-8.2.4,0,.6.4.7.7h0ZM89.23,140.17c-.8.1-3.1.6-3.7.4-.2,0-3.5-2.9-3.6-3.1-.8-1.9.6-4.2,1.7-5.8.7-.1,5.9,8.1,5.5,8.6h0l.1-.1ZM42.93,121.17c-.2-.4-.8-2.9-1.2-3.9,1.6-1.4,3.5-2.7,5.1-4.2,3.2-3,10.1-10.9,10.9-10.8,1.5,1.2,2.9,2.4,4.4,3.6-.7,3.2-1.9,6.2-3,9.3-1.5,4.1-3.2,8.3-5.6,12-2.1-1.2-9.5-4.2-10.5-6h-.1ZM52.43,127.67l-4.2,1.5-4.1-5.5,8.2,4h.1ZM40.53,118.07c1.7,2.8.1,6.2-1,8.9-1,0-8.4,0-8.5-.7,3.2-2.7,6.3-5.5,9.5-8.2h0ZM24.43,129.87c-1.9-2.1-3.7-4.1-5.6-6.2,2-.9,15.9-4.8,16.8-4.8.4,0,1,.3.9.7,0,.8-10.5,9.3-12.1,10.3h0ZM37.63,95.77q0-.3.3-.5c2.9,1.2,12.7,3.9,14.2,4.9,1.6,1,.9,5,.7,5.4-.5,1.1-9.5,8.7-11.3,10.3-.7-2.5-4.1-19-4-20h0l.1-.1ZM33.73,97.37c.7-1.1,1.6-1.9,2.8-2.3,2.9,16.3,4.4,19.5-2.8,2.3ZM65.43,107.07c-.1,0-1.9-1.1-1.9-1.3s1.6-2.4,1.9-2.8c1.5.3,2.9.6,4.4.9-.6.4-4.1,3.1-4.4,3.2h0ZM71.33,103.97c3.5-.4,2.1,3.2,1.2,5.1l-6.6-1.7c.9-.4,5.1-3.3,5.4-3.4h0ZM62.93,105.17c-.2,0-2.6-2.6-2.8-3.1.6.3,4,.4,4.2.9,0,.1-1.2,2.1-1.3,2.1h0l-.1.1ZM63.73,107.67c3.3.8,6.7,1.6,10,2.4l1.7,6.8-5.4,6-10.2,1c.9-5.5,2.2-10.9,3.9-16.3v.1ZM73.43,109.17c.3-1.1.6-2.2.9-3.4,2.6,4.4,4,4.8-.9,3.4ZM74.73,103.17c-7.2-.4-14.4-1.1-21.3-3.2,3.3-6.1,6.6-12.1,9.9-18.2,3.8,7.1,8.1,14.1,11.4,21.4h0ZM58.13,72.37c-1.9,8.6-3.2,17.2-5.4,25.7-7.4-3.3-14.7-6.6-22.1-9.9,0-1.9,2.4-2.3,3.6-3.4,3.2-1.1,22.1-12.5,23.4-12.6h.5v.2ZM40.63,61.37c2.3-5.3,4.3-11.9,5.1-13.7,0,0,0-.5.3-.8.5-.2,1.9,5,2.8,6.8.9,2,2.1,3.9,3.3,5.7-.4,3-2.7,14.9-4.4,16.4-4.7,2.4-9.2,5.3-14.1,7.3-.3.5-1.6,3.2-1.9,3.3-.3,0-2.4-1.1-2.3-1.9,0-1.3,8.9-17.2,11.4-23h0l-.2-.1ZM28.23,88.27c4.2,9.2,8.5,18.4,11.8,28-5.9,1.4-15.3,4.7-21,5.4-.1,0-1.4,1.4-1.4-1.1,0-4.4,8-27.5,10.1-33.5,0,.4.3.8.5,1.2h0ZM5.63,147.37c-.3-13.8,7.2-35.2,14.8-47-3.1,15.8-7.5,30.8-8.4,47-.1,2.1,0,4.1,0,6.2-1.5,0-3.1,0-4.6.1-1.4-.4-1.7-5.1-1.7-6.3h-.1ZM8.23,154.07c1.3,0,2.6,0,4,.1.6,11.4.2,7.1-4-.1ZM13.33,137.77c.7-.6,3.9,6.7,4.2,7.4l-4.8,1.5c.2-3,.4-6,.6-8.9h0ZM13.03,147.37c6.3-1,7.3-3.7,5.4,3.1-.1.4.2,1.2-.2,1.9-1.7,1.3-3.3,2.6-5,4-.3,0-.5-2.3-.5-2.6,0-.9-.2-6,.3-6.3h0v-.1ZM13.53,161.57c-1.4-5.9.9-5.3,4.5-8.6,1.2,3.7-2.8,5.7-4.5,8.6ZM13.63,164.47c-.2-.5-.3-1.1-.6-1.5l5-6.2c.3,2,0,3.9-.1,5.9,0,.8.1,1.7,0,2.3-1,6.6-2.8,4.3-4.3-.5h0ZM80.53,162.07c.2.8-7.3,10.9-8.4,12.3-1.9-1.6-3.6-3.4-5.4-5.1l-.2.4c1,1.1,1.8,2.4,3.1,3.4-2.3.8-4.6,1.6-6.9,2.3.9.3,1,.1,1.8,0,1.3-.2,4.8-1.9,5.2-1.8.3,0,1.7,1.4,1.7,1.5,0,.6-8.7,7-10.7,7.2-.8.2-1.1-.6-1.1-.6-.1,0-.3-.1-.4-.2-.6-.3-1-.8-1-.8,0,0-.3.1-.8-.2-1.7-1.2-2.9-2.7-4.5-4.1.2.3.6.9.4,1.2.5.4,5.3,5.3,5.1,5.6-1.8.5-12.2,3.2-11.8.4,0-.4,3.9-5.9,4.3-7h-.4c-.9.7-3.9,6.6-4.4,6.5-.2-.4-.6-.7-.7-.8h-.4c.4.7,1.5,2.1.5,2.4-.6.2-5.8-.9-6.8-1.2-1.3-.4-2.7-1.2-4-1.6,2-.4.4-.5,0-1.6-.3-.6-.4-1.6-.6-2.2,0,0-.4-.7-.4-.8l-.2.2c.3,1.1.8,2.1.8,3.1-3.6-.7-2.6-1.2-2.4-4.2h-.4c-.1,1,0,2.1-.2,3.1-.4.8-7.3-1.9-7.3-2.6.2-.3.6-.5.6-.5.7-.8,1.2-.8,1.2-.8.5-.5,1.1-1,1.6-1.4l-.2-.6c-.7.5-3,2.4-3.7,2.4-.4-.3-.6-.6-1-.8-2.2-1.2-3.8-3-5.5-4.8-.2-1,2.6-2.1,3-2.3.2,0,.3-.4.6-.6h-.2c-.5-.5,1-1.2,0-1.2-.2.1-.4.3-.6.4-.9.3-.6-.6-1.2-.2.6.6,0,1.6-.6,1.2-.7,1.7-.3-1.6.6-1.7-.2-1.7-.1-4.2,0-5.9,0,0,.4-.3.4-.5.2-2.4,0-4.7.2-7.1,0-.1-.2-.9-.2-.9,0-.2.4,0,.4-.1.2-1.6.6-3.2.8-4.8l.5-.7c2.1-.3,5-1.9,6.8-1.4-.6-1.6-3.8,1.1-4.3,0-1.2.3-2.4.5-3.6.8-1.9-3.2-3.7-6.3-5.6-9.5.5-1.2,3.3-12,4-11.9,2.8,4.4,4.9,9.2,6.8,14,0-2.9,1.7,4,2.9,4.9-.3-1.6-4.5-10.5-4.5-11.1,0-.3.1-.3.3-.5,3.7,1.6,7.4,3.1,11.1,4.7,0-.1-.6-.8-.6-.8-1-.8-9-3.6-9-4.4,3.1-2.1,4.3-4.8,7.8-3.4.7.4,1.4,5.6,1.5,6.7h.6c-.5-2.1-.7-4.3-1.2-6.4.2-.7,4.9.2,5.8,0,2.4,3.1,1.5,6.6-1.7,8.7h1s.3-.1,1-.6c.8-.6,1.5-1.1,2.4-1.3l-1.4-5.9c.8-.5,2.5-2.1,2.8-.5,3.5,1.4,9.9,8.8,13.2,11.4.3-.3-.2-.3,0-.6.1.4.5.3.7.4-3.1-3-6.2-6-9.4-9.1,1.6-.7,3.2-1.4,4.8-2.1.7,0,2.5,1.2,3.2,1.6l.8-.4c-.3-.2-1.9-1.3-1.8-1.5,1.5-.9,3.1-1.8,4.6-2.8,8.2,1.7,8.3.2,4.2,3.7l.2.6c1.1-.9,2.4-1.6,3.4-2.7,1.2-.3,12.3,3.8,14.7,4.3.7.4-.9,2.9-1.4,3.3-.4.2-6.9,2.3-8,2.6,0,.8,1,.2,1.8,0,1-.2,2-.5,2.9-.8.5.3,0,.5,0,.8.1.3.4.4.4.8.3-.4.5-1.1,1.1-1,.5,0,8.3,5.8,6.2,6.1.5.2,0,.4,0,.4-1.5,3-5.5,10.1-7.5,12.4h.4c3.2-3.8,5.6-8.1,8-12.4,2.4,1.1,6.6,3.9,5.6,7-.3.9-8.3,3.6-9.8,4.2.2,0,.4.3.6.4,9.8-4.3,10.2-4.4,4,2.6-2.4-1.2-3.8-2.5-4-2.6-.5.2-1,.4-1.5.6,1.8-.5,2.1,3,3.2,4.6-2.1,1.3-2.7,2.2-4.5.9l-.2.4c.1,0,.8.6.8.7h0l.2.2ZM81.23,136.97c-.7.4-2.3-1.8-.6-1.6.5,0,.7,1.6.6,1.6Z"/>
      <path class="cls-1" d="M30.73,88.27c7.4,3.3,14.7,6.6,22.1,9.9,2.2-8.5,3.5-17.2,5.4-25.7,0-.2-.3-.1-.5,0-1.3,0-20.2,11.5-23.4,12.6-1.1,1.1-3.6,1.5-3.6,3.4h0v-.2Z"/>
      <path class="cls-1" d="M74.73,103.17c-3.3-7.2-7.5-14.3-11.4-21.4-3.3,6.1-6.6,12.1-9.9,18.2,6.9,2,14.1,2.7,21.3,3.2h0Z"/>
      <path class="cls-1" d="M75.43,116.87l-1.7-6.8c-3.3-.8-6.7-1.6-10-2.4-1.6,5.3-3,10.8-3.9,16.3l10.2-1,5.4-6v-.1Z"/>
      <path class="cls-1" d="M61.23,132.57c1.5,2.2,3.1,4.4,4.6,6.6,2.4-.6,4.7-1.5,7-2.2,1.1-.4,7.7-2.4,8-2.6.5-.3,2.1-2.9,1.4-3.3-2.3-.5-13.5-4.5-14.7-4.3-1,1-2.3,1.7-3.4,2.7-.5.5-3.1,2.5-3,3.1h.1Z"/>
      <path class="cls-1" d="M26.83,143.17c-.6-1.8-1.4-3.5-2-5.2-1.9-4.8-4.1-9.6-6.8-14-.7,0-3.4,10.7-4,11.9,1.9,3.2,3.7,6.3,5.6,9.5,1.2-.3,2.4-.5,3.6-.8.5-.1,3.6-1.1,3.7-1.3h0l-.1-.1Z"/>
      <path class="cls-1" d="M69.33,125.07c5.2,1.7,10.4,3.3,15.6,5-.4-2-2.8-11.8-3.2-12.5-.1-.3-.4-.7-.7-.7-6,1.4-7.5,4.2-11.7,8.2h0Z"/>
      <path class="cls-1" d="M58.93,115.17c-4.1-.7-8.1-1.4-12.2-2-1.6,1.5-3.5,2.8-5.1,4.2.5.9,1,3.5,1.2,3.9,1,1.8,8.4,4.8,10.5,6,2.4-3.7,4-7.9,5.6-12h0v-.1Z"/>
      <path class="cls-1" d="M62.03,105.87c-1.5-1.2-2.9-2.4-4.4-3.6-.8-.1-7.7,7.8-10.9,10.8,4.1.7,8.1,1.4,12.2,2,1.2-3.1,2.3-6.1,3-9.3h0l.1.1Z"/>
      <path class="cls-1" d="M33.53,83.07c4.9-2,9.4-4.9,14.1-7.3,1.7-1.5,4-13.4,4.4-16.4-1.2-1.8-2.4-3.7-3.3-5.7-.8-1.9-2.2-7-2.8-6.8-.3.3-.3.8-.3.8.8,9.3-7.6,27.2-12.2,35.4h.1Z"/>
      <path class="cls-1" d="M31.63,86.27c.3,0,1.6-2.8,1.9-3.3,4.7-8.2,13-26.1,12.2-35.4-.8,1.8-2.8,8.4-5.1,13.7-2.5,5.8-11.4,21.7-11.4,23,0,.9,2,2,2.3,1.9h0l.1.1Z"/>
      <path class="cls-1" d="M63.03,140.07c-2.2-5.3-1.5-7.2-6.7-10.3-.7-.4-2.5-1.7-3.2-1.6-1.6.7-3.2,1.4-4.8,2.1,3.1,3,6.2,6,9.4,9.1,1.9,1,3.8,3.9,5.3.7h0Z"/>
      <path class="cls-1" d="M35.63,118.87c-.9,0-14.8,3.9-16.8,4.8,1.9,2.1,3.7,4.1,5.6,6.2,1.6-1,12-9.5,12.1-10.3,0-.4-.5-.7-.9-.7h0Z"/>
      <path class="cls-1" d="M28.53,143.07c.4-.1,6.6-5,6.6-5.4,0,0-.5-1.6-.6-1.7-3.7-1.6-7.4-3.1-11.1-4.7-.2.2-.3.2-.3.5,0,.6,4.2,9.5,4.5,11.1.5.4.4.4.9.2h0Z"/>
      <path class="cls-1" d="M67.13,145.57c.2.4,2.5,3.6,2.8,3.6,2.6-4.1,5.2-8.1,7.8-12.2-.1-.3.4-.5,0-.8-1,.3-2,.6-2.9.8-2.6,1.1-5.3,2.2-7.9,3.4.6,1.9-.4,3.1.4,5.3h0l-.2-.1Z"/>
      <path class="cls-1" d="M27.63,88.87c-.3,1.1-2.1,11.2-3.5,16.1-1.5,5.6-3.8,11.1-5.1,16.8,5.7-.7,15-4,21-5.4-3.3-9.6-7.6-18.8-11.8-28-.3-.1-.5.3-.6.5h0Z"/>
      <path class="cls-1" d="M50.83,176.67c-.4,1.1-4.2,6.6-4.3,7-.3,2.8,10.1,0,11.8-.4.2-.3-4.5-5.1-5.1-5.6-2.6-2.2-2-1-2.4-1h0Z"/>
      <path class="cls-1" d="M37.83,136.57c3.2-2.1,4.1-5.6,1.7-8.8-.9.1-5.6-.8-5.8,0,.5,2.1.7,4.3,1.2,6.4.5,2.2,0,4.3,2.8,2.4h.1Z"/>
      <path class="cls-1" d="M41.03,177.47c.2,0,.4.4.6.4-.4-2.1-.9-4.2-1.3-6.3-2.5-.2-5.1-.4-7.6-.6,0,.3-.4-.1-.4.9.6,1.7.7,3.6,1.2,5.4,0,0,.4.7.4.8.5.7,9.2-4,7.1-.6h0Z"/>
      <path class="cls-1" d="M75.83,150.77l3.7,1.9c-1.2,1.1-2.6,5.8-4.1,2.5v.6c.2.2,1,1.2,1.1,1.2.5-.4.9-.9,1.3-1.4,2.1-2.3,6-9.4,7.5-12.4-3,1.1-6,2.2-8.9,3.3-.6,1.4-.5,2.8-.6,4.3h0Z"/>
      <path class="cls-1" d="M39.53,126.97c1.2-2.8,2.7-6.1,1-8.9-3.2,2.7-6.3,5.5-9.5,8.2,0,.6,7.5.7,8.5.7h0Z"/>
      <path class="cls-1" d="M34.33,134.07c0-1.1-.8-6.3-1.5-6.7-3.5-1.4-4.8,1.2-7.8,3.4,0,.8,8,3.6,9,4.4.8.1.5,0,.4-1h0l-.1-.1Z"/>
      <path class="cls-1" d="M52.63,176.27c-.3-.5-.1-.7-.2-.8,0,0-.3.1-.8-.5,0-2.2-.3-4.4-.2-6.6-.8.3-.3-2.5-.2-2.6-.3-.1-.7-1.6-1-2.4-1.3-4.3-2.8-8.6-4.3-12.8,0,.1-.4.8-.4.8,0,1.1,4.6,12.6,4.7,13.5,0,1.9-1,.6-1.6-.1l-.8-.2c.4.6.8,1.3,1.2,1.9-.4.5-1.1.8-1.6,1.1-1.8,1.3-3.9,2.4-5.8,3.7-.3,0-.5-.2-1.1-.2-.1,0-.8-.2-.8-.2-2.2,0-4.5-.2-6.7-.4,0,.2-.1.3-.2.6,2.5.2,5.1.4,7.6.6.4,2.1.9,4.2,1.3,6.3h.4v-.5c.3-.2.5,0,.8-.3-1,0-1.2-3.6-1.4-5l4.1.5s.2.2.6-.4c-1.3-.3-2.6-.6-3.9-.9,3.8-2.3,8.8-6.7,6.5-2.8l.8-.2c1.1-2.7,1.4,2.7,1.4,6.1,0,.7.4,1,0,1-.2.2-4.1.9-4.7,1l.2.6c.8-.2,3.5-.8,3.8-.8.2,0,0,.4,0,.4h.4c.5,0-.2-1.2,2.4,1,.2-.4-.2-.9-.4-1.2-.2-.3-.2-.2-.2-.2h.1Z"/>
      <path class="cls-1" d="M28.63,169.97c-2.6-.6-5.3-1-7.8-2l-.3.3c.9,2.6,1.9,5.2,2.9,7.8.7,0,2.9-1.9,3.7-2.4,1.4-1,2.7-2.2,4.1-3.1,0-.4-1.3-.3-2.4-.5h0l-.2-.1Z"/>
      <path class="cls-1" d="M64.03,128.87c4.1-3.4,4-2-4.2-3.7-1.5.9-3.1,1.8-4.6,2.8,0,.2,1.6,1.3,1.8,1.5.7.4,2.5,1.2,3.6,2,1.1-.9,2.3-1.7,3.4-2.6h0Z"/>
      <path class="cls-1" d="M18.73,160.17c0,2.1-.8,5.8.9,6.5.2,0,.4-.3.6-.4,2.4-1.6,5.7-5.2,8.3-6.8l-9.9.7h.1Z"/>
      <path class="cls-1" d="M83.73,131.67c-1.1,1.6-2.5,3.9-1.7,5.8,0,.2,3.3,3.1,3.6,3.1.5.2,2.8-.3,3.7-.4.4-.4-4.8-8.7-5.5-8.6h0l-.1.1Z"/>
      <path class="cls-1" d="M52.83,105.47c.2-.3.9-4.4-.7-5.4s-11.3-3.7-14.2-4.9c-.2.2-.3.2-.3.5-.1,1,3.3,17.5,4,20.1,1.8-1.6,10.8-9.2,11.3-10.3h-.1Z"/>
      <path class="cls-1" d="M33.73,97.37c7.1,17.2,5.6,13.9,2.8-2.3-1.1.5-2.1,1.3-2.8,2.3Z"/>
      <path class="cls-1" d="M13.33,137.77c-.2,3-.4,6-.6,8.9l4.8-1.5c-.3-.8-3.5-8-4.2-7.4h0Z"/>
      <path class="cls-1" d="M50.33,176.27c-.3,0-2.9.6-3.8.8-.6.1-3.5.5-3.7.9.5.9,2,3.9,2.4,4.4.1.1.5.5.7.8.5,0,3.5-5.8,4.4-6.5v-.4h0Z"/>
      <path class="cls-1" d="M27.43,144.47c-1.8-.5-4.7,1.2-6.8,1.4l-.5.7c-.2,1.6-.6,3.2-.8,4.8,1.7-.8,2.7-2.4,4.2-3.5,2.4-1.8,4.8-1.6,4-3.5h0l-.1.1Z"/>
      <path class="cls-1" d="M42.03,177.87h-.4c-.2,0-.4-.4-.6-.4-.2.3-5.7,3.3-6.5,2.9.5,1.1,2.2,1.2,0,1.6,1.3.5,2.7,1.2,4,1.6,1.5-1.4,2.8-3.1,3.7-4.9,0,0-.2-.6-.2-.8h0Z"/>
      <path class="cls-1" d="M71.33,103.97c-.3,0-4.5,2.9-5.4,3.4l6.6,1.7c.9-1.8,2.2-5.5-1.2-5.1h0Z"/>
      <path class="cls-1" d="M36.43,142.27c.6-.3,2.2.2,2.7-.8,2.1-3.7,6-8.1.8-5.5-.7.5-1,.6-1,.6-2.5,2-2.1,1.8-2.4,5.7h-.1Z"/>
      <path class="cls-1" d="M38.63,183.57c1,.3,6.2,1.4,6.8,1.2,1-.3-.1-1.7-.5-2.4-.7-1.2-1.8-2.5-2.7-3.7-.8,1.8-2.2,3.5-3.7,4.9h.1Z"/>
      <path class="cls-1" d="M13.53,161.57c1.7-2.8,5.7-4.8,4.5-8.6-3.5,3.3-5.9,2.7-4.5,8.6Z"/>
      <path class="cls-1" d="M52.43,127.67l-8.2-4,4.1,5.5,4.2-1.5h-.1Z"/>
      <path class="cls-1" d="M17.93,156.67l-5,6.2c.3.5.4,1,.6,1.5,1.4-.6,2.8-1.2,4.3-1.8.1-2,.4-3.9.1-5.9h0Z"/>
      <path class="cls-1" d="M17.83,162.57c-1.4.6-2.9,1.2-4.3,1.8,1.5,4.8,3.3,7.2,4.3.5.1-.7,0-1.6,0-2.3Z"/>
      <path class="cls-1" d="M16.83,170.47c1.7,1.8,3.3,3.5,5.5,4.8l-2.4-7.1c-.5.2-3.2,1.4-3,2.3h-.1Z"/>
      <path class="cls-1" d="M41.03,177.47c2-3.4-6.6,1.3-7.1.6.2.7.3,1.6.6,2.2.8.5,6.3-2.5,6.5-2.9v.1Z"/>
      <path class="cls-1" d="M46.53,177.07l-.2-.6c-.4,0-2.5.3-2.7.1,2.8-4.1,2.3-4.7,7.3-1.1.4,0,0-.3,0-1-.7.1-2.4-1.3-4.3-1.9.9-1.4,1.9-2.8,2.8-4.2l-.8.2c-.7,1.2-1.8,2.5-2.7,3.7-.4.6-.6.4-.6.4-.2.2-2,3.8-2.7,4.5-.3.4-.5.1-.8.3v.5c0,.2.2.8.2.8.8,1.2,2,2.4,2.7,3.7h.4c-.4-.5-1.9-3.4-2.4-4.4.2-.4,3.1-.8,3.7-.9h0l.1-.1Z"/>
      <path class="cls-1" d="M63.43,105.77c0,.2,1.8,1.3,1.9,1.3.3,0,3.8-2.8,4.4-3.2-1.5-.3-2.9-.6-4.4-.9-.3.3-2,2.6-1.9,2.8Z"/>
      <path class="cls-1" d="M13.03,147.37c-.5.4-.4,5.5-.3,6.3,1.9-1.1,3.8-2.2,5.7-3.3,1.9-6.8.9-4.1-5.4-3.1v.1Z"/>
      <path class="cls-1" d="M13.33,156.27c1.7-1.3,3.3-2.6,5-4,.4-.7,0-1.5.2-1.9-1.9,1.1-3.8,2.2-5.7,3.3,0,.4.2,2.6.5,2.6h0Z"/>
      <path class="cls-1" d="M31.73,176.47c-.2,3-1.2,3.5,2.4,4.2,0-1.1-.5-2.1-.8-3.1-1.3-5.1-1.3-6.8-1.6-1v-.1Z"/>
      <path class="cls-1" d="M20.83,167.87c2.5,1.1,5.2,1.5,7.8,2l.2-.2c-1-.1-7.6-1.8-8.3-2.2-.3.2-.4.6-.6.6l2.4,7.1c.4.2.6.5,1,.8-.9-2.6-1.9-5.2-2.9-7.8l.3-.3h.1Z"/>
      <path class="cls-1" d="M39.03,141.47h.2l3.2-4.5c.1,0,.7,2.1.7,2.2h.4c-1.1-6-4-12.7.2-11-.3-1.6-2.1,0-2.8.5l1.4,5.9c-1,.2-1.7.8-2.4,1.3,5.2-2.6,1.3,1.8-.8,5.5h0l-.1.1Z"/>
      <path class="cls-1" d="M73.43,109.17c4.9,1.5,3.5,1,.9-3.4-.3,1.1-.6,2.2-.9,3.4Z"/>
      <path class="cls-1" d="M60.13,102.17c.3.4,2.6,3.1,2.8,3.1.1,0,1.4-2,1.3-2.1-.2-.5-3.6-.6-4.2-.9h0l.1-.1Z"/>
      <path class="cls-1" d="M77.13,157.67c0,.6,2.7,3.2,2.8,3.4,1.8,1.3,2.4.4,4.5-.9-1-1.6-1.3-5.1-3.2-4.6-.2,0-.3.1-.5.2-.9.4-2.4,1.5-3.7,1.9h.1Z"/>
      <path class="cls-1" d="M82.83,154.87c.2.1,1.6,1.5,4,2.6,6.2-7,5.8-6.9-4-2.6Z"/>
      <path class="cls-1" d="M83.53,156.07l-.3.3c.7.5,1.1,3.2,1.9,3.1.1,0,1.3-1.4,1.3-1.5,0-.4-2.6-1.4-2.9-1.9h0Z"/>
      <path class="cls-1" d="M77.03,146.17c.4,0,7.1-3.2,8.4-3.3,2.1-.3-5.7-6.1-6.2-6.1-.6,0-.8.6-1.1,1-.8,1.2-2.2,5.2-2.4,6.7.8.2.5,1.6,1.3,1.6h0v.1Z"/>
      <path class="cls-1" d="M75.63,144.47c0,.3.1.5-.4.4.7.5.9.8,1.2,1.6,3-1.1,6-2.2,8.9-3.3,4.5-1.6.5-.2,0-.4-1.3,0-8,3.3-8.4,3.3-.8,0-.5-1.4-1.3-1.6h0Z"/>
      <path class="cls-1" d="M31.63,171.17c-1.4.4-3.1,2.1-4.4,3.1-.6.5-1.1.9-1.6,1.4.7-.6,1.2,1.1,1.2,1.5,0,1.8-3-.1-2.4-.7,0,0-.4.2-.6.5,0,.8,6.9,3.4,7.3,2.6.2-1,0-2.1.2-3.1,0-.8.7-5.2.3-5.3h0Z"/>
      <path class="cls-1" d="M26.83,177.17c0-.4-.5-2.1-1.2-1.5,0,0-.5,0-1.2.8-.5.6,2.5,2.5,2.4.7h0Z"/>
      <path class="cls-1" d="M80.63,135.37c-1.7-.1,0,2,.6,1.6,0,0,0-1.6-.6-1.6Z"/>
      <path class="cls-1" d="M49.23,155.87c3.3-1.5,6.7-3.1,10-4.6l.6-.8c.7-2.7,1.5-5.4,2.2-8-1.4.3-12.4,5.4-14.2,6.5.3,2.2.5,4.4.8,6.6.3.4.6.3.6.3h0Z"/>
      <path class="cls-1" d="M51.63,174.97c.5.6.8.5.8.5,1.8-1.5,3.5-3.1,5.3-4.6,0-3,.1-6,.2-8.9l-.3-.3c-2.1,1.8-4.5,3.1-6.4,5,0,.4.2.8.2,1.7,0,2.2.3,4.4.2,6.6h0Z"/>
      <path class="cls-1" d="M42.43,157.47c-3.7.9-7.5,1.2-11.1,2.6.1,3.2.3,6.3.4,9.5.1.2.3.1.5.1.8,0,8.8-11.8,11.1-12.5,0-.6,0-1.4.2-1.9-.8-.6-.1,1.9-1.1,2.2h0Z"/>
      <path class="cls-1" d="M59.13,151.27c-3.3,1.5-6.7,3.1-10,4.6,1.2,1.4,5.2,2.8,6.9,3.8.2.4-2.2,3.9-2.8,4v.6c1.5-1.3,3.2-2.3,4.7-3.6-.1-4,4.4-17.2,4.5-18.1,0-.6-.4-.1-.4-.1-.7,2.7-1.5,5.4-2.2,8l-.6.8h-.1Z"/>
      <path class="cls-1" d="M43.13,159.37c.2-2-1.6,0-4.3,2.9-.7.8-5.9,7.3-6.1,7.7-.1.3.2.3.2.3,2.2.2,4.5.4,6.7.4,1.1-2.1,3.3-9.5,3.5-11.4v.1Z"/>
      <path class="cls-1" d="M31.33,160.17c3.6-1.4,7.4-1.8,11.1-2.6,1-.3.3-2.8,1.1-2.2.4-1.7.6-3.5.8-5.3-4.5,2.9-8.7,6.3-13,9.4v.8h0v-.1Z"/>
      <path class="cls-1" d="M53.23,163.67c.7-.1,3-3.5,2.8-4-1.7-.9-5.8-2.4-6.9-3.8,0,0-.3.1-.6-.3-.3-2.2-.5-4.4-.8-6.6-.2.1-1.3.4-1.5.6-.8.7-.2.6-.3.8,1.5,4.3,2.9,8.5,4.3,12.8.7-.1,2.9.4,3,.4h0v.1Z"/>
      <path class="cls-1" d="M39.33,142.27c-.2,0-2.5.6-3,.6-.9.9,1.1,1-.9,2.6-.2.6-1.5,2.7-.9,3.1,1.5,0,3.1.1,4.6.2,2.1.1,5,.6,5.3-.2,0,0,0-.8-.6-1.5-.4-.6-4.1-4.7-4.4-4.8h-.1Z"/>
      <path class="cls-1" d="M75.43,155.27c.3-1.5.3-3,.4-4.5.1-1.4,0-2.9.6-4.3-.3-.8-.5-1.1-1.2-1.6-.3-.2-1.1-.7-1.3-.6-.3,0-3.6,5.1-3.6,5.4,1.6,1.9,3.3,4.6,5.1,6.2v-.6h0Z"/>
      <path class="cls-1" d="M50.23,164.77c0-.9-4.6-12.4-4.7-13.5-.8-1.6-1.3,4.3-1.6,7,1.3,1.6,3.5,5.2,4.7,6.4.7.7,1.7,2,1.6.1h0Z"/>
      <path class="cls-1" d="M47.33,167.47c.5-.4,1.2-.6,1.6-1.1-.4-.6-.8-1.3-1.2-1.9-.3-.4-3.6-4.7-3.9-4.9-1.2,3-1.9,6.3-2.8,9.4,2.3-1.3,10.1-5,6.3-1.4h0v-.1Z"/>
      <path class="cls-1" d="M34.93,149.17c.4,1.8.8,3.7,1.2,5.5,2.6-1.4,4.8-3.4,7.3-4.9-1.5-.4-3-.3-4.5-.4-1.3,0-3-.3-4.1-.2h.1Z"/>
      <path class="cls-1" d="M43.53,139.17c.3,1.8.6,3.7.8,5.5l7.5-1c1.7-1.4,3.7-2.4,5.1-4.1-3.4-2.6-9.7-10-13.2-11.4-4.2-1.7-1.3,5-.2,11h0Z"/>
      <path class="cls-1" d="M45.13,148.97c1.1-.2,5.5-4.3,6.7-5.3l-7.5,1c.2,1.6.2,3.9.8,4.3h0Z"/>
      <path class="cls-1" d="M58.53,161.47c0,3-.1,6-.2,8.9l.6-.5c.5-1.1,2.6-3.2,3-4.7-.4-.7-2.9-3.9-3.5-3.8h0l.1.1Z"/>
      <path class="cls-1" d="M60.23,171.97c1.7-1,3.5-1.8,5.1-3.1-1-1-1.7-2.2-2.8-3.1.2.4.6.8.6,1.3-1.8,1.5-5.2,4.5-2.9,4.8v.1Z"/>
      <path class="cls-1" d="M44.33,144.67c-.2-1.8-.5-3.7-.8-5.5h-.4c.1.6.1,3.6.2,4.4.4,3.5,1.5,3.9-4.1-2.1h-.2c-.4,1-2,.5-2.7.8-.1,0-1.5,1.5-.2,1.9-1.1,0-.7,1.1-.8,1.3,2-1.6,0-1.8.9-2.6.5,0,2.9-.6,3-.6.3,0,3.9,4.2,4.4,4.8.5.7.6,1.5.6,1.5,0,.1.4.6.5.6l.3-.2c-.7-.4-.6-2.7-.8-4.3h.1Z"/>
      <path class="cls-1" d="M64.43,175.87c0,.7-4.2,4.9-4.9,5.9,0,0,.3.8,1.1.6,2-.2,10.7-6.6,10.7-7.2,0-.1-1.4-1.5-1.7-1.5-.4,0-3.9,1.7-5.2,1.8v.4Z"/>
      <path class="cls-1" d="M61.83,174.57c0,1,.5.7.8.8,2.3-.8,4.6-1.6,6.9-2.3-1.2-.9-2-2.3-3.1-3.4,0,0-.5-.3-.6-.4-1.2,1.8-2.7,3.6-4.1,5.3h.1Z"/>
      <path class="cls-1" d="M57.53,174.77c0-1.2.2-2.3-.4-2.4-1.3,1.3-3.8,2.2-4.5,3.9l.2.2c1.5,1.3,2.8,2.9,4.5,4.1.3-1.9.2-3.8.2-5.7h0v-.1Z"/>
      <path class="cls-1" d="M61.83,174.57c-.9,1.1-1.9,2.3-3,3.3,2.7,3.3,2.8.2,5.7-2v-.4c-.8.1-.9.3-1.8,0-.3,0-.9.2-.8-.8h0l-.1-.1Z"/>
      <path class="cls-1" d="M58.73,177.87l-.2-.2s-.3,0-.4-.1c-.2-.6.4-2.6-.6-2.8,0,1.9.1,3.8-.2,5.7.5.3.7.2.8.2-.7-3.1,2-1.2,2.1-1,.2.3-1.1,1.4-1.1,1.8.1,0,.3.1.4.2.7-1,4.8-5.2,4.9-5.9-2.9,2.2-3,5.4-5.7,2h0v.1Z"/>
      <path class="cls-1" d="M60.33,179.67c0-.2-2.9-2.1-2.1,1,0,0,.4.5,1,.8,0-.4,1.3-1.5,1.1-1.8Z"/>
      <path class="cls-1" d="M59.83,172.37c.5,1.5-.7,3.8-1.2,5.3.2.3.2.2.2.2,1.1-.9,2.1-2.1,3-3.3,1.4-1.7,2.9-3.5,4.1-5.3,0,0-.5-.3-.6-.4-1.6,1.2-3.4,2-5.1,3.1,0,0,0,.4-.4.4h0Z"/>
      <path class="cls-1" d="M57.53,174.77c1,.1.4,2.2.6,2.8,0,.2.4,0,.4.1.6-1.5,1.8-3.8,1.2-5.3,0-.3-.2-.2-.2-.2.2.9-1-.4-1.5,0-.2.2,0,1-.2,1s.1-1.6-.7-.8c.6.1.4,1.3.4,2.4h0Z"/>
      <path class="cls-1" d="M59.83,172.37c.3,0,.4-.4.4-.4-2.3-.2,1.1-3.2,2.8-4.8,0-.5-.4-.9-.6-1.3-.1-.2-.3-.4-.4-.6-.4,1.4-2.6,3.6-3,4.7-.7,1.7,0,1.1.6,2.2l.2.2h0Z"/>
      <path class="cls-1" d="M40.43,170.97c0-.7.4-1.4.6-2,1-3.1,1.6-6.3,2.8-9.4v-.4s-.3.6-.7.2c-.2,1.9-2.3,9.3-3.5,11.4,0,0,.7.2.8.2h0Z"/>
      <path class="cls-1" d="M50.23,163.17c.3.9.7,2.3,1,2.4,0-.1,1.7-1.1,2-1.4v-.6c-.2,0-2.3-.5-3-.4h0Z"/>
      <path class="cls-1" d="M77.13,157.67c1.3-.4,2.8-1.5,3.7-1.9.2-.1.3-.2.5-.2.5-.2,1-.4,1.5-.6-.2-.1-.4-.3-.6-.4,0,0-.4-.1-.6-.2-.1.5-.5.4-.6.4-.7.3-2,1-2.7,1h-.4c-.4.5-.8,1-1.3,1.4-.2,0-.9-1.1-1.1-1.2-1.8-1.6-3.5-4.3-5.1-6.2,0-.3,3.2-5.3,3.6-5.4.3,0,1.1.4,1.3.6.5,0,.3-.1.4-.4.3-1.5,1.7-5.5,2.4-6.7,0-.5-.3-.5-.4-.8-2.6,4.1-5.2,8.1-7.8,12.2-.2,0-2.6-3.1-2.8-3.6-.8-2.1.2-3.4-.4-5.3,2.6-1.1,5.3-2.2,7.9-3.4-.8.2-1.9.8-1.8,0-2.3.8-4.7,1.6-7,2.2-1.5-2.2-3.1-4.4-4.6-6.6,0-.6,2.5-2.7,3.1-3.1l-.2-.6c-1.1.9-2.2,1.8-3.4,2.6-1-.8-2.9-1.6-3.6-2l-.8.4c5.3,3,4.5,5,6.7,10.3-1.5,3.1-3.4.3-5.3-.7-.2-.1-.6,0-.7-.4-.3.4.2.3,0,.6-1.4,1.7-3.4,2.7-5.1,4.1-1.2.9-5.7,5.1-6.7,5.3l-.3.2s-.4-.5-.5-.6c-.3.8-3.2.4-5.3.2v.6c1.5,0,3,0,4.5.4.6.1.7-.1.8.2-.2,1.8-.4,3.6-.8,5.3-.1.6-.2,1.4-.2,1.9-2.2.8-10.2,12.5-11.1,12.5-.2,0-.4,0-.5-.1-.1-3.2-.3-6.3-.4-9.5v-.8c-.2.2-.5-.2-.8,0l.6,10.5c-.7,0-1.5,0-2.2-.1l-.2.2c1.1.2,2.4.1,2.4.5-1.4,1-2.7,2.1-4.1,3.1l.2.6c1.3-1,3-2.6,4.4-3.1.4.1-.2,4.5-.3,5.3h.4c.4-5.7.4-4.1,1.6,1l.2-.2c-.5-1.7-.6-3.7-1.2-5.4,0-1,.3-.6.4-.9,0-.3.1-.4.2-.6,0,0-.3,0-.2-.3.2-.4,5.4-7,6.1-7.7,2.6-2.9,4.4-5,4.3-2.9.4.4.7-.2.7-.2.2.1,0,.4,0,.4.2.2,3.6,4.5,3.9,4.9l.8.2c-1.1-1.2-3.4-4.8-4.7-6.4.3-2.7.8-8.6,1.6-7,0,0,.3-.7.4-.8,0-.2-.5-.1.3-.8.2-.2,1.3-.5,1.5-.6,1.8-1.1,12.9-6.2,14.2-6.5,0,0,.5-.6.4.1,0,.9-4.6,14.1-4.5,18.1-1.5,1.3-3.2,2.3-4.7,3.6-.4.3-2,1.3-2,1.4s-.5,3,.2,2.6c0-.9-.3-1.4-.2-1.7,1.9-1.9,4.3-3.2,6.4-5l.3.3c0,3-.1,6-.2,8.9-1.8,1.5-3.5,3.1-5.3,4.6,0,.2,0,.3.2.8.7-1.6,3.2-2.5,4.5-3.9.8-.8.5.8.7.8s0-.8.2-1c.5-.4,1.7.9,1.5,0-.6-1.2-1.3-.5-.6-2.2l-.6.5c0-3,.1-6,.2-8.9.6-.1,3,3.1,3.5,3.8.1.2.3.4.4.6,1.2.8,1.9,2.1,2.8,3.1,0,0,.5.3.6.4,0,0,.5.3.6.4l.2-.4c-2.2-2.1-7.5-7.4-7.7-9.5.7-.8,14-.2,15.9.1,1.4.2,2.8.4,4.1,1.2.2,0,.7.2.8.2l.2-.4c-.2-.1-2.8-2.8-2.8-3.4h.1ZM75.53,142.07c.2.6-.8,2.8-1.1,1.7,0-.1,1-1.5,1.1-1.7ZM57.63,140.47l3,1.6c-11.6,5.5-17.7,9.1-3-1.6ZM69.63,150.17c.7-.1,3.2,3.6,3.7,4.3-.2.4-4.9-1.7-5-1.9-.2-.5,1-2.3,1.3-2.3h0v-.1ZM67.43,146.97c.2.5,1.7,2.3,1.7,2.5,0,.4-1.5,1.6-1.7,2.1v-4.7.1ZM61.53,134.47c.2.6,5.1,6.5,2.4,5.9-.3,0-2.3-5.1-2.4-5.9ZM58.83,159.17c.1-2.3,3.7-16.5,4.2-17.2.2-.2,2-1.1,2.1-1.1,1.2.2,1.4,9.7,1.3,11.3-2.5,2.3-5.1,4.7-7.6,7h0ZM60.33,159.17c1.5-1.5,4.2-4.4,5.8-5.5,0,0,.3-.5.5-.6.9-.2,3.4,1.2,4.4,1.6,2.5,1.1,5,2.5,6.4,5.1-5.7-.7-11.4-.7-17.1-.6h0Z"/>
      <path class="cls-1" d="M81.23,155.47c-.2,0-.3.1-.5.2.2,0,.3-.2.5-.2Z"/>
      <path class="cls-1" d="M65.13,140.87c-.1,0-2,.9-2.1,1.1-.5.7-4,14.9-4.2,17.2,2.5-2.3,5.1-4.7,7.6-7,.1-1.6,0-11.1-1.3-11.3h0Z"/>
      <path class="cls-1" d="M60.73,142.07l-3-1.6c-14.6,10.7-8.6,7.1,3,1.6Z"/>
      <path class="cls-1" d="M70.93,154.67c-1,1.4-2,2.7-2.9,4.1l-1.9-5.1c-1.6,1.1-4.3,4-5.8,5.5,5.7,0,11.4,0,17.1.6-1.4-2.6-3.9-3.9-6.4-5.1h-.1Z"/>
      <path class="cls-1" d="M70.93,154.67c-.9-.4-3.5-1.8-4.4-1.6-.2.1-.5.6-.5.6l1.9,5.1c1-1.4,2-2.7,2.9-4.1h.1Z"/>
      <path class="cls-1" d="M68.33,152.57c.1.2,4.7,2.3,5,1.9-.4-.7-3-4.4-3.7-4.3-.4,0-1.6,1.8-1.3,2.3h0v.1Z"/>
      <path class="cls-1" d="M67.43,146.97v4.7c.3-.5,1.7-1.8,1.7-2.1,0-.2-1.5-2-1.7-2.5v-.1Z"/>
      <path class="cls-1" d="M63.93,140.47c2.7.6-2.2-5.3-2.4-5.9.1.8,2.1,5.8,2.4,5.9Z"/>
      <path class="cls-1" d="M75.53,142.07c-.1.3-1.2,1.6-1.1,1.7.3,1.1,1.3-1.2,1.1-1.7Z"/>
      <path class="cls-1" d="M80.13,162.27c-2.5,3.9-5.2,7.8-8,11.5-.8.2-2.7-2.5-3.2-3.1-.1-.1-2.2-1.4-2.7-2.5,1.4-.4,2.8-.9,4.3-1.3.8-1.7,3.1-6.1,4.3-6.9-1.8-.3-15.2-.9-15.9-.1.2,2.1,5.5,7.3,7.7,9.5,1.8,1.7,3.5,3.5,5.4,5.1,1.2-1.4,8.6-11.5,8.4-12.3,0,0-.7-.6-.8-.7,0,0-.6-.2-.8-.2.2.1,1.2,1,1.2,1.1h0l.1-.1Z"/>
      <path class="cls-1" d="M70.53,166.87c-.6,1.2-1,2.6-1.6,3.9.5.5,2.3,3.2,3.2,3.1,2.9-3.7,5.5-7.6,8-11.5,0,0-1.1-1-1.2-1.1-1.2-.9-2.6-1-4.1-1.2-1.2.9-3.4,5.2-4.3,6.9v-.1Z"/>
      <path class="cls-1" d="M66.33,168.17c.4,1.1,2.5,2.4,2.7,2.5.7-1.2,1-2.6,1.6-3.9-1.4.4-2.8.9-4.3,1.3h0v.1Z"/>
      <path class="cls-1" d="M28.63,149.17c-.8-2.9-.2-4.4-5-1-1.3.9-3.2,3.2-4.6,4.3-.2,2.4,0,4.8-.2,7.1.2-.1.3-.2.6-.2,3.1-3.4,6.1-6.8,9.2-10.2h0Z"/>
      <path class="cls-1" d="M30.43,158.27c-.6-3-1-6.1-1.8-9.1-3.1,3.4-6.1,6.8-9.2,10.2,1.3-.1,10.7-.6,11-1.1h0Z"/>
      <path class="cls-1" d="M31.13,169.87l-.6-10.5c-.9.6-1.8,1.4-2.6,2,0,2.4,1.1,5.1,2.2,7.2-.3,1.4-6.4-3-8.3-2.3-.2.2-1,.4-1.4,1.2h.2c.7.4,7.3,2.1,8.3,2.2.7,0,1.5,0,2.2.1h0v.1Z"/>
      <path class="cls-1" d="M30.03,168.57c-1.2-2.1-2.2-4.8-2.2-7.2-2.1,1.5-4.1,3.2-6.1,4.9,2-.6,8,3.7,8.3,2.3h0Z"/>
      <path class="cls-1" d="M33.93,149.27c0,1.6-1.8,6.7,1.1,6.4.2,0,1-1,1.1-1-.4-1.8-.8-3.7-1.2-5.5-.2,0-.5-.6-1,.1Z"/>
      <path class="cls-1" d="M21.73,166.27c2-1.7,4-3.3,6.1-4.9.9-.6,1.7-1.4,2.6-2,.3-.2.6.2.8,0,4.4-3.1,8.5-6.4,13-9.4-.1-.3-.2,0-.8-.2-2.5,1.5-4.7,3.4-7.3,4.9,0,0-.9,1-1.1,1-2.9.3-1-4.8-1.1-6.4.5-.6.8,0,1-.1,1.1,0,2.8.1,4.1.2v-.6c-1.5-.1-3.1-.2-4.6-.2-.6-.4.7-2.4.9-3.1,0-.2-.2-1.3.8-1.3-1.3-.4,0-1.9.2-1.9.4-3.9,0-3.7,2.4-5.7h-1c-2.8,1.8-2.3-.2-2.8-2.4h-.6c0,1,.3,1.1-.4,1,0,0,.6.7.6.8,0,.2.6,1.6.6,1.7,0,.4-6.2,5.2-6.6,5.4-.5.2-.4.2-.9-.2-1.1-.9-2.8-7.8-2.9-4.9.7,1.7,1.4,3.4,2,5.2-.1.3-3.2,1.2-3.7,1.3.4,1.1,3.6-1.6,4.3,0,.8,1.9-1.6,1.6-4,3.5-1.4,1.1-2.5,2.7-4.2,3.5,0,0-.4,0-.4.1,0,0,.2.8.2.9,1.4-1.1,3.2-3.3,4.6-4.3,4.8-3.4,4.2-1.8,5,1,.8,3,1.3,6,1.8,9.1-.3.5-9.6,1-11,1.1-.3,0-.4,0-.6.2,0,.2-.4.4-.4.5-.1,1.7-.2,4.2,0,5.9-.9.1-1.3,3.5-.6,1.7.2-.5,0-.9.6-1.2.7-.4.4.5,1.2.2-1.7-.7-.9-4.4-.9-6.5l9.9-.7c-2.7,1.6-6,5.2-8.3,6.8,1,0-.5.7,0,1.2.5-.9,1.2-1.1,1.4-1.2h.1ZM33.43,155.67l.9.3s-1.1,1-1.1.9c-.3-.2,0-1.2.2-1.2h0ZM28.43,144.17c1.1-.5,6.8-5.8,7.2-5.8.6,0,.4.6.3,1.3,0,.5-2.4,10.2-3,10.3l-4.6-5.8h.1ZM28.73,146.17c1.5,1.8,2.9,3.6,4.4,5.4-1.3,14.6-3.2-.5-4.4-5.4Z"/>
      <path class="cls-1" d="M17.83,167.67c.7.3,1.2-.6.6-1.2-.6.4-.4.7-.6,1.2Z"/>
      <path class="cls-1" d="M35.93,139.67c0-.7.3-1.4-.3-1.3-.5,0-6.1,5.3-7.2,5.8l4.6,5.8c.5,0,2.9-9.7,3-10.3h-.1Z"/>
      <path class="cls-1" d="M33.13,151.47c-1.5-1.8-2.9-3.6-4.4-5.4,1.2,4.9,3,20,4.4,5.4Z"/>
      <path class="cls-1" d="M33.23,156.87s1.2-.9,1.1-.9l-.9-.3c-.1,0-.5,1-.2,1.2h0Z"/>
      <path class="cls-1" d="M80.23,153.87c.5,0,.8.2,1.3.4.2,0,.6.2.6.2,1.4-.5,9.5-3.3,9.8-4.2,1-3.2-3.2-5.9-5.6-7-2.4,4.3-4.8,8.6-8,12.4.6,0,2-.7,2.7-1l-.7-.8h-.1ZM91.03,148.97c.8,0,.4,1.4.2,1.6-.3.4-8.4,3.3-9.5,3.4,1.2-.6,8.7-5,9.3-5Z"/>
      <path class="cls-1" d="M80.23,153.87l.7.8s.5.1.6-.4c-.5-.2-.8-.5-1.3-.4h0Z"/>
      <path class="cls-1" d="M91.03,148.97c-.5,0-8.1,4.4-9.3,5,1.1,0,9.1-3,9.5-3.4.2-.2.6-1.6-.2-1.6Z"/>
      <path class="cls-1" d="M79.53,152.77l-3.7-1.9c-.1,1.5-.2,3-.4,4.5,1.4,3.2,2.9-1.5,4.1-2.5h0v-.1Z"/>
      <path class="cls-1" d="M51.03,174.37c0-3.4-.3-8.8-1.4-6.1-.9,1.4-1.9,2.8-2.8,4.2,1.8.6,3.6,2.1,4.3,1.9h-.1Z"/>
      <path class="cls-1" d="M41.03,168.87c-.2.6-.7,1.3-.6,2,.6,0,.8.3,1.1.2,1.9-1.3,4-2.4,5.8-3.7,3.8-3.5-4,.1-6.3,1.4h0v.1Z"/>
      <path class="cls-1" d="M43.73,176.57c.2.2,2.3,0,2.7-.1.6,0,4.5-.9,4.7-1-5-3.6-4.5-3-7.3,1.1h-.1Z"/>
      <path class="cls-1" d="M42.33,171.27c1.3.3,2.6.6,3.9.9.8-1.2,1.9-2.4,2.7-3.7,2.3-3.9-2.7.4-6.5,2.8h-.1Z"/>
      <path class="cls-1" d="M41.43,172.07c.2,1.4.4,4.9,1.4,5,.6-.7,2.5-4.3,2.7-4.5l-4.1-.5h0Z"/>
      <path class="cls-1" d="M43.33,143.57c0-.8,0-3.7-.2-4.4,0-.1-.6-2.2-.7-2.2l-3.2,4.5c5.6,6,4.4,5.7,4.1,2.1h0Z"/>
    </g>
  </g>
</svg>