<?xml version="1.0" encoding="UTF-8"?>
<svg id="uuid-1e10164f-72c6-4459-8454-e8ece0d81c5c" xmlns="http://www.w3.org/2000/svg" xmlns:xlink="http://www.w3.org/1999/xlink" viewBox="0 0 53.53 54.59">
  <defs>
    <style>
      .cls-1 {
        fill: none;
      }

      .cls-2 {
        fill: #fba770;
      }

      .cls-3 {
        fill: #f4e4a7;
      }

      .cls-4 {
        fill: #0d1b26;
      }

      .cls-5 {
        fill: #ec1d19;
      }

      .cls-6 {
        fill: #003d85;
      }

      .cls-7 {
        fill: #73c60d;
      }

      .cls-8 {
        fill: #0a1e30;
      }

      .cls-9 {
        fill: #b7205a;
      }

      .cls-10 {
        fill: #22bfd5;
      }

      .cls-11 {
        fill: #74dbe5;
      }

      .cls-12 {
        fill: url(#Gradiente_sem_nome_8);
      }

      .cls-13 {
        fill: url(#Gradiente_sem_nome_6);
      }

      .cls-14 {
        fill: url(#Gradiente_sem_nome_7);
      }

      .cls-15 {
        fill: url(#Gradiente_sem_nome_9);
      }

      .cls-16 {
        fill: #e1374b;
      }

      .cls-17 {
        fill: #2f0c2e;
      }

      .cls-18 {
        fill: #081827;
      }

      .cls-19 {
        fill: #fab10b;
      }

      .cls-20 {
        fill: #f2223f;
      }

      .cls-21 {
        fill: #fb5c89;
      }

      .cls-22 {
        fill: #967112;
      }

      .cls-23 {
        fill: #9a0d40;
      }

      .cls-24 {
        fill: #cd710c;
      }

      .cls-25 {
        fill: #09383c;
      }

      .cls-26 {
        fill: #0b0b0e;
      }

      .cls-27 {
        fill: #03448a;
      }

      .cls-28 {
        fill: #052536;
      }

      .cls-29 {
        fill: #099a52;
      }

      .cls-30 {
        fill: #fcb106;
      }

      .cls-31 {
        fill: #461852;
      }

      .cls-32 {
        fill: #86e339;
      }

      .cls-33 {
        fill: #f41f59;
      }

      .cls-34 {
        fill: #3ab0cd;
      }

      .cls-35 {
        fill: #990f58;
      }

      .cls-36 {
        fill: #382f65;
      }

      .cls-37 {
        fill: #00448a;
      }

      .cls-38 {
        fill: #294f2b;
      }

      .cls-39 {
        fill: #9d1641;
      }

      .cls-40 {
        fill: #e01c56;
      }

      .cls-41 {
        fill: #007b9f;
      }

      .cls-42 {
        fill: #f53428;
      }

      .cls-43 {
        fill: #1a609b;
      }

      .cls-44 {
        fill: #80df12;
      }

      .cls-45 {
        fill: #119a51;
      }

      .cls-46 {
        fill: #1a2028;
      }

      .cls-47 {
        fill: #54c17f;
      }

      .cls-48 {
        fill: #f8631a;
      }

      .cls-49 {
        fill: #097035;
      }

      .cls-50 {
        fill: #fcab96;
      }

      .cls-51 {
        fill: #e22f59;
      }

      .cls-52 {
        fill: #f8205b;
      }

      .cls-53 {
        fill: #11913c;
      }

      .cls-54 {
        fill: #051021;
      }

      .cls-55 {
        fill: #081434;
      }

      .cls-56 {
        fill: #1f303f;
      }

      .cls-57 {
        fill: #162633;
      }

      .cls-58 {
        fill: #8db4a1;
      }

      .cls-59 {
        fill: #3f0e3a;
      }

      .cls-60 {
        fill: #0caaca;
      }

      .cls-61 {
        fill: #980d48;
      }

      .cls-62 {
        fill: #0094b5;
      }

      .cls-63 {
        fill: #f6631b;
      }

      .cls-64 {
        fill: #f7a604;
      }

      .cls-65 {
        fill: #fa1d5b;
      }

      .cls-66 {
        fill: #081525;
      }

      .cls-67 {
        fill: #a28e15;
      }

      .cls-68 {
        fill: #00aaca;
      }

      .cls-69 {
        fill: #182d4f;
      }

      .cls-70 {
        fill: #ca3867;
      }

      .cls-71 {
        fill: #0f2b2a;
      }

      .cls-72 {
        fill: #7ede16;
      }

      .cls-73 {
        fill: #193a32;
      }

      .cls-74 {
        fill: #2b404e;
      }

      .cls-75 {
        fill: #d10c3c;
      }

      .cls-76 {
        fill: #f73327;
      }

      .cls-77 {
        fill: #331635;
      }

      .cls-78 {
        fill: #fbc14d;
      }

      .cls-79 {
        fill: #860d3e;
      }

      .cls-80 {
        fill: #f7f7ec;
      }

      .cls-81 {
        fill: #e11c4e;
      }
    </style>
    <linearGradient id="Gradiente_sem_nome_9" data-name="Gradiente sem nome 9" x1="10.34" y1="-994.23" x2="9.71" y2="-995.31" gradientTransform="translate(0 -970.83) scale(1 -1)" gradientUnits="userSpaceOnUse">
      <stop offset="0" stop-color="#0c72a8"/>
      <stop offset="1" stop-color="#0f334e"/>
    </linearGradient>
    <linearGradient id="Gradiente_sem_nome_8" data-name="Gradiente sem nome 8" x1="10.77" y1="-994.06" x2="11.3" y2="-994.9" gradientTransform="translate(0 -970.83) scale(1 -1)" gradientUnits="userSpaceOnUse">
      <stop offset="0" stop-color="#1b2844"/>
      <stop offset="1" stop-color="#082a37"/>
    </linearGradient>
    <linearGradient id="Gradiente_sem_nome_7" data-name="Gradiente sem nome 7" x1="6.84" y1="-994.79" x2="6.14" y2="-995.07" gradientTransform="translate(0 -970.83) scale(1 -1)" gradientUnits="userSpaceOnUse">
      <stop offset="0" stop-color="#f8205b"/>
      <stop offset="1" stop-color="#970f48"/>
    </linearGradient>
    <linearGradient id="Gradiente_sem_nome_6" data-name="Gradiente sem nome 6" x1="8.42" y1="-995.5" x2="8.28" y2="-996.88" gradientTransform="translate(0 -970.83) scale(1 -1)" gradientUnits="userSpaceOnUse">
      <stop offset="0" stop-color="#050d26"/>
      <stop offset="1" stop-color="#352a66"/>
    </linearGradient>
  </defs>
  <g>
    <rect class="cls-1" x="1.36" y="29.75" width="26.58" height="11.71"/>
    <path class="cls-74" d="M10.04,33.35h-.72l-.22-.74c-.04-.15-.09-.27-.13-.36-.04-.09-.11-.15-.18-.19-.08-.04-.18-.07-.31-.07h-.49v1.36h-.68v-3.36h1.36c.41,0,.71.08.91.24s.29.41.29.76c0,.22-.06.4-.18.53s-.28.22-.48.26c.16.05.29.15.37.28s.16.32.23.55l.22.74h0ZM9.06,31.34c.09-.08.14-.2.14-.35s-.05-.27-.14-.35c-.09-.08-.22-.12-.36-.12h-.7v.94h.7c.15,0,.27-.04.36-.12h0Z"/>
    <path class="cls-74" d="M10.72,33.09c-.19-.18-.28-.44-.28-.78v-1.27c0-.34.09-.6.28-.78.19-.18.49-.27.92-.27h1.12v.53h-1.12c-.18,0-.31.04-.39.13-.09.08-.13.21-.13.39v.37h1.43v.53h-1.43v.37c0,.18.04.31.13.39.09.09.22.13.39.13h1.13v.53h-1.13c-.43,0-.73-.09-.92-.27h0Z"/>
    <path class="cls-74" d="M13.5,33.1c-.24-.21-.36-.51-.36-.92v-1.03c0-.4.12-.71.36-.92.24-.21.59-.31,1.05-.31.33,0,.6.05.81.16.21.11.38.26.5.47l-.51.35c-.1-.16-.2-.28-.32-.35-.11-.07-.27-.11-.48-.11-.26,0-.44.06-.56.18-.12.12-.18.29-.18.52v1.03c0,.23.06.4.18.52.12.12.3.18.56.18.22,0,.39-.04.51-.11.12-.08.18-.19.18-.33v-.15c0-.2-.09-.3-.27-.3h-.55v-.53h.74c.26,0,.45.06.57.18.12.12.18.3.18.55v.29c0,.29-.12.51-.37.68s-.57.25-.99.25c-.46,0-.81-.1-1.05-.31h0Z"/>
    <path class="cls-74" d="M16.64,33.09c-.19-.18-.28-.44-.28-.78v-1.27c0-.34.09-.6.28-.78.19-.18.49-.27.92-.27h1.12v.53h-1.12c-.18,0-.31.04-.39.13-.09.08-.13.21-.13.39v.37h1.43v.53h-1.43v.37c0,.18.04.31.13.39.09.09.22.13.39.13h1.13v.53h-1.13c-.43,0-.73-.09-.92-.27h0Z"/>
    <path class="cls-74" d="M22.04,29.99v2.57c0,.26-.05.46-.16.59-.11.13-.28.2-.51.2h-.48l-.99-2.29v2.29h-.63v-3.36h.76l1.22,2.79h0c.05,0,.09-.02.11-.07s.03-.13.03-.25v-2.47h.63Z"/>
  </g>
  <g>
    <g>
      <path class="cls-4" d="M27.91,31.39c-4.34-4.34-8.68-8.67-13.02-13.01.21-.06.22-.18.15-.36-.15-.4-.17-.81,0-1.21.39-.44.87-.51,1.4-.35.08.03.18.09.26-.02.04.03.09.07.13.1,1.94,1.94,3.89,3.89,5.83,5.83,0,.03-.02.07-.03.1-.02,0-.04.02-.04.05-.44.55-.74,1.19-1.14,1.77-.06.08-.1.2.05.26.06.03.11.02.16-.02h.01c.99.1,1.97-.02,2.95-.13.09.03.17.03.25-.02.59.12,1.2.12,1.8.18.77.08,1.54.18,2.31.27.89.91,1.78,1.82,2.67,2.73-.39-.08-.58-.42-.8-.68-.43-.5-.99-.64-1.59-.7-.31-.03-.61,0-.93-.07-.78-.17-1.58-.26-2.42-.49,1.9,1.9,3.73,3.73,5.56,5.56-.08-.16-.2-.28-.32-.41-.18-.19.02-.18.12-.21.62.27,1.27.48,1.92.65.6.18,1.2.38,1.8.55.36.1.7.27,1.09.23.06.07.12.13.21.14.32.33.64.67.96,1-.22.22-.47.4-.62.69-.1.19-.25.22-.48.18-.73-.14-1.46-.24-2.25-.36l2.43,2.43,2.44,2.44c.01-.17.03-.23.02-.3-.16-1.12-.32-2.24-.47-3.36-.03-.2-.12-.41.03-.61.02-.02.06-.04.06-.05-.21-.53-.36-1.09-.67-1.59.57-.4,1.24-.54,1.88-.78.16.22.05.44,0,.66-.18.77-.39,1.54-.56,2.31-.04.19-.13.4-.04.59.25.5.52,1,.78,1.49-.76,1.33-1.49,2.68-2.12,4.08l-.08.05s-.04-.02-.06,0c0,0-.03.02-.03.02-1.18-1.18-2.36-2.37-3.54-3.55.19-.78.37-1.57.59-2.34.08-.29.01-.47-.17-.68-.4-.47-.78-.97-1.17-1.45-.35-.44-.63-.94-1.1-1.27-.11-.17-.29-.12-.44-.13-1.27-.08-2.54-.14-3.8-.21h0Z"/>
      <path class="cls-60" d="M37.64,41.02s.05-.03.08-.05c.23,0,.45-.1.66-.18.98-.37,1.96-.75,2.94-1.12.08-.05.14-.12.18-.21.64-1.57,1.26-3.14,1.81-4.75,0-.02,0-.03-.02-.03.01,0,.02-.02.03-.03h0s.06.05.09.07c.14.25.29.49.42.74.79,1.47,1.65,2.91,2.56,4.31-.14.07-.29.04-.44.03-1.36-.03-2.73-.06-4.09-.12-.36-.02-.45.08-.36.41.3,1.12.58,2.24.88,3.36-.04.04-.07.07-.11.11-1.43-.79-2.95-1.4-4.41-2.14-.24-.12-.38-.09-.5.17-.43.95-.88,1.88-1.33,2.82-.27.57-.39,1.22-.89,1.66h-.02c-.85-1.35-1.69-2.69-2.53-4.03-.13.05-.11.14-.12.22-.12.77-.23,1.54-.35,2.31-.06.35-.11.69-.27,1.01-1.06-.47-2.13-.94-3.19-1.42.72-.58,1.54-.99,2.31-1.5.48-.32,1.05-.48,1.48-.89.09-.02.18-.06.27-.07,1.36-.07,2.7-.34,4.05-.49.27-.03.56-.01.8-.21,0,0,.03-.02.03-.02.02.04.04.04.06,0h0Z"/>
      <path class="cls-44" d="M48.96,21.73c.13.1.11.25.11.39-.14.15-.24.32-.32.51-.62,1.51-1.34,2.97-2,4.46-.15.35-.33.44-.66.41-1.49-.15-2.98-.29-4.47-.44-.08-.15-.1-.3-.11-.47-.1-1.25-.21-2.51-.32-3.76-.3-.84-.6-1.68-1-2.47-.32-.62-.58-1.26-.86-1.9-.04-.09-.1-.17-.01-.26.14.23.41.24.6.38.85.65,1.81,1.15,2.6,1.89.09.08.2.13.33.1.09.03.18.06.27.08,1.43.27,2.87.54,4.3.81.52.1,1.03.19,1.55.29h0ZM45.74,26.66c.07.05.12.24.24.14.11-.09,0-.19-.06-.28-.49-.91-.99-1.82-1.47-2.73-.47-.9-.98-1.76-1.51-2.62-.14-.23-.28-.25-.44.01-.29.48-.6.96-.91,1.43-.08.12-.09.21.01.32.33.32.62.69.99.96,1.14.83,2.06,1.89,3.14,2.78h0Z"/>
      <path class="cls-60" d="M41.61,27.05c1.49.15,2.98.29,4.47.44.33.03.51-.06.66-.41.66-1.49,1.38-2.95,2-4.46.08-.19.18-.36.32-.51.18.53.24,1.08.36,1.62.39,1.79.54,3.61.76,5.42.03.28-.08.53-.15.79-.25,1.08-.54,2.15-.82,3.22-.01.05-.05.09-.08.13-.08-.09-.15-.19-.29-.09-.13-.09-.31-.1-.41-.23-.05-.01-.1-.03-.15-.04h0s-.1-.08-.17-.05c-.02,0-.04,0-.04-.03-.05-.06-.11-.12-.2-.09h0s-.1-.09-.18-.06h0c-.35-.29-.74-.48-1.17-.6-.23-.07-.28-.16-.1-.33.15-.14.12-.3.11-.48-.02-.65-.29-1.26-.31-1.91-.01-.34-.14-.53-.49-.63-.34-.09-.43.15-.57.32-.48.56-.95,1.14-1.48,1.66-.16.16-.29.13-.37-.06-.54-1.21-1.31-2.3-1.75-3.56,0-.03.02-.06.02-.08h0Z"/>
      <path class="cls-30" d="M48.96,21.73c-.52-.1-1.03-.19-1.55-.29-1.43-.27-2.87-.54-4.3-.81-.09-.02-.18-.05-.27-.08.64-1.72,1.53-3.33,2.29-5-.04-.02-.05-.03-.06-.03-1.23.41-2.38,1.01-3.58,1.48-.68.27-1.35.59-2.02.92-.22.11-.3.03-.29-.2.02-.51.04-1.03.06-1.54.05-1.04.13-2.08.16-3.11.01-.43.11-.88-.05-1.31,1.12.57,2.16,1.28,3.24,1.92.76.46,1.5.97,2.28,1.41.42.24.56.65.79,1.01,1.12,1.8,2.25,3.6,3.25,5.47.03.05.03.1.05.15h0Z"/>
      <path class="cls-48" d="M39.35,11.77c.17.43.07.88.05,1.31-.03,1.04-.11,2.08-.16,3.11-.03.51-.04,1.03-.06,1.54-.01.23.07.31.29.2.66-.33,1.33-.65,2.02-.92,1.2-.48,2.35-1.08,3.58-1.48,0,0,.02.01.06.03-.76,1.67-1.65,3.28-2.29,5-.13.03-.24-.01-.33-.1-.79-.73-1.75-1.24-2.6-1.89-.19-.15-.47-.15-.6-.38-.05-.05-.09-.11-.14-.14-.43-.24-.76-.68-1.32-.65-.06-.05-.12-.1-.17-.15-.07-.08-.14-.09-.22-.03-.1-.08-.2-.17-.29-.25-.26-.13-.49-.34-.8-.36-.1-.06-.19-.11-.29-.17-.04,0-.08,0-.11-.01-.1-.09-.2-.18-.29-.26-.07-.04-.12,0-.17.03-.08-.07-.16-.14-.23-.21-.03-.18-.48-.17-.26-.43.42-.47.88-.91,1.36-1.33.6-.53,1.23-1.04,1.84-1.55.16-.13.23-.31.08-.45-.24-.22-.32-.52-.5-.77.53.06,1.07.14,1.58.3h0Z"/>
      <path class="cls-30" d="M19.51,5.74c.69-.26,1.43-.31,2.14-.45,1.34-.26,2.69-.48,4.03-.75.48-.1.89,0,1.27.25.52.33,1.11.57,1.55,1.04.15.16.31.1.49.05,2.09-.6,4.2-.52,6.32-.22.04,0,.07.04.1.06-.09.31-.21.6-.36.89-.23.45-.39.94-.59,1.41-.51.87-.8,1.85-1.34,2.71-.24-.06-.37-.26-.53-.42-1.27-1.19-2.26-2.63-3.49-3.85-.32-.32-.62-.51-1.04-.23-.48-.17-.84-.6-1.38-.65-.13-.12-.28-.15-.45-.07-.04,0-.08,0-.12,0h-.12c-.18-.09-.35-.06-.51.05-.11-.06-.21-.03-.29.06-.04,0-.08,0-.12,0-.09-.01-.19-.04-.27-.03-.96.12-1.92.24-2.88.37-.12-.05-.23-.02-.35,0-.58.05-1.17.1-1.75.13-.24.01-.43-.04-.3-.36h0Z"/>
      <path class="cls-74" d="M22.66,22.37c-1.94-1.94-3.89-3.89-5.83-5.83-.11-.61-.27-1.23.24-1.75.56-.34,1.09-.17,1.62.09.12-.08-.03-.2.06-.3.03.02.06.03.09.05,1.46,1.54,2.97,3.02,4.5,4.49.95.96,1.89,1.92,2.84,2.88-.6-.19-1.19-.37-1.79-.56-.25-.08-.48-.09-.63.17-.41.2-.69.55-1.06.81-.01-.02-.02-.03-.03-.05h0Z"/>
      <path class="cls-4" d="M26.17,22.01c-.95-.96-1.89-1.92-2.84-2.88.49-.15,1.01-.16,1.52-.24.16-.03.26.05.34.16.53.71,1.27,1.04,2.1,1.26.55.15,1.09.36,1.66.51-.79-1.13-1.37-2.38-2.21-3.47.15-.12.16-.28.11-.45.09-.25.11-.52.15-.78.08-.5.03-1.05.37-1.49.01-.01.03-.02.05-.03.09.02.14-.03.18-.11.04-.02.07-.04.11-.07.09.02.14-.02.18-.09.04-.02.07-.05.11-.07.04-.02.08-.03.12-.05.04-.02.07-.04.11-.07.35.04.53-.22.74-.42h0c.19.03.25-.13.35-.23h0c.16.04.21-.08.29-.17h0c.17.04.22-.1.3-.2,0-.02.02-.03.04-.03.12.04.18-.03.24-.12h0c.38-.08.65-.33.93-.57.02-.01.04-.03.06-.04.11.01.17-.06.23-.13.54-.34,1.07-.68,1.61-1.03.31-.03.49-.26.69-.46h0c.3-.01.49-.25.72-.39.29-.18.34-.05.36.2-.1.1-.2.19-.29.29,0-.02-.02-.03-.04-.03-.21-.03-.26.19-.4.27-.07.08-.18.14-.2.26-.04.04-.08.07-.13.11-.04.03-.09.05-.13.08h0c-.05-.01-.12-.05-.15-.03-.45.27-.82.64-1.13,1.06-.33.29-.65.57-.98.86-.24.12-.46.27-.65.46-.9.9-1.79,1.8-2.69,2.69-.15.15-.29.31-.32.54-.02.02-.04.04-.06.07,0,.04,0,.07,0,.11.34.5.55,1.08.95,1.55h0s.02.08.03.12c.55.99,1.1,1.99,1.65,2.98l.02.17c-1.22-.03-2.44.05-3.67.08-.14-.06-.28-.13-.42-.19h0Z"/>
      <path class="cls-45" d="M48.85,33.21c.13-.1.21,0,.29.09-.16.6-.45,1.15-.68,1.73-.59,1.48-1.18,2.95-1.78,4.43-.06.14-.13.27-.19.4-.03-.03-.07-.05-.11-.08-.91-1.4-1.76-2.84-2.56-4.31-.13-.25-.28-.49-.42-.74.42-.09.84-.18,1.26-.26,1.38-.26,2.73-.67,4.1-.98.16-.04.36-.09.09-.27h0Z"/>
      <path class="cls-27" d="M35.13,46.09c.5-.44.62-1.09.89-1.66.45-.94.9-1.88,1.33-2.82.12-.27.27-.29.5-.17,1.46.74,2.98,1.35,4.41,2.14-.36.39-.87.56-1.25.91-.24-.04-.41.14-.57.26-.64.47-1.39.63-2.14.77-1.06.19-2.11.39-3.17.58h0Z"/>
      <path class="cls-44" d="M32.43,41.8c-.43.41-1,.57-1.48.89-.77.51-1.59.91-2.31,1.5h-.02s-.02-.02-.02-.02c-.01-.02-.02-.03-.04-.05-.05-.13-.09-.26-.14-.38-.25-1.16-.71-2.25-.99-3.4-.02-.07-.09-.13-.14-.19-.03-.2-.05-.39-.14-.58-.43-.92-.83-1.85-1.26-2.76-.3-.63-.5-1.31-.92-1.88-.02-.09,0-.16.1-.19v.04c.07.06.14.11.22.17.76.54,1.61.95,2.31,1.58.02.04.04.08.07.12-.03.05-.07.09-.07.14-.04,1-.08,2-.13,3,0,.22.13.21.27.2.47-.02.95-.06,1.42-.08.35.21.7.4,1.04.62.73.46,1.54.77,2.24,1.28h0Z"/>
      <path class="cls-76" d="M37.77,11.47c.17.25.25.55.5.77.16.14.08.32-.08.45-.62.51-1.24,1.02-1.84,1.55-.47.42-.94.85-1.36,1.33-.23.26.23.24.26.43-.29.07-.44-.16-.63-.3,0-.34.01-.67.02-1.01.02-1.22.02-2.43-.08-3.65.02-.03.05-.06.07-.09,1.05.15,2.1.3,3.14.53h0Z"/>
      <path class="cls-65" d="M44.5,44.23c.61-.41,1.07-.98,1.57-1.5.27-.28.43-.37.71-.03.42.5.98.89,1.34,1.45.55.59.95,1.23.74,2.09-.13.55-.53.92-.91,1.3-.59-.44-1.1-.98-1.62-1.5-.23-.31-.1-.53.16-.75.11-.09.24-.17.25-.34.11-.28.41-.44.44-.78-.49.35-.91.76-1.29,1.21-.08.1.04.19.1.28-.01.03-.03.06-.04.08-.07.05-.13.1-.2.15-.07-.06-.13-.13-.2-.19,0-.01,0-.03,0-.04v-.23c.45-.46.94-.88,1.31-1.42-.48.31-.79.81-1.3,1.09-.02.02-.04.03-.06.05-.37-.25-.6-.65-.99-.88,0-.02,0-.04,0-.06h0Z"/>
      <path class="cls-27" d="M46.38,39.77s.07.05.11.08c-.42.41-.84.82-1.25,1.23-.59.45-1.1.99-1.63,1.5-.37.35-.78.64-1.23.89-.29-1.12-.58-2.24-.88-3.36-.09-.33,0-.43.36-.41,1.36.06,2.73.08,4.09.12.15,0,.3.04.44-.03h0Z"/>
      <path class="cls-65" d="M34.46,8.03c.19-.47.36-.96.59-1.41.14-.29.27-.58.36-.89.04.01.07.02.11.03h0c.39.09.78.18,1.14.35.47.25.95.45,1.48.54h-.02c.16.18.4.2.6.31.22.12.28.19.03.38-.65.52-1.39.87-2.11,1.26-.42.23-.78.58-1.23.77-.11-.12-.21-.27-.37-.28-.3-.03-.36-.21-.43-.47-.06-.2.08-.45-.16-.6h0Z"/>
      <path class="cls-30" d="M25.07,34.77s0-.04,0-.04c.16-.38.46-.66.72-.96.69-.8,1.4-1.59,2.11-2.38,1.27.07,2.54.14,3.8.21.15,0,.33-.04.44.13-.03.05-.06.11-.09.16-.04.03-.07.06-.11.09-.03.01-.06.02-.1.03-.06.02-.12.04-.17.06-.08-.03-.13,0-.17.07-.6.31-1.2.62-1.79.93-.62-.46-1.24-.91-1.93-1.42.13.84.1,1.59.07,2.34-.13.06-.26.12-.39.17-.8.2-1.61.4-2.41.6h0Z"/>
      <path class="cls-61" d="M46.34,46.05c.52.52,1.03,1.05,1.62,1.5.03.03.07.06.1.09-.25.3-.51.6-.84.82-.83.56-1.73.45-2.48-.26-.18-.17-.35-.34-.52-.51l1.22-1.22c-.19-.12-.37.1-.45-.09-.07-.15.11-.22.18-.33.02,0,.04,0,.06,0,.24.23.38.03.52-.13.07-.05.13-.1.2-.15.03.24.21.26.39.29h0Z"/>
      <path class="cls-48" d="M19.51,5.74c-.13.31.06.37.3.36.58-.04,1.17-.08,1.75-.13.12-.01.24-.04.35,0,.39.78.91,1.48,1.39,2.2.06.32.11.64.17.96-.02.04-.02.08.02.1h0c-.09.1-.19.18-.28.27l-.14-.12c-.03-.09-.08-.14-.17-.13-.62-.54-1.24-1.08-1.92-1.54-.09-.07-.17-.13-.26-.2-.08-.16-.22-.24-.38-.3-.05-.03-.09-.07-.14-.1-.05-.11-.15-.16-.25-.21-.07-.05-.14-.1-.2-.15-.07-.13-.19-.19-.32-.24-.09-.07-.17-.13-.26-.2-.09-.09-.17-.17-.26-.26.03-.11.12-.14.21-.17h-.02c.12-.09.27-.12.42-.14h0Z"/>
      <path class="cls-81" d="M21.13,8.91c.07.06.13.12.2.18,0,.04.02.05.05.04.95.78,1.88,1.57,2.71,2.47.09.31.38.44.56.66.11.13.18.24.07.42-.36.64-.71,1.29-.97,1.98-.06.16-.14.29-.26.4-.33-.76-.41-1.58-.63-2.37-.23-.81-.35-1.65-.64-2.45.07-.17-.07-.19-.17-.26-.33-.22-.69-.4-.96-.69-.01-.21-.16-.37-.31-.59.15.09.24.14.33.2Z"/>
      <path class="cls-61" d="M21.1,9.31c.27.3.63.48.96.69.1.06.24.09.17.26-.28.06-.39.28-.53.5-.22.36-.38.77-.7,1.06-.66-.84-1.2-1.76-1.76-2.67-.35-.56-.65-1.15-.93-1.75-.07-.14-.17-.3.08-.39.12.13.22.27.36.38.65.54,1.31,1.08,1.96,1.61.08.08.15.19.28.19.04.03.08.07.11.1h0Z"/>
      <path class="cls-27" d="M31.83,45.6c.16-.32.21-.67.27-1.01.12-.77.23-1.54.35-2.31.01-.08,0-.17.12-.22.84,1.34,1.69,2.68,2.53,4.02-1.09-.14-2.2-.22-3.27-.48h0Z"/>
      <path class="cls-45" d="M24.98,34.92c.41.57.62,1.25.92,1.88.43.92.83,1.85,1.26,2.76.09.19.11.38.14.58-.01.02-.03.04-.05.05-.72-.77-1.68-1.13-2.6-1.58-.12-.08-.12-.2-.1-.33.2-1.12.28-2.25.42-3.37h0Z"/>
      <path class="cls-30" d="M17.07,14.79c-.51.52-.35,1.14-.24,1.75-.04-.03-.09-.07-.13-.1-.11-.12-.22-.24-.33-.36-1.16-1.23-2.45-2.33-3.52-3.64.05-.08.11-.17.16-.25.02,0,.04,0,.07,0,1.27.8,2.54,1.6,3.8,2.41.08.05.13.14.19.2h0Z"/>
      <path class="cls-61" d="M34.63,10.94s-.05.06-.07.09c-.57.19-.91.69-1.36,1.04-.22.17-.58.3-.62.58-.04.32.3.48.53.65.03.02.03.08.06.1.44.39.4,1.04.77,1.47.18.21.12.36-.07.51-1.1-.4-2.2-.8-3.3-1.21.25-.25.5-.5.75-.76.33-.29.65-.57.98-.86.48-.27.88-.65,1.28-1.03h0c.07.02.11-.01.13-.08.04-.04.08-.07.13-.11.08-.07.17-.15.25-.22.1-.12.28-.15.35-.31.02,0,.03.01.04.03.05.03.1.06.15.1h0Z"/>
      <path class="cls-61" d="M15.04,16.8c-.18.4-.16.81,0,1.21.07.18.06.31-.15.36-.28-.18-.36-.49-.51-.76-.84-1.46-1.66-2.93-2.48-4.4.18-.14.29-.38.56-.38.34.49.7.98,1.03,1.48.53.82,1.04,1.65,1.56,2.48h0Z"/>
      <path class="cls-61" d="M23.5,15.08c.12-.11.2-.25.26-.4.25-.69.61-1.34.97-1.98.1-.19.04-.29-.07-.42-.18-.22-.48-.36-.56-.66,1.02.91,1.84,2,2.71,3.05-.35.19-.74.21-1.13.25-.66.08-1.33.14-1.98.3h0s-.07.01-.11.02h0s-.05-.1-.07-.15h0Z"/>
      <path class="cls-4" d="M42.37,43.46c.44-.25.86-.54,1.23-.89.54-.51,1.04-1.05,1.63-1.5.05.07.09.13.14.2-.13.01-.23.02-.34.15-.43.54-.9,1.04-1.46,1.44-.19.13-.17.24-.03.38.18.18.36.37.54.55-.18.19-.36.38-.54.56-.07.07-.14.15-.21.22-.06.06-.11.12-.17.18-.29.27-.62.5-.8.87-.14.17-.21,0-.28-.07-.36-.36-.72-.72-1.08-1.08.38-.35.89-.52,1.25-.91.04-.04.07-.07.11-.11h0Z"/>
      <path class="cls-59" d="M23.5,15.08s.05.1.07.15c-.01.02-.02.04-.04.05-.7-.7-1.17-1.59-1.76-2.37-.27-.35-.52-.73-.77-1.09.33-.29.48-.7.7-1.06.14-.22.25-.44.53-.5.29.8.41,1.64.64,2.45.22.79.3,1.61.63,2.37h0Z"/>
      <path class="cls-59" d="M23.69,15.21c.65-.15,1.32-.22,1.98-.3.38-.04.77-.06,1.13-.25.12.03.24.03.35-.03.07,0,.15,0,.22-.01-.33.44-.29.99-.37,1.49-.04.27-.07.53-.15.78-.15.14-.31.07-.45-.01-.9-.57-1.76-1.2-2.71-1.68h0Z"/>
      <path class="cls-61" d="M44.51,44.29c.39.22.62.63.99.88-.2.19-.14.36.05.51,0,.01,0,.03,0,.04-.11.11-.21.22-.32.33-.02,0-.04,0-.06,0-.51-.09-.82.24-1.11.57-.12.14-.22.3-.33.45-.38-.23-.67-.56-.95-.9.11-.11.24-.22.34-.34.16-.2.46-.31.43-.64.08-.08.15-.15.23-.23.11,0,.16-.05.16-.16.2-.17.39-.34.59-.51h0Z"/>
      <path class="cls-27" d="M27.25,40.2s.04-.03.05-.05c.05.06.12.12.14.19.29,1.15.74,2.24.99,3.4-.04.05-.08.1-.12.15-.03-.02-.07-.04-.1-.06-.1-.32-.32-.52-.62-.64-.38-.38-.76-.76-1.14-1.14-.09-.08-.15-.24-.33-.15-.08-.03-.07-.1-.09-.17.48-.45.79-1.03,1.21-1.53h0Z"/>
      <path class="cls-60" d="M27.25,40.2c-.42.5-.73,1.08-1.21,1.53-.29-.4-.41-.87-.61-1.31-.27-.6-.53-1.2-.79-1.8.92.45,1.88.81,2.6,1.58h0Z"/>
      <path class="cls-56" d="M44.09,43.8c-.18-.18-.35-.37-.54-.55-.15-.14-.16-.25.03-.38.56-.4,1.03-.91,1.46-1.44.11-.13.21-.14.34-.15.14.09.25.2.34.34,0,.16.07.23.22.24.04.16-.1.2-.18.28-.54.56-1.08,1.11-1.62,1.67-.02,0-.03,0-.05,0Z"/>
      <path class="cls-74" d="M13.08,12.18s-.04.01-.07,0c-.03-.06-.07-.08-.13-.06-.13-.09-.27-.18-.39-.29-.57-.52-1.14-1.04-1.7-1.56-.15-.17-.32-.3-.5-.44-.12-.09-.36-.17-.23-.42,1.16.57,2.24,1.28,3.38,1.9.16.09.11.19.04.3-.13.19-.26.38-.4.56h0Z"/>
      <path class="cls-4" d="M10.06,9.43c-.13.25.11.33.23.42.18.13.35.27.5.44-.07.11-.09.24.02.33.24.2.42.46.57.72.25.41.72.65.86,1.13.05.17.2.17.32.07.14-.11.27-.23.31-.41.06-.02.11,0,.13.06-.05.08-.11.17-.16.25-.16.1-.29.24-.4.4-.27,0-.38.24-.56.38-.58-.84-1.01-1.77-1.54-2.64-.28-.47-.56-.94-.86-1.46.26.03.41.17.56.3h0Z"/>
      <path class="cls-59" d="M27,14.31c-.52-.84-1.02-1.69-1.63-2.47.08-.1.22-.16.14-.33.03-.04.06-.08.1-.12.13-.01.11-.09.08-.18.01-.02.03-.05.04-.07.03-.04.07-.08.1-.12.08-.03.16-.02.23.02.32.59.46,1.23.65,1.86.13.46.36.9.32,1.41h-.03s0,0,0,0Z"/>
      <path class="cls-61" d="M35.42,9.37c.45-.2.8-.54,1.23-.77.72-.4,1.46-.75,2.11-1.26.25-.2.19-.26-.03-.38-.2-.11-.44-.13-.6-.32.32.02.58.2.86.31.25.09.23.21.02.35-.58.39-1.15.79-1.72,1.19-.49.02-.8.38-1.16.65-.04.03-.09.07-.13.1-.2.04-.36.14-.5.3-.03.02-.06.04-.08.06-.13,0-.19.08-.26.16-.48.33-1.01.59-1.45.97h0c-.25.13-.49.26-.69.46-.54.34-1.07.68-1.61,1.03-.1,0-.17.06-.23.13-.02.01-.04.02-.06.04-.02-.02-.04-.04-.06-.06.06-.15.19-.21.32-.29.57-.38,1.21-.65,1.71-1.14.04-.03.07-.07.11-.1.14,0,.25-.06.37-.14.62-.44,1.25-.87,1.87-1.3h0Z"/>
      <path class="cls-57" d="M19.74,6.75c.07.05.14.1.2.15.02.15.09.24.25.21.05.03.09.07.14.1.08.16.17.31.38.3.09.07.17.13.26.2.04.18.19.25.31.35.82.66,1.64,1.31,2.35,2.09-1.5-1.15-3.01-2.29-4.52-3.44-.19-.14-.28-.32-.25-.55.08.07.14.18.28.15.09.07.17.13.26.2.04.17.16.24.32.24h0Z"/>
      <path class="cls-59" d="M43.72,47.07c.11-.15.21-.31.33-.45.29-.33.6-.66,1.11-.57-.07.11-.25.17-.18.33.09.19.27-.03.45.09l-1.22,1.22c-.11-.25-.47-.3-.5-.62h0Z"/>
      <path class="cls-65" d="M21.1,9.31s-.08-.07-.11-.1c-.08-.09-.14-.2-.28-.19-.66-.54-1.31-1.07-1.96-1.61-.13-.11-.24-.26-.36-.38.29-.17.53.05.69.19.63.54,1.3,1.02,1.93,1.56.05.04.09.1.13.15-.09-.05-.18-.1-.33-.2.15.22.3.37.31.59h0Z"/>
      <path class="cls-57" d="M23.69,15.21c.96.48,1.81,1.11,2.71,1.68.14.09.3.15.45.01.05.17.04.33-.11.45-1.07-.69-2.14-1.38-3.21-2.07.02-.02.03-.03.04-.05h0s.07,0,.11,0h0s0,0,0,0Z"/>
      <path class="cls-61" d="M25.51,11.51c.08.16-.07.23-.14.33-.44-.45-.89-.89-1.33-1.34-.17-.42-.62-.6-.82-.99.09-.09.19-.18.28-.26.35.62.83,1.13,1.46,1.48-.13.06-.25-.1-.41.01.17.25.33.51.54.73.14.15.27.15.42.04h0ZM24.36,10.56s.02-.04-.02-.04c0,0-.01.02-.02.03.01,0,.02.01.03.02h0Z"/>
      <path class="cls-74" d="M43.54,45.19c.03.33-.27.44-.43.64-.1.12-.23.23-.34.34-.01-.27-.21-.4-.4-.53.18-.37.5-.6.8-.87.12.14.25.28.37.42h0Z"/>
      <path class="cls-81" d="M48.06,47.64s-.07-.06-.1-.09c.38-.38.78-.75.91-1.3.21-.86-.19-1.5-.74-2.09,1.02.6,1.3,1.95.48,2.94-.16.2-.36.36-.55.54h0Z"/>
      <path class="cls-60" d="M44.09,43.8s.03,0,.05,0c.12.14.25.29.37.43.01.02.01.04,0,.06-.2.17-.39.34-.59.51-.13-.14-.25-.29-.38-.43.18-.19.36-.38.54-.56h0Z"/>
      <path class="cls-81" d="M27.37,14.62c-.07,0-.15,0-.22.01-.02-.06-.05-.11-.07-.17.02-.01.03-.03.04-.05.03-.02.05-.03.08-.05.15.14.26.03.4-.04,1.03-.52,1.95-1.22,2.98-1.75-.13.13-.27.26-.4.39,0,0,0,0,0,0-.11-.01-.17.05-.24.12-.02,0-.03.01-.04.03-.13.02-.22.1-.3.2,0,0,0,0,0,0-.13,0-.21.08-.29.17h0c-.16.02-.25.13-.35.23h0c-.29.07-.5.27-.74.42-.04.02-.07.04-.11.07-.04.02-.08.03-.12.05-.04.02-.07.05-.11.07-.08,0-.14.03-.18.09-.04.02-.07.04-.11.07-.08,0-.13.05-.18.11-.02,0-.04.01-.05.03h0Z"/>
      <path class="cls-57" d="M35.41,9.6s.06-.04.08-.06c.12.03.25.01.34.12-.05.07-.12.11-.21.08-.03.03-.06.05-.09.08-.26.24-.46.55-.76.74-.02-.25-.07-.38-.36-.2-.23.14-.42.37-.72.39.44-.39.97-.65,1.45-.97.13.01.18-.1.26-.16h0Z"/>
      <path class="cls-59" d="M23.22,9.51c.2.39.65.57.82.99-.13-.12-.27-.23-.4-.35-.71-.78-1.54-1.43-2.35-2.09-.13-.1-.28-.17-.31-.35.68.46,1.31,1,1.92,1.54.06.04.12.09.17.13l.14.12h0Z"/>
      <path class="cls-74" d="M36.12,9.14c.36-.26.66-.62,1.16-.65-.3.35-.69.59-1.06.86-.05-.06.19-.26-.1-.21Z"/>
      <path class="cls-61" d="M38.14,6.64c-.53-.09-1.01-.29-1.48-.54.5.16,1.02.27,1.48.54Z"/>
      <path class="cls-56" d="M26.13,41.89c.17-.09.24.06.33.15.38.38.76.76,1.14,1.14h0s-.03.03-.05.04c-.47-.44-.94-.89-1.42-1.33h0Z"/>
      <path class="cls-57" d="M36.12,9.14c.29-.05.05.15.1.21-.09.07-.18.15-.27.22-.1-.12-.07-.23.04-.33.04-.03.09-.07.13-.1h0Z"/>
      <path class="cls-56" d="M27.6,43.18c.3.12.52.32.62.64l-.02.02c-.06-.06-.12-.11-.18-.17-.06-.23-.27-.33-.42-.49h0s0,0,0,0Z"/>
      <path class="cls-74" d="M35.99,9.24c-.11.1-.14.21-.04.33-.04.03-.08.06-.11.08-.09-.11-.23-.09-.34-.12.13-.15.3-.26.5-.3h0Z"/>
      <path class="cls-74" d="M27.6,43.18c.14.16.35.26.42.49-.16-.15-.31-.3-.47-.45.02-.01.03-.03.05-.04Z"/>
      <path class="cls-74" d="M28.2,43.84l.02-.02s.07.04.1.06c.08.08.17.16.25.24.02.01.03.03.04.05-.21-.02-.29-.2-.41-.32h0Z"/>
      <path class="cls-4" d="M45.93,41.85c-.15,0-.23-.08-.22-.24.09.06.18.13.22.24Z"/>
      <path class="cls-59" d="M19.15,6.31c-.14.03-.2-.08-.28-.15,0-.04.01-.07.02-.11.09.09.17.17.26.26h0Z"/>
      <path class="cls-74" d="M35.54,9.82s.06-.05.09-.08c.05.12-.07.05-.09.08Z"/>
      <path class="cls-59" d="M27.12,14.42s-.03.04-.04.05c-.03-.05-.06-.11-.08-.16h.03s.06.07.1.11h0Z"/>
      <path class="cls-59" d="M19.09,5.89s.02,0,.02,0h-.02Z"/>
      <path class="cls-30" d="M35.51,5.76h0s0,0,0,0Z"/>
      <path class="cls-65" d="M21.37,9.14s-.06,0-.05-.04c.03,0,.04.02.05.04Z"/>
      <path class="cls-74" d="M31.69,27.57c.6.49,1.11,1.07,1.66,1.62-.68.46-1.36.92-2.03,1.38-.1.03-.3.02-.12.21.12.13.24.24.32.41-1.83-1.83-3.67-3.67-5.56-5.56.85.23,1.64.32,2.42.49.31.07.62.04.93.07.6.06,1.15.2,1.59.7.22.26.41.61.8.68h0Z"/>
      <path class="cls-56" d="M38.4,34.26c-.15.19-.06.4-.03.61.16,1.12.32,2.24.47,3.36,0,.06,0,.13-.02.3l-2.44-2.44-2.43-2.43c.79.12,1.52.22,2.25.36.22.04.38.02.48-.18.15-.29.4-.47.62-.69.39.35.78.71,1.1,1.12h0Z"/>
      <path class="cls-61" d="M30.62,24.46c-.51.22-1.08.23-1.61.37-.77-.09-1.54-.19-2.31-.27-.6-.06-1.21-.06-1.8-.18.02-.25.24-.34.37-.51.41-.53.89-1,1.22-1.59.02,0,.03-.02.05-.03.51.86,1.35,1.43,1.94,2.22.13.18.22.11.33-.06.3-.5.61-.99.93-1.47.15-.22.24-.51.53-.61.04.42.08.84.12,1.26.03.3-.01.62.24.86h0Z"/>
      <path class="cls-27" d="M41.31,39.67c-.98.38-1.96.76-2.94,1.12-.21.08-.42.17-.66.18.63-1.4,1.36-2.74,2.12-4.08l.02.02.02.02c.48.91.96,1.83,1.44,2.74h0Z"/>
      <path class="cls-48" d="M12.46,12.84c.11-.16.24-.29.4-.4,1.08,1.31,2.36,2.41,3.52,3.64.11.12.22.24.33.36-.08.11-.17.04-.26.02-.54-.16-1.02-.09-1.4.35-.52-.83-1.03-1.66-1.56-2.48-.33-.51-.69-.99-1.03-1.48h0Z"/>
      <path class="cls-48" d="M32.06,31.9c.03-.05.06-.11.09-.16.47.33.75.84,1.1,1.27.39.48.76.98,1.17,1.45.18.21.25.4.17.68-.22.77-.39,1.56-.59,2.34h-.02c-.18-.09-.37-.18-.55-.28,0-.03-.01-.06-.02-.09.29-.33.41-.75.57-1.15.13-.33.41-.61.34-1.01.12-.21-.08-.18-.17-.22-.47-.17-.95-.29-1.44-.36-.27-.04-.38-.15-.4-.43-.06-.65,0-1.32-.22-1.95-.02-.03-.03-.07-.05-.1h0Z"/>
      <path class="cls-61" d="M36.13,32c-.39.05-.73-.13-1.09-.23-.61-.16-1.2-.36-1.8-.55.13-.07.25-.15.38-.22.38-.21.82-.27,1.17-.54h0s.08,0,.12,0c.52-.24,1.03-.49,1.55-.73.09.13.32.18.25.42-.19.62-.39,1.24-.58,1.85h0Z"/>
      <path class="cls-81" d="M39.67,31.84c-.63.24-1.31.38-1.88.78-.03-.01-.06-.03-.09-.04,0-.09.01-.19,0-.28-.14-.67-.33-1.32-.44-1.99-.04-.26-.05-.57-.29-.78.04-.04.08-.08.12-.13.02-.02.04-.03.07-.03.18.18.37.35.57.51.74.58,1.48,1.17,2.16,1.81-.08.05-.15.09-.23.14h0Z"/>
      <path class="cls-59" d="M39.67,31.84c.08-.05.15-.09.23-.14.02.02.04.03.06.03.03.04.06.08.09.12-.08.15-.05.32-.05.48.02.7.04,1.4.06,2.1.01.59,0,1.19-.1,1.77-.04.22-.09.44.31.23.35-.19.67-.42,1.02-.62.62-.34,1.17-.8,1.84-1.05v.02c-.13.14-.28.24-.44.34-.94.6-1.87,1.2-2.8,1.81l-.02-.02-.02-.02c-.26-.5-.53-.99-.78-1.49-.09-.19,0-.4.04-.59.18-.77.38-1.54.56-2.31.05-.22.16-.44,0-.66h0Z"/>
      <path class="cls-81" d="M34.79,30.47c-.35.27-.79.33-1.17.54-.13.07-.26.15-.38.22-.66-.18-1.3-.38-1.92-.65.68-.46,1.36-.92,2.03-1.38.04.02.08.04.13.06.39.47.87.82,1.31,1.23h0Z"/>
      <path class="cls-61" d="M24.64,24.4c-.98.11-1.96.23-2.95.12.3-.4.76-.62,1.15-.92.38-.29.72-.62,1.04-.96.03,0,.07,0,.1,0,.25.58.54,1.14.67,1.77Z"/>
      <path class="cls-76" d="M24.64,24.4c-.12-.63-.42-1.19-.67-1.77l.11-.09s.04.01.06.02c.07.04.12,0,.17-.04.71-.16,1.43-.21,2.16-.24-.33.59-.8,1.07-1.22,1.59-.13.16-.35.26-.37.51-.08.05-.17.05-.25.02h0Z"/>
      <path class="cls-65" d="M36.96,29.54c.24.21.24.51.29.78.11.67.3,1.33.44,1.99.02.09,0,.18,0,.28-.48-.06-.89-.35-1.36-.44-.1,0-.16-.08-.21-.14.19-.62.39-1.24.58-1.85.07-.23-.16-.28-.25-.42.15-.13.34-.14.51-.19h0Z"/>
      <path class="cls-81" d="M23.88,22.65c-.32.35-.66.68-1.04.96-.39.3-.84.52-1.15.92,0,0-.01,0-.01,0-.07-.07-.12-.03-.16.02-.15-.06-.11-.18-.05-.26.4-.58.7-1.22,1.14-1.77.41.21.86.02,1.28.13h0Z"/>
      <path class="cls-48" d="M23.88,22.65c-.42-.1-.87.08-1.28-.13,0-.02.02-.04.04-.05.02-.01.04-.03.06-.05.36-.25.65-.61,1.06-.81.23.27.1.66.33.93l-.11.09s-.07,0-.1,0h0Z"/>
      <path class="cls-61" d="M21.51,24.56c.05-.05.1-.09.16-.02-.05.04-.1.06-.16.02Z"/>
      <path class="cls-81" d="M22.7,22.42s-.03.04-.06.05c0-.03.02-.07.03-.1.01.02.02.03.03.05h0Z"/>
      <path class="cls-74" d="M37.64,41.02s-.05.03-.06,0c.02,0,.04,0,.06,0Z"/>
      <path class="cls-44" d="M48.85,33.21c.28.19.08.24-.09.27-1.37.31-2.72.72-4.1.98-.42.08-.84.17-1.26.26-.03-.02-.06-.04-.09-.06.13-.29.1-.59.08-.89.02-.77.05-1.53.07-2.3.02-.54.05-.55.52-.31,1.21.61,2.47,1.08,3.74,1.55h0c.05.04.1.08.18.06h0c.05.06.12.09.2.09,0,.02.01.03.04.03.06.02.12.03.17.05h0s.1.02.15.04c.1.14.28.14.41.23h0Z"/>
      <path class="cls-76" d="M40.04,31.85s-.06-.08-.09-.12c.26-.61.48-1.23.78-1.82.22-.44.34-.94.74-1.28.38,1.03.64,2.09.93,3.13.27.97.48,1.96.9,2.88-.01.01-.02.02-.03.03-.02-.01-.04-.02-.06-.02-.21-.12-.38-.29-.56-.46-.83-.82-1.7-1.61-2.62-2.35h0Z"/>
      <path class="cls-45" d="M39.88,36.93c.93-.6,1.87-1.21,2.8-1.81.16-.1.31-.2.44-.34.06-.02.12-.05.18-.07-.55,1.6-1.17,3.18-1.81,4.75-.04.09-.1.16-.18.21-.48-.91-.96-1.83-1.44-2.74h0Z"/>
      <path class="cls-4" d="M43.31,34.65c-.42-.92-.63-1.91-.9-2.88-.3-1.05-.56-2.11-.93-3.14,0-.26-.12-.34-.36-.28-1.32.34-2.64.68-3.96,1.02-.03,0-.05,0-.07.03-.21-.13-.48.17-.67-.1.65-.31,1.37-.42,2.04-.68.12-.04.25-.08.37-.11.4.17.74.03,1.07-.19.02-.02.05-.03.07-.05.07.07.14.06.21,0h.01c.4.05.77,0,1.08-.29.28-.11.36.07.44.29.6,1.65,1.07,3.33,1.42,5.05.04.19.12.32.26.44.02.3.05.6-.08.89h0s0,0,0,0Z"/>
      <path class="cls-59" d="M43.3,34.71c-.06.02-.12.05-.18.07v-.02s.06-.07.09-.11c.02,0,.04,0,.06.02.02,0,.02.01.02.03h0Z"/>
      <path class="cls-45" d="M41.61,27.05s-.02.06-.02.08c-.58-.12-1.15-.25-1.73-.36-.85-.16-1.68-.39-2.53-.47-.04-.07-.07-.13-.11-.2-.05-.53-.11-1.06-.15-1.6-.04-.56-.22-1.1-.11-1.67,1.01,0,2.02.03,3.04,0,.4,0,.8.15,1.19-.02.11,1.25.21,2.51.32,3.76.01.16.03.32.11.47h0Z"/>
      <path class="cls-76" d="M41.18,22.82c-.39.18-.8.01-1.19.02-1.01.02-2.02,0-3.04,0,0-.02,0-.03,0-.05.15-.12.15-.31.21-.47.21-.5.49-.98.62-1.52.52-.79.88-1.65,1.17-2.55.05-.16-.03-.22-.14-.29-.32-.19-.65-.38-.97-.57.56-.03.9.41,1.32.65.06.03.1.09.14.14-.09.09-.02.17.01.26.27.64.54,1.28.86,1.9.4.79.7,1.64,1,2.47h0Z"/>
      <path class="cls-30" d="M45.74,26.66c-1.08-.89-2-1.96-3.14-2.78-.37-.27-.66-.63-.99-.96-.11-.1-.1-.19-.01-.32.31-.47.62-.94.91-1.43.16-.27.3-.25.44-.01.53.86,1.04,1.73,1.51,2.62.48.92.97,1.82,1.47,2.73.05.09.17.19.06.28-.12.1-.17-.08-.24-.14h0Z"/>
      <path class="cls-27" d="M37.32,26.31c.86.08,1.69.31,2.53.47.58.11,1.16.24,1.73.36.45,1.25,1.21,2.35,1.75,3.56.09.2.21.22.37.06.53-.52,1-1.1,1.48-1.66.15-.17.23-.41.57-.32.35.09.48.28.49.63.02.65.3,1.25.31,1.91,0,.18.04.34-.11.48-.18.17-.13.26.1.33.43.12.82.31,1.17.6-1.26-.47-2.53-.95-3.74-1.55-.47-.24-.5-.23-.52.31-.03.77-.05,1.53-.07,2.3-.13-.12-.22-.25-.26-.44-.34-1.72-.82-3.4-1.42-5.05-.08-.22-.16-.4-.44-.29-.38.03-.76.04-1.08.29h-.01c-.07-.07-.15-.07-.21,0-.02.02-.05.03-.07.05-.4-.2-.73.02-1.07.19-.12.04-.25.08-.37.11-.43-.75-.83-1.52-1.14-2.33h0Z"/>
      <path class="cls-27" d="M47.9,32.77c-.07.02-.12-.02-.18-.06.08-.03.13,0,.18.06Z"/>
      <path class="cls-27" d="M48.09,32.86c-.08,0-.15-.03-.2-.09.09-.03.15.03.2.09Z"/>
      <path class="cls-27" d="M48.3,32.94c-.06-.02-.12-.03-.17-.05.07-.03.12,0,.17.05Z"/>
      <path class="cls-27" d="M48.44,32.98s-.1-.03-.15-.04c.05.01.1.03.15.04Z"/>
      <path class="cls-65" d="M37.83,17.41c.32.19.65.38.97.57.11.06.19.12.14.29-.29.9-.65,1.76-1.17,2.55-.18-.08-.41-.08-.55-.23-.33-.34-.63-.72-.87-1.12-.11-.18-.18-.2-.38-.13-.67.23-1.36.43-2.03.65-.18.06-.31.06-.38-.15,0-.04,0-.07,0-.11,0-.04,0-.07,0-.11.02-.1.04-.21.06-.31.27-1.14.6-2.27.8-3.43.06-.06.11-.11.17-.17.19.14.34.37.63.3.08.07.16.14.23.21.06.03.12,0,.17-.03.1.09.2.18.29.26.04,0,.08,0,.11.01.1.06.19.11.29.17.24.18.42.49.8.36.1.08.2.17.29.25.07.09.14.09.22.03.06.05.12.1.17.15h0Z"/>
      <path class="cls-76" d="M37.14,16.97c-.38.13-.56-.18-.8-.36.31.02.54.23.8.36Z"/>
      <path class="cls-76" d="M37.66,17.25c-.08.06-.16.06-.22-.03.08-.06.16-.05.22.03Z"/>
      <path class="cls-76" d="M35.65,16.17c-.05.04-.1.06-.17.03.05-.04.1-.07.17-.03Z"/>
      <path class="cls-76" d="M36.05,16.44s-.08,0-.11-.01c.04,0,.08,0,.11.01Z"/>
      <path class="cls-61" d="M27.12,14.42s-.06-.08-.1-.11c.04-.5-.18-.95-.32-1.41-.18-.63-.33-1.28-.65-1.86.03-.03.07-.06.1-.09.04,0,.07-.01.11-.02h0c.05.04.1.06.16.01.06-.04.12-.07.18-.11.04,0,.08-.01.12-.02.25-.08.48-.19.68-.37.1-.06.22-.08.29-.19.04-.03.08-.06.12-.09.55-.29.87-.75.93-1.37.02-.06.04-.12.05-.18.11-.15.1-.3,0-.46h0c.07-.33-.03-.62-.2-.89-.49-.77-1.22-1.24-2.04-1.57.03-.04.07-.07.1-.11.54.05.9.48,1.38.65.62.56,1.07,1.21,1.12,2.08-.02.06-.05.13-.06.19-.39,2.03-1.16,3.94-1.91,5.85-.03.02-.05.03-.08.05h0Z"/>
      <path class="cls-48" d="M29.17,8.32c-.05-.87-.5-1.52-1.12-2.08.43-.27.72-.09,1.04.23,1.23,1.22,2.22,2.66,3.49,3.85.16.15.29.36.53.42.02.02.04.05.06.07-.04.03-.07.07-.11.1-.1-.06-.22-.11-.31-.19-.6-.57-1.33-.96-2.03-1.4-.53-.32-1.11-.57-1.57-1h0Z"/>
      <path class="cls-81" d="M23.3,8.18c-.48-.72-1-1.42-1.39-2.2.96-.12,1.92-.25,2.88-.37.09-.01.18.02.27.03,0,.02,0,.04,0,.05-.5.19-.87.53-1.15.97-.27.31-.45.66-.47,1.09-.04.05-.07.1-.04.17h0s0,.09-.01.12c-.02.02-.03.04-.03.07l-.07.06h0Z"/>
      <path class="cls-81" d="M33.18,10.81s-.04-.05-.06-.07c.53-.86.83-1.84,1.34-2.71.24.14.1.4.16.6.08.25.14.44.43.47.17.02.27.16.37.28-.62.43-1.25.86-1.87,1.3-.11.08-.22.15-.37.14h0Z"/>
      <path class="cls-81" d="M26.67,5.59s-.07.07-.1.11c-.12-.04-.24-.08-.35-.12,0-.02,0-.04,0-.06.17-.08.31-.05.45.07Z"/>
      <path class="cls-81" d="M25.48,5.58c.16-.12.33-.14.51-.05,0,.02,0,.03,0,.05-.17.04-.34.09-.52.05,0-.02,0-.03,0-.05Z"/>
      <path class="cls-81" d="M25.18,5.64c.08-.08.18-.11.29-.06,0,.02,0,.03,0,.05-.1.02-.19.03-.29.05v-.04h0Z"/>
      <path class="cls-81" d="M25.07,5.64s.08,0,.12,0v.04s-.08,0-.11.01c0-.02,0-.04,0-.05h0Z"/>
      <path class="cls-81" d="M25.99,5.53h.12s0,.03,0,.05c-.04,0-.08,0-.12,0,0-.02,0-.03,0-.05h0Z"/>
      <path class="cls-81" d="M26.1,5.53s.08,0,.12,0c0,.02,0,.04,0,.06-.04,0-.08,0-.11,0,0-.02,0-.03,0-.05Z"/>
      <path class="cls-30" d="M24.09,22.54c-.23-.27-.1-.66-.33-.93.15-.26.38-.25.63-.17.6.19,1.19.37,1.79.56.14.06.28.13.42.19-.02.02-.04.03-.06.06-.02.01-.03.02-.05.03-.73.03-1.45.08-2.16.24-.06.01-.12.03-.17.04-.02-.01-.04-.02-.06-.02h0Z"/>
      <path class="cls-30" d="M30.26,22.12c0-.06-.01-.12-.02-.17.03-.06.08-.12.09-.18.15-1.27.4-2.53.48-3.81.01-.22-.03-.48.28-.56.04.07.07.13.11.2.21.68.41,1.37.61,2.05,0,.03,0,.05.03.07h0c-.02.06,0,.12.05.18h0c0,.15.04.31.13.45h0c.04.26.06.53.13.78.24.84.49,1.68.74,2.52-.19.06-.32-.06-.46-.16-.06-.06-.11-.12-.21-.12h-.03c-.1-.09-.17-.22-.33-.22h-.01c-.07-.05-.14-.09-.21-.13-.03-.02-.05-.04-.08-.05-.27-.24-.56-.44-.92-.55-.04-.03-.08-.07-.12-.1-.06-.11-.17-.15-.27-.2h0Z"/>
      <path class="cls-59" d="M31.19,17.6c-.04-.07-.07-.13-.11-.2-.04-.12-.01-.29-.21-.29-.31-.15-.63-.06-.94-.05-.76.02-1.52.04-2.28.06.03-.23.17-.39.32-.54.9-.9,1.79-1.8,2.69-2.69.19-.19.41-.34.65-.46-.25.25-.5.5-.75.76,0,.03-.02.05-.03.08.08.92.29,1.82.54,2.71,0,.03.06.05.09.08.17.24.37.46.54.7.36.49.79.94,1.06,1.5-.35-.12-.42-.49-.65-.72-.31-.31-.41-.82-.92-.93h0Z"/>
      <path class="cls-76" d="M30.87,17.11c.2,0,.18.17.21.29-.3.08-.26.34-.28.56-.08,1.28-.33,2.54-.48,3.81,0,.06-.06.12-.09.18-.55-.99-1.1-1.99-1.65-2.98-.01-.04-.02-.07-.03-.11h0c.79-.56,1.57-1.14,2.32-1.75h0Z"/>
      <path class="cls-48" d="M30.26,22.12c.1.05.21.09.27.2-.09,0-.18.02-.26.02-.29.1-.38.39-.53.61-.33.48-.63.97-.93,1.47-.1.17-.19.24-.33.06-.59-.79-1.43-1.36-1.94-2.22.02-.02.04-.04.06-.06,1.22-.03,2.44-.11,3.67-.08h0Z"/>
      <path class="cls-61" d="M30.87,17.11c-.75.61-1.53,1.18-2.32,1.74-.4-.47-.61-1.05-.95-1.55,0-.04,0-.07,0-.11.02-.02.04-.04.06-.07.76-.02,1.52-.05,2.28-.06.31,0,.64-.1.94.05h0Z"/>
      <path class="cls-59" d="M33.58,11.54c-.4.37-.79.76-1.28,1.03.31-.42.68-.79,1.13-1.06.03-.02.1.02.15.03h0Z"/>
      <path class="cls-59" d="M30.18,12.96c.13-.13.27-.26.4-.39.16-.08.31-.16.47-.24.02.02.04.04.06.06-.28.23-.55.48-.93.56h0Z"/>
      <path class="cls-59" d="M28.23,14.14c.24-.15.45-.36.74-.42-.21.2-.39.46-.74.42Z"/>
      <path class="cls-57" d="M33.01,11.2c.2-.2.44-.33.69-.46-.2.2-.37.43-.69.46Z"/>
      <path class="cls-57" d="M34.44,10.81c-.07.16-.24.19-.35.31-.02-.01-.03-.03-.05-.04.14-.08.18-.3.4-.27h0Z"/>
      <path class="cls-59" d="M28.97,13.71c.1-.1.19-.21.35-.23-.1.11-.16.26-.35.23Z"/>
      <path class="cls-59" d="M34.04,11.08s.03.03.05.04c-.08.07-.17.15-.25.22.02-.12.13-.18.2-.27h0Z"/>
      <path class="cls-59" d="M29.32,13.48c.08-.09.16-.17.29-.17-.07.09-.13.21-.29.17Z"/>
      <path class="cls-59" d="M29.61,13.31c.08-.1.17-.18.3-.2-.08.1-.13.23-.3.2Z"/>
      <path class="cls-59" d="M31.17,12.36c.06-.07.12-.13.23-.13-.06.08-.12.14-.23.13Z"/>
      <path class="cls-59" d="M29.94,13.08c.07-.07.13-.13.24-.12-.05.09-.12.16-.24.12Z"/>
      <path class="cls-59" d="M27.42,14.59c.04-.06.1-.1.18-.11-.03.08-.09.13-.18.11Z"/>
      <path class="cls-59" d="M27.71,14.42c.05-.06.1-.1.18-.09-.04.07-.1.11-.18.09Z"/>
      <path class="cls-59" d="M33.71,11.46c-.02.07-.06.1-.13.08.04-.03.09-.05.13-.08Z"/>
      <path class="cls-59" d="M28.01,14.26s.08-.03.12-.05c-.04.02-.08.03-.12.05Z"/>
      <path class="cls-61" d="M28.55,18.85s.02.07.03.11c-.01-.04-.02-.07-.03-.11Z"/>
      <path class="cls-59" d="M27.59,17.19s0,.07,0,.11c0-.04,0-.07,0-.11Z"/>
      <path class="cls-60" d="M27.67,36.65c.54,1.06,1.11,2.12,1.49,3.26-.47.03-.95.06-1.42.08-.14,0-.28.02-.27-.2.04-1,.08-2,.13-3,0-.05.05-.09.07-.14h0Z"/>
      <path class="cls-45" d="M27.63,36.39s-.01.09-.02.13c-.7-.63-1.55-1.04-2.31-1.58-.08-.05-.15-.11-.22-.17.8-.2,1.61-.4,2.41-.6.17.08.15.23.15.38,0,.61,0,1.23,0,1.84h0Z"/>
      <path class="cls-56" d="M28.57,44.11c-.08-.08-.17-.16-.25-.24.04-.05.08-.1.12-.15.05.13.09.26.14.38h0Z"/>
      <path class="cls-81" d="M34.62,15.69c-.06.06-.11.11-.17.17-.02-.02-.05-.04-.07-.06,0-.04,0-.07,0-.11.01,0,.02,0,.03,0-.01,0-.02,0-.03.01-.13-.18-.38-.15-.52-.3.19-.15.25-.3.07-.51-.37-.43-.32-1.08-.77-1.47-.03-.02-.03-.08-.06-.1-.24-.17-.58-.33-.53-.65.04-.29.4-.42.62-.58.46-.34.79-.85,1.36-1.04.1,1.22.1,2.43.08,3.65,0,.34-.01.67-.02,1.01h0Z"/>
      <path class="cls-80" d="M46,45.68c-.06-.09-.18-.18-.1-.28.38-.46.8-.87,1.29-1.21-.03.34-.33.5-.44.78-.27.21-.53.45-.75.71Z"/>
      <path class="cls-80" d="M45.56,45.12c.5-.28.81-.78,1.3-1.09-.36.54-.85.96-1.31,1.42.04-.11.08-.22.01-.33h0Z"/>
      <path class="cls-81" d="M46,45.68c.23-.26.48-.5.75-.71,0,.17-.14.26-.25.34-.26.21-.39.44-.16.75-.18-.03-.36-.05-.39-.29.01-.03.03-.06.04-.08h0Z"/>
      <path class="cls-81" d="M45.23,46.05c.11-.11.21-.22.32-.33.07.07.13.13.2.2-.14.16-.28.36-.52.13Z"/>
      <path class="cls-81" d="M45.56,45.12c.07.11.03.22-.01.33v.23c-.19-.15-.25-.32-.05-.51.02-.02.04-.03.06-.05h0Z"/>
      <path class="cls-81" d="M27.87,34c.02-.75.05-1.5-.07-2.34.69.51,1.31.96,1.93,1.42v.03c-.58.28-1.18.55-1.72.92-.05,0-.09-.02-.14-.03h0Z"/>
      <path class="cls-81" d="M32.06,31.9s.03.07.05.1c-.41.66-.72,1.36-.99,2.08-.08,0-.17-.02-.25-.03-.33-.37-.77-.62-1.14-.94,0,0,0-.03,0-.03.6-.31,1.19-.62,1.79-.93.07,0,.12-.02.17-.07.06-.02.12-.04.17-.06.04.02.08.01.1-.03.04-.03.07-.06.11-.09h0Z"/>
      <path class="cls-56" d="M27.87,34s.09.02.14.03c.13.13.3.07.45.08.22.02.45-.06.65.09-.49.73-.99,1.46-1.48,2.19,0-.61,0-1.23,0-1.84,0-.15.02-.3-.15-.38.13-.06.26-.12.39-.17h0Z"/>
      <path class="cls-48" d="M31.68,32.08c-.04.05-.1.08-.17.07.04-.06.09-.1.17-.07Z"/>
      <path class="cls-48" d="M31.95,31.99s-.05.05-.1.03c.03-.01.06-.02.1-.03Z"/>
      <path class="cls-4" d="M23.3,8.18s.04-.04.07-.06c.17.37.45.66.77.91.05.06.1.12.15.19.86,1.37,2.3,1.27,3.54.47.09.03.11-.04.14-.1.26-.5.42-1.04.43-1.61.17-.02.3.06.42.18h0c-.13.15-.12.31,0,.46-.02.06-.04.12-.05.18-.24.33-.32.77-.67,1.03-.11.08-.25.17-.26.34-.04.03-.08.06-.12.09-.18-.06-.25.03-.29.19-.19.18-.43.28-.68.37-.04,0-.08.01-.12.02-.06.04-.12.07-.18.11-.05-.03-.11-.05-.16,0h0s-.07.01-.11.02c-.03.03-.07.06-.1.09-.07-.04-.15-.05-.23-.02-.09-.05-.18-.1-.29-.06h0c-.09-.09-.2-.14-.34-.12h0c-.05-.03-.11-.05-.16-.07-.02-.02-.04-.03-.06-.03-.63-.35-1.11-.86-1.46-1.48h0s-.01-.08-.02-.11c-.06-.32-.11-.64-.17-.96h0Z"/>
      <path class="cls-59" d="M20.71,7.51c-.21.01-.3-.14-.38-.3.16.06.3.14.38.3Z"/>
      <path class="cls-59" d="M19.74,6.75c-.16,0-.29-.06-.32-.24.13.05.25.11.32.24Z"/>
      <path class="cls-59" d="M20.19,7.11c-.16.02-.23-.07-.25-.21.1.05.2.11.25.21Z"/>
      <path class="cls-61" d="M23.07,9.39c-.06-.04-.12-.09-.17-.13.09,0,.15.05.17.13Z"/>
      <path class="cls-61" d="M23.47,9.13s.01.07.02.1c-.04-.03-.04-.06-.02-.1Z"/>
      <path class="cls-81" d="M20.7,9.01c.14-.01.2.1.28.19-.14,0-.2-.1-.28-.19Z"/>
      <path class="cls-65" d="M34.38,15.69s0,.07,0,.11c-.59.13-1.13.43-1.71.6-.17-.14-.16-.33-.15-.52,0-.19-.06-.32-.26-.34-.72-.08-1.3-.35-1.56-1.08-.03-.07-.1-.12-.16-.18,0-.03.02-.05.03-.08,1.1.4,2.2.8,3.3,1.21.14.15.39.12.52.3h0Z"/>
      <path class="cls-59" d="M23.69,15.22s-.07,0-.11,0c.04,0,.07,0,.11,0Z"/>
      <path class="cls-60" d="M43.54,45.19c-.12-.14-.25-.28-.37-.42.06-.06.11-.12.17-.18.18.08.29.24.43.37-.08.08-.15.15-.23.23Z"/>
      <path class="cls-74" d="M43.77,44.96c-.14-.13-.25-.29-.43-.37.07-.07.14-.15.21-.22.13.14.25.29.38.43,0,.11-.05.16-.16.16h0Z"/>
      <path class="cls-56" d="M12.88,12.13c-.05.18-.18.3-.31.41-.13.1-.27.1-.32-.07-.14-.49-.61-.72-.86-1.13-.16-.26-.33-.52-.57-.72-.11-.09-.09-.21-.02-.33.57.52,1.13,1.04,1.7,1.56.12.11.26.19.39.29h0Z"/>
      <path class="cls-81" d="M24.96,10.73s.04.02.06.03c.03.08.08.11.16.07h0c.08.13.18.2.34.13h0c.06.06.13.12.19.19-.01.02-.03.05-.04.07-.08.03-.12.09-.08.18-.03.04-.06.08-.1.12-.15.11-.28.11-.42-.04-.21-.22-.37-.47-.54-.73.16-.11.28.05.41-.01h0Z"/>
      <path class="cls-61" d="M25.73,11.14c-.06-.06-.13-.12-.19-.18.11-.04.2.01.29.06-.03.04-.07.08-.1.12h0Z"/>
      <path class="cls-61" d="M25.61,11.39c-.04-.09,0-.15.08-.18.03.09.05.17-.08.18Z"/>
      <path class="cls-65" d="M31.05,12.34c-.16.08-.31.16-.47.24-1.03.53-1.95,1.24-2.98,1.75-.14.07-.25.17-.4.04.75-1.91,1.52-3.82,1.91-5.85.01-.07.04-.13.06-.19.46.43,1.04.68,1.57,1,.7.43,1.43.82,2.03,1.4.09.08.2.13.31.19-.5.49-1.14.76-1.71,1.14-.12.08-.26.14-.32.29h0Z"/>
      <path class="cls-74" d="M35.41,9.6c-.08.07-.14.17-.26.16.07-.08.14-.17.26-.16Z"/>
      <path class="cls-81" d="M24.36,10.56s-.02-.01-.03-.02c0,0,.01-.03.02-.03.04,0,.04.02.02.04h0Z"/>
      <path class="cls-61" d="M33.44,37.21c.18.09.37.18.55.27-.47.56-1.05,1.01-1.61,1.48-.23-.33-.16-.72-.24-1.08-.02-.09,0-.27-.15-.22-.27.09-.6.12-.77.41-.55-.07-.83.11-.83.51-.44-.07-.7-.32-.78-.74-.07-.35-.13-.71-.2-1.06.23.12.35.02.41-.2.03-.01.05,0,.07.02.12.32.25.64.37.96-.01.19-.23.33-.16.62.2-.33.48-.4.78-.39.11.03.2.16.33.03.32-.14.64-.28.96-.42.34-.02.68-.04,1.02-.05.13.05.18-.06.25-.13h0Z"/>
      <path class="cls-59" d="M29.11,34.2c-.2-.15-.44-.06-.65-.09-.15-.02-.32.04-.45-.08.54-.37,1.14-.63,1.72-.92.37.32.81.57,1.14.94-.03.03-.06.07-.09.1-.56-.06-1.11-.1-1.66.05Z"/>
      <path class="cls-4" d="M30.77,34.15s.06-.07.09-.1c.08,0,.17.02.25.03.24.14.52.13.78.16.33.04.5.17.54.52.03.31-.02.65.19.93,0,.06-.01.12-.02.17-.06.06-.12.12-.17.18,0-.17-.13-.25-.23-.36-.48-.51-.95-1.02-1.43-1.53h0Z"/>
      <path class="cls-81" d="M31.21,38.08c.17-.29.5-.32.77-.41.16-.05.13.13.15.22.09.36.01.76.24,1.08-.53.15-.99-.05-1.45-.29.12-.11.23-.25.4-.28,0-.04,0-.07.01-.11,0-.1-.07-.16-.13-.21h0Z"/>
      <path class="cls-30" d="M31.21,37.82c-.12.12-.22,0-.33-.03-.2-.11-.22-.7-.63-.23-.12-.32-.25-.64-.37-.96.02-.04.04-.07.06-.11.16-.08.33-.16.49-.24.16.05.33.1.49.15-.32.37-.26.67.22,1.1,0,.11-.03.23.06.32h0Z"/>
      <path class="cls-59" d="M32.43,36.04c.06-.06.12-.12.17-.18.36.36.49.87.82,1.25,0,.03.01.06.02.09-.07.07-.12.18-.25.13.13-.17.07-.21-.12-.24-.29-.05-.54-.19-.76-.39.01-.23.05-.46.13-.68h0Z"/>
      <path class="cls-81" d="M31.15,37.49c-.48-.43-.54-.73-.22-1.1.17-.17.33-.33.5-.5.15.04.07.15.06.23-.11.46-.22.91-.33,1.37h0Z"/>
      <path class="cls-59" d="M31.43,35.9c-.17.17-.33.33-.5.5-.16-.05-.33-.1-.49-.15-.13-.13-.27-.24-.46-.15-.19.1-.08.25-.04.39-.02.04-.04.07-.06.11-.02-.02-.04-.03-.07-.02-.08-.05-.17-.11-.25-.16.07-.33.37-.48.57-.72.21.39.73.45,1.04.1.11-.04.17.06.26.09h0Z"/>
      <path class="cls-59" d="M31.21,38.08c.06.06.13.12.13.21,0,.04,0,.07-.01.11-.18.03-.28.17-.4.28-.19.03-.38-.02-.55-.09,0-.4.29-.58.83-.51h0Z"/>
      <path class="cls-57" d="M32.3,36.72c.22.2.47.34.76.39.19.03.25.07.12.24-.34.02-.68.04-1.02.05.05-.23.09-.45.14-.68h0Z"/>
      <path class="cls-61" d="M31.17,35.81c-.31.34-.83.29-1.04-.1.06-.19.2-.08.3-.06.25.05.49.11.74.16h0Z"/>
      <path class="cls-81" d="M29.56,36.42c.08.05.17.11.25.16-.06.22-.17.33-.41.2-.12-.19.03-.27.15-.37Z"/>
      <path class="cls-56" d="M37.32,26.31c.31.81.71,1.58,1.14,2.33-.67.25-1.39.37-2.04.68-.01,0-.03,0-.04,0-.64-.89-1.38-1.7-2.07-2.56-.49-.61-1.02-1.19-1.47-1.84.16-.2.48-.14.63-.37.04,0,.09,0,.13,0,1.05.63,2.2,1.06,3.3,1.58.11.05.21.04.31,0,.04.07.07.13.11.2h0Z"/>
      <path class="cls-4" d="M33.46,24.54c-.15.23-.46.17-.63.37-.22-.27-.44-.54-.65-.81.14-.15.34-.11.5-.2.1-.06.28-.06.21-.26-.25-.84-.51-1.68-.74-2.52-.07-.25-.09-.52-.13-.78.49.3.9,0,1.33-.17.02.24.05.48.05.73.02,1.21.04,2.43.06,3.64h0Z"/>
      <path class="cls-81" d="M32.89,23.65c.08.2-.11.2-.21.26-.16.09-.37.05-.5.2-.55,0-1.03.29-1.56.36-.25-.24-.21-.56-.24-.86-.04-.42-.08-.84-.12-1.26.09,0,.18-.02.26-.02.04.03.08.07.12.1.2.37.57.43.92.55.03.02.05.04.08.05.04.09.09.16.21.13h.01c.09.1.14.26.33.21h.03c.04.1.1.17.21.14.14.1.26.22.46.16h0Z"/>
      <path class="cls-48" d="M36.37,29.32s.03,0,.04,0c.19.27.46-.04.67.1-.04.04-.08.08-.12.13-.17.05-.36.06-.51.19-.52.24-1.03.49-1.55.73-.04,0-.08,0-.12,0h0c-.44-.4-.93-.76-1.31-1.22.76-.07,1.51.08,2.27.1.21,0,.42.1.63-.02h0Z"/>
      <path class="cls-61" d="M32.62,35.69c-.21-.28-.16-.62-.19-.93-.04-.35-.21-.49-.54-.52-.26-.03-.54-.02-.78-.16.28-.72.59-1.42.99-2.08.21.64.16,1.3.22,1.95.02.28.13.39.4.43.49.07.98.19,1.44.36.09.03.29,0,.17.22-.06.01-.13.02-.19.04-.51.23-1.01.46-1.52.69h0Z"/>
      <path class="cls-76" d="M32.62,35.69c.51-.23,1.01-.46,1.52-.69.06-.03.12-.03.19-.04.07.4-.22.68-.34,1.01-.15.4-.28.81-.57,1.15-.32-.39-.46-.89-.82-1.25,0-.06.01-.12.02-.17h0Z"/>
      <path class="cls-81" d="M34.79,30.47s.08,0,.12,0c-.04,0-.08,0-.12,0Z"/>
      <path class="cls-48" d="M37.16,29.38c1.32-.34,2.64-.68,3.96-1.02.24-.06.37.02.36.28-.4.34-.51.84-.74,1.28-.3.59-.53,1.21-.78,1.82-.02,0-.04-.01-.06-.03-.69-.64-1.42-1.23-2.16-1.81-.2-.16-.39-.33-.57-.51h0Z"/>
      <path class="cls-61" d="M43.22,34.66s-.06.07-.1.11c-.67.25-1.22.71-1.84,1.05-.35.19-.67.43-1.02.62-.4.21-.35,0-.31-.23.1-.59.11-1.18.1-1.77-.01-.7-.04-1.4-.06-2.1,0-.16-.03-.33.05-.48.91.74,1.78,1.52,2.62,2.35.17.17.35.34.56.46h0Z"/>
      <path class="cls-48" d="M24.15,22.57c.06-.01.12-.03.17-.04-.05.05-.1.08-.17.04Z"/>
      <path class="cls-56" d="M38.83,28.52c.34-.17.67-.39,1.07-.19-.33.21-.67.36-1.07.19Z"/>
      <path class="cls-56" d="M40.2,28.28c.32-.24.7-.25,1.08-.29-.31.28-.68.34-1.08.29Z"/>
      <path class="cls-56" d="M39.97,28.29c.07-.08.14-.08.21,0-.07.07-.14.08-.21,0Z"/>
      <path class="cls-61" d="M37.2,26.11c-.1.04-.2.06-.31,0-1.11-.52-2.25-.94-3.3-1.58.85-.47,1.7-.96,2.56-1.42.34-.18.53-.34.25-.71.18.12.36.25.55.37,0,.02,0,.03,0,.05-.11.57.07,1.11.11,1.67.04.53.1,1.06.15,1.6h0Z"/>
      <path class="cls-81" d="M36.95,22.79c-.18-.12-.36-.25-.55-.37-.06-.05-.12-.11-.18-.16-.02-.02-.05-.04-.07-.06-.03-.03-.07-.06-.1-.09-.15-.14-.31-.27-.5-.34-.04-.04-.09-.07-.13-.11-.04-.03-.07-.06-.11-.1-.11-.08-.22-.17-.33-.25-.06-.16-.21-.18-.34-.24-.29-.24-.59-.48-.88-.72.01-.1-.04-.13-.13-.1-.07-.08-.14-.17-.2-.26.05-.05.1-.11.14-.16.06.21.19.21.38.15.68-.22,1.36-.42,2.03-.65.19-.07.27-.05.38.13.25.4.54.78.87,1.12.15.15.37.15.55.23-.13.54-.41,1.01-.62,1.52-.06.15-.06.35-.21.47h0Z"/>
      <path class="cls-61" d="M33.57,19.82c-.05.05-.1.11-.14.16l-.08.06s-.06-.07-.09-.1c.06-.31-.24-.39-.39-.57-.04-.04-.07-.08-.11-.12-.27-.56-.69-1.01-1.06-1.5-.17-.24-.37-.46-.54-.7.5-.22,1-.44,1.49-.66.58-.17,1.12-.46,1.71-.6.02.02.05.04.07.06-.2,1.16-.54,2.29-.8,3.43-.02.1-.04.21-.06.31,0,.04,0,.07,0,.11,0,.04,0,.07,0,.11h0Z"/>
      <path class="cls-81" d="M33.58,19.71s0-.07,0-.11c0,.04,0,.07,0,.11Z"/>
      <path class="cls-59" d="M28.81,8.15c-.12-.11-.25-.2-.42-.18-.05-.09-.09-.18-.14-.26.04-.12-.03-.21-.07-.31-.02-.06-.04-.13-.07-.18-1.05-1.31-2.34-1.49-3.72-.53-.04.05-.07.09-.11.14-.03-.24.09-.37.3-.45.23-.09.44-.22.66-.33-.29-.12-.54-.1-.76.1-.19.17-.34.38-.56.51.29-.44.65-.79,1.15-.97.04,0,.08,0,.11-.01.1-.02.19-.03.29-.05.18.04.35-.02.52-.05.04,0,.08,0,.12,0,.04,0,.08,0,.11,0,.12.04.24.08.35.12.83.33,1.56.8,2.04,1.57.17.27.27.56.2.88h0Z"/>
      <path class="cls-59" d="M27.82,10.16c.01-.17.15-.26.26-.34.36-.26.43-.7.67-1.03-.07.62-.38,1.08-.93,1.37h0Z"/>
      <path class="cls-59" d="M28.8,8.61c-.11-.15-.12-.31,0-.46.09.15.1.31,0,.46Z"/>
      <path class="cls-59" d="M27.41,10.44c.03-.16.11-.26.29-.19-.06.11-.19.13-.29.19Z"/>
      <path class="cls-59" d="M26.28,10.93c.06-.04.11-.02.16,0-.06.05-.11.03-.16,0Z"/>
      <path class="cls-59" d="M26.16,10.95s.07-.01.11-.02c-.04,0-.07.01-.11.02Z"/>
      <path class="cls-59" d="M26.62,10.83s.08-.01.12-.02c-.04,0-.08.01-.12.02Z"/>
      <path class="cls-57" d="M23.92,6.67c.23-.13.38-.34.56-.51.22-.21.47-.23.76-.1-.22.11-.43.24-.66.33-.21.09-.33.22-.3.45-.17.58-.4,1.15-.2,1.77-.07.15.08.28.06.43-.32-.25-.6-.53-.77-.91,0-.03,0-.05.03-.07,0-.04,0-.08.01-.11h0c.04-.06.07-.11.04-.18.01-.42.19-.77.47-1.09h0Z"/>
      <path class="cls-4" d="M23.45,7.75c.03.07,0,.12-.04.17-.02-.07,0-.12.04-.17Z"/>
      <path class="cls-4" d="M23.4,7.93s0,.08-.01.11c0-.04,0-.08.01-.11Z"/>
      <path class="cls-57" d="M32.77,19.26s.07.08.11.12c-.07.33.24.39.39.57.03.03.06.07.09.1,0,.04,0,.09,0,.13-.43.16-.84.47-1.33.17h0c.14-.21.02-.34-.13-.46,0,0,0,.01,0,.01.05-.08.01-.14-.05-.19h0s.04-.06-.03-.06c-.2-.68-.41-1.37-.61-2.05.51.11.62.62.92.93.23.23.31.6.65.72h0Z"/>
      <path class="cls-48" d="M31.57,22.96c-.34-.12-.72-.18-.92-.55.35.1.65.3.92.55Z"/>
      <path class="cls-4" d="M31.88,19.88c.16.12.28.26.13.46-.09-.14-.13-.3-.13-.46Z"/>
      <path class="cls-48" d="M32.19,23.35c-.18.05-.23-.11-.33-.2.15,0,.22.13.33.2Z"/>
      <path class="cls-48" d="M31.85,23.14c-.12.04-.17-.03-.21-.13.07.04.14.09.21.13Z"/>
      <path class="cls-48" d="M32.43,23.49c-.11.03-.17-.03-.21-.12.09,0,.15.06.21.12Z"/>
      <path class="cls-4" d="M31.83,19.71c.06.05.1.11.05.19-.05-.05-.07-.12-.05-.19Z"/>
      <path class="cls-4" d="M31.81,19.65c.06,0,.05.03.03.07-.02-.02-.03-.04-.03-.07Z"/>
      <path class="cls-81" d="M32.66,16.39c-.5.22-1,.44-1.49.66-.03-.03-.08-.05-.09-.08-.24-.89-.45-1.79-.54-2.71.05.06.13.11.16.18.26.74.84,1.01,1.56,1.08.2.02.27.15.26.34,0,.19-.02.38.15.52h0Z"/>
      <path class="cls-65" d="M34.38,15.69s.02,0,.03-.01c-.01,0-.02,0-.03,0h0Z"/>
      <path class="cls-27" d="M24.14,9.03c.02-.15-.13-.27-.06-.43.64-.34,1.38-.5,1.97-.95h0c.53.73,1.07,1.45,1.77,2.03-1.24.8-2.68.9-3.54-.47-.04-.07-.1-.13-.15-.19h0Z"/>
      <path class="cls-45" d="M27.83,9.68c-.7-.58-1.25-1.3-1.77-2.04.12-.08.21,0,.3.08.13.36.41.63.59.96.12.21.27.18.41.01.3-.33.6-.65.9-.98.05.09.09.18.14.26,0,.57-.16,1.1-.43,1.61-.03.06-.05.12-.14.1h0Z"/>
      <path class="cls-61" d="M25.53,10.95c-.15.08-.26,0-.34-.12.13-.02.24.03.34.12Z"/>
      <path class="cls-61" d="M25.18,10.83c-.08.04-.13,0-.16-.07.05.02.11.05.16.07Z"/>
      <path class="cls-59" d="M30.26,37.55c.41-.48.43.12.63.23-.31,0-.58.07-.78.39-.07-.29.15-.43.16-.62h0Z"/>
      <path class="cls-61" d="M31.33,38.4s0-.07.01-.11c0,.04,0,.07-.01.11Z"/>
      <path class="cls-45" d="M29.95,36.49c-.05-.14-.15-.29.04-.39.19-.1.33.01.46.15-.16.08-.33.16-.49.24Z"/>
      <path class="cls-59" d="M33.35,20.17s0-.09,0-.13l.08-.06c.07.08.14.17.2.26,0,.09.04.13.13.1.29.24.59.48.88.72.08.13.15.27.34.24.11.08.22.17.33.25-.02.09,0,.13.11.1.04.04.09.07.13.11.14.16.22.39.5.34.03.03.07.06.1.09,0,.06.02.08.07.06.06.05.12.11.18.16.28.36.1.53-.25.71-.86.45-1.71.94-2.56,1.42-.04,0-.09,0-.13,0-.02-1.21-.04-2.43-.06-3.64,0-.24-.03-.48-.05-.73h0Z"/>
      <path class="cls-61" d="M36.05,22.1c-.27.04-.36-.19-.5-.34.19.08.35.2.5.34Z"/>
      <path class="cls-61" d="M34.98,21.3c-.19.03-.26-.11-.34-.24.13.06.28.08.34.24Z"/>
      <path class="cls-61" d="M33.76,20.34c-.09.03-.13,0-.13-.1.09-.03.14,0,.13.1Z"/>
      <path class="cls-61" d="M35.42,21.65c-.1.04-.13,0-.11-.1.04.03.07.06.11.1Z"/>
      <path class="cls-61" d="M36.22,22.25c-.05.01-.08,0-.07-.06.02.02.05.04.07.06Z"/>
      <path class="cls-59" d="M33.26,19.94c-.14-.18-.46-.25-.39-.57.14.18.44.26.39.57Z"/>
      <path class="cls-30" d="M26.35,7.72c-.09-.07-.17-.15-.3-.08,0,0,0,0,0,0-.04-.03-.07-.06-.11-.1-.26-.25-.59-.37-.92-.48-.19-.15-.46-.19-.63-.38,1.38-.96,2.67-.78,3.72.53.04.05.05.12.07.18-.21.11-.44.12-.66.14-.4.03-.8.01-1.17.18h0Z"/>
      <path class="cls-44" d="M26.35,7.72c.37-.17.77-.15,1.17-.18.23-.02.45-.02.66-.14.05.1.11.19.07.31-.3.33-.6.65-.9.98-.15.17-.29.2-.41-.01-.19-.33-.46-.6-.59-.96h0Z"/>
      <path class="cls-45" d="M25.94,7.56s.07.06.11.1c-.59.45-1.33.6-1.97.95-.2-.62.03-1.19.2-1.77.04-.05.07-.09.11-.14.17.19.44.23.63.38.1.39-.29.39-.45.57-.06.07-.15.13-.12.23.03.13.14.08.23.09.47.02.9-.1,1.26-.41h0Z"/>
      <path class="cls-44" d="M25.94,7.56c-.36.31-.79.43-1.26.41-.09,0-.2.04-.23-.09-.03-.1.05-.16.12-.23.16-.18.55-.19.45-.57.33.11.66.23.92.48h0Z"/>
    </g>
    <g>
      <g>
        <path class="cls-66" d="M12.33,23.79c.03.16.49,1.52.58,1.51.04-.06.09-.09.15-.13-.03.13-.22.27-.33.36-.28-.13-.73-.15-1.05-.2-.31-.04-.61-.11-.92-.13v-.07s.19-.19.23-.23c.01.02.04.1.05.1.09-.02,1.04-1.15,1.3-1.22h0Z"/>
        <path class="cls-26" d="M13.45,24.68c-.12.18-.21.36-.4.49-.06.04-.11.07-.15.13-.08,0-.55-1.35-.58-1.51-.01-.07-.06-.14-.02-.16.18.04,1.32.6,1.33.68,0,.07-.28.33-.2.38h0Z"/>
      </g>
      <path class="cls-19" d="M6.47,17.47c.01.23.63.78.72,1.09-.39-.03-.89-.31-.79,0-.14-.02-.41-.11-.13.1,0,.04.01.07.03.1.01.08-.03.06-.03.07-.03.02-.07.04-.1.07-.49-.36-.35-.13-.56.1.14-.51.25-.62.26-.66.23.15.28-.55.46-.86,0,0,.1-.06.1-.07,0,.03.03.03.03.07h0Z"/>
      <path class="cls-26" d="M14.24,21.48c.03.48.03.74-.03,1.22-.09-.02-.18-.07-.26-.1.39.09-.4-.53-.53-.87-.05-.14-.15-.78-.1-.94.19.08.7.06.26.68.38.11.27.6.54.84.1-.56-.36-.8.12-.82h0Z"/>
      <path class="cls-8" d="M13.72,18.92c.05.17.12.35.16.53-.03,0-.11.02-.13.03-.38-.14-.77-.29-1.15-.43,0-.03-.02-.04-.03-.07.28-.18.37-.48.53-.76.19.23.52.69.63.69h0Z"/>
      <path class="cls-19" d="M8.22,13.12c-.07.21-.15.41-.2.63-.14.19-.19.42-.3.63-.16.32-.35.63-.49.95-.15.33-.24.41-.36.86-.01.04-.03.07-.03.1-.09.37-.21.59.03.59-.14.17-.3.34-.43.53,0,0-.1.06-.1.07.02-.08-.04-.16-.13-.16.64-1.63,1.52-3.05,1.91-4,.02-.04-.05-.18.1-.18h0Z"/>
      <path class="cls-66" d="M11.87,14.63c-.28.06-.1.43-.1.46.02.19.12.19-.16.56-.56-.64-.52-.66-.99-.56.13-.18.33-.28.49-.43.04-.04.11-.05.1-.13.13.05.52.07.59-.03.02.04.04.09.07.13Z"/>
      <path class="cls-9" d="M9.14,12.89c-.34.59-.56.2-.53.38.03.13.36.09.56.28-.04.02-.09.05-.13.07-.05.02-.08.07-.12.1-.29.01-.56,0-.82-.1-.02.05-.05.09-.08.13.04-.21.13-.42.2-.63,0-.02,0-.05,0-.07h.03c.24.03.47-.04.66-.16.17.04.2,0,.23,0Z"/>
      <path class="cls-26" d="M12.47,17.27c.06,0,.07.03.1.03,0,.16.71.72.76.58,0-.01-.06-.11-.1-.28.23.4.36.87.49,1.32-.1,0-.43-.46-.63-.69-.02-.03-.05-.05-.07-.07-.04-.05-.09-.11-.13-.16-.08-.09-.13-.12-.16-.16-.13-.16-.24-.36-.36-.53,0,0-.03-.03.1-.03h0Z"/>
      <path class="cls-46" d="M12.3,15.49c.17.35.42.69.49,1.09-.06-.09-.08-.23-.13-.13.04-.4-.44-.58-.76-.43,0,0-.03,0-.03,0-.07-.11-.18-.26-.26-.36.29-.37.18-.37.16-.56.23.16.49.58.53.4h0Z"/>
      <path class="cls-34" d="M11.87,14.63c.14.29.29.57.43.86-.04.19-.29-.24-.53-.4,0-.03-.18-.4.1-.46Z"/>
      <path class="cls-64" d="M6.18,18.88c-.25.18-.47.35-.69.56.04-.15.09-.31.13-.46.21-.23.07-.46.56-.1h0Z"/>
      <path class="cls-42" d="M6.34,17.47c-.18.3-.23,1.01-.46.86.11-.34.2-.68.33-1.02.09,0,.15.09.13.16Z"/>
      <path class="cls-28" d="M13.95,22.6c.08.03.17.08.26.1-.02.16-.03.12-.03.13-.08-.01-.06.03-.07.03-.16,0-.45-.07-.63-.1-.02-.08-.09-.17-.07-.26.17,0,.36.05.53.1h0Z"/>
      <path class="cls-66" d="M13.22,17.5s0,.07,0,.1c.04.17.1.27.1.28-.04.14-.75-.41-.76-.58.22.04.43.17.66.2h0Z"/>
      <path class="cls-18" d="M12.79,16.58s0,0,.03.03c-.31.24-.25.42.16.36.04.08.07.15.1.23-.17-.04-.35-.06-.53-.1,0,0,.01-.05-.1-.03,0-.03-.02-.1-.03-.13.06-.12.22-.37.23-.49.06-.1.07.05.13.13h0Z"/>
      <path class="cls-25" d="M13.09,17.2c.04.1.1.19.13.3-.23-.02-.43-.16-.66-.2-.03,0-.03-.04-.1-.03l.1-.16c.17.04.35.06.53.1h0Z"/>
      <path class="cls-8" d="M12.99,16.97c-.41.06-.48-.12-.16-.36.09.15.1.22.16.36Z"/>
      <g>
        <path class="cls-15" d="M10.36,22.47c.11.9.22,1.8.33,2.7-.75-.29-1.49-.57-2.24-.86.04-.03.03-.1.03-.1.63-.58,1.21-1.2,1.81-1.81.05,0,.06.06.07.07h0Z"/>
        <path class="cls-12" d="M10.59,22.6c.54.33,1.1.7,1.68.92v.03c-.43.44-.84.93-1.28,1.35-.04.04-.22.22-.23.23-.02.01-.04.03-.07.03-.11-.9-.22-1.8-.33-2.7.01,0,.14.07.23.13h0Z"/>
      </g>
      <g>
        <g>
          <path class="cls-75" d="M6.77,22.21s.03.09.03.1c.01.07-.03.05-.07.1-.53-.14-1.03-.38-1.55-.56,0,0,.01-.05-.1-.03v-.03c.25-.07.53-.67.69-.92.01,0,.02,0,.03,0,.27.48.63.91.95,1.35h0Z"/>
          <path class="cls-52" d="M5.78,20.86c-.16.25-.44.85-.69.92.02-.46.21-1.46.33-1.94-.01.1.04.51-.07.94.18.09.36.07.43.08Z"/>
        </g>
        <g>
          <path class="cls-14" d="M7.26,24.15c0,.37-.03.98.03,1.09,0,0-.12.16-.15.2-.17.05-.92-.52-1.14-.63-.32-.45-.61-.97-.76-1.51.36-.14,1.09-.56,1.38-.79.05-.04.06-.06.1-.1.15.59.12,1.26.53,1.75h0Z"/>
          <path class="cls-52" d="M6.83,22.34c.51.67.99,1.27,1.61,1.84,0,0,0,.04.03.03,0,0,0,.07-.03.1-.18.17-.43.3-.63.46-.06-.36-.08-.56-.4-.77-.03-.25-.07-.5-.1-.76h-.07c0,.3,0,.6,0,.91-.4-.49-.37-1.16-.53-1.75.04-.05.08-.03.07-.1,0,0,0,0,.03.03h0Z"/>
          <path class="cls-23" d="M7.82,24.78c-.18.15-.34.31-.53.46-.06-.11-.04-.72-.03-1.09,0-.3,0-.6,0-.91h.07c.03.25.07.5.1.76.31.22.33.42.4.77h0Z"/>
        </g>
        <g>
          <path class="cls-52" d="M5.19,21.85c-.13.29.09.56.35.69s.57.11.86.03c.13-.04.27-.19.25-.07-.3.23-1.02.65-1.38.79-.13-.48-.18-.98-.16-1.48.11-.02.09.03.1.03Z"/>
          <path class="cls-19" d="M6.74,22.41s-.05.06-.1.1c.03-.12-.12.03-.25.07-.28.08-.6.1-.86-.03-.26-.13-.48-.4-.35-.69.52.18,1.02.42,1.55.56Z"/>
        </g>
      </g>
      <g>
        <path class="cls-13" d="M10.69,25.17s.04-.02.07-.03v.07c-.27.27-.55.54-.82.81.15.25.72.33.15.61-.68.33.12-.24.12-.28-.35-.38-.85.03-.49.38-1.48.02-2.83-.72-3.69-1.91.21.11.97.68,1.14.63.03-.04.14-.19.15-.2.19-.15.35-.31.53-.46.19-.16.44-.29.63-.46.75.29,1.49.57,2.24.86h0Z"/>
        <path class="cls-26" d="M12.73,25.53c-.16.14-.38.32-.56.43-.08,0-.19-.04-.2-.03,0-.04-.03-.03-.03-.03-.09-.19-.18-.37-.26-.56.33.05.78.07,1.05.2h0Z"/>
        <g>
          <path class="cls-54" d="M10.75,25.21c.31.03.61.09.92.13.09.19.18.37.26.56-.12-.07-1.16-.28-1.27-.26-.05,0-.39.22-.23.3.07.03,1.41.11,1.48.1.05,0,.04-.1.05-.1,0,0,.11.03.2.03-.72.45-1.62.75-2.47.76-.36-.34.15-.76.49-.38,0,.04-.8.61-.12.28.57-.28,0-.36-.15-.61.27-.27.55-.54.82-.81h0Z"/>
          <path class="cls-36" d="M11.94,25.9s.04,0,.03.03c0,0,0,.09-.05.1-.07.01-1.41-.07-1.48-.1-.16-.07.18-.29.23-.3.11-.02,1.15.19,1.27.26h0Z"/>
        </g>
      </g>
      <path class="cls-29" d="M11.68,20.92v.07c-.46.46-.92.92-1.38,1.38-.13-.88-.31-1.75-.43-2.63,0-.02,0-.04,0-.07h.03c.59.42,1.19.83,1.78,1.25h0Z"/>
      <path class="cls-8" d="M12,21.29c.44.41.9.79,1.32,1.22-.05.1-.24.27-.33.36-.22.24-.49.46-.72.69v-.03c-.13-.7-.35-1.38-.49-2.07-.03-.14-.05-.29-.07-.43.1.09.2.17.3.26h0Z"/>
      <path class="cls-8" d="M12.73,20.76c.11.31.21.63.33.94.08.21.37.55.3.77-.02.05-.03.03-.03.03-.42-.43-.88-.81-1.32-1.22.06,0-.02-.07-.07-.13.24-.13.54-.41.79-.4h0Z"/>
      <path class="cls-66" d="M13.32,20.79c-.06.16.04.8.1.94.13.34.92.96.53.87-.16-.05-.35-.1-.53-.1-.03,0-.04-.04-.07-.03.07-.22-.21-.56-.3-.77-.12-.31-.22-.63-.33-.94-.02-.06-.06-.13-.07-.2.44.11.3.03.31.03.11.03.24.15.35.2h0Z"/>
      <path class="cls-8" d="M13.75,19.48c-.21.1-.78.52-1.02.69.02-.11-.03-.09-.03-.1-.04-.25-.04-.8-.1-1.02.38.14.77.29,1.15.43h0Z"/>
      <path class="cls-41" d="M11.71,21.02c.02.14.04.29.07.43-.48.26-.85.76-1.19,1.15-.1-.06-.22-.12-.23-.13,0,0-.01-.06-.07-.07v-.03c.46-.46.92-.92,1.38-1.38.04,0,.03.03.03.03h0Z"/>
      <path class="cls-18" d="M12.66,20.56c0,.07.04.13.07.2-.25-.01-.55.27-.79.4,0,0-.1-.06-.1-.08,0-.07.66-.57.71-.58.1-.02.11.06.12.07Z"/>
      <g>
        <path class="cls-66" d="M13.88,19.44c.18.67.32,1.35.36,2.04-.48.02-.01.26-.12.82-.27-.24-.16-.73-.54-.84.44-.62-.08-.59-.26-.68-.11-.05-.23-.16-.35-.2-.02,0,.13.07-.31-.03,0,0-.01-.08-.12-.07-.04,0-.71.5-.71.58,0,.02.1.08.1.08.05.07.13.13.07.13-.1-.09-.2-.18-.3-.26,0,0,0-.04-.03-.03v-.03c.36-.25.7-.54,1.05-.79.24-.17.82-.59,1.02-.69.02,0,.1-.03.13-.03h0Z"/>
        <path class="cls-18" d="M13.91,20.13c-.06,0-.11.05-.16.07-.11.04-.83.32-.86.28-.11-.17.4-.23-.13-.23.09-.15.17-.02.25-.05.12-.06.57-.48.69-.4.04.03-.07.17.21.33h0Z"/>
        <path class="cls-46" d="M13.91,20.13c.16.31.21,1.01,0,.77-.02-.03-.2-.63-.16-.71.06-.02.1-.07.16-.07Z"/>
      </g>
      <path class="cls-26" d="M14.11,22.87c.06.11-.41.44-.36.51.09.15.45-.24-.05.81-.09-.33-.13-.68-.18-1.02-.02-.13,0-.26-.03-.4.18.03.46.1.63.1h0Z"/>
      <g>
        <path class="cls-66" d="M14.18,22.83c-.12.72-.31,1.24-.72,1.84-.08-.05.21-.31.2-.38,0-.08-1.16-.64-1.33-.68-.05.02,0,.09.02.16-.26.07-1.21,1.2-1.3,1.22,0,0-.04-.07-.05-.1.44-.42.86-.91,1.28-1.35.23-.24.5-.45.72-.69.18.1.35.2.53.3.05.34.09.69.18,1.02.5-1.05.14-.65.05-.81-.04-.07.42-.4.36-.51,0,0-.01-.05.07-.03h0Z"/>
        <path class="cls-46" d="M13.42,22.51c-.02.1.05.18.07.26.03.14.01.27.03.4-.18-.1-.35-.2-.53-.3.09-.1.28-.26.33-.36,0,0,.02.01.03-.03.03,0,.03.03.07.03h0Z"/>
      </g>
      <g>
        <path class="cls-21" d="M7.43,21.68c.21-.19.51-.42.51-.49-.69-.08-1.4-.2-2.06-.33,0-.02,0-.05,0-.07.3-.25.57-.53.86-.79.26-.23.62-.59.86-.79.13-.11.3-.22.46-.3-.03.77.02,1.55,0,2.32l-.63.44h0Z"/>
        <path class="cls-21" d="M5.88,20.86c.66.13,1.37.25,2.06.33,0,.07-.3.3-.51.49-.21.19-.41.39-.66.53-.33-.44-.68-.87-.95-1.35.02,0,.05,0,.07,0h0Z"/>
      </g>
      <path class="cls-19" d="M9.8,19.74c-.2.14-1.66,1.4-1.68,1.51.05.55.13,1.1.2,1.65-.5-.1-.97-.43-1.48-.56-.02-.03-.03-.03-.03-.03,0,0,0-.05-.03-.1.25-.13.45-.34.66-.53l.63-.44c.02-.77-.03-1.55,0-2.32,0-.04-.01-.07.03-.07.09.02,1.59.7,1.66.76.05.04.06.07.05.13h0Z"/>
      <path class="cls-78" d="M7.72,17.2s0,.03-.05.07c-.38.05-.77.09-1.14.2-.02,0-.04,0-.07,0,0-.03-.04-.04-.03-.07.12-.19.29-.35.43-.53.16-.2.35-.38.49-.59.01-.02.02-.05.03-.07.11.33.22.66.33.99h0Z"/>
      <path class="cls-19" d="M6.54,17.47l1.05.43s0,.02,0,.03c0,0-.03,0-.07.05.2.26.52.37.49.51-.09.04-.7.07-.82.07-.09-.31-.71-.86-.72-1.09.02,0,.05,0,.07,0h0Z"/>
      <path class="cls-5" d="M9.63,17.57v.07c-.56.4-1.12.79-1.68,1.19-.15,0-.25.11-.28.1-.02,0-.12-.28-.16-.3-.05-.02-.25.07-1.1-.07-.1-.31.4-.03.79,0,.13,0,.73-.03.82-.07.1-.04.09-.06.1-.07.33.03.81-.62,1.45-.86h.07Z"/>
      <g>
        <path class="cls-19" d="M5.88,20.79s0,.04,0,.07c-.02,0-.05,0-.07,0-.01,0-.02,0-.03,0-.07-.01-.25,0-.43-.08.1-.43.05-.84.07-.94,0-.05,0-.11,0-.16.3-.26.59-.53.89-.79.05.43.02.87.03,1.3-.1.12-.43.5-.46.61h0Z"/>
        <path class="cls-5" d="M6.31,18.88c-.3.26-.59.53-.89.79.02-.08.04-.15.07-.23.22-.2.44-.38.69-.56.03-.02.07-.04.1-.07,0,.03.03.03.03.07h0Z"/>
        <g>
          <path class="cls-50" d="M6.74,20c-.29.26-.56.54-.86.79.03-.11.36-.48.46-.61-.01-.43.01-.87-.03-1.3,0-.03-.03-.04-.03-.07,0,0,.04,0,.03-.07.24.37.2.58.43.68v.58h0Z"/>
          <path class="cls-3" d="M7.59,19.21c-.23.2-.6.56-.86.79v-.58c-.23-.1-.19-.3-.43-.68-.02-.03-.04-.06-.03-.1.08.06,1.14.29,1.32.56h0Z"/>
          <path class="cls-11" d="M6.41,18.55c.86.14,1.05.04,1.1.07.04.02.15.29.16.3.03.02.13-.09.28-.1.16,0,.13.03.13.03-.04,0-.03.03-.03.07-.16.07-.33.18-.46.3-.18-.26-1.24-.5-1.32-.56-.28-.21,0-.12.13-.1h0Z"/>
        </g>
      </g>
      <path class="cls-29" d="M12.37,18.65s.02,0,.07.1c.02.05.1.14.13.23,0,.03.03.04.03.07.06.22.06.77.1,1.02-.46-.31-.91-.77-1.38-1.12.19-.21.7-.18.87-.23.09-.02.05-.2.18-.07h0Z"/>
      <path class="cls-18" d="M13.03,18.16s.04.04.07.07c-.16.27-.24.58-.53.76-.03-.09-.11-.18-.13-.23.16,0,.23-.5.59-.59h0Z"/>
      <path class="cls-40" d="M9.04,13.61c.07.16.27,0,.4.07.02.01.15.23.2.3-.14-.03-.26-.03-.4.03-.1-.06-.25-.16-.33-.16l-.02-.07c-.23.28-.56.44-.84.66h-.07c.62-.69.22-.47-.26-.07.1-.2.16-.44.3-.63.03-.04.06-.08.08-.13.27.11.53.11.82.1.04-.03.07-.08.12-.1h0Z"/>
      <path class="cls-63" d="M7.99,14.44c-.07.08-.52.11-.13.86-.15-.05-.59.16-.63.33,0-.02,0-.04-.03-.03.02-.08.04-.18.03-.26.15-.32.33-.64.49-.95.48-.4.88-.62.26.07h0Z"/>
      <path class="cls-42" d="M7.36,16.28c-.15.21-.33.39-.49.59-.25,0-.13-.22-.03-.59h.53Z"/>
      <path class="cls-63" d="M7.49,16.02c0,.08-.06.13-.1.2-.01.02-.02.05-.03.07h-.53s.02-.06.03-.1c.09-.06.18-.17.23-.26.03.08.11-.02.13-.07.23.06.25.16.26.16h0Z"/>
      <path class="cls-16" d="M7.2,15.59c-.02.08-.07.27-.1.33-.05.1-.14.2-.23.26.13-.45.21-.52.36-.86,0,.09-.01.18-.03.26h0Z"/>
      <path class="cls-16" d="M9.63,13.98c.12.15.19.34.38.43.29-.11.79.07.94-.1.08.06.18.2.26.23.01.08-.06.09-.1.13-.19-.14-.68-.04-1.02-.07h-.03c-.24-.23-.54-.42-.82-.59.13-.06.25-.07.4-.03h0Z"/>
      <path class="cls-33" d="M11.12,14.67c-.16.14-.36.25-.49.43,0,0,.01.04-.07.03-.04-.06-.35-.34-.46-.53.34.03.83-.07,1.02.07h0Z"/>
      <path class="cls-35" d="M9.27,12.89v.03c.03.17.13.29.23.44-.11.06-.22.12-.33.18-.2-.19-.53-.15-.56-.28-.04-.18.19.21.53-.38.04,0,.09,0,.13,0h0Z"/>
      <path class="cls-40" d="M9.63,13.25c-.04.06,0,.11.03.16.01.08-.03.06-.03.07-.12-.25-.13.06-.2.2-.13-.08-.32.09-.4-.07.04-.02.09-.04.13-.07.11-.06.22-.12.33-.18-.1-.15-.2-.27-.23-.44.2.11.15.19.36.33h0Z"/>
      <path class="cls-18" d="M11.87,16.02s.02,0,.03,0c.08.2.19.4.3.59-.06.06-.18.39-.16.44.01.02.4.25.43.02.11-.02.09.03.1.03l-.1.16c-.13,0-.09.03-.1.03-.31.12-.34.4-.36.43-.2-.26-.46-.44-.69-.66.13-.14.33-.02.49-.07.11-.11-.17-.6-.16-.76,0-.16.04-.23.12-.07.05-.18.04-.12.12-.16h0Z"/>
      <path class="cls-46" d="M12.73,17.83s.09.07.16.16c-.27.09-.33.41-.56.56-.05-.11-.06-.09-.07-.1-.1-.2-.18-.43-.3-.63.02-.03.03-.03.03-.03.24.01.48.02.72.03h0Z"/>
      <path class="cls-66" d="M12.73,17.83c-.24-.01-.48-.02-.72-.03,0,0,0-.06,0-.07.02-.02.05-.31.36-.43.12.17.23.37.36.53h0Z"/>
      <path class="cls-66" d="M12.89,17.99c.04.05.09.11.13.16-.36.09-.43.6-.59.59-.04-.11-.06-.09-.07-.1,0,0,0-.03-.03-.1.22-.15.29-.47.56-.56h0Z"/>
      <path class="cls-46" d="M12.66,16.45c-.01.12-.17.37-.23.49-.01-.03-.19-.26-.23-.33-.1-.19-.21-.39-.3-.59.32-.15.8.03.76.43h0Z"/>
      <path class="cls-79" d="M10.39,13.81s.01.03.07.07c.07.05.14.15.2.2-.06.01-.12-.06-.16-.07-.12-.2-.58-.22-.82-.3-.01-.12-.11-.08-.03-.23,0,0,.04.01.03-.07.16.24.46.22.72.4h0Z"/>
      <g>
        <path class="cls-17" d="M10.52,11.84s0,.05,0,.07c0,.02-.05.09.03.36.07.24.14.29.23.49-.37-.22-.39-.48-.68-.53-.02-.05-.05-.09-.08-.13-.37-.51.05-.38.07-.41.02-.03-.46-.26-.46-.3.27-.11.03-.33,0-.51,0-.05-.03-.08-.03-.13-.02-.16.1-.35.02-.63-.12.15-.23.31-.35.46.06-.18.12-.41.16-.59.27.23.13-.26.13-.43,0-.09-.02-.21.07-.28.15,1,.72,2.05.89,2.55h0Z"/>
        <path class="cls-68" d="M9.6,10.75s.02.08.03.13c-.2.2-.69.68-.59.76-.29.08-.06.34-.1.51-.02.08-.17.12-.13.35-.08.06-.16.13-.23.2-.11.1-.23.25-.33.36h-.03c.07-.2.14-.24.2-.38.22-.53.46-1.05.63-1.6,0-.02.05-.05.1-.16.17.08.32-.08.46-.16h0Z"/>
        <path class="cls-68" d="M9.6,10.75c-.14.09-.29.24-.46.16.02-.12.09-.22.13-.33.12-.15.23-.31.35-.46.08.28-.03.47-.02.63h0Z"/>
        <path class="cls-43" d="M9.57,9.56c0,.16.13.65-.13.43.05-.21.05-.46.13-.43Z"/>
        <path class="cls-17" d="M10.03,12.1s.07.08.08.13c.29.04.31.31.68.53.06.03.09.08.16.07.06.13.13.26.2.4-.21-.09-.19.07-.33.13.12-.31-.14-.36-.49-.43,0-.04-.03-.03-.03-.03-.1-.2-.23-.33-.36-.49-.08-.1-.17-.22-.23-.33.06.02.37.14.33.03h0Z"/>
        <path class="cls-17" d="M10.79,13.45c-.02.14.41.13.56.16.03.07.07.13.1.2-.21-.01-.4-.11-.59,0-.03-.03-.16-.2-.18-.2-.03,0-.18.22-.21.26-.05-.04-.06-.06-.07-.07-.14-.23-.38-.35-.59-.49.13-.1.25-.21.4-.3.35.35.4.67.59.43h0Z"/>
        <path class="cls-36" d="M11.44,13.81c.11.21.22.41.33.63-.56.17-.55-.22-.92-.63.2-.11.39-.01.59,0h0Z"/>
        <path class="cls-69" d="M10.85,13.81c.37.41.36.8.92.63.01.02.02.04.03.07-.07.11-.46.08-.59.03-.08-.03-.18-.17-.26-.23-.1-.07-.2-.16-.3-.23-.06-.04-.13-.15-.2-.2.03-.04.18-.26.21-.26.02,0,.15.17.18.2h0Z"/>
        <path class="cls-37" d="M11.15,13.22c.07.13.13.26.2.4-.15-.03-.58-.03-.56-.16.03-.04.02-.08.03-.1.14-.06.11-.22.33-.13h0Z"/>
        <path class="cls-36" d="M10.69,12.26c.09.19.17.38.26.56-.08.02-.11-.03-.16-.07-.09-.21-.16-.26-.23-.49h.13,0Z"/>
        <path class="cls-69" d="M10.69,12.26h-.13c-.09-.27-.03-.34-.03-.36.07.11.11.24.16.36Z"/>
        <path class="cls-37" d="M10.03,12.1c.04.11-.27,0-.33-.03-.14-.06-.19-.12-.26-.16-.13-.08-.25-.19-.4-.26-.1-.08.39-.55.59-.76.03.18.27.4,0,.51,0,.04.48.27.46.3-.02.03-.43-.1-.07.41h0Z"/>
        <path class="cls-37" d="M9.7,12.07c.06.11.15.23.23.33l-.63.49s-.02,0-.03,0c-.04,0-.09,0-.13,0-.03,0-.07.04-.23,0-.02,0-.28-.14-.33-.2.07-.07.15-.14.23-.2.01,0,.17-.06.25-.1.14-.11-.09-.09-.05-.21.02-.06.42-.17.43-.28.08.05.12.11.26.16h0Z"/>
        <path class="cls-6" d="M9.44,11.9c0,.11-.41.22-.43.28-.04.12.19.11.05.21-.07.04-.24.09-.25.1-.03-.23.11-.26.13-.35.04-.17-.19-.43.1-.51.14.07.26.18.4.26h0Z"/>
        <path class="cls-70" d="M8.91,12.89c-.19.13-.42.19-.66.16.1-.11.22-.27.33-.36.04.06.31.19.33.2h0Z"/>
        <path class="cls-69" d="M10.29,12.89c-.33-.01-.66.02-.99,0l.63-.49c.13.17.27.29.36.49h0Z"/>
        <path class="cls-31" d="M10.29,12.89s.04,0,.03.03c-.04.01-.09.08-.13.1-.14.08-.27.2-.4.3-.13-.09-.16-.06-.16-.07-.21-.14-.17-.22-.36-.33v-.03s.02,0,.03,0c.33.02.66-.01.99,0h0Z"/>
        <path class="cls-55" d="M10.82,13.35s0,.06-.03.1c-.19.25-.24-.08-.59-.43.04-.02.09-.08.13-.1.35.07.61.11.49.43h0Z"/>
        <path class="cls-77" d="M9.8,13.32c.21.15.45.27.59.49-.27-.18-.56-.16-.72-.4-.03-.05-.08-.1-.03-.16,0,0,.04-.03.16.07h0Z"/>
      </g>
      <path class="cls-33" d="M9.63,13.48c-.07.15.02.11.03.23l-.07.02c.32.32.66.24.89.28.04,0,.11.08.16.07.1.07.2.16.3.23-.15.17-.65-.02-.94.1-.19-.09-.26-.28-.38-.43-.05-.06-.17-.28-.2-.3.07-.13.08-.45.2-.2h0Z"/>
      <path class="cls-8" d="M12.43,16.94s.04.11.03.13c-.03.23-.42,0-.43-.02-.02-.05.11-.38.16-.44.04.07.22.3.23.33h0Z"/>
      <path class="cls-63" d="M10.29,22.37v.03c-.6.61-1.19,1.23-1.81,1.81-.04,0-.03-.03-.03-.03-.01-.43-.08-.86-.13-1.28-.07-.55-.15-1.1-.2-1.65.72.37,1.45.75,2.17,1.12Z"/>
      <path class="cls-62" d="M12.27,23.53c-.58-.22-1.14-.59-1.68-.92.33-.4.71-.89,1.19-1.15.14.69.36,1.38.49,2.07h0Z"/>
      <path class="cls-42" d="M8.32,22.9c.05.43.12.85.13,1.28-.63-.57-1.11-1.17-1.61-1.84.52.13.98.46,1.48.56h0Z"/>
      <path class="cls-32" d="M9.86,19.74c.12.88.3,1.76.43,2.63-.72-.37-1.45-.75-2.17-1.12.02-.11,1.48-1.38,1.68-1.51,0,0,.04,0,.07,0Z"/>
      <path class="cls-3" d="M9.86,19.67s0,.04,0,.07c-.03,0-.06,0-.07,0,0-.06,0-.09-.05-.13-.07-.06-1.57-.74-1.66-.76,0,0,.03-.04-.13-.03.56-.4,1.12-.79,1.68-1.19.04.68.14,1.36.23,2.04h0Z"/>
      <g>
        <path class="cls-62" d="M11.31,18.95c.47.35.92.81,1.38,1.12,0,0,.05-.02.03.1-.36.26-.69.54-1.05.79v-.03c-.19-.69-.37-1.38-.56-2.07.06.04.14.05.2.1h0Z"/>
        <path class="cls-68" d="M11.12,18.85c.19.69.37,1.38.56,2.07-.59-.42-1.19-.83-1.78-1.25.28-.3.86-.63,1.12-.89.08-.01.05.03.1.07h0Z"/>
      </g>
      <path class="cls-47" d="M11.05,18.68s0,.06-.03.1c-.26.26-.84.59-1.12.89h-.03c-.09-.68-.19-1.36-.23-2.04.13-.02,1.23.9,1.42,1.05h0Z"/>
      <path class="cls-53" d="M11.31,17.07c.23.22.5.4.69.66,0,0,0,.06,0,.07,0,0,0,0-.03.03-.08.11-.73.88-.66.94.32-.1.64-.21.95-.31,0,0,.01,0,.07.1.03.07.03.09.03.1-.13-.14-.09.04-.18.07-.18.05-.68.02-.87.23-.06-.05-.14-.06-.2-.1-.05-.03-.02-.08-.1-.07.04-.04.03-.1.03-.1.2-.21.34-.44.53-.66.01-.01.29-.14.25-.26-.21-.03-.43-.07-.64-.1.06-.25-.13-.56-.16-.82h.03c.03.07.19.16.26.23h0Z"/>
      <path class="cls-64" d="M7.86,17.17s-.09.02-.13.03c-.11-.33-.22-.66-.33-.99.04-.06.1-.12.1-.2.59.39.73.79.99.84.04.09-.55.29-.63.31h0Z"/>
      <path class="cls-64" d="M7.86,17.17c-.04.18.22,0,.33.07-.06.06-.57.62-.59.66l-1.05-.43c.37-.11.76-.14,1.14-.2.05-.04.05-.06.05-.07.05-.01.09-.02.13-.03h0Z"/>
      <path class="cls-19" d="M8.98,17.63c-.22.16-.79.75-.86.79,0,0,0,.02-.1.07.03-.14-.29-.25-.49-.51.04-.05.06-.05.07-.05.25.05.75-.21,1-.26.12-.02.3-.02.38-.03Z"/>
      <path class="cls-19" d="M8.35,17.14s-.03.09-.05.13c.25.12.49.24.74.36-.02,0-.05,0-.07,0-.08.02-.26,0-.38.03-.25.05-.75.31-1,.26,0,0,0-.03,0-.03.02-.04.54-.6.59-.66.08-.08.13-.09.13-.1h.03,0Z"/>
      <path class="cls-32" d="M10.13,17.3c.36.12.69.24,1.02.43.15.09.29.19.43.3-.19.21-.32.45-.53.66-.18-.15-1.28-1.07-1.42-1.05v-.07c.1,0,.18-.11.23-.13.14-.07.12-.1.13-.1.02-.01.11-.02.13-.03h0Z"/>
      <path class="cls-7" d="M9.86,16.78c.01.25-.08.46,0,.66-.05.02-.13.14-.23.13h-.07c-.29-.18-.57-.35-.86-.53.27.05.19-.03.44-.1.23-.06.47-.13.71-.16h0Z"/>
      <path class="cls-63" d="M9.57,17.57c-.64.24-1.12.89-1.45.86.07-.04.64-.63.86-.79.02,0,.05,0,.07,0,.18-.04.35-.06.53-.07h0Z"/>
      <path class="cls-51" d="M7.99,14.44h.07s-.2.13-.18.16c.39.15.78.31,1.17.46,0,.01,0,.04,0,.07-.04.02-.03.03-.03.03-.14.08-.29.15-.43.23-.23.01-.45.02-.68.03-.07-.04-.04-.11-.05-.13-.39-.75.06-.77.13-.86h0Z"/>
      <g>
        <path class="cls-42" d="M8.91,13.84c0,.27.2,1.03.13,1.22-.39-.15-.78-.31-1.17-.46-.02-.03.15-.14.18-.16.28-.21.61-.38.84-.66l.02.07Z"/>
        <path class="cls-42" d="M9.24,14.01c.28.17.58.37.82.59-.02,0-.04,0-.07,0-.16.03-.37.18-.53.26-.1.05-.21.15-.3.2,0,0-.05.02-.13.07,0-.02,0-.05,0-.07.07-.19-.13-.95-.13-1.22.08,0,.23.1.33.16h0Z"/>
      </g>
      <path class="cls-63" d="M7.86,15.29s-.02.09.05.13c.23-.01.45-.02.68-.03-.23.14-.43.33-.69.43.05-.43.29-.2-.31-.3-.1.07-.21.13-.31.2,0,0-.02-.05-.03-.1.03-.17.48-.38.63-.33h0Z"/>
      <path class="cls-63" d="M7.23,15.62c.01.05.03.09.03.1,0,0-.03.12-.03.13-.02.05-.1.15-.13.07.03-.06.08-.25.1-.33.04,0,.03.02.03.03h0Z"/>
      <path class="cls-19" d="M7.89,15.82v.03s-.06-.03-.08-.07c.17.32.54,1.13.87.86.04.04.05.09.1.1-.17.13-.31.25-.46.4,0,0-.05.02-.13.1-.11-.06-.37.11-.33-.07.08-.03.66-.23.63-.31-.26-.05-.4-.45-.99-.84-.01,0-.04-.11-.26-.16,0-.01.03-.12.03-.13.1-.07.21-.13.31-.2.6.09.36-.13.31.3h0Z"/>
      <g>
        <path class="cls-53" d="M11.61,15.66c.09.1.19.25.26.36-.07.05-.06-.02-.12.16-.07-.16-.11-.1-.12.07-.08.07-.05-.01-.16-.16-.07-.1-.49-.65-.54-.66-.06-.01-.08.06-.08.07-.13.06-.2.17-.23.12.02-.3.09-.24-.07-.48.08.01.06-.03.07-.03.46-.1.43-.08.99.56h0Z"/>
        <path class="cls-47" d="M11.48,16.08l-.2.23c-.12.01-.28-.29-.43-.46.19-.1-.16-.05-.16-.12,0-.03.2-.13.16-.25,0,0,.02-.08.08-.07.06.01.47.56.54.66Z"/>
        <path class="cls-29" d="M11.48,16.08c.11.15.09.23.16.16,0,.16.27.65.16.76-.14-.18-.35-.35-.49-.53,0,0-.07-.14-.03-.16l.2-.23h0Z"/>
      </g>
      <path class="cls-71" d="M11.81,17.01c-.16.04-.37-.07-.49.07-.07-.07-.23-.16-.26-.23-.07-.16.08-.1.26-.36.14.17.35.34.49.53h0Z"/>
      <path class="cls-73" d="M12.27,18.45c-.32.1-.64.21-.95.31-.07-.06.58-.83.66-.94.12.2.19.42.3.63Z"/>
      <path class="cls-39" d="M9.67,13.71c.24.08.7.1.82.3-.23-.04-.57.04-.89-.28l.07-.02h0Z"/>
      <path class="cls-46" d="M10.85,15.85c.15.17.3.47.43.46-.04.03.03.16.03.16-.18.27-.33.2-.26.36h-.03s-.05-.02-.07-.03c-.34-.23-.64-.54-.94-.82-.08-.01-.04.07-.05.16-.29.14-.55.27-.79.43l-.07-.03c.15-.11.3-.25.46-.36.14-.1.29-.19.4-.33.08-.1.6-.03.89,0h0Z"/>
      <path class="cls-72" d="M10.95,16.81s.04.03.07.03c.03.27.22.57.16.82,0,0-.04-.01-.03.07-.33-.19-.66-.31-1.02-.43.09-.05.51-.39.82-.49Z"/>
      <path class="cls-49" d="M11.58,18.03c-.14-.11-.28-.21-.43-.3-.01-.08.03-.06.03-.07.21.03.43.07.64.1.05.12-.24.25-.25.26h0Z"/>
      <path class="cls-24" d="M8.61,17.01c0,.05.05.02.1.03.29.18.57.35.86.53-.18,0-.35.03-.53.07-.25-.12-.49-.24-.74-.36.02-.04.03-.09.05-.13.08-.04.19-.08.26-.13h0Z"/>
      <path class="cls-22" d="M9.11,16.54l.07.03c-.19.12-.36.31-.56.43-.08.05-.18.1-.26.13h-.03c.16-.14.3-.26.46-.4.11-.09.31-.19.33-.2h0Z"/>
      <path class="cls-7" d="M10.95,16.81c-.32.1-.73.44-.82.49-.02.01-.11.02-.13.03-.03-.32-.07-.89-.03-1.19.01-.09-.03-.18.05-.16.3.28.6.59.94.82h0Z"/>
      <path class="cls-38" d="M9.96,16.15c-.03.3,0,.87.03,1.19,0,0,.01.03-.13.1-.08-.2.01-.41,0-.66,0-.04-.03-.28-.05-.3-.21.03-.43.07-.64.1.24-.16.5-.29.79-.43h0Z"/>
      <path class="cls-67" d="M9.86,16.78c-.24.04-.48.1-.71.16-.25.07-.17.15-.44.1-.04,0-.1.02-.1-.03.2-.12.37-.31.56-.43.21-.03.43-.07.64-.1.02.01.05.25.05.3Z"/>
      <g>
        <path class="cls-2" d="M10.06,14.6h.03c.11.19.42.46.46.53.15.24.08.18.07.48.03.06.1-.06.23-.12.03.12-.17.22-.16.25,0,.06.36.02.16.12-.29-.03-.81-.1-.89,0-.18-.19-.37-.38-.56-.56.18.13.36.26.54.4.04-.03.01-.44.02-.53.01-.18.06-.37.03-.56.02,0,.04,0,.07,0h0Z"/>
        <path class="cls-58" d="M9.96,15.16c0,.09.02.5-.02.53-.18-.13-.36-.26-.54-.4-.1-.09-.24-.13-.23-.23.09-.05.2-.15.3-.2.2.19.34-.04.49.3h0Z"/>
        <path class="cls-10" d="M10,14.6c.03.19-.02.37-.03.56-.15-.33-.29-.11-.49-.3.16-.08.37-.24.53-.26h0Z"/>
      </g>
      <path class="cls-16" d="M7.89,15.85c.16.1.6.6.79.79-.34.27-.7-.54-.87-.86.02.03.05.05.08.07h0Z"/>
      <g>
        <path class="cls-21" d="M8.94,15.89s-.02.13.02.16c.02.01.35.06.41.07.07.01.15-.01.2.07-.16.11-.31.25-.46.36-.02.01-.22.11-.33.2-.05-.01-.06-.06-.1-.1-.19-.19-.63-.69-.79-.79v-.03c.26-.1.46-.29.69-.43.13-.08.29-.15.43-.23.1.14-.09.49-.07.72h0Z"/>
        <path class="cls-20" d="M9.17,15.06c0,.1.13.14.23.23.19.17.38.37.56.56-.11.14-.26.23-.4.33-.05-.08-.13-.06-.2-.07.1-.08.34.04.31-.16l-.74-.07c-.02-.23.16-.59.07-.72,0,0-.01,0,.03-.03.08-.04.13-.06.13-.07h0Z"/>
        <path class="cls-64" d="M9.37,16.12c-.06-.01-.4-.05-.41-.07-.03-.03-.01-.12-.02-.16l.74.07c.02.21-.22.08-.31.16Z"/>
      </g>
    </g>
  </g>
  <g>
    <rect class="cls-1" x="-5.57" y="34.65" width="40.2" height="9.42"/>
    <path class="cls-74" d="M7.72,37.67c-.17-.08-.33-.2-.46-.38l.1-.09c.13.17.27.29.42.36s.34.1.57.1c.31,0,.55-.06.72-.19.17-.13.26-.31.26-.53,0-.13-.03-.23-.1-.32-.06-.08-.17-.15-.32-.21-.15-.06-.37-.11-.65-.17-.32-.06-.56-.15-.7-.28s-.21-.3-.21-.53c0-.15.04-.29.13-.41.08-.12.2-.21.35-.28.15-.07.32-.1.52-.1.49,0,.83.16,1.02.48l-.1.08c-.08-.14-.2-.25-.35-.33-.16-.07-.34-.11-.57-.11-.17,0-.31.03-.45.09-.13.06-.23.14-.31.24-.07.1-.11.22-.11.35,0,.18.07.32.21.43.14.11.37.19.67.24.28.05.5.11.66.17s.27.15.34.26c.07.1.1.24.1.4,0,.27-.1.47-.29.62s-.47.22-.83.22c-.24,0-.45-.04-.63-.12h0Z"/>
    <path class="cls-74" d="M10.79,34.81h-1.03v-.12h2.2v.12h-1.03v2.94h-.14v-2.94h0Z"/>
    <path class="cls-74" d="M12.75,37.57c-.2-.15-.3-.35-.3-.6v-2.28h.14v2.28c0,.22.09.39.27.51.18.13.42.19.72.19s.54-.06.72-.19c.18-.13.27-.3.27-.51v-2.28h.14v2.28c0,.25-.1.45-.3.6-.2.15-.48.22-.82.22s-.62-.07-.82-.22h0Z"/>
    <path class="cls-74" d="M15.46,34.69h1.06c.31,0,.55.05.73.15.18.1.31.26.39.48.08.22.12.52.12.9s-.04.68-.12.9c-.08.22-.21.38-.39.48s-.43.15-.73.15h-1.06v-3.06h0ZM16.52,37.63c.28,0,.5-.05.66-.14.16-.09.28-.24.35-.44s.11-.48.11-.83-.04-.62-.11-.83-.19-.35-.35-.44-.38-.14-.65-.14h-.92v2.81h.92,0Z"/>
    <path class="cls-74" d="M18.49,34.69h.14v3.06h-.14v-3.06Z"/>
    <path class="cls-74" d="M19.68,37.5c-.2-.19-.3-.47-.3-.82v-.93c0-.36.1-.63.3-.82.2-.19.49-.29.87-.29s.66.1.87.29c.2.19.3.47.3.82v.93c0,.36-.1.63-.3.82-.2.19-.49.29-.87.29s-.66-.1-.87-.29ZM21.31,37.41c.18-.17.27-.41.27-.73v-.93c0-.32-.09-.56-.27-.73s-.43-.26-.76-.26-.58.09-.76.26-.27.41-.27.73v.93c0,.32.09.56.27.73.18.17.43.26.76.26s.58-.09.76-.26Z"/>
  </g>
</svg>