<svg xmlns="http://www.w3.org/2000/svg" viewBox="0 0 1200 630" width="1200" height="630">
  <rect width="1200" height="630" fill="#FAFBFC"/>

  <!-- ==========================================
       ESPR TEXTILE — polygon-art
       Left: fabric/textile weave, Center: EU regulation shield,
       Right: DPP/digital passport
       ========================================== -->

  <!-- === TEXTILE WEAVE (left) === -->
  <!-- Fabric threads - horizontal -->
  <polygon points="80,240 140,230 140,250" fill="#00914B" opacity="0.8"/>
  <polygon points="140,230 220,225 220,245" fill="#059669" opacity="0.7"/>
  <polygon points="220,225 290,228 290,248" fill="#00914B" opacity="0.75"/>
  <polygon points="80,270 140,260 140,280" fill="#059669" opacity="0.7"/>
  <polygon points="140,260 220,255 220,275" fill="#0D6B3E" opacity="0.65"/>
  <polygon points="220,255 290,258 290,278" fill="#059669" opacity="0.7"/>
  <polygon points="80,300 140,290 140,310" fill="#0D6B3E" opacity="0.75"/>
  <polygon points="140,290 220,285 220,305" fill="#00914B" opacity="0.7"/>
  <polygon points="220,285 290,288 290,308" fill="#0D6B3E" opacity="0.65"/>
  <polygon points="80,330 140,320 140,340" fill="#00914B" opacity="0.7"/>
  <polygon points="140,320 220,315 220,335" fill="#059669" opacity="0.65"/>
  <polygon points="220,315 290,318 290,338" fill="#00914B" opacity="0.7"/>

  <!-- Fabric threads - vertical crossing -->
  <polygon points="110,210 120,210 115,290" fill="#AFF9D7" opacity="0.4"/>
  <polygon points="115,290 110,360 120,360" fill="#AFF9D7" opacity="0.35"/>
  <polygon points="170,210 180,210 175,290" fill="#AFF9D7" opacity="0.35"/>
  <polygon points="175,290 170,360 180,360" fill="#AFF9D7" opacity="0.3"/>
  <polygon points="230,210 240,210 235,290" fill="#AFF9D7" opacity="0.35"/>
  <polygon points="235,290 230,360 240,360" fill="#AFF9D7" opacity="0.3"/>

  <!-- Decorative textile triangles -->
  <polygon points="90,200 120,180 150,205" fill="#00914B" opacity="0.3"/>
  <polygon points="200,190 230,175 255,195" fill="#059669" opacity="0.25"/>
  <polygon points="100,370 130,355 155,375" fill="#0D6B3E" opacity="0.25"/>
  <polygon points="210,365 240,350 265,370" fill="#00914B" opacity="0.2"/>

  <!-- === EU REGULATION / SHIELD (center) === -->
  <!-- Shield shape from triangles -->
  <polygon points="520,160 600,130 680,160" fill="#243644" opacity="0.9"/>
  <polygon points="520,160 600,180 520,280" fill="#1B2833" opacity="0.85"/>
  <polygon points="680,160 680,280 600,180" fill="#243644" opacity="0.8"/>
  <polygon points="520,280 600,380 600,180" fill="#243644" opacity="0.75"/>
  <polygon points="680,280 600,180 600,380" fill="#1B2833" opacity="0.8"/>

  <!-- EU stars on shield -->
  <polygon points="570,200 580,190 590,200" fill="#FFA92D" opacity="0.8"/>
  <polygon points="610,200 620,190 630,200" fill="#FFA92D" opacity="0.8"/>
  <polygon points="555,230 565,220 575,230" fill="#FFA92D" opacity="0.7"/>
  <polygon points="625,230 635,220 645,230" fill="#FFA92D" opacity="0.7"/>
  <polygon points="560,265 570,255 580,265" fill="#FFA92D" opacity="0.65"/>
  <polygon points="620,265 630,255 640,265" fill="#FFA92D" opacity="0.65"/>
  <polygon points="575,295 585,285 595,295" fill="#FFA92D" opacity="0.6"/>
  <polygon points="605,295 615,285 625,295" fill="#FFA92D" opacity="0.6"/>

  <!-- Check/compliance mark -->
  <polygon points="580,330 600,310 600,340" fill="#00914B" opacity="0.7"/>
  <polygon points="600,310 620,280 600,340" fill="#00914B" opacity="0.6"/>

  <!-- Arrow: Textile → Shield -->
  <polygon points="310,280 350,274 350,286" fill="#00914B" opacity="0.4"/>
  <polygon points="350,270 390,265 390,285" fill="#00914B" opacity="0.45"/>
  <polygon points="390,260 430,270 430,285" fill="#243644" opacity="0.4"/>
  <polygon points="430,265 470,268 470,282" fill="#243644" opacity="0.45"/>
  <polygon points="470,262 510,272 490,278" fill="#243644" opacity="0.5"/>

  <!-- Arrow: Shield → DPP -->
  <polygon points="690,280 730,274 730,286" fill="#243644" opacity="0.45"/>
  <polygon points="730,270 770,268 770,282" fill="#009BBB" opacity="0.4"/>
  <polygon points="770,262 810,265 810,280" fill="#009BBB" opacity="0.45"/>
  <polygon points="810,260 850,268 830,278" fill="#009BBB" opacity="0.5"/>

  <!-- === DIGITAL PRODUCT PASSPORT (right) === -->
  <!-- DPP card shape -->
  <polygon points="870,180 960,180 960,260" fill="#009BBB" opacity="0.85"/>
  <polygon points="870,180 870,260 960,260" fill="#0084A0" opacity="0.8"/>
  <polygon points="960,180 1060,180 1060,260" fill="#0084A0" opacity="0.75"/>
  <polygon points="960,260 1060,260 1060,180" fill="#009BBB" opacity="0.7"/>
  <polygon points="870,260 960,260 960,380" fill="#0084A0" opacity="0.8"/>
  <polygon points="870,260 870,380 960,380" fill="#009BBB" opacity="0.75"/>
  <polygon points="960,260 1060,260 1060,380" fill="#009BBB" opacity="0.8"/>
  <polygon points="960,380 1060,380 1060,260" fill="#0084A0" opacity="0.7"/>

  <!-- QR code detail -->
  <polygon points="900,290 920,270 940,290" fill="#FFFFFF" opacity="0.6"/>
  <polygon points="900,310 920,290 940,310" fill="#FFFFFF" opacity="0.5"/>
  <polygon points="900,290 900,310 920,310" fill="#FFFFFF" opacity="0.55"/>
  <polygon points="940,290 940,310 920,290" fill="#FFFFFF" opacity="0.45"/>
  <polygon points="910,280 920,270 930,280" fill="#BBF0F8" opacity="0.5"/>

  <!-- Data lines -->
  <polygon points="960,295 1010,290 1010,300" fill="#FFFFFF" opacity="0.4"/>
  <polygon points="960,315 1000,310 1000,320" fill="#FFFFFF" opacity="0.35"/>
  <polygon points="960,335 1020,330 1020,340" fill="#FFFFFF" opacity="0.3"/>
  <polygon points="960,355 990,350 990,360" fill="#FFFFFF" opacity="0.3"/>

  <!-- Eco leaf on DPP -->
  <polygon points="990,200 1010,185 1020,210" fill="#00914B" opacity="0.6"/>
  <polygon points="1010,185 1030,195 1020,210" fill="#059669" opacity="0.5"/>

  <!-- === DECORATIVE ACCENT TRIANGLES === -->
  <polygon points="50,80 75,55 95,85" fill="#00914B" opacity="0.1"/>
  <polygon points="150,100 170,80 185,105" fill="#059669" opacity="0.08"/>
  <polygon points="400,80 425,55 445,85" fill="#243644" opacity="0.08"/>
  <polygon points="700,90 720,70 735,95" fill="#009BBB" opacity="0.08"/>
  <polygon points="1050,120 1070,100 1085,125" fill="#009BBB" opacity="0.1"/>
  <polygon points="1100,200 1120,185 1130,205" fill="#BBF0F8" opacity="0.1"/>

  <polygon points="50,480 75,460 90,485" fill="#0D6B3E" opacity="0.1"/>
  <polygon points="300,530 325,515 340,535" fill="#00914B" opacity="0.08"/>
  <polygon points="550,500 575,485 590,505" fill="#FFA92D" opacity="0.08"/>
  <polygon points="800,520 820,505 835,525" fill="#243644" opacity="0.08"/>
  <polygon points="1050,480 1070,465 1085,485" fill="#009BBB" opacity="0.1"/>
  <polygon points="1100,540 1115,525 1125,545" fill="#00914B" opacity="0.08"/>

  <!-- Sparkles -->
  <polygon points="350,150 358,138 366,150" fill="#FFA92D" opacity="0.12"/>
  <polygon points="750,420 758,408 766,420" fill="#00914B" opacity="0.1"/>
  <polygon points="500,450 508,440 516,450" fill="#243644" opacity="0.08"/>
</svg>
