<?xml version="1.0" encoding="UTF-8"?>
<svg id="Camada_2" data-name="Camada 2" xmlns="http://www.w3.org/2000/svg" xmlns:xlink="http://www.w3.org/1999/xlink" viewBox="0 0 1075.82 318.27">
  <defs>
    <style>
      .cls-1 {
        fill: url(#linear-gradient-2);
      }

      .cls-2 {
        fill: #eab500;
      }

      .cls-3 {
        fill: url(#linear-gradient);
      }

      .cls-4 {
        fill: #1d1d1b;
      }

      .cls-5 {
        fill: #008237;
      }

      .cls-6 {
        fill: #fff;
      }

      .cls-7 {
        fill: #f9d72f;
      }

      .cls-8 {
        fill: #fde570;
      }

      .cls-9 {
        fill: #4a4a49;
      }

      .cls-10 {
        fill: #f5c500;
      }

      .cls-11 {
        fill: #006b2d;
      }

      .cls-12 {
        fill: #ffec8d;
      }

      .cls-13 {
        fill: #646363;
      }
    </style>
    <linearGradient id="linear-gradient" x1="412.76" y1="219.1" x2="412.76" y2="219.1" gradientTransform="translate(803.76) rotate(-180) scale(1 -1)" gradientUnits="userSpaceOnUse">
      <stop offset="0" stop-color="#eab500"/>
      <stop offset="1" stop-color="#f5c500"/>
    </linearGradient>
    <linearGradient id="linear-gradient-2" x1="1436.88" y1="219.08" x2="1436.88" y2="219.08" gradientTransform="translate(-1351.51)" xlink:href="#linear-gradient"/>
  </defs>
  <g id="DH-EN-FC-Logo">
    <path class="cls-11" d="M731.07,123.77c-14.7,0-23.4,11.4-23.4,26.3,0,17.5,8.7,25.4,24.5,25.4,5.9,0,12.2-1.1,17.8-3l-1.3-9.3c-5.1,1.7-10.1,2.6-15,2.6-9.3,0-13.3-4.7-13.4-13.6h31s.4-3.6.4-7.3c0-11.8-6.1-21.1-20.6-21.1ZM720.37,143.77c.7-6.8,4.7-10.8,10.1-10.8s9,3.7,8.8,10.8h-18.9ZM824.17,114.97c2.3.5,5,.9,7.4,1.1v18h-29.1v-18c2.4-.2,5.1-.6,7.4-1.1v-8h-27.8v7.8c2.6.6,5.7,1.1,8.7,1.3v49.3c-3,.2-6.1.7-8.7,1.3v7.8h27.8v-8c-2.3-.5-5-.9-7.4-1.1v-20.3h29.1v20.3c-2.4.2-5.1.6-7.4,1.1v8h27.8v-7.8c-2.6-.6-5.7-1.1-8.7-1.3v-49.3c3-.2,6.1-.7,8.7-1.3v-7.8h-27.8v8ZM587.78,125.87h9.3c.6-3.3,1.1-6,1.3-8.5h10.6v48c-3,.2-6.1.7-8.7,1.3v7.8h30.1v-7.8c-2.6-.6-5.7-1.1-8.7-1.3v-48h10.6c.2,2.5.7,5.2,1.3,8.5h9.2v-18.9h-55v18.9ZM899.73,141.18c0-11-4.8-17.5-20.1-17.5-6.1,0-13,1.5-18.5,3.5l1.9,9.4c4.8-1.9,10.6-3.3,15.1-3.3,6.7,0,9,2.8,9,8.7v2.1c-17.4,0-28.8,5.6-28.8,17.3,0,8.1,5.3,14.1,14.2,14.1,7.5,0,13.6-4,16-9.6l.1.1c-.4,2.6-.5,5.6-.5,8.6,6.4.2,14-.1,20.3-.9v-7.7c-2.9-.2-6.3-.6-8.7-1v-23.8ZM887.13,153.78c0,5.9-4.2,12.1-10.6,12.1-3.8,0-6.1-2.6-6.1-6,0-4.3,3.6-7.6,16.7-7.6v1.5ZM913.22,152.18c0,15.2,6.6,23.3,18.5,23.3,6.6,0,12.2-3.6,14.8-9.4l.2.1c-.5,2.6-.6,4.8-.6,7.3v3.1c0,8.5-4.5,12.3-14,12.3-4.9,0-10.3-.9-14.7-2.5l-1.2,11.3c4.2,1,9.6,1.7,15.2,1.7,18.9,0,27-8.9,27-24v-50c-5.4-.9-11.2-1.5-18.1-1.5-17.5,0-27.1,11.5-27.1,28.3ZM946.03,148.48c0,8.7-4.1,16.6-11,16.6-5.9,0-8.7-4.8-8.7-14.1,0-12.5,5.3-17.2,12.8-17.2,2.5,0,4.7.3,6.9.8v13.9ZM1018.53,124.77h-12.5v24c0,8.9-5.1,16.3-11.7,16.3-4.9,0-6.4-3.2-6.4-8.5v-31.9c-6.7-.2-14.5.1-21,.9v7.7c2.9.2,6.2.6,8.6,1v25.4c0,8.7,3.6,15.8,14.8,15.8,8.2,0,14-4.1,17-10.1l.1.1c-.5,2.9-.6,6.7-.6,9.1,6.5.2,14.1-.1,20.4-.9v-7.7c-2.9-.2-6.3-.6-8.7-1v-40.2ZM1075.82,144.88c0-11.8-6.1-21.1-20.6-21.1s-23.4,11.4-23.4,26.3c0,17.5,8.7,25.4,24.5,25.4,5.9,0,12.2-1.1,17.8-3l-1.3-9.3c-5.1,1.7-10.1,2.6-15,2.6-9.3,0-13.3-4.7-13.4-13.6h31s.4-3.6.4-7.3ZM1044.52,143.77c.7-6.8,4.7-10.8,10.1-10.8s9,3.7,8.8,10.8h-18.9ZM682.28,123.77c-7.8,0-13.5,3.8-16.4,9.4l-.2-.1c.7-2.9.9-7,.9-10v-18.7c-6.29-.17-12.96.03-18.68.62v8.18c2.24.21,4.53.51,6.28.8v60.5h12.4v-23.9c0-9,5.1-16.4,11.8-16.4,4.9,0,6.3,3.2,6.3,8.5v31.8h12.4v-34.9c0-8.7-3.6-15.8-14.8-15.8Z"/>
    <g>
      <path class="cls-5" d="M385.42,270.08h-86.3v48.19h86.3c62.76,0,85.9-4.77,85.9-4.77v-48.75s-23.36,5.33-85.9,5.33Z"/>
      <path class="cls-5" d="M187.23,257.89l15.69,36.78c11.63-.13,23.44-.2,35.41-.2,18.17,0,35.97.15,53.31.44v-33.61l72.4-9.37s-10.06-1.74-37.41-3.74c-27.35-2-66.62-1.27-66.62-1.27,0,0-15.75,5.3-21.83,6.36-6.08-1.06-21.83-6.36-21.83-6.36,0,0-38.98-.73-66.33,1.27-27.31,2-45.5,4.87-45.61,4.89l82.81,4.81Z"/>
      <path class="cls-11" d="M183.72,262.52l.13,32.41c6.29-.11,12.65-.2,19.06-.27l-15.69-36.78-82.81-4.81v9.28c55.91-.14,79.3.17,79.3.17Z"/>
      <path class="cls-5" d="M176.23,270.08h-85.3c-62.54,0-85.9-5.33-85.9-5.33v48.75s23.14,4.77,85.9,4.77h85.3v-48.19Z"/>
      <path class="cls-11" d="M12.67,266.03c-5.27-.74-7.65-1.28-7.65-1.28v48.75s8.34,1.72,28.57,3.09c-13.42-15.15-19.91-33.93-20.93-50.56Z"/>
      <g>
        <path class="cls-6" d="M33.67,281.73h9.17v2.87h-2.49l5.85,16.21c.24.67.38,1.44.56,2.14h.07c.17-.7.31-1.47.56-2.14l5.74-16.21h-2.84v-2.87h8.96v2.87h-2.21l-8.4,21.63h-4.34l-8.51-21.63h-2.14v-2.87Z"/>
        <path class="cls-6" d="M61.58,303.36h2.41l.14-18.76h-2.56v-2.87h10.89c5.04,0,7.42,2.91,7.42,6.48,0,4.24-2.73,6.16-5.85,6.48v.07c1.36.1,2.27,1.26,3.12,2.66l2.66,4.48c.7,1.15,1.37,1.47,2.17,1.47h.91v2.87h-2.28c-2.07,0-3.01-.21-4.45-2.59l-3.36-5.71c-1.02-1.75-1.54-2.14-2.7-2.14h-2.1l-.07,7.56h2.84v2.87h-9.21v-2.87ZM71.07,292.72c2.77,0,4.69-1.47,4.69-4.1s-1.58-4.03-4.41-4.03h-3.26l-.07,8.12h3.05Z"/>
        <path class="cls-6" d="M85.91,303.36h2.45l.14-18.76h-2.84v-2.87h17.22l.14,6.44h-3.26l-.21-3.57h-7.11l-.07,7.56h7v3.08h-7l-.07,8.12h7.46l.28-3.99h3.29l-.28,6.86h-17.15v-2.87Z"/>
        <path class="cls-6" d="M107.29,303.36h2.49l.14-18.76h-2.62v-2.87h11.62c7.88,0,12.39,4.59,12.39,11.69s-4.59,12.81-12.43,12.81h-11.59v-2.87ZM117.62,303.36c5.99,0,9.35-3.64,9.35-9.77,0-5.5-3.15-9-9.17-9h-3.96l-.14,18.76h3.92Z"/>
        <path class="cls-6" d="M134.07,303.36h2.45l.14-18.76h-2.83v-2.87h17.22l.14,6.44h-3.26l-.21-3.57h-7.11l-.07,7.56h7v3.08h-7l-.07,8.12h7.46l.28-3.99h3.29l-.28,6.86h-17.15v-2.87Z"/>
      </g>
      <g>
        <path class="cls-6" d="M324.23,303.36h2.41l.14-18.76h-2.56v-2.87h10.89c5.04,0,7.42,2.91,7.42,6.48,0,4.24-2.73,6.16-5.85,6.48v.07c1.37.1,2.28,1.26,3.12,2.66l2.66,4.48c.7,1.15,1.36,1.47,2.17,1.47h.91v2.87h-2.28c-2.07,0-3.01-.21-4.45-2.59l-3.36-5.71c-1.02-1.75-1.54-2.14-2.7-2.14h-2.1l-.07,7.56h2.84v2.87h-9.21v-2.87ZM333.71,292.72c2.76,0,4.69-1.47,4.69-4.1s-1.58-4.03-4.41-4.03h-3.25l-.07,8.12h3.05Z"/>
        <path class="cls-6" d="M348.55,303.36h2.45l.14-18.76h-2.83v-2.87h17.22l.14,6.44h-3.25l-.21-3.57h-7.11l-.07,7.56h7v3.08h-7l-.07,8.12h7.46l.28-3.99h3.29l-.28,6.86h-17.15v-2.87Z"/>
        <path class="cls-6" d="M386.18,288.91v-3.92c-.91-.25-2.31-.6-4.17-.6-5.85,0-8.89,3.57-8.89,9.7,0,5.57,3.36,9.49,8.37,9.49,1.68,0,3.46-.18,4.38-.35l.14-4.41h3.5l-.14,6.69c-1.58.52-4.73,1.15-7.63,1.15-8.79,0-12.95-5.46-12.95-12.43,0-7.63,5.11-12.92,13.27-12.92,3.08,0,5.99.66,7.63,1.33v6.27h-3.5Z"/>
        <path class="cls-6" d="M408.79,303.36h2.45l.07-7.88h-11.38l-.07,7.88h2.62v2.87h-9.03v-2.87h2.45l.14-18.76h-2.59v-2.87h9.03v2.87h-2.49l-.07,7.81h11.38l.07-7.81h-2.59v-2.87h9.03v2.87h-2.49l-.14,18.76h2.62v2.87h-9.03v-2.87Z"/>
        <path class="cls-6" d="M427.1,303.36h2.52l.14-18.76h-5.71l-.14,3.57h-3.5l.14-6.44h22.23l.14,6.44h-3.5l-.14-3.57h-5.6l-.14,18.76h2.83v2.87h-9.28v-2.87Z"/>
      </g>
      <g>
        <path class="cls-7" d="M239.42,50.4c23.41,0,41.04,1.15,52.78,2.28l2.66-21.32c-11.47-1.01-33.05-3.54-56.52-3.54s-45.92,2.56-57.61,3.57l2.78,21.61c11.63-1.23,30.31-2.6,55.9-2.6ZM276.74,40.83c.21-1.75,2.35-2.93,5.31-2.93.46,0,.93.03,1.4.08,1.56.2,3.01.69,4.07,1.39,1.26.84,1.88,1.9,1.75,2.99-.21,1.75-2.34,2.93-5.3,2.93-.46,0-.93-.03-1.4-.09-3.57-.44-6.07-2.32-5.82-4.38ZM260.54,35.53l7.17,3.93-7.37,3.55-7.17-3.93,7.37-3.55ZM237.89,34.84c3.87,0,6.79,1.67,6.79,3.88s-2.92,3.88-6.79,3.88-6.79-1.67-6.79-3.88,2.92-3.88,6.79-3.88ZM215.23,35.53l7.37,3.55-7.17,3.93-7.37-3.55,7.17-3.93ZM188.26,39.38c1.06-.71,2.51-1.2,4.08-1.39.47-.05.94-.08,1.4-.08,2.96,0,5.09,1.17,5.31,2.92.25,2.06-2.25,3.94-5.82,4.38-.47.06-.94.09-1.4.09-2.96,0-5.09-1.18-5.31-2.93-.13-1.09.49-2.15,1.75-2.99Z"/>
        <g>
          <path class="cls-7" d="M243.93,5.67c0-3.13-2.54-5.67-5.67-5.67s-5.67,2.54-5.67,5.67,2.54,5.67,5.67,5.67,5.67-2.54,5.67-5.67ZM183.42,9.51c0-3.13-2.54-5.67-5.67-5.67s-5.67,2.54-5.67,5.67,2.54,5.67,5.67,5.67,5.67-2.54,5.67-5.67ZM231.74,12.64c-3.13,0-5.67,2.54-5.67,5.67s2.54,5.67,5.67,5.67,5.67-2.54,5.67-5.67-2.54-5.67-5.67-5.67ZM218.72,13.6c-3.13,0-5.67,2.54-5.67,5.67s2.54,5.67,5.67,5.67,5.67-2.54,5.67-5.67-2.54-5.67-5.67-5.67ZM205.7,14.56c-3.13,0-5.67,2.54-5.67,5.67s2.54,5.67,5.67,5.67,5.67-2.54,5.67-5.67-2.54-5.67-5.67-5.67ZM192.69,15.52c-3.13,0-5.67,2.54-5.67,5.67s2.54,5.67,5.67,5.67,5.67-2.54,5.67-5.67-2.54-5.67-5.67-5.67ZM179.66,16.47c-3.13,0-5.67,2.54-5.67,5.67s2.53,5.67,5.67,5.67,5.67-2.54,5.67-5.67-2.54-5.67-5.67-5.67ZM244.76,12.64c-3.13,0-5.67,2.54-5.67,5.67,0,2.46,1.56,4.55,3.75,5.34l5.58-9.67c-.99-.83-2.26-1.34-3.66-1.34Z"/>
          <path class="cls-10" d="M298.76,3.84c-3.13,0-5.67,2.54-5.67,5.67s2.54,5.67,5.67,5.67,5.67-2.54,5.67-5.67-2.54-5.67-5.67-5.67ZM296.85,16.47c-3.13,0-5.67,2.54-5.67,5.67s2.54,5.67,5.67,5.67,5.67-2.54,5.67-5.67-2.53-5.67-5.67-5.67ZM283.83,15.52c-3.13,0-5.67,2.54-5.67,5.67s2.54,5.67,5.67,5.67,5.67-2.54,5.67-5.67-2.54-5.67-5.67-5.67ZM270.8,14.56c-3.13,0-5.67,2.54-5.67,5.67s2.54,5.67,5.67,5.67,5.67-2.54,5.67-5.67-2.54-5.67-5.67-5.67ZM257.78,13.6c-3.13,0-5.67,2.54-5.67,5.67s2.54,5.67,5.67,5.67,5.67-2.54,5.67-5.67-2.54-5.67-5.67-5.67ZM248.42,13.98l-5.58,9.67c.6.22,1.25.33,1.92.33,3.13,0,5.67-2.54,5.67-5.67,0-1.74-.78-3.29-2.02-4.33Z"/>
        </g>
        <path class="cls-10" d="M237.89,42.6c-2.29,0-4.25-.59-5.47-1.52l-5.61,9.44c4-.07,8.2-.11,12.6-.11,23.41,0,41.04,1.15,52.78,2.28l2.66-21.32c-11.16-.99-31.87-3.41-54.57-3.54l-4.25,7.16c.59-.09,1.21-.14,1.85-.14,3.87,0,6.79,1.67,6.79,3.88s-2.92,3.88-6.79,3.88ZM276.74,40.83c.21-1.75,2.35-2.93,5.31-2.93.46,0,.93.03,1.4.08,1.56.2,3.01.69,4.07,1.39,1.26.84,1.88,1.9,1.75,2.99-.21,1.75-2.34,2.93-5.3,2.93-.46,0-.93-.03-1.4-.09-3.57-.44-6.07-2.32-5.82-4.38ZM260.54,35.53l7.17,3.93-7.37,3.55-7.17-3.93,7.37-3.55Z"/>
      </g>
      <path class="cls-11" d="M291.64,261.3v1.22h80.6v-9.45s-2.96-.46-8.2-1.15l-72.4,9.37Z"/>
      <path class="cls-11" d="M466.1,314.34c3.58-.55,5.22-.83,5.22-.83v-48.75s-5.76,1.31-19.2,2.64c9.13,11.12,12.77,29.23,13.98,46.95Z"/>
      <g>
        <path class="cls-6" d="M218.22,279.81h2.12l.12-16.24h-2.45v-2.48h14.9l.12,5.57h-2.82l-.18-3.09h-6.15l-.06,6.54h6.06v2.67h-6.06l-.06,7.03h6.45l.24-3.45h2.85l-.24,5.94h-14.84v-2.48Z"/>
        <path class="cls-6" d="M236.85,279.81h2.06l.12-16.24h-2.67v-2.48h5.57l9.82,12.81c.64.85,1.54,2.24,2.12,3.18h.06l-.12-13.51h-2.36v-2.48h7.39v2.48h-2.06l-.12,18.72h-2.76l-10.6-13.75c-.61-.79-1.18-1.64-1.48-2.24l-.06.06.12,13.45h2.33v2.48h-7.36v-2.48Z"/>
      </g>
      <polygon class="cls-3" points="390.99 219.11 390.99 219.09 390.99 219.11 390.99 219.11"/>
      <g>
        <path class="cls-10" d="M465.63,118.98c0-11.01-14.7-7.53-22.75-7.53s-7.49-10.41-7.49-10.41h15.34c12.25,0,20.08,7.55,14.9,17.94Z"/>
        <path class="cls-8" d="M418.02,96.46c3.58-3.58,7.29-5.55,12.58-5.55,11.72,0,28.68-.75,31.05-6.9,2.06,2.16,1.87,6.52-3.14,11.52,13.2,0,15.53,3,16.86,5.81,3.45,7.26-2.53,17.65-9.73,17.65,5.18-10.39-2.65-17.94-14.9-17.94h-20.14c-1.8,0-3.77.94-5.41,2.58-3.48,3.48-3.48,9.14,0,12.62l24.31,24.31c1.54,1.53,2.64,3.28,3.55,5.13l-39.99-30.66c-1.76-6.4-.05-13.53,4.96-18.55Z"/>
      </g>
      <path class="cls-2" d="M389.36,72.65c-.2-.73-.32-1.42-.39-2.07,3.53-4.14,9.41-5.77,17.37-2.41,10.01,4.22,19.13-3.09,19.13-3.09-6.88,13.19-16.44,8.91-24.73,6.31-4.53-1.42-8.77-.02-11.38,1.26Z"/>
      <path class="cls-2" d="M347.23,122.25c-8.51-4.86-15.35-8.41-15.36-8.41h0s3.24,14,3.24,14c0,0-9.6,15.63-14.75,24.11.11.05.23.1.34.16,0,0,26.58-29.82,26.58-29.82h0s-.03-.02-.05-.03Z"/>
      <path class="cls-10" d="M393.23,100.14c0-10.25-6.92-14.46-10.01-15.83-4.59-.19-9.32.24-13.38,1.9,1.32,12.12,18.74,28.33,29.2,31.91.08.03.16.05.25.08-5-3.85,3.31-18.05-6.06-18.05Z"/>
      <path class="cls-7" d="M357.85,128.54h0c-3.57-2.2-7.2-4.33-10.57-6.26h0s-26.58,29.82-26.58,29.82c-1.47-.79-3.12-1.28-4.91-1.28v10.45h.02c-4.48.99-7.48,4.7-7.48,10.43h7.48v9.32c.99,1.1,2.54,1.8,4.13,1.85l37.96-54.31s-.05-.01-.04-.03Z"/>
      <path class="cls-10" d="M396.95,128.18c-10.36,6.5-31,5.57-31.02,5.56-.01,0-.02-.01-.03-.02-.02,0,5.83,3.59,11.88,9.42l40.66,6.47s-13.13-13.09-21.49-21.43Z"/>
      <path class="cls-10" d="M441.35,201.38c-4.7,0-18.9-1.88-18.9-12.3v-21.59l-10.84,17.68-.14,17.91c17.51,20.09,13.13,43,5.14,52.23v6.93c4.97-.1,9.85-.21,14.54-.38l-1.22-5.21,6.49-11.26s-2.83-36.24,4.95-44.02Z"/>
      <path class="cls-8" d="M357.9,128.57l-37.96,54.31c.05,0,.1,0,.16,0,.64,0,13.43-9.5,13.43-9.5l32.4-39.65c-2.54-1.72-5.27-3.47-8.03-5.17h0Z"/>
      <path class="cls-12" d="M369.84,86.21c-14.03,7.25-20.46,28.22-37.97,27.63.02.01,19.9,10.31,34.05,19.9.03.02,36.81,1.67,36.81-14.89-9.34,0-31.4-18.93-32.9-32.63Z"/>
      <path class="cls-7" d="M334.53,101.36c3.04-7.87,4.16-20.66,7.49-33.36l-15.92-10.12-3.82-6.63h-17.87l-3.32,5.76c6.9.66,11.32,1.17,11.45,1.18l3.12.39v24.96l18.87,17.82Z"/>
      <path class="cls-8" d="M356.1,40.56v-10.71l11.02,4.85c-.1-.57-.33-3.57,4.86-6.45-.23,3.23,4.48,5.61,9.92,7.27-5.64,13.1-13.97,33.15-12.05,50.7-14.03,7.25-20.46,28.22-37.97,27.63,0,0-4.47-2.12-5.97-4.73,16.6,0,7.61-45.96,30.19-68.55Z"/>
      <path class="cls-8" d="M401.66,214.32c5.4,5.42,8.64,11.7,8.64,17.76,0,13.68-9.26,18.66-9.26,18.66-10.99-3.52-14.07,7.64-14.83,11.69,3.88,0,7.93,0,12.14,0,6.01,0,12.56-.06,18.26-.17v-6.95c7.99-9.23,12.38-32.14-5.14-52.23l-9.8,11.24Z"/>
      <path class="cls-8" d="M390.93,195.22c0-2.21,0-5.96,0-8.09h0c0,.51,0,1.02,0,1.54l-34.06,7.93-22.55,44.4c6.76.55,12.84,1.14,18.1,1.71l-2.17-5.75,27.49-39.22,13.19-2.52Z"/>
      <path class="cls-7" d="M340.96,200.31c-2.54,22.17-17.09,29.21-17.09,29.21,0,0-2.78-.69-5.66-.69-6.4,0-9.53,10.58-9.53,10.58,3.38.15,6.91.36,10.45.58,3,.16,5.94.34,8.75.55,2.21.16,4.33.33,6.41.5l22.56-44.42-15.9,3.7Z"/>
      <path class="cls-10" d="M390.91,174.85l-14.64-10.73-40.84,33.81s2.12,2.96,5.53,2.39l49.96-11.63c0-5.28-.01-10.14-.01-13.83Z"/>
      <path class="cls-8" d="M365.93,133.74l-11.65,14.25,36.63,26.85c0-4.24,0-6.94,0-6.94,0-2.31-.39-4.57-1.07-6.76-2.13-7.06-7.15-13.28-12.05-18.01-5.86-5.65-11.52-9.18-11.85-9.4h0Z"/>
      <path class="cls-7" d="M408.66,52.41l-9.44-7.03-1.6-6.71s-8.51-.95-15.73-3.15c-5.64,13.1-13.97,33.15-12.05,50.7,12.98-5.29,32.82,1.92,32.82,1.92l-3.12-8.39,4.55-5.27s-13.52,1.58-13.52,1.57c-3.99-8.97-.65-13.39,8.04-13.39,3.63,0,6.44,1.76,6.44,1.76l1.88-6.12-1.63-3.03,2.3.21,1.05-3.04ZM387.87,46.34c-2.47.08-4.52-1.51-4.59-3.56,0-.23.02-.46.06-.68,3.04.19,6.18.6,8.8,1.01-.3,1.76-2.07,3.15-4.27,3.23Z"/>
      <polygon class="cls-1" points="85.37 219.09 85.37 219.07 85.36 219.09 85.37 219.09"/>
      <g>
        <path class="cls-10" d="M10.73,118.96c0-11.01,14.7-7.53,22.75-7.53s7.49-10.41,7.49-10.41h-15.34c-12.25,0-20.08,7.55-14.9,17.94Z"/>
        <path class="cls-7" d="M58.34,96.43c-3.58-3.58-7.29-5.55-12.58-5.55-11.72,0-28.68-.75-31.05-6.9-2.06,2.16-1.87,6.52,3.14,11.52-13.2,0-15.53,3-16.86,5.81-3.45,7.26,2.53,17.65,9.73,17.65-5.18-10.39,2.65-17.94,14.9-17.94h20.14c1.8,0,3.77.94,5.41,2.58,3.48,3.48,3.48,9.14,0,12.62l-24.31,24.31c-1.54,1.53-2.64,3.28-3.55,5.13l39.99-30.66c1.76-6.4.05-13.53-4.96-18.55Z"/>
      </g>
      <path class="cls-2" d="M87,72.63c.2-.73.32-1.42.39-2.07-3.53-4.14-9.41-5.77-17.37-2.41-10.01,4.22-19.13-3.09-19.13-3.09,6.88,13.19,16.44,8.91,24.73,6.31,4.53-1.42,8.77-.02,11.38,1.26Z"/>
      <path class="cls-7" d="M129.12,122.23c8.51-4.86,15.35-8.41,15.36-8.41h0s-3.24,14-3.24,14c0,0,9.6,15.63,14.75,24.11-.11.05-.23.1-.34.16l-26.58-29.82h0s.03-.02.05-.03Z"/>
      <path class="cls-10" d="M93.14,84.29c-3.09,1.37-10.01,5.58-10.01,15.83-9.37,0-1.06,14.2-6.06,18.05.08-.03.16-.05.25-.08,10.46-3.58,27.88-19.78,29.2-31.91-4.06-1.66-8.79-2.08-13.38-1.9Z"/>
      <path class="cls-8" d="M118.51,128.52h0c3.57-2.2,7.2-4.33,10.57-6.26,0,0,0,0,0,0l26.58,29.82c1.47-.79,3.12-1.28,4.91-1.28v10.45h-.02c4.48.99,7.48,4.7,7.48,10.43h-7.48v9.32c-.99,1.1-2.54,1.8-4.13,1.85l-37.96-54.31s.05-.01.04-.03Z"/>
      <path class="cls-7" d="M79.41,128.16c10.36,6.5,31,5.57,31.02,5.56.01,0,.02-.01.03-.02.02,0-5.83,3.59-11.88,9.42l-40.66,6.47s13.13-13.09,21.49-21.43Z"/>
      <path class="cls-12" d="M35.01,201.36c4.7,0,18.9-1.88,18.9-12.3v-21.59l10.84,17.68.14,17.91c-17.51,20.09-13.13,43-5.14,52.23v6.93c-4.97-.1-9.85-.21-14.54-.38l1.22-5.21-6.49-11.26s2.83-36.24-4.95-44.02Z"/>
      <path class="cls-7" d="M59.76,262.25c5.7.1,12.24.17,18.26.17,4.21,0,8.25,0,12.14,0-.76-4.05-3.84-15.21-14.83-11.69,0,0-9.26-4.98-9.26-18.66,0-6.08,3.21-12.34,8.64-17.77l-9.8-11.23c-17.51,20.09-13.13,43-5.14,52.23v6.95Z"/>
      <path class="cls-10" d="M118.46,128.55l37.96,54.31c-.05,0-.1,0-.16,0-.64,0-13.43-9.5-13.43-9.5l-32.4-39.65c2.54-1.72,5.27-3.47,8.03-5.17h0Z"/>
      <path class="cls-12" d="M73.62,118.82c0,16.56,36.78,14.91,36.81,14.89,14.16-9.59,34.03-19.89,34.05-19.9-17.51.59-23.93-20.38-37.97-27.63-1.5,13.7-23.56,32.63-32.9,32.63Z"/>
      <path class="cls-10" d="M141.82,101.34c-3.04-7.87-4.16-20.66-7.49-33.36l15.92-10.12,3.82-6.63h17.87l3.32,5.76c-6.9.66-11.32,1.17-11.45,1.18l-3.12.39v24.96l-18.87,17.82Z"/>
      <path class="cls-7" d="M120.26,40.54v-10.71l-11.02,4.85c.1-.57.33-3.57-4.86-6.45.23,3.23-4.48,5.61-9.92,7.27,5.64,13.1,13.97,33.15,12.05,50.7,14.03,7.25,20.46,28.22,37.97,27.63,0,0,4.47-2.12,5.97-4.73-16.6,0-7.61-45.96-30.19-68.55Z"/>
      <path class="cls-8" d="M98.58,143.12s0,0,0,0h0s0,0,0,0ZM26.96,167.47c3.6,3.6,8.38,5.58,13.47,5.58s9.88-1.98,13.48-5.58l10.84,17.68.14,17.91,20.5,23.49c.01-6.54.07-58.66.07-58.66,0-2.31.39-4.57,1.07-6.76,2.13-7.06,7.15-13.28,12.05-18.01l-40.66,6.47-8.33,8.19s-8.95,9.03-15.46,2.52c-3.48-3.48-3.48-9.14,0-12.62l24.3-24.3c2.41-2.41,4.03-5.32,4.87-8.4l-39.99,30.66c-3.45,7.11-2.26,15.92,3.64,21.82Z"/>
      <path class="cls-12" d="M85.43,195.2c0-2.21,0-5.96,0-8.09h0c0,.51,0,1.02,0,1.54l34.06,7.93,22.55,44.4c-6.76.55-12.84,1.14-18.1,1.71l2.17-5.75-27.49-39.22-13.19-2.52Z"/>
      <path class="cls-10" d="M135.39,200.29c2.54,22.17,17.09,29.21,17.09,29.21,0,0,2.78-.69,5.66-.69,6.4,0,9.53,10.58,9.53,10.58-3.38.15-6.91.36-10.45.58-3,.16-5.94.34-8.75.55-2.21.16-4.33.33-6.41.5l-22.56-44.42,15.9,3.7Z"/>
      <path class="cls-7" d="M85.45,174.83l14.64-10.73,40.84,33.81s-2.12,2.96-5.53,2.39l-49.96-11.63c0-5.28.01-10.14.01-13.83Z"/>
      <path class="cls-2" d="M110.43,133.72l11.65,14.25-36.63,26.86c0-4.24,0-6.94,0-6.94,0-2.31.39-4.57,1.07-6.76,2.13-7.06,7.15-13.28,12.05-18.01,5.86-5.65,11.52-9.18,11.85-9.4h0Z"/>
      <path class="cls-8" d="M94.46,35.49c-7.22,2.21-15.73,3.15-15.73,3.15l-1.6,6.71-9.44,7.03,1.05,3.04,2.3-.21-1.63,3.03,1.88,6.12s2.81-1.76,6.44-1.76c8.69,0,12.03,4.42,8.04,13.39,0,0-13.52-1.57-13.52-1.57l4.55,5.27-3.12,8.39s19.84-7.21,32.82-1.92c1.92-17.54-6.42-37.59-12.05-50.7ZM88.49,46.32c-2.2-.08-3.97-1.47-4.27-3.23,2.62-.42,5.77-.83,8.8-1.01.04.22.07.45.06.68-.06,2.05-2.12,3.65-4.59,3.56Z"/>
      <path class="cls-10" d="M308.32,192.3c0,39.36-70.15,53.3-70.15,53.3,0,0-70.14-13.94-70.14-53.3v-127.01s23.74-4.5,70.14-4.5,70.15,4.5,70.15,4.5v127.01Z"/>
      <path class="cls-2" d="M238.18,245.59s70.15-13.94,70.15-53.3v-127.01s-23.73-4.5-70.15-4.5c-10.93,0-20.61.25-29.01.63,63.33,2.53,88.64,11.09,88.64,11.09,0,0,.06,88.6.06,121.06s-59.69,52.03-59.69,52.03Z"/>
      <path class="cls-9" d="M252.34,137.68l-5.37-.67-1.66,2.22-12.54-7.99c1.26,6.31,4.7,18.33,13.53,28.56,5.88,4.25,12.02,8.71,16.9,12.24-.39-20.65-7.38-32.02-9.19-36.57l-1.66,2.22Z"/>
      <path class="cls-6" d="M226.67,145.63c-6.57-4.69-4.42-13.97-.1-18.34l18.74,11.94,1.66-2.22,5.37.67,1.66-2.22,13.85,2.38c-2.59-4.14-6.89-10.8-13.44-15.26l1.66-2.22c-3.35-1.58-10.99-2.83-19.84-2.83h-13.49l9.53-27.17c2.53-7.31-1.98-13.16-6.9-13.71-7.42-.82-10.5,7.17-10.5,7.17l8.14,8.29c.18.04-10.5,24.96-10.5,24.96-1.09,2.61-1.81,5.99-1.83,9.65-.04,6.98,3.14,14.1,9.64,20.41,5.51,5.35,29.37,24.06,29.37,24.06l1.92-2.55,11.56,3.37s-34.69-25.1-36.52-26.41Z"/>
      <path class="cls-13" d="M232.77,131.23l-6.2-3.95c-4.32,4.37-6.47,13.65.1,18.34,2,1.42,10.48,7.56,19.62,14.17-8.82-10.23-12.26-22.25-13.53-28.56Z"/>
      <path class="cls-4" d="M267.85,137.85l-13.85-2.38c1.82,4.56,8.81,15.92,9.19,36.57,5.53,4.01,9.43,6.83,9.43,6.83l2.73-3.64,7.17,4.96c-.39-3.29-.95-6.38-1.63-9.31-3.11-14.58-8.25-25.54-13.05-33.02Z"/>
      <path class="cls-9" d="M255.71,223.05c-.31-.77-.88-1.51-1.98-1.51h-4.03v-19.05l-3.3,1.5v17.49h-6.12c-.71,0-2.08,1.01-2.55,1.01h-2.73c-1.1,0-1.68.73-1.98,1.51l-.2.6-.11.76c-.02.24-.02.41-.02.41h6.59l1.35-1.01h2.75c-1.73,1.07-3.59,2.21-4.29,2.64-.94.58-1.06,1.51-.92,2.33l.15.64.28.69c.11.22.18.36.18.36l11.17-6.6h6.08s0-.16-.03-.4l-.19-.79-.12-.57Z"/>
      <path class="cls-13" d="M197.77,152.37l-.62.83.37,5.41,1.03-1.39.74.09,4.26,7.4s.05-.03.14-.09l.53-.43.46-.41c.62-.67,1.14-1.64.52-2.72-.17-.29-.44-.77-.78-1.36l12.6,5.98,5.15-1.22-20.65-9.78c-.46-.78-1.08-1.98-1.08-1.98-.37-.57-1.74-.78-2.68-.33Z"/>
      <polygon class="cls-4" points="223.03 92.13 214.89 83.84 179.81 92.13 223.03 92.13"/>
      <path class="cls-9" d="M196.48,154.1l-6.71.86s-2,2.57-3.03,3.94c-.66.89-.42,1.79.01,2.5l.41.53.48.54c.17.16.3.26.3.26l3.42-4.6,2.76-.39c-1.32,1.78-2.73,3.67-3.22,4.34-.66.89-.42,1.79.02,2.5l.44.56.45.51c.18.17.3.27.3.27l5.42-7.32-.37-5.41-.67.91Z"/>
      <path class="cls-9" d="M241.72,164.9c-1.05-.84-2.16-1.72-3.3-2.63v9.59l-.49.06-15.75-7.46-5.15,1.22,19.64,9.33,2.01,2.6,3.23-.46,1.22-3.06-1.42-1.83v-7.35Z"/>
      <path class="cls-4" d="M227.64,83.81s-3.76,1.68-4.67,1.68-1.77-.75-1.77-1.68.86-1.68,1.77-1.68,4.67,1.68,4.67,1.68Z"/>
      <path class="cls-4" d="M189.19,104.63c-2.36-4.17.4-6.72,2.34-8.68,1.4-1.42,2.61-2.64,2.64-4.44.03-2.36-1.3-2.79-4.6-3.27-1.96-.29-3.98-.58-5.13-2.06-.65-.85-.92-1.84-.76-2.86.34-2.28,2.68-3.98,2.94-4.17.66-.46,1.56-.3,2.02.36.46.66.3,1.57-.36,2.04-.52.37-1.62,1.39-1.74,2.21-.02.16-.02.35.19.62.43.56,1.93.77,3.26.97,2.85.41,7.16,1.04,7.08,6.2-.04,2.98-1.87,4.83-3.48,6.46-1.84,1.86-3.33,3.21-2.34,5.83.65,1.72,3.6,2.63,3.03,3.65-.53.96-3.92-.83-5.08-2.87Z"/>
      <path class="cls-4" d="M249.71,171.22s-1.28-1-3.3-2.6v6.04h.04l-1.63,2.85,1.59,2.8v23.67l3.3-1.5v-22.11l1.63-2.85-1.63-2.85v-3.45Z"/>
      <line class="cls-13" x1="274.29" y1="176.65" x2="272.63" y2="178.87"/>
      <path class="cls-13" d="M273.68,132.54c-5.03-5.2-10.99-9.39-17.61-12.18l-1.66,2.22c6.55,4.46,10.85,11.13,13.44,15.26,4.8,7.48,9.94,18.45,13.05,33.02.68,2.93,1.24,6.03,1.63,9.31l6.93,4.86c3.53-20.03-3.18-39.46-15.77-52.5Z"/>
      <path class="cls-7" d="M377.78,143.14h0s0,0,0,0c0,0,0,0,0,0ZM453.04,145.67l-39.99-30.66c.84,3.08,2.46,5.98,4.87,8.4l24.3,24.3c3.48,3.48,3.48,9.13,0,12.62-6.5,6.51-15.46-2.52-15.46-2.52l-8.33-8.19-40.66-6.47c4.9,4.72,9.92,10.94,12.05,18.01.68,2.19,1.07,4.45,1.07,6.76,0,0,.06,52.12.07,58.66l20.5-23.49.14-17.91,10.84-17.68c3.6,3.6,8.39,5.58,13.48,5.58s9.88-1.98,13.47-5.58c5.89-5.9,7.09-14.71,3.64-21.82Z"/>
    </g>
  </g>
</svg>