<?xml version="1.0" encoding="UTF-8"?>
<svg id="Camada_2" data-name="Camada 2" xmlns="http://www.w3.org/2000/svg" viewBox="0 0 539.98 161.78">
  <defs>
    <style>
      .cls-1 {
        fill: none;
      }

      .cls-2 {
        fill: #2a3180;
      }

      .cls-3 {
        fill: #f2af1a;
      }
    </style>
  </defs>
  <g id="Layer_1" data-name="Layer 1">
    <g>
      <path class="cls-1" d="M151.13,111.19c-1.12,1.35-1.89,3.11-2.33,5.28h6.75l8.33-7.81c-1.42-.63-3.03-.95-4.83-.95-3.31,0-5.96,1.16-7.92,3.48Z"/>
      <path class="cls-1" d="M198.16,27.15c-3.76,0-6.7,1.42-8.84,4.27-1.55,2.08-2.33,4.62-2.33,7.61,0,3.93,1.23,7.05,3.7,9.37,2.08,1.94,4.59,2.9,7.52,2.9,3.55,0,6.42-1.27,8.62-3.83,1.47-1.7,2.2-4.18,2.2-7.44,0-4.37-1.03-7.58-3.08-9.63-2.17-2.17-4.77-3.26-7.79-3.26Z"/>
      <polygon class="cls-3" points="35.9 49.85 15.8 49.85 15.8 0 3.48 0 3.48 60.06 35.9 60.06 35.9 49.85"/>
      <path class="cls-3" d="M49.28,12.8c1.7,0,3.09-.48,4.18-1.45,1.44-1.26,2.16-2.86,2.16-4.8,0-1.73-.56-3.23-1.67-4.49-1.17-1.32-2.71-1.98-4.62-1.98-1.76,0-3.18.48-4.27,1.45-1.44,1.26-2.16,2.9-2.16,4.93,0,1.67.56,3.14,1.67,4.4,1.2,1.29,2.77,1.94,4.71,1.94Z"/>
      <rect class="cls-3" x="43.51" y="18.39" width="11.48" height="41.67"/>
      <polygon class="cls-3" points="90.85 18.39 81.66 43.25 72.42 18.39 60.54 18.39 75.59 60.06 87.42 60.06 102.6 18.39 90.85 18.39"/>
      <rect class="cls-3" x="108.1" y="18.39" width="11.48" height="41.67"/>
      <path class="cls-3" d="M113.86,12.8c1.7,0,3.1-.48,4.18-1.45,1.44-1.26,2.16-2.86,2.16-4.8,0-1.73-.56-3.23-1.67-4.49-1.17-1.32-2.71-1.98-4.62-1.98-1.76,0-3.18.48-4.27,1.45-1.44,1.26-2.16,2.9-2.16,4.93,0,1.67.56,3.14,1.67,4.4,1.2,1.29,2.77,1.94,4.71,1.94Z"/>
      <path class="cls-3" d="M142.42,34.76c0-2.11.5-3.84,1.5-5.19,1.44-1.96,3.37-2.95,5.81-2.95s4.28.92,5.46,2.77c.67,1.09,1.01,2.71,1.01,4.88v25.78h11.48v-26.35c0-2.79-.21-5.21-.62-7.26-.44-2.11-1.48-3.99-3.12-5.63-2.61-2.58-6.04-3.87-10.3-3.87-2.81,0-5.21.66-7.17,1.98-1.35.91-2.7,2.43-4.05,4.57v-5.1h-11.48v41.67h11.48v-25.3Z"/>
      <path class="cls-3" d="M220.51,18.39h-11.26v5.15c-1.7-2.14-3.51-3.71-5.41-4.71-2.41-1.26-5.1-1.89-8.1-1.89-4.08,0-7.67.89-10.78,2.68-3.2,1.79-5.66,4.43-7.39,7.92-1.85,3.7-2.77,7.69-2.77,11.97,0,8.83,3.27,15.22,9.81,19.18,3.05,1.88,6.36,2.82,9.94,2.82,6.04,0,10.94-2.38,14.7-7.13v4.27c0,3.81-1,6.81-2.99,8.98-2.11,2.26-5.13,3.39-9.06,3.39-5.07,0-9.39-1.94-12.94-5.81l-7.08,7.22c4.72,4.64,10.32,7.31,16.79,8.04l26.55-24.89V18.39ZM206.83,47.47c-2.2,2.55-5.07,3.83-8.62,3.83-2.93,0-5.44-.97-7.52-2.9-2.46-2.32-3.7-5.44-3.7-9.37,0-2.99.78-5.53,2.33-7.61,2.14-2.84,5.09-4.27,8.84-4.27,3.02,0,5.62,1.09,7.79,3.26,2.05,2.05,3.08,5.27,3.08,9.63,0,3.26-.73,5.74-2.2,7.44Z"/>
      <polygon class="cls-3" points="244.8 0 232.48 0 232.48 44.35 244.8 32.8 244.8 0"/>
      <path class="cls-3" d="M33.22,110.09c-2.02-1.32-5.19-2.76-9.5-4.31-3.43-1.26-5.78-2.23-7.04-2.9-2.46-1.35-3.7-3.26-3.7-5.72,0-1.61.56-3.02,1.67-4.22,1.29-1.38,3.18-2.07,5.68-2.07,4.84,0,7.45,2.48,7.83,7.44h12.49c-.53-5.92-2.73-10.54-6.6-13.86-3.58-2.99-8.12-4.49-13.64-4.49s-10.4,1.55-14.03,4.66c-3.9,3.29-5.85,7.79-5.85,13.51,0,5.16,1.69,9.21,5.06,12.14,2.7,2.38,6.97,4.59,12.8,6.64,3.67,1.32,6.1,2.42,7.3,3.3,1.64,1.23,2.46,2.81,2.46,4.75,0,1.7-.66,3.15-1.98,4.36-1.61,1.38-3.59,2.07-5.94,2.07-1.58,0-3.07-.35-4.44-1.06-1.47-.79-2.54-1.85-3.21-3.17-.38-.79-.57-1.98-.57-3.56H0c-.06,6.04,1.95,10.76,6.03,14.17,3.55,3.02,8.32,4.53,14.3,4.53,5.22,0,9.65-1.23,13.29-3.7,4.93-3.34,7.39-8.18,7.39-14.52,0-5.98-2.6-10.65-7.79-13.99Z"/>
      <path class="cls-3" d="M69.65,108.24c3.23,0,6.1,1.23,8.62,3.7l7.61-7c-5.05-4.6-10.61-6.91-16.68-6.91-3.64,0-7.01.73-10.12,2.2-3.61,1.7-6.44,4.21-8.49,7.52-2.35,3.84-3.52,8.11-3.52,12.8,0,6.4,2.02,11.59,6.07,15.57,4.37,4.31,9.71,6.47,16.01,6.47s11.41-2.08,16.01-6.25l-6.91-7.44c-2.7,2.32-5.43,3.48-8.18,3.48-3.08,0-5.66-1-7.74-2.99-2.46-2.32-3.7-5.4-3.7-9.24,0-3.17.91-5.87,2.73-8.1,2.11-2.55,4.87-3.83,8.27-3.83Z"/>
      <path class="cls-3" d="M91.95,81.09v60.06h11.48v-24.81c0-1.32.12-2.48.35-3.48.32-1.12.97-2.14,1.94-3.08,1.47-1.38,3.17-2.07,5.1-2.07,1.64,0,2.96.48,3.96,1.45,1.5,1.38,2.25,3.42,2.25,6.12v25.87h11.48v-27.5c0-3.37-.35-5.97-1.06-7.79-.91-2.49-2.73-4.47-5.46-5.94-2.32-1.26-4.74-1.89-7.26-1.89-4.22,0-7.99,1.97-11.31,5.9v-22.84h-11.48Z"/>
      <path class="cls-3" d="M148.8,116.47c.44-2.17,1.22-3.93,2.33-5.28,1.97-2.32,4.61-3.48,7.92-3.48,1.8,0,3.41.32,4.83.95l7.66-7.18c-3.54-2.28-7.74-3.45-12.62-3.45-4.37,0-8.24.97-11.62,2.9-3.4,1.94-6,4.68-7.79,8.23-1.73,3.4-2.6,7.1-2.6,11.09,0,4.25.91,7.96,2.67,11.18l15.96-14.96h-6.75Z"/>
      <path class="cls-2" d="M209.38,78.27c3.93-1.85,6.83-4.53,8.71-8.05,1.61-3.02,2.42-7.42,2.42-13.2v-1.45l-26.55,24.89c1.21.14,2.44.23,3.72.23,4.37,0,8.27-.81,11.7-2.42Z"/>
      <polygon class="cls-2" points="264.91 60.06 264.91 49.85 244.8 49.85 244.8 32.8 232.48 44.35 232.48 60.06 264.91 60.06"/>
      <path class="cls-2" d="M304.41,54.34v5.72h11.48V18.39h-11.48v5.28c-1.64-1.97-3.25-3.42-4.84-4.36-2.61-1.55-5.54-2.33-8.8-2.33-3.96,0-7.52.97-10.69,2.9-3.14,1.91-5.56,4.44-7.26,7.61-2.02,3.76-3.03,7.83-3.03,12.23,0,5.9,1.6,10.79,4.79,14.7,3.87,4.72,8.99,7.08,15.36,7.08,5.87,0,10.69-2.39,14.47-7.17ZM282.02,39.55c0-3.31.9-6.22,2.68-8.71,2.02-2.79,4.84-4.18,8.45-4.18s6.66,1.38,8.8,4.14c1.76,2.29,2.64,5.09,2.64,8.4s-.98,6.26-2.95,8.75c-2.26,2.88-5.12,4.31-8.58,4.31-2.84,0-5.31-1.04-7.39-3.12-2.43-2.43-3.65-5.63-3.65-9.59Z"/>
      <path class="cls-2" d="M366.76,56.18c4.31-4.02,6.47-9.59,6.47-16.72,0-6.45-1.8-11.69-5.41-15.71-4.11-4.55-9.3-6.82-15.57-6.82-3.14,0-5.96.7-8.45,2.11-1.61.91-3.3,2.39-5.06,4.44V0h-11.48v60.06h11.48v-5.37c1.73,2.26,3.46,3.84,5.19,4.75,2.61,1.38,5.57,2.07,8.89,2.07,5.54,0,10.19-1.77,13.95-5.32ZM341.94,48.97c-2.23-2.35-3.34-5.48-3.34-9.42,0-3.17.9-5.95,2.68-8.36,2.26-3.05,5.15-4.57,8.67-4.57s6.12,1.36,8.23,4.09c1.91,2.44,2.86,5.38,2.86,8.84s-.94,6.53-2.81,8.84c-2.11,2.58-4.94,3.87-8.49,3.87-3.11,0-5.7-1.1-7.79-3.3Z"/>
      <path class="cls-2" d="M159.62,142.6c5.13,0,9.78-1.61,13.95-4.84,2.55-1.99,4.65-4.62,6.29-7.88l-10.47-2.9c-.79,1.44-1.79,2.55-2.99,3.34-2.05,1.38-4.27,2.07-6.64,2.07-3.46,0-6.28-1.26-8.45-3.78-1.23-1.41-2.05-3.27-2.46-5.59h32.6c.03-.64.04-1.39.04-2.24,0-5.9-1.67-10.87-5.02-14.91-1.46-1.77-3.12-3.22-4.93-4.39l-7.66,7.18c1.31.58,2.46,1.42,3.44,2.53,1.17,1.32,1.97,3.08,2.38,5.28h-14.14l-15.96,14.96c.81,1.47,1.78,2.84,2.96,4.09,4.46,4.72,10.15,7.08,17.07,7.08Z"/>
      <polygon class="cls-2" points="205.03 124.34 195.79 99.48 183.91 99.48 198.95 141.15 210.79 141.15 225.97 99.48 214.22 99.48 205.03 124.34"/>
      <path class="cls-2" d="M250.74,98.03c-4.37,0-8.24.97-11.62,2.9-3.4,1.94-6,4.68-7.79,8.23-1.73,3.4-2.6,7.1-2.6,11.09,0,6.19,1.88,11.28,5.63,15.27,4.46,4.72,10.15,7.08,17.07,7.08,5.13,0,9.78-1.61,13.95-4.84,2.55-1.99,4.65-4.62,6.29-7.88l-10.47-2.9c-.79,1.44-1.79,2.55-2.99,3.34-2.05,1.38-4.27,2.07-6.64,2.07-3.46,0-6.28-1.26-8.45-3.78-1.23-1.41-2.05-3.27-2.46-5.59h32.6c.03-.64.04-1.39.04-2.24,0-5.9-1.67-10.87-5.02-14.91-4.31-5.22-10.16-7.83-17.55-7.83ZM240.62,116.47c.44-2.17,1.22-3.93,2.33-5.28,1.97-2.32,4.61-3.48,7.92-3.48s6.22,1.16,8.27,3.48c1.17,1.32,1.97,3.08,2.38,5.28h-20.9Z"/>
      <path class="cls-2" d="M314.53,101.91c-2.61-2.58-6.04-3.87-10.3-3.87-2.81,0-5.21.66-7.17,1.98-1.35.91-2.7,2.43-4.05,4.57v-5.1h-11.48v41.67h11.48v-25.3c0-2.11.5-3.84,1.5-5.19,1.44-1.96,3.37-2.95,5.81-2.95s4.28.92,5.46,2.77c.67,1.09,1.01,2.71,1.01,4.88v25.78h11.48v-26.35c0-2.79-.21-5.21-.62-7.26-.44-2.11-1.48-3.99-3.12-5.63Z"/>
      <rect class="cls-2" x="329.41" y="99.48" width="11.48" height="41.67"/>
      <path class="cls-2" d="M335.21,81.18c-1.76,0-3.18.49-4.27,1.45-1.44,1.26-2.16,2.9-2.16,4.93,0,1.67.56,3.14,1.67,4.4,1.2,1.29,2.77,1.94,4.71,1.94,1.7,0,3.09-.48,4.18-1.45,1.44-1.26,2.16-2.86,2.16-4.8,0-1.73-.56-3.23-1.67-4.49-1.17-1.32-2.71-1.98-4.62-1.98Z"/>
      <path class="cls-2" d="M385.24,101.91c-2.61-2.58-6.04-3.87-10.3-3.87-2.81,0-5.21.66-7.17,1.98-1.35.91-2.7,2.43-4.05,4.57v-5.1h-11.48v41.67h11.48v-25.3c0-2.11.5-3.84,1.5-5.19,1.44-1.96,3.37-2.95,5.81-2.95s4.28.92,5.46,2.77c.67,1.09,1.01,2.71,1.01,4.88v25.78h11.48v-26.35c0-2.79-.21-5.21-.62-7.26-.44-2.11-1.48-3.99-3.12-5.63Z"/>
      <path class="cls-2" d="M430.56,104.63c-1.7-2.14-3.51-3.71-5.41-4.71-2.41-1.26-5.1-1.89-8.1-1.89-4.08,0-7.67.89-10.78,2.68-3.2,1.79-5.66,4.43-7.39,7.92-1.85,3.7-2.77,7.69-2.77,11.97,0,8.83,3.27,15.22,9.81,19.18,3.05,1.88,6.36,2.82,9.94,2.82,6.04,0,10.94-2.38,14.7-7.13v4.27c0,3.81-1,6.81-2.99,8.98-2.11,2.26-5.13,3.39-9.06,3.39-5.07,0-9.39-1.94-12.94-5.81l-7.08,7.22c5.6,5.51,12.44,8.27,20.5,8.27,4.37,0,8.27-.81,11.7-2.42,3.93-1.85,6.83-4.53,8.71-8.05,1.61-3.02,2.42-7.42,2.42-13.2v-38.63h-11.26v5.15ZM428.14,128.57c-2.2,2.55-5.07,3.83-8.62,3.83-2.93,0-5.44-.97-7.52-2.9-2.46-2.32-3.7-5.44-3.7-9.37,0-2.99.78-5.53,2.33-7.61,2.14-2.84,5.09-4.27,8.84-4.27,3.02,0,5.62,1.09,7.79,3.26,2.05,2.05,3.08,5.27,3.08,9.63,0,3.26-.73,5.74-2.2,7.44Z"/>
      <path class="cls-2" d="M472.44,98.03c-4.37,0-8.24.97-11.62,2.9-3.4,1.94-6,4.68-7.79,8.23-1.73,3.4-2.6,7.1-2.6,11.09,0,6.19,1.88,11.28,5.63,15.27,4.46,4.72,10.15,7.08,17.07,7.08,5.13,0,9.78-1.61,13.95-4.84,2.55-1.99,4.65-4.62,6.29-7.88l-10.47-2.9c-.79,1.44-1.79,2.55-2.99,3.34-2.05,1.38-4.27,2.07-6.64,2.07-3.46,0-6.28-1.26-8.45-3.78-1.23-1.41-2.05-3.27-2.46-5.59h32.6c.03-.64.04-1.39.04-2.24,0-5.9-1.67-10.87-5.02-14.91-4.31-5.22-10.16-7.83-17.55-7.83ZM462.32,116.47c.44-2.17,1.22-3.93,2.33-5.28,1.97-2.32,4.61-3.48,7.92-3.48s6.22,1.16,8.27,3.48c1.17,1.32,1.97,3.08,2.38,5.28h-20.9Z"/>
      <path class="cls-2" d="M536.24,101.91c-2.61-2.58-6.04-3.87-10.3-3.87-2.81,0-5.21.66-7.17,1.98-1.35.91-2.7,2.43-4.05,4.57v-5.1h-11.48v41.67h11.48v-25.3c0-2.11.5-3.84,1.5-5.19,1.44-1.96,3.37-2.95,5.81-2.95s4.28.92,5.46,2.77c.67,1.09,1.01,2.71,1.01,4.88v25.78h11.48v-26.35c0-2.79-.21-5.21-.62-7.26-.44-2.11-1.48-3.99-3.12-5.63Z"/>
    </g>
  </g>
</svg>