<svg viewBox="0 0 1200 600" fill="none" xmlns="http://www.w3.org/2000/svg" style="background:#ffffff;">

  <!-- CITY DISTRICT (left) — structured angular triangles forming urban buildings -->

  <!-- Building 1 — tall tower -->
  <polygon points="100,560 80,520 120,520" fill="#243644" opacity="0.9"/>
  <polygon points="100,520 80,480 120,480" fill="#243644" opacity="0.85"/>
  <polygon points="100,480 80,440 120,440" fill="#5781A1" opacity="0.8"/>
  <polygon points="100,440 80,400 120,400" fill="#5781A1" opacity="0.7"/>
  <polygon points="100,400 80,360 120,360" fill="#243644" opacity="0.6"/>
  <polygon points="100,360 85,330 115,330" fill="#5781A1" opacity="0.5"/>

  <!-- Building 2 — medium block -->
  <polygon points="160,560 140,520 180,520" fill="#243644" opacity="0.9"/>
  <polygon points="160,520 140,480 180,480" fill="#5781A1" opacity="0.85"/>
  <polygon points="160,480 140,440 180,440" fill="#243644" opacity="0.75"/>
  <polygon points="160,440 145,410 175,410" fill="#5781A1" opacity="0.6"/>

  <!-- Building 3 — wide base -->
  <polygon points="220,560 200,520 240,520" fill="#243644" opacity="0.9"/>
  <polygon points="260,560 240,520 280,520" fill="#243644" opacity="0.85"/>
  <polygon points="220,520 200,480 240,480" fill="#5781A1" opacity="0.8"/>
  <polygon points="260,520 240,480 280,480" fill="#5781A1" opacity="0.75"/>
  <polygon points="240,480 220,440 260,440" fill="#243644" opacity="0.65"/>

  <!-- Building 4 — small -->
  <polygon points="320,560 300,520 340,520" fill="#243644" opacity="0.9"/>
  <polygon points="320,520 305,490 335,490" fill="#5781A1" opacity="0.7"/>

  <!-- LIVING LAB HUB (centre) — vibrant tessellation in teal & emerald -->

  <!-- Central hub base -->
  <polygon points="480,560 440,500 520,500" fill="#009BBB" opacity="0.9"/>
  <polygon points="560,560 520,500 600,500" fill="#009BBB" opacity="0.85"/>
  <polygon points="640,560 600,500 680,500" fill="#009BBB" opacity="0.8"/>
  <polygon points="720,560 680,500 760,500" fill="#009BBB" opacity="0.75"/>

  <!-- Hub mid layer -->
  <polygon points="500,500 460,440 540,440" fill="#00914B" opacity="0.85"/>
  <polygon points="580,500 540,440 620,440" fill="#009BBB" opacity="0.9"/>
  <polygon points="660,500 620,440 700,440" fill="#00914B" opacity="0.8"/>
  <polygon points="740,500 700,440 780,440" fill="#009BBB" opacity="0.7"/>

  <!-- Hub upper layer -->
  <polygon points="520,440 480,380 560,380" fill="#009BBB" opacity="0.8"/>
  <polygon points="600,440 560,380 640,380" fill="#00914B" opacity="0.9"/>
  <polygon points="680,440 640,380 720,380" fill="#009BBB" opacity="0.85"/>

  <!-- Hub peak -->
  <polygon points="560,380 530,330 590,330" fill="#00914B" opacity="0.85"/>
  <polygon points="640,380 610,330 670,330" fill="#009BBB" opacity="0.8"/>
  <polygon points="600,330 580,290 620,290" fill="#00914B" opacity="0.9"/>

  <!-- PEOPLE / COMMUNITY (scattered smaller triangles around the hub) -->

  <!-- Community cluster left -->
  <polygon points="380,540 365,520 395,520" fill="#FFA92D" opacity="0.85"/>
  <polygon points="400,510 385,490 415,490" fill="#E71846" opacity="0.7"/>
  <polygon points="370,490 358,475 382,475" fill="#FFA92D" opacity="0.65"/>
  <polygon points="410,470 398,455 422,455" fill="#93093F" opacity="0.6"/>

  <!-- Community cluster right -->
  <polygon points="790,530 775,510 805,510" fill="#FFA92D" opacity="0.85"/>
  <polygon points="810,500 795,480 825,480" fill="#E71846" opacity="0.7"/>
  <polygon points="780,480 768,465 792,465" fill="#FFA92D" opacity="0.6"/>
  <polygon points="830,460 818,445 842,445" fill="#93093F" opacity="0.55"/>

  <!-- DATA / TECHNOLOGY (right side) — digital pattern in magenta & orange -->

  <!-- Data streams -->
  <polygon points="900,560 880,530 920,530" fill="#93093F" opacity="0.8"/>
  <polygon points="940,560 920,530 960,530" fill="#E71846" opacity="0.75"/>
  <polygon points="980,560 960,530 1000,530" fill="#93093F" opacity="0.7"/>
  <polygon points="1020,560 1000,530 1040,530" fill="#E71846" opacity="0.65"/>

  <polygon points="920,530 900,500 940,500" fill="#E71846" opacity="0.8"/>
  <polygon points="960,530 940,500 980,500" fill="#93093F" opacity="0.75"/>
  <polygon points="1000,530 980,500 1020,500" fill="#E71846" opacity="0.7"/>

  <polygon points="940,500 920,470 960,470" fill="#FFA92D" opacity="0.7"/>
  <polygon points="980,500 960,470 1000,470" fill="#E71846" opacity="0.65"/>
  <polygon points="1020,500 1000,470 1040,470" fill="#FFA92D" opacity="0.6"/>

  <polygon points="960,470 940,440 980,440" fill="#93093F" opacity="0.65"/>
  <polygon points="1000,470 980,440 1020,440" fill="#FFA92D" opacity="0.6"/>

  <polygon points="980,440 965,415 995,415" fill="#E71846" opacity="0.55"/>
  <polygon points="1010,420 998,400 1022,400" fill="#FFA92D" opacity="0.5"/>

  <!-- NATURE / GREEN elements (scattered) -->

  <!-- Trees / green patches near hub -->
  <polygon points="440,560 425,540 455,540" fill="#65DD35" opacity="0.7"/>
  <polygon points="760,560 745,540 775,540" fill="#65DD35" opacity="0.65"/>
  <polygon points="450,530 440,515 460,515" fill="#00914B" opacity="0.6"/>
  <polygon points="770,530 760,515 780,515" fill="#00914B" opacity="0.55"/>

  <!-- Scattered green triangles -->
  <polygon points="350,560 338,545 362,545" fill="#65DD35" opacity="0.5"/>
  <polygon points="850,555 840,540 860,540" fill="#65DD35" opacity="0.5"/>

  <!-- CONNECTION LINES (subtle, linking city to hub to data) -->
  <line x1="340" y1="520" x2="440" y2="500" stroke="#009BBB" stroke-width="0.8" opacity="0.25"/>
  <line x1="280" y1="480" x2="460" y2="440" stroke="#009BBB" stroke-width="0.8" opacity="0.2"/>
  <line x1="780" y1="500" x2="880" y2="530" stroke="#93093F" stroke-width="0.8" opacity="0.25"/>
  <line x1="720" y1="440" x2="920" y2="470" stroke="#93093F" stroke-width="0.8" opacity="0.2"/>

  <!-- Floating accent triangles (atmosphere) -->
  <polygon points="150,300 138,280 162,280" fill="#009BBB" opacity="0.12"/>
  <polygon points="500,200 485,175 515,175" fill="#00914B" opacity="0.15"/>
  <polygon points="700,180 688,160 712,160" fill="#FFA92D" opacity="0.12"/>
  <polygon points="900,280 885,258 915,258" fill="#E71846" opacity="0.1"/>
  <polygon points="300,250 290,235 310,235" fill="#65DD35" opacity="0.1"/>
  <polygon points="1050,350 1035,330 1065,330" fill="#93093F" opacity="0.1"/>
  <polygon points="600,150 590,135 610,135" fill="#009BBB" opacity="0.1"/>
  <polygon points="200,200 192,188 208,188" fill="#FFA92D" opacity="0.08"/>
  <polygon points="850,220 842,205 858,205" fill="#00914B" opacity="0.1"/>

</svg>
