<svg xmlns="http://www.w3.org/2000/svg" viewBox="0 0 72 72" fill="none" stroke-width="2">
  <!-- Concrete bucket / hopper tilting -->
  <path d="M14 12 L10 36 L30 36 L26 12 Z" stroke="#009BBB" stroke-linejoin="round"/>
  <!-- Bucket rim -->
  <line x1="12" y1="16" x2="28" y2="16" stroke="#009BBB" stroke-width="1.5"/>
  <!-- Bucket handle -->
  <path d="M16 12 Q20 6 24 12" stroke="#93093F" stroke-linecap="round"/>
  <!-- Pouring stream -->
  <path d="M26 30 Q34 32 38 42 Q40 48 42 52" stroke="#FFA92D" stroke-width="3" stroke-linecap="round" opacity="0.9"/>
  <path d="M28 34 Q32 36 36 44 Q38 50 38 54" stroke="#FFA92D" stroke-width="2" stroke-linecap="round" opacity="0.6"/>
  <!-- Floor / ground surface -->
  <line x1="8" y1="62" x2="64" y2="62" stroke="#00914B" stroke-width="2"/>
  <!-- Concrete spreading on floor -->
  <path d="M30 62 Q36 54 50 54 Q58 54 62 58 L64 62 Z" fill="none" stroke="#E71846" stroke-width="1.5"/>
  <path d="M34 62 Q40 56 50 56 Q56 56 60 60" stroke="#E71846" stroke-width="1" stroke-dasharray="2 2"/>
  <!-- Splash drops -->
  <circle cx="46" cy="50" r="1.5" stroke="#FFA92D" stroke-width="1"/>
  <circle cx="52" cy="48" r="1" stroke="#FFA92D" stroke-width="1"/>
  <circle cx="56" cy="52" r="1.5" stroke="#E71846" stroke-width="1"/>
</svg>
