<?xml version="1.0" encoding="UTF-8"?>
<svg id="uuid-1e10164f-72c6-4459-8454-e8ece0d81c5c" xmlns="http://www.w3.org/2000/svg" version="1.1" viewBox="0 0 1059 1080">
  <!-- Generator: Adobe Illustrator 30.2.0, SVG Export Plug-In . SVG Version: 2.1.1 Build 105)  -->
  <defs>
    <style>
      .st0 {
        stroke: #fff;
        stroke-miterlimit: 10;
        stroke-width: .5px;
      }

      .st0, .st1 {
        fill: #fff;
      }
    </style>
  </defs>
  <g>
    <polygon class="st0" points="534.8 633.6 534.8 633.6 534.8 633.6 534.8 633.6"/>
    <path class="st0" d="M975.6,589.3c-4.4-35.8-7.4-71.8-15-107.2-2.3-10.7-3.6-21.6-7.1-32,0-2.8.4-5.6-2.1-7.7h0c-10.2-1.9-20.4-3.7-30.6-5.6-28.4-5.3-56.7-10.6-85.1-15.9-1.8-.3-3.6-1-5.4-1.6-1.3.3-2.5.3-3.6-.1,1.1.4,2.3.4,3.6,0,12.7-34.1,30.3-65.9,45.3-98.9-.7-.4-1-.7-1.2-.6,0,0,0,0,0,0,.2,0,.4.2,1.2.6-15,33-32.6,64.8-45.3,98.9,1.8.5,3.5,1.2,5.4,1.5,28.4,5.3,56.7,10.6,85.1,15.9,10.2,1.9,20.4,3.8,30.6,5.6h0c-.3-1-.5-2.1-1-3-19.9-37-42.2-72.5-64.4-108.1-4.4-7.1-7.3-15.2-15.6-19.9-15.3-8.8-29.9-18.8-45.1-27.9-21.3-12.8-41.8-26.9-64.1-38.1,3.3,8.5,1.3,17.3,1.1,25.9-.6,20.5-2.1,41.1-3.1,61.6-.5,10.1-.8,20.3-1.2,30.5-.1,2.8.4,4.5,1.9,4.8-1.5-.3-2.1-2-1.9-4.8.5-10.2.7-20.3,1.2-30.5,1-20.5,2.5-41.1,3.1-61.6.2-8.6,2.2-17.4-1.1-25.9h0c-10.2-3.2-20.7-4.7-31.3-5.9,0,0,0,0,0,0h0c-20.5-4.7-41.3-7.7-62.1-10.6-.5.6-.9,1.2-1.4,1.8,2,24,1.9,48.1,1.5,72.2-.1,6.7-.3,13.3-.4,20,3.7,2.8,6.7,7.3,12.4,6,0,0-12.4-6-12.4-6,.1-6.7.3-13.3.4-20,.4-24.1.4-48.2-1.5-72.2,0,0,0,0,0,0,.5-.6.9-1.2,1.4-1.8-1-.6-2-1.3-2.9-1.9,0,0,0,0,0,0,1.9-1.9,3.9-3.8,5.8-5.7,0,0,0,0,0,0,6.1-3.8,9.9-9.9,15.1-14.6.6-.5,1.2-1,1.8-1.6,0,0,0,0,0,0-.5.5-1.1,1-1.6,1.5.6-.4,2.6.7,1.6-1.5,1.8.6,3.1-.1,4.2-1.5-1.8-2.1-4.5-1.7-6.8-2.4-.5.4-1.1.8-1.7,1.2h0c-2.5-.2-3.7,1.7-5.2,3.2h0c-9.5,6.5-19.9,11.6-28.7,19.2,0,0,0,0,0,0,8.8-7.6,19.2-12.8,28.7-19.3,1.5-1.5,2.7-3.4,5.2-3.2.6-.4,1.1-.8,1.7-1.2,2.6-3,5.9-5,9.8-5.9.9-.7,1.7-1.4,2.6-2.1,7.1-5.2,13.1-12.3,22.9-12.8,11.3-7.9,22.6-15.9,34-23.6,4.2-2.9,4.6-5.2-.3-7-5.6-2.1-10.7-5.7-16.9-6.1-9.1-5.2-19.2-7.5-29.1-10.6,9.1,5,18.7,8.8,29,10.6,0,0,0,0,0,0,0,0,0,0,0,0,3.1,3.6,8,4,11.9,6.2,3,1.7,4.5,2.8,3.5,4.6,1-1.8-.5-2.9-3.5-4.6-3.9-2.1-8.7-2.6-11.9-6.2-10.3-1.8-19.8-5.7-29-10.6-7.3-3.2-14.9-5.1-22.6-6.8h-.2c-.7-.2-1.4-.4-2.1-.6-.7-.4-1.3-1.2-2-1.2-41.9-6-83.7-7.5-125,4.4-3.4,1-6.7,2.1-9.7-1-8.6-9.2-20.3-13.9-30.6-20.5-7.5-4.8-15.7-6.9-25.2-5-26.5,5.3-53.2,9.7-79.7,14.9-14.1,2.8-28.7,3.6-42.3,8.8h0c-3,.4-5.8,1-8.2,2.9-1.6.6-3.3,1.2-3.8,3.2,0,0,0,0,0,0-.1.7-.3,1.4-.4,2.1,0,0,0,0,0,0,0,0,0,0,0,0-.7,4.7,1.2,8.1,4.9,11,29.8,22.6,59.6,45.3,89.3,68-14.1-15.4-30.4-28.2-46.5-41.3,16.2,13,32.4,25.9,46.5,41.3,2.6,2.3,5.3,4.6,7.9,6.9,8.8,8.8,17.5,17.6,26.3,26.4h0c12,15.5,21.9,32.4,32.3,48.9h0s0,0,0,0c.5,1,1.1,2.1,1.6,3.1,0,0,0,0,0,0,.5,1.1,1,2.2,1.5,3.3-2.2,1.2-4.6,1-7,.5,0,0,0,0,0,0-17.2-20.7-33.4-42.3-53.6-60.3,0,0,0,0,0,0-16.4-17.9-35-33.5-53.7-48.9,0,0,0,0,0,0,0,0,0,0,0,0-.1-.5-.5-.8-1-.8,0,.6.1.9.5.9-.4,0-.6-.3-.5-.9-1.3-1.2-2.6-2.4-3.9-3.6-1.7-1-3.5-2.1-6.5-3.9,0,0,0,0,0,0,3.1,1.8,4.8,2.8,6.6,3.9-.8-1-1.6-2.1-2.6-3-12.3-10.7-25.7-20.1-38.1-30.8-3.1-2.7-7.9-7-13.6-3.8,2.3,2.5,4.4,5.4,7.1,7.6,12.9,10.7,25.9,21.3,38.9,31.9,2.8-.2,4,2.1,5.6,3.8.8.7,1.5,1.4,2.3,2.1h0s0,0,0,0c5.4,5.9,12.5,9.4,19,13.7,1.9,1.3,4.7,1.8,3.3,5.1,5.7,15.8,8.2,32.4,12.7,48.5,4.3,15.6,5.9,31.9,12.5,46.9,2.3-2.3,4-4.9,5.1-7.9,5-13.7,12-26.5,19.1-39.2.8-1.4,1.1-2.5,1-3.6,0,1-.2,2.2-1,3.6-7.1,12.7-14.1,25.4-19.1,39.1-1.1,3.1-2.8,5.7-5.1,7.9-6.6-15-8.2-31.3-12.5-46.8-4.5-16.1-6.9-32.7-12.6-48.5-5.5,1.2-7.8,5.5-10.5,9.9-4.4,7.1-7.4,15.2-13.9,20.9,5.1,7.2,9.9,14.6,15.3,21.6,11.8,15.5,21,33,34.9,46.9.3-.3.6-.7.8-1h0c-.2.4-.5.7-.8,1,21.2,13.7,42.3,27.3,63.5,41,0,0,0,0,0,0,16.5,21.5,28,46.3,43.7,68.7-11.3-3-21.9-7.2-32.9-10.1-16.4-4.3-31.1-10.9-41.5-25-1.6-2.2-3.5-3.7-6.8-3.2-10,1.7-20.2,1.7-30,4.8,0,0,0,0,0,0-30.2-29.1-60.2-58.4-89-88.9-.5-.5-1.2-.7-1.7-1-1.8,1.9,1.2,4.4-1.2,5.9-10.4-5.1-20.9-8.4-32-1.7-1.2-1.4-2.2-3.1-3.7-4-25.1-15.9-50.2-31.7-75.3-47.6-.4.2-.9.2-1.3.2-1.1,1.7-2.2,3.3-3.2,5,1.3,1.6,2.7,3.2,4,4.8-1.4-1.6-2.7-3.2-4-4.8-3.2,2.1-5.7,4.8-7.8,7.9,0,0,0,0,0,0,0,0,0,0,0,0,2.1-3.1,4.7-5.8,7.8-7.9,1.1-1.7,2.2-3.3,3.2-5-.4-.8-1-1.3-1.8-1.3.8,0,1.4.5,1.8,1.3.4,0,.9,0,1.3-.2h0c2.6-3.7,5.3-7.4,7.9-11.1.8-1.2,1.5-2.3,1.3-3.4-.1-.9-.7-1.7-2.1-2.4-22.5-12.1-44-26.2-66.9-37.5h0c-3-2.7-5.9-5.5-11-6,.7,1.2,1.5,2.5,2.2,3.7-1.1,1.4-.8,3.4-.8,5,0,2.3,1.4,8,.2,9.3,1.2-1.3-.2-7-.2-9.3-1.6-.7-1.6,4.4-2.6,8.5,0,0,0,0,0,0-.9,3.7-2,8.2-3.3,11.7,2.3-3,4.6-6.1,6.8-9.1,0,0,0,0,0,0-2.3,3-4.6,6.1-6.8,9.1-.8,2.1-2.2,4.2-2.6,6.5-.9,2.3-1.8,2.9-1.9,3.3-3.2,10.9-8,21.1-12.4,31.6-1.1,2.7-2.5,3.5-3.9,7.5h0c-.1.3.1,1,0,1.3h0c-2.9,0-1.6,2.7-2,3.6-7.6,18.8-25.1,46.8-37.8,79.2,1.8,0,2.8,1.6,2.6,3.1.2-1.5-.9-3.1-2.6-3.1-2.6,6.7-4.3,13.5-6.5,20.2,0,0,0,0,0,0-.2.7-2.4,3-5.2,13,4.1-4.5,1.5-9.1,11.1-2,.6-.4,1.4-.8,1.9-1.3,0,0,.9.2.7-1.3-.4-.6-.8-1.2-.7-2-2.3-1.7-2.7-2.4-2.2-2.6-.4.2,0,.9,2.2,2.6,1.6,1.2,22.5,5.8,26.1,11.1.2-.2.4-.4.7-.5-.2.2-.5.4-.7.6,0,0,0,0,0,0h0s0,0,0,0c0,0,0,0,0,0-4.6,3.9-11.9,11-16.9,15.6-5.7,5.2-11.1,10.7-16.9,15.6,0,0,0,.2,0,.3,0-.1,0-.2,0-.3h0c.6-2.1,7.1-9.6,9.1-12.1,0,0,0,0,0,0-2,2.5-8.5,10-9.1,12,5.9-5,11.3-10.5,16.9-15.6h0c5.1-4.6,12.3-11.7,16.9-15.6-3.6-5.2-24.5-9.9-26.1-11.1-.2.8.3,1.4.7,2,0,0,0,0,0,0,.2,1.5-.6,1.2-.7,1.3,0,.3,0,.4.2.6-.1-.2-.3-.3-.2-.6-.5.5-1.4.9-2,1.3,0,0,0,0,0,0-4.9,3.5-9.2,7-13.7,11.1-.4,1.5-.9,3-1.3,4.5,0,0,0,0,0,0,0,1.1.1,2.2,0,3.3-.2,1.9.8,10-1.3,18.6,3.6,1.7,7.1,1.3,8.5,1.6-1.9,3-4.6,8.3-7.6,12.5,2.9-4.2,5.7-9.6,7.6-12.5-1.3-.3-4.9,0-8.5-1.6,2.1-8.6,1.1-16.6,1.3-18.6-2.4,9.6-6.1,29.3-6.5,38.4,0,0,0,0,0,0v.6c2.2-.3,1.8.6,2,.7,10.2,3.6,20.1,8.3,30.6,11.1.7-.8,1.4-.7,1.4-1.5,0,.9-.7.7-1.4,1.5,3,11.6,2.4,24.9,10.4,34.5,0,3.4-.2,7.9-.2,11.9,0-4,.1-8.4.2-11.9h0c-8-9.6-7.4-22.9-10.4-34.5,0,0,0,0,0,0-10.5-2.8-20.4-7.4-30.6-11.1-2.6,5.7,1.8,11.1,6.8,13.7,5.1,2.6,11.3,2.3,16.9.6,2.5-.7,5.4-3.7,4.9-1.3,0,0,0,0,0,0,.5-2.4-2.4.6-4.9,1.3-5.6,1.6-11.9,1.9-16.9-.6-5.1-2.6-9.4-8-6.8-13.7,0,0,.3-1-2-.7-.4,9.9.6,19.8,3.3,29.3,0,0,0,0,0,0,3,10.8,8.5,21,15,30,0,0,0,0,0,0,17,23.6,43.6,38.1,73,37.8-6.2-6,.7-13,7.1-9.6-6.4-3.3-13.3,3.6-7.1,9.6.7,0,1.4,0,2.1,0,0,0,0,.1.1.1.2,0,.5,0,1.1-.2,0,0,0,0,0,0,.9-.3,2.2-.9,4.3-1.9,11.4-5.5,0-7.2-2.9-12,5.4-5.3,10.9-10.6,16.3-16v-1.3c-.5.2-.8.6-1.3.7h0c-14.8-5.7-29.5-11.3-44.3-16.9,0,0,0,0,0,0,14.8,5.6,29.5,11.3,44.3,16.9-2.2-17.8-4.3-35.6-6.5-53.4h0c0,0-.3-1.2-1.3-1.3h0s0,0,0,0c1,.1,1.2,1.2,1.3,1.3,0,0,0,0,0,0,2.2,17.8,4.3,35.6,6.5,53.4.5,0,.8-.4,1.3-.6.3-.1,3.7-3.8,4.6-4.6,8.7-8.3,17-18,25.4-26.7h0c4.5-4.7,9.9-8.9,14.3-13.7,1.7-1.9,5.4-5.2,6.5-7.2-1.1,2-4.8,5.3-6.5,7.2h0c-4.4,4.8-9.8,9-14.3,13.7-8.4,8.7-16.7,18.4-25.4,26.7,0,0,0,0,0,0-.9.8-4.3,4.4-4.6,4.6v1.3c6.1.5,12.2,1.8,18.2,2.6,1.7,3.7,3.5,7.4,5.2,11.1.1,0,.7-.1.7.7.2,0,2.2.5,3.9.7,3.5-2.2,7.9-5.7,11.1-8.5h0c2.1-1.8,5.8-4.7,6.5-7.2-1.1.8-2.1,1.4-2.9,2.6.8-1.2,1.8-1.8,2.9-2.6,3.7-2.7,5.4-6.2,7.8-9.8,8.1-12,11.9-22.3,14.3-36.5-.9-.1-1.2.1-1.2.3,0-.2.3-.5,1.2-.3,0-.1.2.6.6-2.6,0,0,0,0,0,0,1.3-9.4,1.3-14.6.7-24.1-9.4.4-.2,5.2-2.3,16.3-.2-.2-.3-.3-.5-.5.2.2.3.3.5.5,2-11.1-7.2-15.9,2.3-16.3h0c-.9-13.7-3.7-27.1-7.2-40.4-.7.1-2.2.5-2.6.6-4.1,2-15.5,10.3-20.2,13.7-7,5.1-13.7,10.8-20.9,15.6h0c7.2-4.9,13.8-10.6,20.8-15.7,0,0,0-.2,0-.3,0,0,0,.2,0,.3,4.7-3.4,16.1-11.7,20.2-13.7-7.6-2.8-15.2-5.6-22.8-8.5,0,0,0,0,0,0-.1-.6-.5-.7-.7-1.3-.6-1.9-2.2-3.5-2.6-4.6h0c.4,1,2,2.7,2.6,4.6,0,0,0,0,0,0,0,0,0,0,0,0,.2.6.5.7.6,1.3,7.6,2.8,15.2,5.6,22.8,8.5.4-.2,1.9-.5,2.6-.6-.9-3.5-2.2-7-3.3-10.4-2.7-8.8-5.2-18.1-9.8-26.1.2,1.1.5,2,.8,2.8.2.5.4,1,.6,1.3-.2-.4-.4-.8-.6-1.3-.3-.8-.6-1.7-.8-2.8-.1-.6.2-1.4,0-2h0s0,0,0,0c0,0,0,0,0,0-.6-2.1-1.9-3.9-2.6-5.9h0s0,0,0,0c-.6-1.6-1.2-3-1.9-4.5-1.2-2.7-1.5-4.1-3.3-7.2-2.7,2.1-4,4-3.9,5.3-.1-1.3,1.2-3.2,3.9-5.3-.5-.8-.6-.7-.6-.7,0,0,0,0,0,0-1.5-7.8-6.3-14.5-9.8-21.5h0s0,0,0,0c-2.8-5.7-5.6-11.3-8.5-16.9-.4-.9-.9-1.7-1.3-2.6-.7,1-3,1.5-5.4,1.5,2.4,0,4.7-.4,5.4-1.5-.2-.4-.4-.9-.7-1.3-2.1-4.2-4.4-8.2-6.5-12.4,0,0,0,0,0,0-.6-1.3-1.3-2.6-1.9-3.9-3-.6-11.3-.6-11.1-3.2-3.8,4.8-4.8-1.6-11.7-8.5-.3.2-.5.3-.8.5.3-.2.5-.4.8-.5,0,0,0,0,0,0,0,0,0,0,0,0,6.9,6.9,7.9,13.3,11.7,8.5,0,0,0,0,0,0h0s0,0,0,0c0,0,0,0,0,0-.2,2.7,8,2.6,11.1,3.2-1.3-2.6-2.6-5.2-3.9-7.8h0c-3-1.2-3.6,0-4.7,1.3,1.1-1.3,1.7-2.5,4.7-1.3-1.3-2.6-2.6-5.2-3.9-7.8,0,0,0,0,0,0-1.8-3.6-3.5-7.4-5.2-11.1h0s-2.6,0-2.6,0c0,0,0,0,0,0h2.6c-1.1-2.4-1.9-4.9-3.2-7.1,0,0,0,0,0,0-.1-.3.1-1,0-1.3h0c-3.2-9.6-14-29.4-17.3-48.6,4.9,8.3,9.4,16,14.1,23.8,10.5,17.2,19,35.6,30.4,52.3,0,0,0,0,0,0,16.3,29,32.5,58.2,49.1,87.1,3,5.2,4.6,11.4,10.1,14.9,0,0,0,0,0,0,85.9,85.8,171.7,171.6,257.6,257.4,0,0,0,0,0,0-13.9,15.7-28,31.2-41.7,47.1-5.1,6-11.2,11.4-14.3,19h0s0,0,0,0c-2,.5-2.4,1.9-1.9,3.7,8.2,11.4,12.3,24.7,18.2,37.2,8.5,18.1,16.3,36.6,24.9,54.7,1.8,3.8,2.2,7.5,2.8,11.4.9,1.2,2.4,2.3,2.8,3.7,5.6,22.7,14.6,44.4,19.7,67.2.9,2.5,1.8,5.1,2.7,7.6.3.2.5.6.8.9l.3.3.4.2c14.2-11.5,30.5-19.6,45.7-29.6,9.5-6.3,20.8-9.6,29.3-17.6h0c-13.8-10.1-29.9-16.2-44.3-25.3-6.7-4.2-13.6-8.2-20.5-12.3,0,0,0,0,0,0-7.4-22.5-18.7-43.3-29.4-64.4-.5.9-1.4,1.8-1.5,2.8-.5,12.1-1,24.3-1.5,36.4.5-12.1,1-24.3,1.5-36.4,0-1,1-1.8,1.5-2.8h0c-.5-.8-.9-1.6-1.3-2.5.1-.9.3-1.7.4-2.6h0c0-12.1,0-24.3,0-36.4,0,0,0,0,0,0,0,12.1,0,24.3,0,36.4,9.8-14.4,19.6-28.9,29.4-43.4,0,0,0,0,0,0,10.9-2.9,21.8-2.1,32.8-1h0c9.4,10.1,18.8,20.2,28.2,30.3,2,2.1,4.6,3.7,4.6,7.1,1.2-1.2,2.3-2.3,3.4-3.5.1-1.2.3-2.3.4-3.4-4.1-5.5-3.1-12.3-3.7-18.5-.7-7-4.2-9.7-10.6-10.4-5.2-.6-10.7-.4-15.5-3.1-1.6-.2-3.3-.4-4.9-.5-.4-.4-.8-.9-1.2-1.3.4.4.8.9,1.2,1.3,1.6.2,3.3.4,4.9.5,5.5-14.2,11.6-28.2,19.7-41.2-.3-.7-.6-1.3-.9-2-.7.6-1.4,1.2-2.1,1.8,0,.1-.1.2-.2.3,0,0,.1-.2.2-.3-.6.2-1.3.4-1.9.7h0c-1.2.4-2.3.8-3.4,1.2-.8,1-1.9,1.5-3.2,1.4,1.3.1,2.3-.4,3.2-1.4-.7-.3-1.4-.2-1.9,0,.5-.3,1.2-.3,1.9,0,1.2-.4,2.3-.8,3.4-1.2.6-.2,1.3-.4,1.9-.7.7-.6,1.4-1.2,2.1-1.8,0,0,0,0,0,0h0c.3.7.6,1.3.9,2-8.1,13-14.2,26.9-19.7,41.2,4.8,2.7,10.3,2.5,15.5,3.1,6.5.7,9.9,3.4,10.6,10.4.6,6.2-.4,12.9,3.7,18.5h0s0,0,0,0h0c-.1,1.1-.3,2.3-.4,3.4,7.1,7.1,9.8,17.2,16.2,24.8,5.6-6.6,8.2-14.9,11.2-22.7,2.2-5.7,6.8-10.7,7-17.1-.2,6.4-4.8,11.4-7,17.1-3,7.9-5.6,16.1-11.2,22.7,0,.6.2,1.2.3,1.7,0,0,0,0,0,0h0s0,0,0,0c0-.6-.2-1.2-.3-1.7-6.4-7.6-9-17.7-16.2-24.8-1.2,1.2-2.3,2.3-3.4,3.5h0c-1.5,4.3-2.3,8.8-2.5,13.4,0,0,0,0,0,0h0c-.9,4.5-1.8,8.9-2.7,13.4-6.3,2.8-12.6,5.5-18.9,8.3,0,0,0,0,0,0h0c-1.8-1.9-1.1-4.2-1.2-6.4-9.5-8.5-10.7-14.5-4.3-21.7-3.2-1-6.5-1.9-9.7-2.9-3.3,1.6-6.5,3.2-9.8,4.8-.3-.8-.7-1.7-1-2.6.3.9.7,1.7,1,2.6,3.3-1.6,6.5-3.2,9.8-4.8,0,0,0,0,0,0,3.2,1,6.5,1.9,9.7,2.9-6.4,7.2-5.2,13.2,4.3,21.7h0c2.2-9,4.5-18,6.6-27,.3-1.5,1.9-3.7-1.1-4.5h0c-1.7-.6-2.9-2.6-5.1-1.8-3.4,3.8-8.2,5.2-12.4,4.2,4.3.9,9-.4,12.4-4.2h0c-4.9-1.1-9.8-2.3-14.7-3.2-2-.4-4.6-2.6-5.9,1.2,0,0,0,0,0,0-3.9,4.6-9.9,7.6-11.3,14.2,1.7,1.1,3.3,2.1,5,3.2-.4,1.6-1,2.9-1.9,3.8.8-.9,1.4-2.2,1.8-3.8-1.7-1.1-3.4-2.1-5-3.2-2.4,1.8-5.4,3.4-3,7.2,0,0,0,0,0,0,1.3,7,2.6,14,3.9,21,1.6,8.3,6.7,13.1,15.3,14.5,0,0,0,0,0,0,3.5,1.5,7.1,2.4,10.9,1.8,2.5-2.1,4.5-4.9,8-5.6,0-.7.2-1.4.2-2.1,0,0,0,0,0,0,0,.7-.2,1.4-.2,2.1-3.5.6-5.5,3.4-8,5.6,9,4.8,18.1,8.8,28.6,5.8-.9-1.2-1.5-2.5-2-3.8.5,1.3,1.1,2.6,2,3.8,11-9.3,22.5-18.2,31.8-29.4,0,0,0,0,0,0h.4s0,0,0,0c23.4,23.4,46.7,46.8,70.1,70.2,0,0,.6-.4.6-.4,0,0,0,0,0,0,.3.7.7.8,1.2.2,0,0,0,0,0,0l1.6-1c12.4-27.7,27-54.3,41.9-80.6-5.2-9.8-10.5-19.6-15.4-29.6-1.8-3.7,0-8,.8-11.7,3.5-15.3,7.5-30.4,11.2-45.7,1-4.3,3.2-8.7,0-13,0,0,0,0,0,0,3.1,4.3,1,8.7,0,13-3.7,15.2-7.7,30.4-11.2,45.7-.9,3.8-2.6,8-.8,11.7,4.9,10,10.2,19.7,15.4,29.6l.4.3.4.4c12.6-8.2,25.3-16.3,37.9-24.5-12.7,8.1-25.3,16.3-37.9,24.5h0l-.4-.4-.4-.3c-15,26.4-29.5,52.9-41.9,80.6,4.6,0,8.8-1.9,13-3.5,0,0,.2,0,.3-.1,0,0-.2,0-.3.1-4.2,1.6-8.4,3.4-13,3.5-.5.3-1,.6-1.6,1h0c-.5.6-.9.6-1.2-.1,0,0-.6.4-.6.4-4.6,3.9-10.4,3.5-15.8,4.1-26.7,3.1-53.2,8.3-80.1,9.7-1.8,0-3.6.9-5.4,1.3-8.5,8-19.8,11.3-29.3,17.6-15.1,10-31.5,18.1-45.7,29.6,21,9.3,42,18.7,63.1,28,0,0,0,0,0,0,21.3,5,43.1,6.8,64.8,9.5,0,0,0,0,0,0l.5.2s0,0,0,0c20.9-3.8,41.8-7.8,62.7-11.5,15-2.7,29.7-5.9,42.4-15.2,3.2-2.4,6.5-5.8,11.3-5,7.6-6.9,17.7-10.4,24.7-18,0,0,0,0,0,0-7,7.6-17.1,11.1-24.7,18,7.1,7.2,14.2,14.4,21.3,21.5,1.4,1.4,2.8,4.7,5.5,1.4,0,0,0,0,0,0,3.8,2.6,7.7,5.2,7.9,10.5,2.3-2.2,4.7-4.3,6.7-6.8,3.2-3.9,9.1-6.1,8.5-12.6,1.5-1.5,3-3,4.5-4.5-2.8-2.5-5-5.7-8.6-7.3,0,0,0,0,0,0,3.6,1.6,5.7,4.8,8.6,7.3h0c2.1,0,3.2-1,3.1-3.1,0,0,0,0,0,0,3.9-3.3,7.7-6.7,11.6-10.1,0,0,0,0,0,0,0,0,0,0,0,.1h0s0,0,0,0c-3.9,3.4-7.7,6.7-11.6,10.1,0,2.2-1,3.1-3.1,3.1-1.5,1.5-3,3-4.5,4.5.6,6.5-5.3,8.7-8.5,12.6-2,2.5-4.5,4.5-6.7,6.8,5.5,6.7,11.3,13.2,18.8,17.8.6,6.3,7.7,7.2,9.9,12.2l24.1-24.1c-.9-.6-1.8-.8-2.7-.7.9,0,1.8.1,2.7.7l-24.1,24.1c3.5,3.3,6.9,6.7,10.4,10,14.8,14.1,32.5,16.1,49,5.2,6.5-4.3,11.7-10.2,16.6-16.2-.7-.6-1.4-1.2-2-1.8,0,0,0,0,0,0,.7.6,1.4,1.2,2,1.8h0c3.6-3.6,7.6-6.8,10.8-10.7,16.3-19.7,10.7-46.2-9.4-58.2,10.2,10.9,17.7,22.8,15.3,38.2,2.4-15.4-5.1-27.3-15.3-38.2-7.2-11.2-18.2-18.8-26.6-28.8-5.7-6.8-8.9-5-14.1.5-9.9,10.3-19.1,21.5-31.1,29.6-2.4-2.8-4.9-5.6-7.3-8.5,10.7-11,21.5-21.9,32.1-33,1.5-1.5,4.3-2.5,3.5-5.5-3-.1-4.5-1.6-4.3-4.7-1.8-2.8-4.1-5-6.8-6.8-2.6.2-4.5.4-6.7,3-8.5,10.6-17.8,20.6-28.9,28.5-1.9,1.3-2.7,2.5-2.8,3.7,0-1.2.9-2.4,2.8-3.7,11.1-8,20.4-17.9,28.9-28.5,2.1-2.6,4.1-2.8,6.7-3-.9-1.3-1.8-2.6-2.7-3.9,8.3-8.1,16.5-16.2,24.8-24.3h0c1.2-2.6,2.6-5.2,3.7-7.9,11.8-29.2,23.5-58.4,35.2-87.6,4.5-11.4,10.5-22.2,13.5-34.1,0,0,0,0,0,0,.6-.9,1.4-1.7,1.6-2.6,5.5-21.2,11.2-42.4,16.2-63.7,1.2-5.1,3.6-10.2,2.9-15.7ZM397.3,189.5c1.5,2.2,2.7,4.3,2.9,6.7-.2-2.5-1.4-4.5-2.9-6.7ZM116,396.9h0c-.8-.4-1.5-.8-2-1.3.5.5,1.2,1,2,1.3ZM107.5,386.1s0,0,0,0c0-.2-.1-.4-.2-.5.1.1.2.3.3.5ZM99,425.2s0,0,0,0c0-.1,0-.2,0-.3,0,.1,0,.2,0,.3ZM229.3,491.6c-.4-1.2-.8-2.4-1.1-3.4.3,1,.7,2.2,1.1,3.4ZM226.7,483.2c0,.1,0,.2,0,.4,0-.1,0-.3,0-.4h0ZM226.4,479.9c-.7.3-.3,1.2,0,2.2-.3-1-.7-1.9,0-2.2ZM214,513.9c5.8.8,13.3,1.3,18.7,3.1-5.4-1.9-12.9-2.3-18.7-3.1ZM246.4,457.8c.1,0,.3,0,.5-.7-.2.6-.4.7-.5.7ZM248.2,457.8c-.2,0-.4,0-.5-.2.1.1.3.2.5.2h0ZM248.6,500.2c0,.2,0,.4.3.6-.2-.1-.3-.3-.3-.6ZM248.3,457.8c2.9,0,5.9.7,8.7,1.5-2.8-.8-5.8-1.5-8.7-1.5ZM253.7,491c-1.9-6.5-2.6-13.5-3.6-20.2h0c-.4-2.6,0-5.1-.6-7.8,0,0,0,0,0,0,0,0,0,0,0,0,0,0,0,0,0,0,.6,2.7.3,5.3.6,7.8.9,6.7,1.7,13.7,3.6,20.2,4-8.4,5.3-12.1,5.2-13.8,0,1.6-1.1,5.3-5.2,13.8ZM261.9,465s0,0,0,0c0,0,0,0,0,0,0,0,0,0,0,0h0ZM261.9,464.7s0,0,0,0c0,0,0,0,0,0ZM262,465.4c0,2.4-7.5,7.9-7.3,9.5-.2-1.6,7.3-7,7.3-9.5ZM255.9,440.7c-1-1.5-2.3-2.7-4.4-3.4,0,0,0,0,0,0,2.1.6,3.5,1.9,4.4,3.4ZM246.3,423.9h0c2,.9,5.8,1.2,7.6,3.1-1.8-1.9-5.6-2.2-7.6-3-1.1,3.2.9,15.8,2,18.6,2.6,6.7,18.1,18.9,10.5,17.3,0,0,0,0,0,0,7.7,1.7-7.8-10.5-10.4-17.3-1.1-2.8-3-15.4-2-18.6ZM234.5,423.3h0s0,0,0,0c0,0,0,0,0,0,0,0,0,0,0,0ZM239.6,420.3c0,.2-.8.4-5.6-.8,4.8,1.1,5.6,1,5.6.8ZM233.2,419.4c.1,1.4.9,2.6,1.3,3.9,0,0,0,0,0,0-.4-1.3-1.2-2.5-1.3-3.9-.1,0-.2-1.3-1.6-1.4,1.4,0,1.5,1.3,1.6,1.4ZM169.4,248c-.1,2.3-8,4.3-8.5,5.5.4-1.2,8.3-3.3,8.5-5.5ZM162.8,256.6c0-.8-2.1-1.2-2-2.6-.1,1.4,1.9,1.8,2,2.6ZM159.7,252.2c0-1.9-1.1-4.2-1.1-6.1,0,1.9,1.2,4.2,1.1,6.1ZM157,259.7s0,0,0,0c0-.6-.1-1.1,0-1.5,0,.5,0,1,0,1.5ZM140.7,298.2h1.3c4.9-3.7,10.4-6.7,14.8-11-4.4,4.4-9.9,7.3-14.8,11.1-.7.5-3.6,2.3-3.6,3.1,0-.8,2.9-2.6,3.6-3.1h-1.3s0,0,0,0c9.5-10.5,6.8-10.3.7-5.9,6.1-4.4,8.8-4.6-.7,5.9ZM153.1,275c.2.9,1,1.3,2.2,1.8-1.2-.4-2-.9-2.2-1.8-.2-.8,0-1,.2-1-.3,0-.4.3-.2,1ZM165.5,289.7c2.6-1.2,5-1.3,7.8-.7,0,0,0,0,0,0h0c-2.9-.6-5.2-.6-7.8.7,0,0,0,0,0,0-2-1.2-4.9-3.2-6.5-3.3.1,5.3,4,20.3,2.6,24.1,0,.3,0,.9,0,1.3,1.5-.9,2.4-1.2,2.6-1.3,0,0,0,0,0,0-.2,0-1.1.4-2.6,1.3-.6.4-.7.5-.7.6,0,0,0-.2.7-.6,0-.4-.1-1,0-1.3h0c1.4-3.8-2.5-18.8-2.6-24.1l-.3-1.3s0,0,0,0l.3,1.3c1.6,0,4.5,2,6.5,3.3ZM163.9,280.4c0,0,.2.1.3.2,2.2-1.2,4.3-2.4,6.5-3.6,0,0,0,0,0,0-2.2,1.2-4.3,2.4-6.5,3.6-.8.4-1.8,1-2.6,1.3,0,0,0,0,0,0h0c.8-.3,1.8-.9,2.6-1.3,0,0-.2-.2-.3-.2ZM166.1,268.2s0,0,0,0c3.9,2.2,3,3.7,7.2,6.5,0,0,0,0,0,0,0,0,0,0,0,0-4.2-2.8-3.3-4.3-7.2-6.5ZM180.5,301.5c.5,3.7-.4,7.4-.7,11,0,.1,0,.2,0,.4,0-.2,0-.3,0-.4,0,0,0,0,0,0,.2-3.6,1.2-7.3.7-11ZM181.6,355.2c-.5,0-.9.2-1.1.3-.2,0,.2.6-2.6,2,0,0,0,0,0,0,0,0,0,0,0,0,2.8-1.3,2.5-1.9,2.6-1.9-.4-4.3-.9-11-.9-16.7,0,5.7.5,12.4.9,16.7.2,0,.6-.2,1.1-.3ZM205.9,335.3l3.9-4.6s0,0,0,0c0,0,0,0,0,0l-3.9,4.5c-.8.6.5,3.1.7,3.3-3.6,5.2-6.5,4-5.2,7.2.6,1.4,3.7,3.2,5.2,4.6,2.5-2.7,6.5-.5,9.8-1.3,0,0,0,0,0,0-3.2.8-7.3-1.4-9.8,1.3,0,0,0,0,0,0-1.5-1.4-4.6-3.1-5.2-4.6h0c-1.3-3.2,1.7-1.9,5.2-7.2,0-.1-1.5-2.7-.6-3.3ZM213.7,331c.4-.3,1,.1,1.7,1.7,0,0,0,0,0,0-.7-1.6-1.3-2.1-1.6-1.8ZM216.6,364c-4.2-.6-8.5-1.3-12.7-1.9,0,0,0,0,0,0,4.2.6,8.5,1.3,12.7,2,.9,2.3-4.6,4.9-4.9,5.2,0,0,0,0,0,0,.3-.3,5.8-2.9,4.9-5.2ZM216.3,349h0c.1-.1.2-.3.3-.5,0,.2-.2.3-.3.5ZM216.2,330.2c.3-.4.6-.2,1.4-.7h0c-.8.5-1.1.3-1.4.7ZM213.7,426.5h0c-11.7-8.3-23.4-16.5-35.2-24.8,11.7,8.3,23.4,16.5,35.2,24.8ZM200.7,384.2c.6-.1.8,0,1,.1-.2-.2-.5-.2-1-.1ZM183.1,354.9c0,0-.3.1-.5.2.2,0,.4-.1.5-.2.2,0,.4-.2.6-.4.2-.2.5-.4.8-.6-.3.2-.6.4-.8.6-.2.2-.4.3-.6.4h0s0,0,0,0c7,2.4,13.7,4.7,20.2,8.5h0c-6.5-3.7-13.1-6.1-20.2-8.5ZM192.7,311.6c0-.1,0-.3,0-.4,0,0,0,.2,0,.4ZM192.8,321.3c0-.5,0-1,.1-1.4,0,.4,0,.9-.1,1.4ZM198.5,325.3c0-.7-4.3-.4-4.4-1.4,0,0,0,0,0,0,0,1,4.4.7,4.4,1.4ZM195.5,320.2c.5-.4,1.2-.8,1.9-1.1,0,0,0,0,0,0,0,.1,0,.3,0,.4,0-.1,0-.3,0-.4-.7.3-1.4.7-1.9,1.1ZM199.4,345.1c.3.2.9.5,1.3.6-.4,0-.9-.4-1.3-.6ZM192.8,311.2s0,0,0,0c2.7-3.5,6.5-5.6,9.8-8.5,0,0,0,0,0,0-3.2,2.8-7.1,5-9.8,8.5ZM185.7,296.7c2.7,0,5.5.3,8,.3-2.5,0-5.3-.4-8-.3ZM191.5,311.9c-.8-1.2-6.9-6.6-9.1-10.4,2.2,3.8,8.3,9.2,9.1,10.4ZM201.3,382.2s0,0,0,0h0c-3.6-3-25.4-21.1-28-20.8.8,13.5,2.7,27,4.6,40.4,0,.1,0,.2,0,.3,0-.1,0-.2,0-.3h0c-1.9-13.4-3.7-26.8-4.6-40.4-11.1,7.8-22.2,15.6-33.2,23.5.2,0,.4,0,.6,0-.2,0-.3,0-.5,0-3,.2-4.9,2.2-5.5,2,0,0,0,0,0,0,.6.3,2.5-1.8,5.5-2,11.1-7.8,22.2-15.6,33.2-23.5v-1.3s0,0,0,0v1.3c2.6-.3,24.3,17.8,28,20.8ZM142,386.8s0,0,0,0c-1.6.7-3.2,1.6-4.7,2.6,1.6-1,3.2-1.9,4.7-2.6ZM132.9,366.6l-20.8-8.5c0,0-.2,0-.3,0,.1,0,.2,0,.3,0,0,0,0,0,0,0l20.8,8.5c.5-.7,10.6-11.9,11.7-13,0,0,0,0,0,0,1.6-1.6,2.5-1.8,2.6-1.9,3.1-2.9,5.8-5.2,9.1-7.8,0,0,0,0,0,0,0,0,0,0,0,0-3.3,2.6-6,5-9.1,7.8h0c-.1.1-1,.4-2.6,2-1.1,1.1-11.2,12.3-11.7,13ZM135.5,352.9s0,0,0,0h0c-2.2-6.5-4.3-13-6.5-19.5,0,0,0,0,0,0,.7-1.2,1.9-2.3,1.9-3.9,0,1.6-1.2,2.7-1.9,3.9,2.2,6.5,4.3,13,6.5,19.5ZM138.8,326.2v-.6h0c.5-4.1,1.8-5.2,1.7-5.4.2.2-1.2,1.2-1.7,5.4v.6h0s0,0,0,0h0s0,0,0,0ZM151.3,342.9c-5.7-.5-11.3-12.7-14.1-18,0,0,0,0,0,0,2.9,5.3,8.4,17.5,14.1,18ZM143,329.9c3.9,3.8,8.8,9.3,11.4,11.9.7.7.9,1.5,1.6,1.8-.7-.3-.9-1.2-1.6-1.8,0,0,0,0,0,0-2.6-2.6-7.5-8.1-11.4-11.9ZM143.1,353.3c-1.3,0-2.8.6-3.9.6,1,0,2.6-.6,3.9-.6ZM138.2,352.2s0,0,0,0h0s0,0,0,0ZM179.6,322.6c0,.2,0,.3-.2.3-3.6-2.6-7.1-5.2-10.7-7.8,0,0,0,0,0,0,0,0,0,0,0,0,0,0,0,0,0,0,3.6,2.6,7.2,5.2,10.8,7.8,0,0,.1-.2.2-.3ZM179.6,312c0,.1.1.3.2.5h0c0-.2-.1-.3-.2-.5ZM163.9,347.7c-5,1.3-3.4,3-8.8,2,0,0,0,0,0,0,5.4,1.1,3.8-.6,8.8-2,4.6-1.2,9.3-2.5,14-3.3,0,0,0,0,0,0-4.7.8-9.4,2-14,3.3ZM177.5,357.7c-.7.5-1.7,1.6-2.8,2.1,1.1-.5,2-1.5,2.8-2.1ZM172,360.1c0,0-.1,0-.2,0,0,0,.1,0,.2,0h0ZM161.6,361.4s0,0,0,0c0,0,0,0,0,0-4.9-2.4-9.8-4.8-14.6-7.2,0,0,0,0,0,0,4.9,2.4,9.8,4.8,14.7,7.2ZM147.9,351.6s0,0,0,0c0,0,0,0,0,0h0ZM174.3,328.1c.5,4.1-4.3,1.6-6.2,3.3,1.3.2,2.9-.2,3.8,1.2-.9-1.4-2.5-1-3.8-1.2,0,0,0,0,0,0,1.9-1.6,6.6.8,6.2-3.3l-14.6-1.3s0,0,0,0l14.7,1.3ZM165,312.4c.5.5,1.2.9,2,1.4-.7-.5-1.4-.9-2-1.4ZM167.6,314.2c0,0,.2.1.2.2,0,0-.2-.1-.2-.2ZM165.4,331c-1.9-.3-4.2-.6-5.1-.8.9.2,3.2.5,5.1.8ZM164.2,340.5h0s0,0,0,0c4.2-.6,8.5-1.3,12.7-1.9,0,0,0,0,0,0-4.2.6-8.5,1.3-12.7,1.9-3.7,2.4-7.2,6-11.1,8.5h0c3.9-2.4,7.4-6.1,11.1-8.5ZM143.3,377c.7,0,1.4,0,2.2-.2-.8.2-1.5.3-2.2.2h0ZM179.8,329.7c0-.6.2-1,1-.9-.8-.1-1,.2-1,.9ZM180.5,301.4c-3.1.5-7.3,3.6-10.4,5.2,0,0,0,0,0,0,0,0,0,0,0,0,3.1-1.6,7.3-4.7,10.4-5.2h0ZM160.9,312.5s0,0,0,0c0,0,0,0,0,0,0,0,0,0,0,0-2.7,1.6-5.8,2.9-8.5,4.6-4.5.2-8.9.4-13.4.7-.4-.2-.6-.5-.7-.7.1.3.4.5.7.7,4.5-.2,8.9-.4,13.4-.6,2.7-1.7,5.8-2.9,8.5-4.6ZM141.4,284.5c.7-.9,1.3-1.5,1.6-2.6,0,0,0,0,0,0-.4,1.1-1,1.7-1.6,2.6-2.7,3.7-3.8,8.4-5.9,12.4,0,0,0,0,0,0,2.1-4,3.1-8.7,5.9-12.4ZM138.1,315.1c-2.2-4.2-3-7.2-3.1-9.5,0,2.2.9,5.3,3.1,9.4,0,0,0,0,0,0-2.9-.9-11.7,3.2-12.4,6.5.3,1,.6,1.8.6,1.9,0,0,0,0,0,0,0,.1-.6,2.4-.6,2.6,2,.5,3.2,1.2,3.9,1.8-.7-.6-1.9-1.2-3.9-1.8-.3.8-1.7,2.5-2.4,1.7.7.7,2-.9,2.4-1.8,0-.2.6-2.5.6-2.6s-.4-1-.6-2h0c.6-3.3,9.5-7.4,12.4-6.5ZM118.6,332.7c2.5-8.9,4.2-10.4,7.2-16.9,0,0,0,0,0,0-3,6.5-4.6,8-7.1,16.9,1.8-1.2,3.6-3.3,4.6-5.2,0,0,0,0,0,0-.9,1.9-2.7,4-4.6,5.2-.2.8-.5,1.5-.6,2h0c.1-.5.4-1.1.6-2ZM110.1,356.8c2.5-3.7,5.7-7,8.5-10.4,3.2-4,6.9-7.5,9.8-11.7h0s0,0,0,0c-2.9,4.2-6.6,7.8-9.8,11.7-2.8,3.5-6,6.8-8.5,10.4,0,.6.6.6.7,1.3.1,0,.2,0,.3,0-.1,0-.2,0-.3,0,.3,4.5,12.5,15.4,14.3,21.5,0,0,0,0,0,0,0,0,0,0,0,0-1.8-6.1-14.1-17-14.3-21.5h0c0-.6-.7-.7-.6-1.3,0,0,0,0,0,0ZM109.4,379.6c-.2-.6-.2-1-.2-1.4,0,.4,0,.9.2,1.4,0,0,0,0,0,0ZM131.3,380.9c-1-.4-4.9,1.4-21.8-1.3h0c16.9,2.7,20.8.9,21.8,1.3,0,0,.1,0,.2.1,0,0-.1,0-.2-.1ZM131.6,368.2s0,0,0,0c3.8,4.8,9.5,7.1,9.8,9.6-.3-2.5-6-4.8-9.8-9.6ZM116.6,451.9h0s0,0,0-.1c0,0,0,0,0,.1,5-2.6,8.9-6.7,13-10.4,4.1-3.7,10-8.3,10.1-9.8,0,0,0,0,0,0,0,1.5-5.9,6-10.1,9.7h0c-4.1,3.8-8.1,7.8-13,10.4ZM117.3,453.9s0,0,0,0c0,0,0,0,.2.2-.2-.1-.2-.2-.2-.2ZM150.2,493c.3-.6.2-1.3.3-1.4,0,0,0,.8-.3,1.4ZM147.2,465.6s0,0,0,0c1,8.4,2.4,16.9,2.6,25.4,0,0-.1.7.6.6h0c-.8,0-.6-.6-.6-.6-12.4-11.4-21.9-23.1-31.9-36.5,0,0,0,0,0,0,1.3.3,2.5.7,3.8,1.2-1.2-.4-2.5-.8-3.8-1.1,10,13.3,19.5,25.1,31.9,36.5-.2-8.5-1.6-17-2.6-25.4-1.4-.3-2.8-.6-4.1-1.1,1.4.4,2.7.8,4.1,1-1.3-10.8-3-21.7-3.9-32.6.4-2.2,29.3-27.2,33.2-30,.1-1.3,0-1.8-1-2.6-1.4-1.1-31.1-14.6-32.9-15,0,0,0,0,0,0,1.8.4,31.5,13.9,32.9,15,1,.8,1.1,1.4,1,2.6-3.9,2.7-32.9,27.8-33.2,30,1,10.9,2.6,21.7,3.9,32.6ZM186.3,455.2c-2.6-17.4-6-34.7-8.5-52.1,0-.1,0-.2,0-.3,0,.1,0,.2,0,.3,2.4,17.4,5.9,34.7,8.5,52.1,9.1-9.1,18.2-18.2,27.4-27.4h0c-9.1,9.1-18.2,18.2-27.4,27.4ZM220.2,433.7h0s0,0,0,0h0ZM218.9,431.1c.3.4.7.9,1.1,1.3-.3-.4-.7-.8-1.1-1.3,0,0,0,0,0,0,0,0,0,0,0,0ZM215.6,436.9c-.6-2.7-.9-5.7-1.3-8.5,0,0,0,0,0,0,.4,2.8.7,5.7,1.3,8.5,2.8,13.7,7.2,27.2,9.8,41,0,0,0,0,0,0h0c-11.5-4.3-22.6-11.6-33.2-18.2,10.6,6.6,21.8,13.9,33.2,18.2-2.6-13.8-6.9-27.3-9.8-41-9.4,5.2-16.8,15-23.4,22.8,6.6-7.8,14-17.6,23.4-22.8ZM226.7,379.6c.6,1.3.6,1.8.6,1.9h0c-2.6-2.7-1.9.8-3.6,1.3-3.5.9-13.4.4-17.3,4.6h0c-1.2-.9-2.7-1.1-3.9-1.9,0,0,0,0,0,0h0c1.2.8,2.7,1,3.9,1.9,3.8-4.2,13.8-3.6,17.3-4.6,1.7-.5,1-4,3.6-1.3,0,0,0-.6-.7-2-.6-1.3-1-1.7-1.1-1.8.2.1.5.5,1.1,1.9,4.5-2.9,5.8-9.4,11.1-11.1,0,0,0,0,0,0,.9,1.1,1.7,2.2,2.6,3.2-.9-1.1-1.7-2.2-2.6-3.2-5.3,1.7-6.6,8.2-11.1,11.1ZM225.4,377.7s0,0,0,0c0,0,0,0,0,0,0,0,0,0,0,0ZM233.2,386.6c4.1-3.6,5.8-8.8,8.5-13.5h0c-2.7,4.7-4.4,10-8.5,13.5ZM254.1,386.8c-2,0-8.1-8.4-11.9-13.1,3.8,4.7,10,13.1,11.9,13.1ZM246.3,366.3c-.8,2.6-13.1-6.9-14.8-10.7,1.7,3.8,14,13.3,14.8,10.7ZM231.3,354.9h0c0,0,.2,0,.2,0,0,0-.2,0-.2,0ZM229.3,350.3c0-.5-.4-2-.6-2.6,1.2-2.4,4.3-7.3,4.6-9.8.4-.8.7-.8,1-.5-.3-.3-.6-.2-1,.5-.2,2.4-3.3,7.3-4.6,9.8.2.7.7,2.1.6,2.6,0,0,0,0,0,0-.5,4.5-8.3.2-8.5-.3,0,0,0-.1,0-.3,0,.1,0,.2,0,.2.2.5,7.9,4.9,8.5.3ZM229.7,354.2c-.1,0-.3,0-.4,0h0l1.9-3.3c0,0,.3-.9-1.7-.7,1.9-.2,1.6.6,1.7.7l-1.9,3.3c.2,0,.3,0,.4,0ZM222,328.4c-.6,0-1.3.2-1.9.3.6-.2,1.2-.3,1.9-.3ZM218.2,329.4c.9,2.3,2,4.5,3.1,6.7-1.1-2.2-2.2-4.4-3.1-6.7h0ZM219.5,365.3c.5-.7.6-.6.6-.6.1-.2-.1-1.1,0-1.3,0,0,0,0,0,0,.2-.3.5-2.2,1.8-4.2-1.3,2-1.6,3.9-1.8,4.2-.1.2.1,1.1,0,1.3,4.8.2,9.5.4,14.3.6,0,0,0,0,0,0,0,0,0,0,0,0-4.8-.2-9.5-.4-14.3-.6,0,0-.2,0-.6.6,0,0,0,0,0,0-1.6,2.2-14.4,17.3-13,18.6h0c-1.4-1.2,11.4-16.4,13-18.6ZM215.4,303.3c-2.1,2.5.2,7.4.3,7.9h0c.1,1.6.6,2.5.6,3.7,0-1.1-.5-2.1-.6-3.7,0-.4-2.4-5.4-.3-7.9ZM212.4,322.3s0,0,0,0c1.7,2,3.8,4.9,5.2,7.2h0c-1.4-2.2-3.5-5.2-5.2-7.2h0c-5.5-6.4-8.1-9.6-10.5-11.1,2.4,1.4,5,4.7,10.5,11.1ZM204.6,300.1s0,0,0,0c0,.2,0,.4,0,.5,0-.2,0-.3,0-.5-.8-.3-1.7-1.2-2.6-2.1.9.9,1.8,1.8,2.6,2.1ZM199.3,295.6c.4.3.8.7,1.3,1.1-.4-.4-.9-.8-1.3-1.1-.3-.3-.7-.5-1-.8.3.3.7.5,1,.8ZM197.4,285.8h0c-.4-.4-2-2.4-2.9-3.4.9,1,2.5,2.9,2.9,3.4ZM190.2,289.7c.9.1,2.1,1.5,3.3,1.3.7.5,1.5,1.1,2.2,1.7-.7-.6-1.4-1.1-2.2-1.7-1.2.2-2.4-1.2-3.3-1.3-4.5-.7-11.3.9-17.6-5.5h0c6.3,6.4,13.1,4.8,17.6,5.5,0,0,0,0,0,0ZM184.4,281.5c1.5,1.2,2.8,2.6,3.9,4.3,0,0,0,0,0,0,0,0,0,0,0,0h0c-5.3-3.5-11.1-3.1-14.3-7.8,0,0,0,0,0,0-.5-.8-1.1-1.5-1-2.4,0,.9.5,1.6,1,2.4,3.2,4.7,9,4.3,14.3,7.8-1-1.7-2.4-3.1-3.8-4.3ZM173.3,274.7c.1,0,.4-.1,1.1.1-.7-.2-1,0-1.1-.1ZM176.5,276c2.1-1.7,4.2-3.5,6.5-5-2.3,1.5-4.4,3.3-6.5,5,0,0,0,0,0,0h0s0,0,0,0ZM186.3,267.6c-1.6,0-3.2,0-4.9,0,1.6,0,3.3,0,4.9,0h0ZM196.8,276.7s0,0,0,0c2.4-6.2-2.8-7.1-9.8-8.5,0-.3,0-.5-.2-.6.1,0,.2.2.2.6,7,1.4,12.1,2.3,9.8,8.5ZM196,264.9c-7.2-4.4-7.7-9.5-13.3-10.4,5.7.9,6.1,6,13.3,10.4ZM182,243.9c-.2,0-.6,0-.9,0,.4,0,.7,0,.9,0ZM174.6,251.3c1.1.5,7.4,2.8,6.5.6,0,0,0,0,0,0,.9,2.1-5.4-.2-6.5-.7,1.2,2.2,3,4.5,4.6,6.5,2.7,3.3,5.3,5.7,7.2,9.8-1.9-4-4.5-6.4-7.2-9.8l-12.4,9.8c1.6,0,3.2.1,4.9,0-1.6,0-3.3,0-4.9,0-.2,0-.4,0-.6,0-.9,0-1.8,0-2.6,0-3.3,5.9-6.1,6.8-8,6.8,1.9,0,4.7-1,8-6.8-.7,0-1.3.8-4.6,0h0c-.4,0-5.6-2.8-6.5-3.9,0,0,0,0,0,0s0,0,0,0c.9,1.1,6.1,3.8,6.5,3.9,3.3.8,3.9,0,4.6,0,.9,0,1.8,0,2.6,0,.2,0,.4,0,.7,0l12.4-9.8c-1.6-2-3.3-4.3-4.6-6.5ZM219.3,273c2.1-2,3.9-4.6,6.6-5.8-2.7,1.2-4.4,3.7-6.6,5.8ZM224.9,259.2c-2.9-9.7-12.1-14.3-17.1-22.5-3.1-5.1-6.6-10.2-11.3-14.2-2.2-1.8-1.8-4.2-.4-6.5-3-3.3-6.4-6-10-8.7,3.6,2.6,7,5.4,10,8.6h0c-1.4,2.3-1.8,4.7.4,6.5,4.8,4,8.3,9.1,11.3,14.2,4.9,8.1,14.2,12.8,17,22.5.6,1.9,1.7,2.7,3.1,2.7-1.4,0-2.5-.9-3.1-2.7ZM558.4,802.1c-8.5.5-17.1,1.1-25.6,1.5,8.5-.4,17.1-1,25.6-1.5ZM581.3,755.5s0,0,0,0c2.3-2.6,3.9-3.6,5.2-3.6-1.3,0-3,1-5.2,3.6ZM585.4,769.8c2.3-3.4,6.9-4.7,13.8-4-6.9-.7-11.5.7-13.8,4ZM618.5,762.1c-.4-1.8.2-5.4-3-4.4-5.4,1.8-11.9,2.3-15.2,8.1h0c3.4-5.8,9.8-6.3,15.2-8.1,3.1-1.1,2.5,2.5,3,4.4.4,1.5.6,3,.7,4.6-.2-1.5-.4-3.1-.7-4.5ZM639.3,751.3s0,0,0,0c.9-1.2,1.4-2.1,1.3-2.8,0,.7-.4,1.5-1.3,2.8ZM892.2,919.5c1.1,3.2,4.2,3.7,7.3,4.1h0c-3.1-.4-6.2-.9-7.3-4.1ZM902.7,908.9c-.3.3-.6.5-.9.8.3-.3.6-.5.9-.8.2-.2.4-.3.6-.5-.2.2-.4.3-.6.5ZM931.6,953.2c-5.9-4.4-11.3-9.3-16.6-14.3,5.3,5.1,10.7,9.9,16.6,14.3ZM914.4,892.4c-1.7,2.8-4.2,5-5.8,7.8,1.6-2.8,4-5,5.8-7.8ZM909.7,883.6s0,0,0,0c0,.1-.1.2-.2.3,0,0,.1-.2.2-.3ZM884.1,905.2c.1.2.2.4.3.6.2.4.3.8.4,1.2,0-.4-.2-.8-.4-1.2,0-.2-.2-.4-.3-.6h0ZM883.9,911.7c.3-.8.6-1.6.8-2.4-.2.8-.5,1.6-.8,2.4,2.8-2.8,5.6-5.5,8.4-8.3-2.8,2.8-5.7,5.5-8.4,8.3h0ZM887.9,921c1.3-1,2.6-2,3.9-3,.3-.6.6-1.1.9-1.7-1.1-1.7-3.6-3.6-2-5.5,6.7-8,14-15.3,22.3-21.6-8.3,6.3-15.6,13.6-22.3,21.6-1.6,1.9.8,3.8,2,5.5h0c-.3.5-.6,1.1-.9,1.6,0,.3,0,.6.1.8,0-.3,0-.5-.1-.8-1.3,1-2.6,2-3.9,3-2,2.2-3.9,4.7-6.4,4.6,2.5,0,4.4-2.4,6.4-4.6ZM881.5,913.8c-.5-.7-.9-1.5-1-2.3.1.8.5,1.5,1,2.3ZM876.4,923.7s0,0,0,0c-1.4,2.1-5,3.4-3.6,6.5.5,1.2,1.3,1.6,2.1,1.6-.9,0-1.6-.4-2.1-1.6-1.4-3,2.3-4.4,3.6-6.5ZM854.9,879.2h0s0,0,0,0c-3.5,3.6-7,7.3-10.5,10.9,3.5-3.6,7-7.3,10.5-10.9ZM951.4,668.7c-.6,0-1.4.2-2.2.8h0c.8-.6,1.6-.9,2.2-.8ZM938.3,664.2s0,0,0,0c0,0,0,0,0,0,0,0,0,0,0,0h0ZM930.3,660.8h0s0,0,0,0c0,0,0,0,0,0,0,0,0,0,0,0,1.8-.4,2.9.7,3.9,1.9,0,.2,0,.4.2.5-.1,0-.2-.2-.2-.5,0,0,0,0,0,0-1-1.2-2.1-2.3-3.9-1.9ZM931,661.7c-.3-.2-.5-.5-.8-.7,0,0,0,0,0,0,.2.3.5.5.7.7ZM938.3,664.2h0c-.7-.6-1.5-1.2-2.4-1.2.9,0,1.7.6,2.4,1.2ZM926.9,659.7s0,0,0,0c0,0,0,0,0,0,0,0,0,0,0,0ZM907.5,548.4c1.6-3.7,3.3-7.4,4.9-11-1.7,3.7-3.3,7.3-4.9,11-1.3,3-2.7,5.1-4.5,6.4,1.7-1.3,3.1-3.3,4.5-6.4ZM897.9,594.2c.4,12.8,5.9,24.8,6.2,37.7,0,3.6.7,6.8-2.3,9.5-3.5,3.3-2.6,5.1,2,6.4,8.4,2.4,16.2,6.2,23.1,11.9,0,0,0,0,0,0-6.8-5.6-14.6-9.4-23.1-11.8-4.6-1.3-5.5-3.2-2-6.4,3-2.8,2.4-5.9,2.3-9.5-.3-12.9-5.8-24.9-6.2-37.7-.2-6.8-2.7-10.5-9.7-12.4-1.3-.3-2.3-.4-3.3-.4.9,0,2,0,3.3.4,7,1.9,9.5,5.6,9.7,12.4ZM894.4,556.4s0,0,0,0c-29.5-3-59-5.8-88.5-8.7h0c-.2.6-.3,1.1-.5,1.7,8.9,24.8,24,46.5,34.7,70.4,1,2.2,2.2,3.3,3.6,3.3-1.4,0-2.7-1.1-3.7-3.3-10.8-23.9-25.8-45.6-34.7-70.4h0c.2-.6.3-1.1.5-1.7h0c29.5,2.9,59,5.7,88.5,8.6,0,0,0,0,0,0ZM825.4,626.7c-2.6-9.4-5.3-18.7-8.3-28,3,9.3,5.7,18.6,8.3,28ZM805.7,459.8c6.2-9.3,12.3-18.6,18-28.2.6-1,1.2-1.8,1.7-2.4-.6.6-1.1,1.4-1.7,2.4-5.7,9.6-11.8,18.9-18,28.2-1.6,2.5-1.8,4.2.3,6.3,6.5,6.3,12.3,13.6,19.6,18.9,22.5,16.3,40.7,37.5,62,55.1h0c1.5,1,2.3,4.7,4.8,2.7.1-.1.2-.2.3-.3-.1.1-.2.2-.4.3-2.4,2-3.3-1.7-4.8-2.7h0c-21.4-17.6-39.5-38.7-62-55.1-7.3-5.3-13.1-12.6-19.6-18.9-2.1-2-1.9-3.8-.3-6.3ZM773.5,572.2c.7.7,1.4,1,2.1,1-.7,0-1.4-.3-2.1-1,0,0,0,0,0,0ZM770.7,379.1c-1.3-.7-2.7-1.3-4.1-1.8,1.4.6,2.8,1.1,4.1,1.8ZM731.3,356.9c6.4,3.7,12.9,7.5,19.3,11.2,2.2,1.3,3.8,2.5,2.8,5.6-5.7,17.7-12.8,34.8-23.2,50.3,0,0,0,0,0,0,10.4-15.6,17.5-32.6,23.2-50.3,1-3.2-.6-4.4-2.8-5.6-6.4-3.7-12.9-7.5-19.3-11.2,0,0,0,0,0,0ZM727.8,353.9c1.1,1,2.3,2,3.5,3,0,0,0,0,0,0h0c-1.1-1-2.3-2-3.5-3,0,0,0,0,0,0ZM684.6,333c.6-.5,1.3-.9,2-1-.7,0-1.3.5-2,1,1.3.6,2.3.1,3.3-.6,1.9,1.7,3.8,3.5,5.8,5.2.8,0,1.5.2,2.3.3,1.9,1.1,3.8,2.2,5.7,3.3,0,0,0,0,0,0,4.8,3.5,8.3,9.7,15.8,7.1,1.9,1.7,3.9,3.4,5.8,5,.8-.6,1.6-.8,2.4-.8-.7,0-1.5.2-2.3.8,1,1.3,2.1,1.6,3.2,1.2-1.2.4-2.3,0-3.3-1.2l-5.8-5c-7.5,2.6-11-3.6-15.8-7.1-1.9-1.1-3.8-2.2-5.7-3.3-.8,0-1.5-.2-2.3-.3-1.9-1.7-3.9-3.5-5.8-5.2-1,.7-2.1,1.2-3.3.6-1.5-1.4-3-2.7-4.5-4.1,1.5,1.4,3,2.7,4.5,4.1ZM647.4,498s0,0,0,0c20.8,12.5,43.5,21,65.3,31.2,2.2,1,4.1.8,6.1,0,.7,1.3,1.5,2.6,2.2,4h0,0c-.7-1.3-1.5-2.6-2.2-3.9-2,.8-3.9,1.1-6.1,0-21.9-10.2-44.6-18.7-65.3-31.2ZM697.9,451.9c0,.8.5,1.1,1.4.9,0,0,0,0,0,0,1.2,1.1,2.3,2.1,3.5,3.2,0,0,0,0,0,0,1.7,2.2,2.6,4.1,2.7,5.7-.1-1.6-1-3.5-2.7-5.7-1.2-1.1-2.3-2.1-3.5-3.2-.9.2-1.4,0-1.4-.9ZM713.7,464.4c0-.2,0-.3,0-.5,0,.2,0,.3,0,.5h0c-2.1,11.2,1.3,22.1,2.2,33.1.8,10.5,1.9,21.1,2.9,31.6h0c-1-10.5-2.1-21.1-2.9-31.6-.8-11-4.3-21.9-2.2-33.1ZM713.7,463.4s0,0,0,0c0,0,0,0,0,0,0,0,0,0,0,0ZM713.7,463.4h0c.4-.3.7-.6,1-.9-.3.3-.6.6-1,.9ZM668,429.2c2.5,1.2,5.6,1.5,6.8,4.7,2.2,1.7,4.4,3.4,6.6,5,.7.6,1.4,1.3,2.1,1.9.9.7,1.7,1.5,2.6,2.2,1.1.4,2.1,1,3.1,1.5-1-.6-2-1.1-3.1-1.5,2.7,3.1,4.4,7.6,9.8,6.8.7.6,1.4,1.2,2,1.7,0,0,0,0,0,0,0,0,0,0,0,0-.7-.6-1.4-1.2-2-1.7-5.4.8-7.1-3.7-9.8-6.8-.9-.7-1.7-1.5-2.6-2.2-1.4.6-2.1.2-2.2-.7,0,1,.8,1.3,2.2.7-.7-.6-1.4-1.3-2.1-1.9,0,0,0,0,0,0-2.2-1.7-4.4-3.4-6.6-5-3.8.7-5.2-2.2-6.8-4.7-5.8-4.8-11.6-9.5-17.4-14.2-1.8.5-2.6-.1-2.5-2-1.3-1.7-2.7-3.4-4-5,0,0,0,0,0,0,1.3,1.7,2.7,3.4,4,5,.9-.3,1.6-.3,2,0-.4-.3-1.1-.3-2,0-.1,1.9.8,2.5,2.5,2,0,0,0,0,0,0,5.8,4.7,11.6,9.5,17.4,14.2ZM664.2,326.3c-.5-.4-.9-.8-1.4-1.3-11.8,2.7-22.4,8.5-33.9,11.8-9.8,4.4-19.7,8.7-29.5,13.1.5.7,1,1.4,1.5,2-.5-.7-1-1.4-1.6-2,0,0,0,0,0,0,0,0,0,0,0,0,9.8-4.4,19.7-8.7,29.5-13.1h0s0,0,0,0c11.5-3.4,22.2-9.2,33.9-11.8.5.4.9.8,1.4,1.3h0ZM620.2,474.8l-.6-.3c-3.6,1-4.6-2.2-6.4-4,1.8,1.8,2.8,5,6.4,4-2-1.5-3.5-4-6.5-4h-.3c-2.3.6-3.3-.8-4.1-2.7-.5-.4-1.1-.7-1.6-1.1-6.8-2.3-14.3-3.5-18.1-10.8-.8-.7-1.6-1.3-2.4-2-1.7.2-3.5.3-5.2.5-1.8.6-3.2,1.6-4.4,2.8,1.2-1.2,2.6-2.2,4.4-2.8,1.7-.2,3.5-.3,5.2-.5-.6-1.1-1.4-1.8-2.4-2.4.9.6,1.8,1.3,2.4,2.4.8.6,1.6,1.3,2.4,1.9h0c3.9,7.2,11.3,8.4,18.1,10.8h0c.5.4,1.1.7,1.6,1.1,1.3.8,2.7,1.7,4.1,2.5h.3c3,.1,4.4,2.6,6.5,4.2l.6.3c1.8,0,2.9,1.3,4.1,2.4,2.7,2,5.2,4.4,9.1,3.2,0,0,0,0,0,0-3.8,1.2-6.4-1.2-9.1-3.2-2.2.6-3.3-.6-4.1-2.3.8,1.7,1.9,2.9,4.1,2.3-1.2-1.1-2.3-2.4-4.1-2.4ZM589.1,456c6.9,2,12.6,5.8,17.8,10.6-5.2-4.7-11-8.6-17.8-10.6ZM612,401.3c.3,0,.5,0,.7.1-.1,0-.4-.1-.7-.1-.1.6,0,1,.5,1.4h0c-.5-.3-.6-.8-.5-1.4,0,0,0,0,0,0ZM613.5,406.2s0,0,0,0c-.7-.8-1.1-1.7-1.1-2.7,0,1,.4,1.9,1.1,2.7ZM613.5,406.2s0,0,0,0c0,0,0,0,0,0,0,0,0,0,0,0ZM613.6,406s0,0,0,0c.5.4,1,.9,1.5,1.3-.5-.4-1-.9-1.5-1.3ZM601.9,361.3c8.4,3,10.6,12.1,16.3,17.9,4.2,4.3,5.8,10.9,11.6,13.8-5.8-2.8-7.4-9.5-11.7-13.8-5.6-5.7-7.9-14.8-16.2-17.9ZM652.7,317h0s0,0,0,0c2.8,3,7.7,2.4,10.3,5.9h0c-2.5-3.5-7.5-2.9-10.3-5.9ZM683.5,198s0,0,0,0c0,0,0,0,0,0h0ZM664.4,171.4c3.8-9.3,7.1-18.9,11.6-27.9-4.5,9-7.8,18.6-11.6,27.9h0c4.8,2.9,1.9,7.9,3.1,11.8,1.5,5,2.7,8.7,8.6,9.2,3.3.3,5.3,3.2,7.4,5.6-12.3,8.6-24.7,17.1-37,25.7-.8.6-1.7,1.1-2.5,1.6.9-.5,1.7-1,2.5-1.6,12.3-8.6,24.7-17.1,37-25.7-2.1-2.3-4.1-5.3-7.4-5.6-5.9-.6-7-4.2-8.6-9.2-1.2-3.9,1.7-9-3.1-11.8-10,17.3-15.8,36.7-26.4,53.7h0s0,0,0,0c10.6-17,16.4-36.4,26.4-53.7ZM649.3,225h0s0,0,0,0c-4.9,2.5-9.7,5.1-13.6,9.1,0,0,0,0,0,0,3.9-4,8.7-6.6,13.6-9.1ZM603.3,250.9c1.8-1.2,3.6-2.3,5.5-3.4-1.9,1.1-3.7,2.3-5.5,3.4-1,.7-2.1,1.3-3.1,1.9,1-.7,2.1-1.3,3.1-2ZM603.8,254.4c-.7.9-1.4,1.8-2.4,2.3,1-.5,1.7-1.3,2.4-2.3,0,0,0,0,0,0,0,0,0,0,0,0ZM597,256.6h0s0,0,0,0c.4.4.8.8,1.2,1.2-4.2,3.5-8.3,7.2-13.2,9.4,4.9-2.3,9-5.9,13.2-9.4-.4-.4-.8-.8-1.2-1.2,0,0,0,0,0,0ZM579.8,269s0,0,0,0c2.6-2.5,5.2-5.1,7.8-7.6,0,0,0,0,0,0-2.6,2.5-5.2,5.1-7.9,7.6,0,0,0,0,0,0h0c-.5.9-1.1,1.8-1.9,2.2.7-.5,1.3-1.3,1.8-2.2,0,0,0,0,0,0ZM577.7,269.3c-1,.4-1.8,1.2-2.6,2.1,0,0,0,0,0,0,.8-.8,1.6-1.6,2.6-2.1ZM562.8,279.3h0c1.6-1.8,3.1-3.5,5.7-3.4,0,0,0,0,0,0,1.6-1.9,3.3-3.5,5.9-3.9,0-.3.2-.5.5-.6-.2,0-.4.3-.4.6-.8,1-1.4,2.2-2.3,3,.9-.8,1.5-2,2.3-3-2.6.4-4.4,2-5.9,3.9,0,0,0,0,0,0,0,0,0,0,0,0-2.6,0-4.2,1.6-5.7,3.4,0,0,0,0,0,0h0s0,0,0,0c0,0,0,0,0,0h0c-1.3,1.4-2.3,3.4-4,4.2,1.7-.8,2.7-2.7,4-4.2,0,0,0,0,0,0ZM556,283.9h0s0,0,0,0c0,0,0,0,0,0h0c1.2-1.2,2.3-2.5,3.6-3.4-1.3.9-2.5,2.1-3.6,3.3,0,0,0,0,0,0ZM543.6,133.6c-1.8.3-3.8,1.1-5.8,2.5,0,0,0,0,0,0,2.1-1.3,4-2.1,5.9-2.4ZM508.9,124.8c-.2.2-.3.4-.5.6,16.4,6.6,30.8,15.7,40.4,31,3.3,5.3,5.3,11,4,17.4h0c1.9,3.1,2,6.2-.2,9.1-.4,1.2-.7,2.3-1.1,3.5-.4,3.9-1.3,7.4-2.7,10.6,1.4-3.2,2.3-6.7,2.7-10.6-4.8,6.6-6.3,15.2-13.3,20.3-2.2,1.6-4.8,3.4-5.1,6.7,0,0,0,0,0,0,.3-3.3,2.9-5.1,5.1-6.8,7-5.2,8.6-13.8,13.3-20.3.4-1.2.7-2.3,1.1-3.5-2.1-3.1-2.3-6.1.2-9h0c-2.3-2.3-4.9-4-8.3-3.6,0,0,0,0,0,0-.9-1.7-1.8-3.5-2.8-5.2h0c.9,1.7,1.8,3.5,2.8,5.2,3.4-.4,6,1.3,8.3,3.5h0c1.4-6.4-.6-12.1-4-17.4-9.6-15.3-24.1-24.4-40.4-31,.2-.2.4-.4.5-.6ZM501.5,121.9c0,.4,0,.7,0,1.1h0c0-.4,0-.7,0-1.1ZM496.9,121.9c0,.3,0,.6,0,1,0,0,0,0,0,0h0c0-.3,0-.6,0-1h0ZM490.4,121.1c-1.2.3-2.5.9-3.6,1.8,0,0,0,0,0,0,0,0,0,0,0,0,1.2-.9,2.4-1.5,3.7-1.8ZM482.9,122.7c-.7.3-1.3.8-2,1.4h0s0,0,0,0c.6-.6,1.3-1.1,2-1.4ZM361.7,137.4h0c1.2.9,2.4,1.8,3.6,2.7-1.2-.9-2.4-1.8-3.6-2.7ZM366.8,141.3h0c.4,1.7,1.1,2.9,2.2,3.6-1.1-.7-1.9-1.9-2.2-3.6ZM373.2,146s0,0,0,0c0,0,0,0,0,0h0ZM377.2,149.1s0,0,0,0c.6.3,1.1.6,1.7,1-.6-.3-1.1-.6-1.7-1ZM381.1,153.4c.3,0,.7,0,1.1,0-.5-1.1-1.3-1.9-2.2-2.5.9.7,1.6,1.4,2.2,2.5-.4,0-.8,0-1.1,0ZM385,155.2s0,0,0,0c1.6,3.1,3.3,6.1,7.5,5.9,0,0,0,0,0,0-4.2.2-5.9-2.8-7.5-5.9ZM397.7,165.1h0c.7,3.5,3.7,4.9,6.2,6.9-2.5-2-5.5-3.4-6.2-6.9ZM397.8,165.2c10,6.7,19.3,14.2,28.3,22-9.1-7.8-18.4-15.3-28.3-22ZM442,200.7c1.9,3.7,4.9,6.4,7.9,9.1-3-2.7-6-5.5-7.9-9.1ZM446.7,194.1c0-.3.1-.5.3-.8h0c-.2.3-.3.6-.3.8ZM446.7,165.9c.6,1.3,0,2.4-.9,3.3v.2c-.1.8-.2,1.5-.3,2.3-.4.4-.6.9-.5,1.4-.4.4-.9.8-1.3,1.2,0,0,0,0,0,0l1.3-1.2c0-.6,0-1,.5-1.4.1-.8.2-1.5.3-2.3v-.2c-.4-1.3.1-2.3.9-3.3.3-8.4,3.8-15.3,9.2-21.5,5.7-8.7,12.9-15.6,22.8-19.2,0-.4,0-.7,0-1.1,0,0,0,0,0,0h0c0,.4,0,.7,0,1.1,0,0,0,0,0,0-9.9,3.7-17.1,10.6-22.8,19.2,4.5-2.5,7.5-6.7,11.1-10.1,4.4-4.1,9.4-4.5,15.1-2.1,0,0,0,0,0,0-5.7-2.4-10.7-2-15.1,2.1-3.7,3.4-6.7,7.6-11.2,10.1h0c-5.4,6.2-9,13.1-9.2,21.5ZM464.6,221.5s0,0,0,0c.5-.4.4-.8-.3-.9,0,0,0,0,0,0,.7.1.8.4.3.9ZM481.2,226.8s0,0,0,0c1.4,2.2,3.1,3.5,5.5,2.8-2.4.7-4.2-.6-5.5-2.8ZM491.7,233c-.3.5-.5.9-.8,1.4.2.6.4,1.3.4,1.8,0-.5-.2-1.2-.4-1.8-1.6.7-2.4,1.8-1.7,3.5h0c-.6.8-1.3,1.5-1.9,2.3,0,0,0,0,0,0-1.5,1.1-2.9,1.6-4.3,1.5,1.4.1,2.7-.4,4.2-1.5.6-.8,1.3-1.6,1.9-2.3-.7-1.8,0-2.9,1.7-3.6.3-.5.5-.9.8-1.4-1.3-1.2-2.6-2.4-3.8-3.6,0,0,0,0,0,0,1.3,1.2,2.6,2.4,3.8,3.6.6-.8,1.3-1.6,1.9-2.4,0,0,0,0,0,0,0,0,0,0,0,0-.6.8-1.3,1.6-2,2.4ZM463.2,194.9c-.8-1.3-1.9-2.5-2.9-3.8.4-2.9-2.5-5.4-1.2-8.4-3.9-12.2.7-23.5,4-34.9-.2-1.8,0-3.2.5-4.5-.5,1.2-.7,2.7-.5,4.4.7-.9,1.4-1.9,2.2-2.8,27.3-19,52.8-15.4,73.5,10.5.8,1,1,2.3,1.5,3.5.7,1.5,1.6,2.9,1.7,4.5,0-1.6-1-3-1.7-4.5-4.1,2.3-8.6,2.4-13.1,2.8-7.8.6-15.8.2-23.2,3.6h0c2.6,7.1,8.1,12.5,11.7,18.9.4.8.9,1.4,1.4,1.9-.5-.5-.9-1.1-1.4-1.9-3.7-6.5-9.1-11.8-11.7-18.9-1.7-1.3-3.4-3-5.9-1.5,10.4,14.5,21.2,28.8,35.1,40.3h0c1.8.5,2.1-.7,2.8-2,1.3-2.5,2.5-5,3.5-7.6-1,2.6-2.2,5.1-3.5,7.6-.6,1.2-1,2.5-2.8,2-24.5,15.9-53.1,17.9-70.1-9.2ZM526.8,215.6c-.9.7-1.4,2-1.7,3.5,0,0,0,0,0,0,.3-1.6.9-2.9,1.8-3.6ZM519.3,297.8c-.6-.7-1.3-1.5-1.9-2.2h0c.8-9.9-3.7-18.7-6.3-27.8-3.6-12.5-6.5-25.3-12.8-36.9,0,0,0,0,0,0,6.2,11.6,9.1,24.4,12.8,36.9,2.7,9.1,7.1,17.9,6.3,27.8.6.7,1.3,1.5,1.9,2.2h0ZM519.3,297.8h0c.5-.4,1.1-.7,1.6-1.1,14.8-37.9,30-75.6,37.7-115.8.2-1.3.8-2.5,1.2-3.8h0s0,0,0,0c-.4,1.3-.9,2.5-1.2,3.8-7.7,40.2-22.9,78-37.7,115.8.9.8,1.7,1.2,2.6,1.3-.8,0-1.7-.4-2.6-1.3-.5.3-1.1.7-1.6,1ZM548,287.6c-2.3,1.5-4.4,3.2-6.8,4.7,0,0,0,0,0,0,2.3-1.5,4.5-3.2,6.8-4.7ZM534.6,296s0,0,0,0c0,0,0,0,0,0,0,0,0,0,0,0ZM534,296c-1.3,0-2.2.8-3,1.7-.6.4-1.3.8-1.9,1.2.6-.4,1.2-.8,1.9-1.2.8-1,1.8-1.7,3.1-1.8ZM451.3,313.6c-.7,0-1.5.1-2.2.2h0c.7,0,1.5-.1,2.2-.2v-.2c.1,0,.1,0,.1,0h0s-.1.2-.1.2ZM524.3,301.8c-6.6,8.8-5.7,19.5-7.2,29.5-.8,5.2-1.3,10.5-3.1,15.5.1.3.2.7.3,1,0-.3-.2-.6-.3-1-3,2.7-6.2,1.4-8.9-.3-17.8-11.2-34.8-23.7-53.6-33.1h0c18.9,9.4,35.8,21.9,53.6,33.1,2.7,1.7,5.8,3,8.9.3,1.8-5,2.2-10.3,3.1-15.5,1.5-10,.6-20.7,7.2-29.5h0c.1-.1.3-.3.4-.4-.2,0-.3.2-.4.4ZM525.3,301.2s0,0,0,0c.5-.8,1.2-1.4,2-1.7-.8.4-1.4,1-2,1.7ZM527,301.1c.8-.3,1.4-1.1,1.8-2,0,0,0,0,0,0,0,0,0,0,0,0-.4,1-1,1.7-1.8,2ZM548.2,387.7c-.2-.7-.4-1.4-.7-2.1h0c.2.7.4,1.4.7,2.2,0,0,0,0,0,0ZM547.5,385.4h0c15.7-11,31.1-22.3,46-34.4-6.1-3-12.4-1.2-18.6-1-15,.4-30,.8-45.1,1.3-.4.4-.8.9-1.2,1.3,0,.7.1,1.4.2,2.2,0,0,0,0,0,0,0-.7-.1-1.5-.2-2.2.4-.4.8-.9,1.2-1.3.6-4.5,3.4-7.7,6.4-10.7,17.8-17.8,35.5-35.5,53.2-53.3,3.8-3.8,8.2-6.6,12.9-9.1,6.5-5.7,13-11.4,19.4-17.1,6.2-8.3,13.5-15.5,22.4-21,.6-.4,1.9.4,2.9.7h0c.9-.5,1.8-1.1,2.6-1.6.8-.7,1.7-1.4,2.5-2.1.5-2.4,2.5-3.6,4-5.2.3.3.6.6,1,.9,2-2.4,5.6-3,6.9-6.2h0c-4.2-.6-5.1,3.7-7.8,5.3,0,0,0,0,0,0,2.7-1.7,3.6-5.9,7.8-5.3.3,0,.5.1.7.4-.2-.2-.4-.3-.7-.3-1.3,3.2-4.8,3.8-6.9,6.2-1.7,1.5-3.3,2.9-5,4.4-.8.7-1.7,1.4-2.5,2.1-.3,1.2-1,1.8-2.1,1.7,1.1,0,1.8-.5,2.1-1.7-.9.5-1.8,1.1-2.6,1.6h0c-7.9,7.4-15.7,15-25.3,20.3-6.5,5.7-13,11.4-19.4,17.1-4.9,5-9.9,10-14.8,15,0,0,0,0,0,0,0,0,0,0,0,0,4.9-5,9.9-10,14.8-15-4.7,2.5-9.1,5.3-12.9,9.1-17.7,17.8-35.5,35.6-53.2,53.3-3,3-5.8,6.2-6.4,10.7,15-.4,30-.9,45.1-1.3,6.2-.2,12.6-1.9,18.6,1,4,0,3.5,3.3,4.2,5.8.7,1.3,1.4,2.6,2.2,3.9,0,0,0,0,0,0-.7-1.3-1.4-2.6-2.2-3.9,0,0,0,0,0,0-.7-2.4-.2-5.7-4.2-5.8h0c-14.9,12.1-30.3,23.4-46,34.4ZM597.6,348.3s0,0,0,0c-1-3.7-2-7.3-2.9-11,.9,3.7,1.9,7.3,2.9,11,0,0,0,0,0,0ZM587,294.7s0,0,0,0h0s0,0,0,0ZM278.7,349.5c.4-1.5.9-2.9,1.6-4.4-.7,1.5-1.2,2.9-1.6,4.4ZM411.8,497.8h-.3c0,0,0,0,0,0-1.1-1.2-2-.7-2.9.1.8-.8,1.7-1.3,2.9-.1,0,0,.3,0,.3,0,14.2,1.5,28.4.7,42.5-.7-14.1,1.4-28.3,2.2-42.5.7ZM460.4,459c-.4-.2-.8-.4-1.2-.4,0,0,0,0,0,0h0c.4,0,.8.2,1.2.4,0,0,0,0,0,0,.5.3,1,.4,1.4.4-.4,0-.9,0-1.5-.4ZM452.6,440.2s0,0,0,0c-8,3.9-13.7,10.9-20.9,15.9-.3.4-.7.7-1.2,1-.5.2-.7.5-.8,1,0,0,0,0,0,0-8.7,10.9-14.6,23.6-22.5,35-1.1,1.6-2,4,1,5.2,0,0,0,0,0,0,.4.2.9.3,1.3.3-.4,0-.8,0-1.3-.3-3-1.2-2.1-3.6-1-5.2,7.9-11.4,13.8-24.1,22.5-35,0-.5.4-.8.8-1,.2-.7.3-1.3.5-2-38.4-38.5-76.9-76.9-115.4-115.4,0,0,0,0,0,0-1-5.7-2.3-11.3-2.2-16.9,0,5.5,1.2,11.2,2.2,16.8,38.4,38.5,76.9,76.9,115.4,115.4-.2.6-.3,1.3-.5,1.9.5-.2.9-.5,1.2-1h0c-.2-.3-.4-.7-.6-1h0c.2.3.4.6.6,1,7.2-5,12.8-12.1,20.9-16,3-5.2,7.6-4.9,12.5-3.4,11.8,3.7,23.6,7.4,35.5,11.1,0,0,0,0,0,0h0s0,0,0,0c0,0,0,0,0,0h0c2.7,1.2,5.5,2.5,8.2,3.8,24.2-.6,48.3-2.2,72.5-1.6l-.4-3.4s0,0,0,0c0,0,0,0,0,0,.1,1.1.2,2.3.4,3.4h0c-24.2-.6-48.3,1-72.5,1.6-2.7-1.3-5.5-2.5-8.2-3.8-11.8-3.7-23.6-7.4-35.5-11.1-4.9-1.5-9.4-1.8-12.5,3.4ZM570.9,466.6c-6.4,9.5-12.5,19.2-18.5,29,5.9-9.8,12-19.5,18.5-29ZM549.1,498.8c-.9,0-1.9-.5-3.1-2.1,1.1,1.5,2.1,2.1,3.1,2.1ZM470.2,495.4s0,0,0,0c.9.3,1.7.5,2.6.4-.8,0-1.7-.1-2.6-.4ZM506.8,522.1h0c12.8,2.8,25.1,4.5,37.2,7.1,6.2,1.4,12.2.8,18.3,1.4,8.9.9,17.3,2.6,24.5,7.6-7.2-5-15.6-6.7-24.5-7.6-6.1-.6-12.2,0-18.3-1.4-12.1-2.6-24.4-4.3-37.2-7.1ZM606.1,629.5s0,0,0,0c-19-19-38-38-57.1-57.1h0c19.2,19.2,38.1,38.1,57.1,57.1ZM478.7,700.5c1.5,1.1,2.9,2.2,4.4,3.3-1.5-1.1-2.9-2.2-4.4-3.3ZM530.1,803.7c-2.1,0-4-.5-3.8-4,.1-2.8.2-5.7.4-8.5-.1,2.8-.2,5.7-.4,8.5-.2,3.5,1.7,4,3.8,4ZM529.4,694.5c0-2.4-.2-4.6-3-5.8-15.9,3.9-31.8,7.9-47.7,11.8h0s0,0,0,0c15.9-3.9,31.8-7.9,47.7-11.8.5-.2,1-.5,1.5-.7-.5.2-1,.5-1.5.7,2.8,1.2,3,3.5,3,5.8ZM534,685.2h0s0,0,0,0h0ZM570.8,667.7c-11.6,5.6-23.3,10.9-34.1,18.1,10.7-7.2,22.5-12.5,34.1-18.1v-.2c0,0,0,.2,0,.2,0,0,0,0,.1,0,0,0,0,0-.1,0ZM570.8,667s0,0,0,0h0c-12.3-9-24.5-18.1-38.2-28.1,0,0,0,0,0,0,13.7,10.1,25.9,19.1,38.2,28.1,11.8-6.1,23.6-12.2,35.5-18.4,0,0,0,0,0,0-11.8,6.1-23.6,12.2-35.5,18.4ZM547.9,634.3c20.2,1.1,40.4,2.2,60.6,3.4-20.2-1.2-40.4-2.3-60.6-3.4ZM602.2,617.3c1.4.6,2.9,1.2,4.3,1.8-1.4-.6-2.9-1.2-4.3-1.8,13.4-9.1,26.8-18.2,40.2-27.4-10.8-10.8-20.9-22.3-32.8-32h0c-1.5-.3-2.8-.8-4-1.4,1.2.6,2.5,1.1,4,1.4-17.6-18-35.3-36-52.9-54-15.2-1.8-30.5-3.7-45.7-5.4-11.9-1.3-23.9-1.2-35.7-3.6,0,0,0,0,0,0,.3-4.9,4.7-6.8,7.3-10,8.2-10.4,17.5-19.9,24.1-31.5,0,0,0,0,0,0,.3-.2.7-.4,1-.6,0,0,0,0,0,0-.3.2-.6.4-1,.6-6.5,11.6-15.9,21.1-24.1,31.5-2.6,3.2-7,5.2-7.3,10,11.8,2.4,23.8,2.3,35.7,3.6,15.3,1.6,30.5,3.6,45.7,5.4,10.5-2.8,21.6-3,31.8-7.4,0,0,0,0,0,0,10.5-1.3,20-7.1,30.9-7.1,2.7-2.9,6.8-2.2,9.9-4,1.4-.8,3.5-1,4.2-2.4-.7,1.4-2.8,1.6-4.2,2.4-3.1,1.7-7.2,1.1-9.9,4,4.3,5.3,8.6,10.7,12.9,16,3.2-4,9.5-2.8,12.4-7.4-.4-24-.8-48.1-1.3-72.1-.1-4.8-.7-9.6-1-14.3-8.5,3.2-16.7,9.2-26.3,3.4,0,0,0,0,0,0,9.7,5.8,17.8-.2,26.3-3.4,0-.8,0-1.7,0-2.6-.6-.7-1.2-1.3-1.7-2,1.1-6.2-4.8-7.7-7.6-11.3-.2.8-.2,1.5-.2,2.2,0-.7,0-1.4.2-2.2-.7-.8-1.4-1.5-2.1-2.3h0c-5.3-11.1-13.7-20-20.9-29.8-1.1-1.5-2.3-3.1-3.5-4.6,1.2,1.5,2.4,3,3.5,4.6,7.2,9.8,15.6,18.7,20.9,29.8.7.8,1.4,1.5,2.1,2.3,2.8,3.6,8.7,5.1,7.6,11.3.6.7,1.2,1.3,1.8,2,0,.9,0,1.7,0,2.6h0c.4,4.8.9,9.6,1,14.4.5,24,.8,48,1.3,72.1,0,0,0,0,0,0-2.9,4.6-9.2,3.4-12.4,7.4,8.8,12.8,19.4,24.3,29.1,36.4,13.5,17,28.2,32.9,40.9,50.6-4,2.4-8.3.6-12.4.5-15-.3-29.8-3.3-44.9-1.9,7.6,9.2,17.2,16.3,26,24.2h0c0,0,.1,0,.2,0,0,0-.1,0-.2,0h0s0,0,0,0c-8.8-8-18.4-15-26-24.2-.8-.4-1.7-.8-2.5-1.1-13.4,9.1-26.8,18.2-40.2,27.4ZM640.3,630.3s0,0,0,0c11.9,3.7,23.7,7.6,35.7,10.8,6.6,1.8,13,5,20,4.6-7.1.4-13.5-2.8-20.1-4.6-12-3.2-23.8-7.2-35.7-10.8ZM658.3,705.1c1.1-.5,2.4-.5,3.7-.8-1.2.3-2.5.3-3.7.8ZM662,704.3s0,0,0,0h0c.6-1,.8-1.8.7-2.3,0,.5-.1,1.3-.7,2.3ZM750.7,774.7l-48.3-48.3-48-48s0,0,0,0l48,48,48.3,48.3s0,0,0,0ZM717.9,593.9c-.6,0-1.1.1-1.4.6-.8.8-1.6,1.7-2.4,2.5,4.7,4.1,4.8,10.1,5.7,15.4,2.2,13.3,6,26.2,8.8,39.4.4,1.8,0,3.6,0,5.5.6.3,1.2.5,1.8.8,0,0,0,0,0,0,6,9.8,9,20.8,13.2,31.4,0,.2-.7.7-1.1,1-6.4-8.2-14.1-15.1-21.8-22.1-4.3,4.4-9.4,8-12.3,13.7-.9,1.7-1.9,2.7-3.2,3.3,1.3-.6,2.4-1.6,3.2-3.3,2.9-5.7,8-9.3,12.3-13.7-6.3-6.6-12.6-13.2-18.9-19.8-1.9-.2-3.1-1.5-4.2-2.9,0,0,0,0,0,0,1.2,1.3,2.3,2.7,4.2,2.9,9.4,1.7,17.4,7.4,26.9,8.7,0-1.8.3-3.7,0-5.5-2.8-13.2-6.6-26.1-8.8-39.4-.8-5.2-1-11.3-5.7-15.4.8-.8,1.6-1.7,2.4-2.5-4.2-2.6-9.5,3.4-13.3-1.9,3.8,5.3,9.2-.7,13.3,1.9.4-.4.9-.6,1.4-.5,26.1-6.8,52.2-13.5,78.3-20.3,4.7-1.2,7.3.4,7.1,5.5,7.4,20.3,12.6,41.3,18.4,62,1.7,6.2,3.4,12.5,5,18.7-1.7-6.2-3.3-12.5-5-18.7-5.8-20.8-11-41.7-18.4-62-2.4,2-4.3,4.4-5.9,6.9,1.6-2.5,3.5-4.9,5.9-6.9.1-5.1-2.5-6.7-7.1-5.5-26.1,6.8-52.2,13.5-78.3,20.3ZM774,652.2c.3,13.8.9,27.7,1.1,41.6.2,11.7,0,23.5-2,35.1-.5,2.7-1.1,5.5.5,6.1-1.6-.6-1-3.4-.5-6.1,2-11.6,2.2-23.4,2-35.1-.2-13.8-.8-27.7-1.1-41.6,0-3.2-.7-6.4,1-9.4,0,0,0,0,0,0h0c18.1,14.6,35.3,30.1,51.8,46.4,3.4,3.4,6.9,6.7,11,9.2,0,0,0,0,0,0,0,0,0,0,0,0h0s0,0,0,0c-.6.7-1.3,1.4-1.9,2.1v.4c0,0,0,0,0,0-2.6,2.7-5.6,4.8-8.8,6.8-3.1,2-6.2,4-9.3,6,3.1-2,6.2-4,9.3-6,3.2-2,6.2-4.1,8.8-6.8v-.3c0,0,0,0,0,0,.6-.7,1.3-1.4,1.9-2.1-4.2-2.5-7.6-5.8-11-9.2-16.5-16.3-33.7-31.9-51.8-46.4-1.6,3-1,6.3-1,9.5ZM821.1,872.4h0s0,0,0,0c0,0,0,0,0,0ZM803.6,793.2c-.8,1.8-1.9,3.2-3.5,4.2h0s0,0,0,0h0c-.3.1-.6.2-.9.3.3-.1.6-.2.9-.3-6.5-12.4-13.1-24.9-19.6-37.3,6.5,12.4,13.1,24.9,19.6,37.3,1.6-1,2.8-2.4,3.5-4.2,12.7-31,25-62.2,35.8-94,0,0,0,0,0,0,0,0,0,0,0,0-10.8,31.8-23.1,62.9-35.8,94ZM947.5,675c-27.1,6.2-53.8,14.3-81.1,19.4-8.3,1.5-16.6,3.4-24.9,5.1,2.8,4.9,5.6,9.7,8.3,14.7,15.7,29.1,32.6,57.5,50.6,85.3,0,0,0,0,0,0-18-27.7-34.9-56.1-50.6-85.3-2.7-4.9-5.5-9.8-8.3-14.7-.6-.4-1.2-.8-1.8-1.2h0c-.2,0-.4.2-.7.4,0,0,0,0,0,0,0,0,0,0,0,0,.3-.1.5-.3.7-.5-1-2.3-2-4.6-2.9-6.9.9,2.3,1.9,4.6,2.9,6.9h0s0,.1,0,.1c0,0,0,0,0,0,.6.4,1.2.8,1.8,1.2,8.3-1.7,16.6-3.5,24.9-5.1,27.4-5.1,54-13.2,81.1-19.4,1.8-.4,3.9-.9,4.3-1.9-.5,1-2.5,1.5-4.3,1.9Z"/>
    <polygon class="st0" points="264.5 437.6 264.5 437.6 264.5 437.6 264.5 437.6"/>
    <polygon class="st0" points="530.2 737.6 530.2 737.6 530.2 737.6 530.2 737.6"/>
    <path class="st0" d="M397.9,194.6c-1.6-1.7-2.8-3.9-5.6-3.7,0,0,.1.1.2.2,0,0-.1-.2-.2-.2-13-10.6-26-21.2-38.9-31.9-2.6-2.2-4.7-5-7.1-7.6-4.9,1.7-2.8,4.9-1.5,7.7,5.5,11.8,11.5,23.4,18.4,34.5,11.1,17.9,21.7,36.1,34.8,52.7,6.5-5.7,9.6-13.8,13.9-20.9,2.7-4.4,5-8.7,10.5-9.9,1.4-3.3-1.4-3.8-3.3-5.1-6.5-4.3-13.6-7.8-19-13.7h0c-.7-.7-1.5-1.4-2.3-2.1Z"/>
    <path class="st0" d="M667.8,228.9s0,0,0,0h0s0,0,0,0Z"/>
    <path class="st0" d="M694.8,195.4c-4,.8-7.2,2.8-9.8,5.9,2.3.6,5,.2,6.8,2.4.7-.6,1.5-1.1,2.2-1.7,0,0,0,0,0,0,1.8-1.5,3.5-3,5.3-4.4,7.3-5.3,15-10,21-17-9.8.4-15.8,7.6-22.9,12.8h0c-.9.7-1.7,1.4-2.6,2.1-1.2,1.1-1.9,2.3-2,3.5,0-1.2.8-2.4,2-3.5Z"/>
    <path class="st0" d="M547.9,885.3c-1.7-1.6-3.3-3.1-5-4.7,0,0,0,0,0,0,1.7,1.6,3.3,3.1,5,4.7h0c-.9-2.5-1.8-5-2.7-7.6l-1.3,1.6c.4-.5.8-1.1,1.3-1.6-5-22.9-14-44.6-19.7-67.2-.3-1.4-1.8-2.5-2.8-3.7,0,0,0,.1-.1.2,0,0,.1-.1.1-.2-.6-3.9-1-7.7-2.8-11.4-8.5-18.1-16.4-36.5-24.9-54.7-5.8-12.5-10-25.9-18.2-37.2h0c-2.8,22.2-4.5,44.6-8.4,66.7-.4,2.5-.5,4.8,1.9,6.5,8.9,4.3,18,8.3,26.6,12.9-8.7-4.7-17.8-8.6-26.6-12.9,5.2,11.9,10.2,23.8,15.6,35.6,3.9,8.6,6.3,18,12,25.8,9.4-8.9,15.6-20.4,23.8-30.2h0c-8.3,9.8-14.4,21.3-23.8,30.2.2,1.3.1,2.7,1.7,3.3,0,0,0,0,0,0,9.3,8.8,18.7,17.5,28,26.3,3.1,3,6.2,5.9,9.2,8.9,0-.3-.2-.6-.3-.9.1.3.2.6.3.9,1.2,1.1,2.4,2.2,3.5,3.3,2.4,2.5,4,6,8.1,6.4-.2-.4-.4-.7-.8-.9ZM528.7,866.8c-.3.3-.7.5-1,.8.3-.3.6-.6,1-.8h0s0,0,0,0h0s0,0,0,0c0,0,0,0,0,0Z"/>
    <path class="st0" d="M891.5,840.6c-.7-2.2-2.5-3.5-4.3-4.7-.2,3.1,1.3,4.6,4.3,4.7Z"/>
    <path class="st0" d="M647,240.8c-1-.3-2.3-1.1-2.9-.7-8.9,5.4-16.1,12.7-22.4,21,9.6-5.3,17.3-12.9,25.3-20.3h0Z"/>
    <path class="st0" d="M656.2,231.8h0c-1.5,1.6-3.5,2.8-4,5.2,1.7-1.5,3.3-2.9,5-4.4-.3-.3-.7-.5-1-.9Z"/>
    <path class="st0" d="M552.6,182.9c2.2-3,2-6,.2-9-2.5,3-2.3,6-.2,9Z"/>
    <path class="st0" d="M445.8,169.2c.9-.9,1.5-2,.9-3.3-.8,1-1.4,2-.9,3.3Z"/>
    <path class="st0" d="M612.9,470.4c-1.4-.8-2.7-1.7-4.1-2.5.7,1.8,1.7,3.2,4.1,2.5Z"/>
    <path class="st0" d="M674.8,433.9c-1.1-3.2-4.2-3.5-6.8-4.7,1.6,2.6,2.9,5.4,6.8,4.7Z"/>
    <path class="st0" d="M495.9,162c-5.1-5-11.6-7.3-18.2-9.5,2,7.6-5.8,7.7-9,11.3-1.3,1.4-2.9,2.5-2.4,4.6.2.6.4,1,.7,1.3-.3-.3-.6-.7-.7-1.3-.5-2.1,1.1-3.2,2.4-4.6,3.2-3.6,10.9-3.7,9-11.3-3.8-3-9-3.8-12.5-7.5-.7.9-1.4,1.9-2.2,2.8-3.3,11.4-7.9,22.7-4,34.9,12.7-6.8,27.3-9.8,39-18.8-.7-.6-1.5-1.3-2.2-1.9h0Z"/>
    <path class="st0" d="M93.8,388.1c-.8,3-1.8,6.1-2.6,9.1,4.4-4.1,8.8-7.6,13.7-11.1-9.6-7.2-7-2.6-11.1,2Z"/>
    <path class="st0" d="M219.6,525.6c-.1,0,0,1.8-1,2-1.5.2-28-1.3-29.3-2-.2,0-.4-.2-.5-.3.1.1.3.2.5.3,1.3.6,27.9,2.2,29.3,2,1-.1.9-1.9,1-2,0-.8-.5-.6-.7-.7h0c-1.7-3.7-3.5-7.4-5.2-11.1-6.1-.9-12.1-2.1-18.2-2.6h0c-5.4,5.3-10.9,10.7-16.3,16,2.9,4.8,14.3,6.5,2.9,12-2,1-3.4,1.6-4.2,1.8,15.8-.8,32.2-6.5,45.6-14.9-1.7-.1-3.7-.7-3.9-.7Z"/>
    <polygon class="st0" points="257.3 397.2 257.3 397.2 257.3 397.2 257.3 397.2"/>
    <polygon class="st0" points="263.2 464.3 263.2 464.3 263.2 464.3 263.2 464.3"/>
  </g>
  <g>
    <path class="st1" d="M143.8,835.8h-18l-5.6-18.8c-1.1-3.9-2.3-6.9-3.4-9-1.1-2.1-2.7-3.8-4.6-4.9-1.9-1.1-4.5-1.7-7.7-1.7h-12.2v34.4h-17.1v-84.7h34.2c10.3,0,17.9,2,22.9,6.1s7.4,10.4,7.4,19.1-1.5,10-4.4,13.4-7,5.6-12.2,6.5c4.1,1.4,7.2,3.8,9.3,7.1s4,8,5.8,13.8l5.6,18.6h0ZM119.1,785.2c2.4-2,3.6-4.9,3.6-8.9s-1.2-6.9-3.6-8.9c-2.4-2-5.4-3-9.1-3h-17.7v23.7h17.7c3.7,0,6.8-1,9.1-3h0Z"/>
    <path class="st1" d="M160.9,829c-4.7-4.5-7-11-7-19.6v-31.9c0-8.5,2.3-15.1,7-19.6,4.7-4.5,12.4-6.8,23.1-6.8h28.3v13.3h-28.3c-4.4,0-7.7,1-9.9,3.2-2.1,2.1-3.2,5.4-3.2,9.9v9.3h36.1v13.3h-36.1v9.3c0,4.4,1.1,7.7,3.2,9.9,2.1,2.1,5.4,3.2,9.9,3.2h28.6v13.3h-28.6c-10.7,0-18.4-2.3-23.1-6.8h0Z"/>
    <path class="st1" d="M230.7,829.5c-6.1-5.2-9.1-12.9-9.1-23v-25.9c0-10.2,3-17.8,9.1-23,6.1-5.2,14.9-7.8,26.4-7.8s15.1,1.3,20.4,4c5.3,2.7,9.5,6.6,12.5,11.9l-13,8.8c-2.5-4-5.2-6.9-8-8.7-2.8-1.8-6.8-2.7-12-2.7s-11.1,1.5-14.1,4.4c-2.9,3-4.4,7.3-4.4,13.1v25.9c0,5.8,1.5,10.2,4.4,13.1,2.9,3,7.6,4.4,14.1,4.4s9.9-1,12.9-2.8c2.9-1.9,4.4-4.7,4.4-8.3v-3.8c0-5-2.3-7.5-6.9-7.5h-13.8v-13.3h18.6c6.5,0,11.2,1.5,14.3,4.5,3.1,3,4.6,7.6,4.6,13.9v7.4c0,7.3-3.1,13-9.2,17.1s-14.4,6.2-24.9,6.2-20.4-2.6-26.4-7.8h0Z"/>
    <path class="st1" d="M309.9,829c-4.7-4.5-7-11-7-19.6v-31.9c0-8.5,2.3-15.1,7-19.6,4.7-4.5,12.4-6.8,23.1-6.8h28.3v13.3h-28.3c-4.4,0-7.7,1-9.9,3.2-2.1,2.1-3.2,5.4-3.2,9.9v9.3h36.1v13.3h-36.1v9.3c0,4.4,1.1,7.7,3.2,9.9,2.1,2.1,5.4,3.2,9.9,3.2h28.6v13.3h-28.6c-10.7,0-18.4-2.3-23.1-6.8h0Z"/>
    <path class="st1" d="M445.8,751.1v64.7c0,6.5-1.3,11.5-4,14.9-2.7,3.4-6.9,5.1-12.8,5.1h-12l-24.9-57.7v57.7h-16v-84.7h19.2l30.7,70.2h.2c1.4,0,2.3-.6,2.8-1.8s.7-3.3.7-6.3v-62.1h16Z"/>
  </g>
  <g>
    <path class="st1" d="M90.1,919.3c-4.4-2-8.2-5.1-11.6-9.5l2.5-2.3c3.2,4.2,6.7,7.3,10.4,9s8.5,2.6,14.4,2.6,13.8-1.6,18.2-4.8c4.4-3.2,6.5-7.7,6.5-13.4s-.8-5.9-2.4-8c-1.6-2.1-4.3-3.9-8.1-5.3-3.8-1.5-9.3-2.9-16.4-4.2-8.1-1.5-14-3.9-17.6-7.1s-5.4-7.6-5.4-13.2,1.1-7.3,3.2-10.4c2.1-3,5.1-5.4,8.9-7.1,3.8-1.7,8.2-2.5,13.1-2.5,12.2,0,20.8,4,25.7,12l-2.6,2.1c-2-3.6-4.9-6.3-8.9-8.2-3.9-1.9-8.7-2.8-14.2-2.8s-7.9.7-11.2,2.2c-3.3,1.5-5.9,3.5-7.7,6.2-1.8,2.6-2.8,5.6-2.8,8.9s1.8,8.2,5.3,10.9c3.6,2.7,9.2,4.8,16.9,6.2,7.1,1.2,12.7,2.7,16.6,4.4s6.8,3.8,8.5,6.4c1.7,2.6,2.6,5.9,2.6,10,0,6.8-2.4,11.9-7.3,15.6s-11.9,5.5-21,5.5-11.4-1-15.8-3h0Z"/>
    <path class="st1" d="M167.5,847.3h-26v-3.1h55.4v3.1h-26v73.9h-3.5v-73.9h0Z"/>
    <path class="st1" d="M216.7,916.7c-5.1-3.7-7.6-8.8-7.6-15.2v-57.3h3.5v57.3c0,5.4,2.3,9.7,6.8,12.9,4.5,3.2,10.5,4.8,18.1,4.8s13.6-1.6,18.1-4.8c4.5-3.2,6.8-7.5,6.8-12.9v-57.3h3.5v57.3c0,6.4-2.5,11.4-7.6,15.2-5.1,3.7-12,5.6-20.7,5.6s-15.6-1.9-20.7-5.6h0Z"/>
    <path class="st1" d="M285.1,844.2h26.6c7.8,0,13.9,1.2,18.5,3.7,4.5,2.5,7.9,6.5,9.9,12.1,2,5.6,3.1,13.1,3.1,22.7s-1,17.1-3.1,22.7c-2,5.6-5.4,9.6-9.9,12.1s-10.7,3.7-18.5,3.7h-26.6v-77h0ZM311.7,918.1c7,0,12.5-1.1,16.5-3.4,4-2.3,7-6,8.8-11.1s2.7-12.1,2.7-20.9-.9-15.7-2.8-20.8-4.8-8.9-8.8-11.2-9.5-3.5-16.4-3.5h-23.1v70.8h23.1,0Z"/>
    <path class="st1" d="M361.3,844.2h3.5v77h-3.5v-77Z"/>
    <path class="st1" d="M391.2,915c-5.1-4.8-7.6-11.7-7.6-20.7v-23.3c0-9,2.5-15.8,7.6-20.7,5.1-4.8,12.4-7.3,21.8-7.3s16.7,2.4,21.8,7.3c5.1,4.8,7.6,11.7,7.6,20.7v23.3c0,9-2.5,15.8-7.6,20.7-5.1,4.8-12.4,7.3-21.8,7.3s-16.7-2.4-21.8-7.3ZM432.2,912.8c4.5-4.3,6.8-10.4,6.8-18.4v-23.3c0-8-2.2-14.1-6.8-18.4s-10.9-6.4-19.2-6.4-14.7,2.2-19.2,6.4-6.8,10.4-6.8,18.4v23.3c0,8,2.2,14.1,6.8,18.4,4.5,4.3,10.9,6.4,19.2,6.4s14.7-2.1,19.2-6.4Z"/>
  </g>
</svg>