<?xml version="1.0" encoding="UTF-8"?>
<svg id="uuid-1e10164f-72c6-4459-8454-e8ece0d81c5c" xmlns="http://www.w3.org/2000/svg" version="1.1" viewBox="0 0 1059 1080">
  <!-- Generator: Adobe Illustrator 30.2.0, SVG Export Plug-In . SVG Version: 2.1.1 Build 105)  -->
  <defs>
    <style>
      .st0 {
        fill: #fff;
      }
    </style>
  </defs>
  <g>
    <g>
      <path class="st0" d="M552.6,633.6c-85.9-85.8-171.8-171.6-257.6-257.5,4.2-1.1,4.3-3.6,3-7.2-3-8-3.4-16,.2-23.9,7.7-8.7,17.1-10.1,27.8-6.9,1.6.5,3.5,1.8,5-.4.9.7,1.7,1.4,2.5,2,38.5,38.5,76.9,76.9,115.4,115.4-.2.6-.4,1.3-.5,2-.5.2-.7.5-.8,1-8.7,10.9-14.6,23.6-22.5,35-1.1,1.6-2,4,1,5.2,1.2.6,2.2.3,3.2-.5h.3c19.6,2,39-.4,58.5-2.5,1.7.7,3.4.6,5-.4,11.8,2.4,23.8,2.3,35.7,3.6,15.3,1.6,30.5,3.5,45.7,5.4,17.6,18,35.3,36,52.9,54.1-7.8-1.5-11.5-8.4-15.9-13.5-8.5-9.9-19.5-12.6-31.4-13.8-6.1-.6-12.2,0-18.3-1.4-15.5-3.4-31.2-5.2-48-9.8,37.6,37.6,73.8,73.8,110.1,110.1-1.5-3.2-4-5.6-6.3-8.1-3.5-3.8.4-3.5,2.4-4.2,12.3,5.4,25.1,9.4,38.1,13,11.9,3.7,23.7,7.6,35.7,10.8,7,1.9,13.8,5.4,21.5,4.5,1.2,1.3,2.3,2.7,4.2,2.9,6.3,6.6,12.6,13.2,18.9,19.8-4.3,4.4-9.4,8-12.3,13.7-2,3.8-5,4.3-9.4,3.5-14.4-2.7-29-4.7-44.6-7.1l48,48,48.3,48.3c.2-3.3.6-4.6.4-5.9-3.1-22.2-6.3-44.3-9.4-66.4-.6-4-2.4-8.2.7-12,.4-.3,1.2-.9,1.2-1-4.1-10.6-7.2-21.6-13.2-31.4,11.2-7.8,24.6-10.7,37.1-15.4,3.1,4.3,1,8.8,0,13-3.7,15.2-7.7,30.4-11.2,45.7-.8,3.8-2.6,8-.8,11.7,4.9,10,10.2,19.7,15.4,29.6-15,26.4-29.5,52.9-41.9,80.6l-1.6,1c-.4-.3-.8-.3-1.2-.2,0,0-.6.4-.6.4-23.4-23.4-46.7-46.8-70.1-70.2,3.8-15.5,7.3-31,11.6-46.4,1.6-5.7.3-9.3-3.3-13.5-8-9.3-15.4-19.1-23.1-28.7-7-8.6-12.5-18.6-21.8-25.2-2.2-3.4-5.7-2.5-8.7-2.6-25.1-1.5-50.2-2.8-75.3-4.2h0Z"/>
      <path class="st0" d="M745.2,824.2c.5-.3,1.1-.7,1.6-1,4.6,0,8.8-1.9,13-3.5,19.4-7.3,38.8-14.8,58.1-22.2,1.6-1,2.8-2.4,3.5-4.2,12.7-31,25-62.2,35.8-94,0-.3-.2-.5-.5-.6.3-.1.5-.3.7-.5h0c.6.5,1.2.9,1.8,1.4,2.8,4.9,5.6,9.7,8.3,14.7,15.7,29.1,32.6,57.5,50.6,85.3-2.8,1.4-5.8.7-8.7.7-27-.7-53.9-1.2-80.9-2.3-7-.3-8.8,1.6-7.1,8.2,5.9,22.1,11.6,44.3,17.3,66.5-.7.7-1.4,1.5-2.2,2.2-28.3-15.6-58.4-27.7-87.2-42.4-4.7-2.4-7.6-1.8-10,3.4-8.5,18.7-17.4,37.3-26.3,55.8-5.4,11.2-7.8,24-17.7,32.8l-.5-.2c-16.7-26.5-33.5-53.1-50.1-79.5-2.5,1-2.2,2.8-2.4,4.3-2.3,15.2-4.5,30.5-6.9,45.7-1.1,6.8-2.2,13.7-5.3,20-21-9.3-42.1-18.7-63.1-28,14.2-11.5,30.6-19.6,45.7-29.6,9.5-6.3,20.8-9.6,29.3-17.6,1.8-.5,3.6-1.2,5.4-1.3,26.9-1.4,53.3-6.6,80.1-9.7,5.3-.6,11.2-.2,15.8-4.1,0,0,.6-.4.6-.4.3.7.7.8,1.2.2h0Z"/>
      <path class="st0" d="M969.1,442.5c2.5,2,2.1,4.9,2.1,7.6-2.9,2.9-4.8,6.3-6.4,10-12.2,29.8-26.6,58.7-39.6,88.2-3,6.9-6.5,8.7-13.1,8.1-29.5-3-59-5.8-88.5-8.7-1.6-2.9-2-6-2.2-9.2-2-24.8-4.2-49.7-6.3-74.5-6-16.6-11.9-33.3-19.9-49-6.2-12.3-11.6-24.9-17-37.5-.7-1.7-2-3.3-.3-5.1,2.7,4.5,8.2,4.6,11.9,7.5,16.9,12.8,35.8,22.8,51.4,37.3,1.8,1.7,4,2.6,6.6,1.9,1.8.5,3.5,1.2,5.4,1.6,28.4,5.3,56.7,10.6,85.1,15.9,10.2,1.9,20.4,3.8,30.6,5.6h0ZM905.4,540.1c1.5,1.1,2.3,4.7,4.8,2.7,2.1-1.8-.2-3.7-1.2-5.5-9.7-18-19.6-35.9-29-54.1-9.2-17.7-19.4-34.9-29.8-51.9-2.8-4.6-5.6-5-8.7.3-5.7,9.6-11.8,18.9-18,28.2-1.6,2.5-1.8,4.2.3,6.3,6.5,6.4,12.3,13.6,19.6,18.9,22.5,16.3,40.7,37.5,62,55.1h0Z"/>
      <path class="st0" d="M823.7,547.8c29.5,2.9,59,5.7,88.5,8.7,6.6.7,10.1-1.2,13.1-8.1,13-29.5,27.3-58.4,39.6-88.2,1.5-3.7,3.5-7.2,6.4-10,3.5,10.4,4.8,21.3,7.1,32,7.7,35.4,10.6,71.4,15,107.2.7,5.5-1.7,10.5-2.9,15.7-5,21.3-10.7,42.5-16.2,63.7-.2.9-1.1,1.7-1.6,2.6-1.5-1.7-3-3.7-5.7-1.7-2.6-1.7-6-1.9-8.1-4.6-1-.3-2-.5-2.9-.8h.2c-1-.8-2-1.6-3.4-1-.5,0-.7,0-.7-.6-1.1-1.2-2.2-2.3-4-1.8h.2c-1-.9-2-1.8-3.5-1.1h0c-6.8-5.7-14.7-9.4-23.1-11.9-4.5-1.3-5.5-3.2-2-6.4,3-2.8,2.3-5.9,2.3-9.5-.3-12.9-5.8-24.9-6.2-37.7-.2-6.8-2.7-10.5-9.7-12.4-6.7-1.8-8.4,3-11.3,6.4-9.5,11.2-18.8,22.6-29.2,32.9-3.2,3.1-5.7,2.7-7.4-1.2-10.8-23.9-25.8-45.6-34.7-70.4.2-.6.3-1.1.5-1.7h0Z"/>
      <path class="st0" d="M969.1,442.5c-10.2-1.9-20.4-3.8-30.6-5.6-28.4-5.3-56.7-10.6-85.1-15.9-1.8-.3-3.6-1-5.4-1.5,12.7-34.1,30.3-65.9,45.3-98.9-.7-.4-1-.7-1.2-.6-24.3,8-47,20-70.8,29.4-13.5,5.3-26.8,11.7-39.9,18.2-4.3,2.1-5.9.6-5.7-3.9.5-10.1.7-20.3,1.2-30.5,1-20.5,2.5-41.1,3.1-61.6.2-8.6,2.2-17.4-1.1-25.9,22.2,11.2,42.8,25.2,64.1,38.1,15.1,9.1,29.7,19.2,45.1,27.9,8.2,4.7,11.2,12.8,15.6,19.9,22.2,35.6,44.5,71.2,64.4,108.1.5.9.7,2,1,3h0Z"/>
      <path class="st0" d="M779,245.4c3.3,8.5,1.3,17.3,1.1,25.9-.6,20.6-2.1,41.1-3.1,61.6-.5,10.1-.8,20.3-1.2,30.5-.2,4.5,1.4,6.1,5.7,3.9,13.1-6.5,26.4-12.9,39.9-18.2,23.8-9.4,46.5-21.3,70.8-29.4.2,0,.4.2,1.2.6-14.9,33-32.6,64.8-45.3,98.9-2.6.6-4.8-.3-6.6-1.9-15.6-14.5-34.5-24.5-51.4-37.3-3.8-2.9-9.2-3-11.9-7.5-1-.9-1.7-2.1-2.9-2.8-8.5-4.8-15.1-13.4-26.2-12.9-1.2-1-2.3-2-3.5-3-1.3-1.6-2.8-1.7-4.5-.5-1.9-1.7-3.9-3.4-5.8-5-5.2-2.6-9.6-6.8-15.8-7.1-1.9-1.1-3.8-2.2-5.7-3.3-.8,0-1.5-.2-2.3-.3-1.9-1.7-3.9-3.5-5.8-5.2-1.3-.8-2.3-.2-3.3.6-1.5-1.4-3.1-2.8-4.6-4.1-.5-3.6-9.6-3.4-5.1-8.4,8.3-9.3,17.5-17.9,26.8-26.2,11.9-10.5,24.3-20.5,36.5-30.7,3.1-2.6,4.6-6.1,1.5-8.9-4.8-4.3-6.4-10.2-9.8-15.1,10.6,1.2,21.1,2.7,31.3,5.9h0Z"/>
      <path class="st0" d="M386.4,126.2c13.6-5.2,28.2-6.1,42.3-8.8,26.5-5.2,53.2-9.5,79.7-14.9,9.4-1.9,17.6.2,25.2,5,10.3,6.6,22,11.3,30.6,20.5,3,3.2,6.2,2,9.7,1.1,41.3-11.8,83.1-10.4,125-4.4.7,0,1.3.8,2,1.2-1.8,6.1-4.2,11.9-7.1,17.6-4.5,9-7.8,18.6-11.6,27.9-10,17.3-15.8,36.7-26.4,53.7-4.8-1.1-7.3-5.2-10.6-8.2-25-23.5-44.6-52-69-76.2-6.4-6.4-12.2-10-20.7-4.6-9.6-3.4-16.7-11.9-27.4-12.9-2.7-2.3-5.6-3-8.9-1.3-.8,0-1.5,0-2.3,0h-2.3c-3.6-1.8-7-1.3-10.1,1.1-2.2-1.1-4.1-.5-5.8,1.2-.8,0-1.5,0-2.3,0-1.8-.2-3.7-.8-5.4-.6-19,2.3-38,4.8-57,7.3-2.3-1-4.6-.3-7-.1-11.5,1-23.1,1.9-34.7,2.6-4.7.3-8.5-.9-5.9-7.1h0Z"/>
      <path class="st0" d="M448.9,455.2c-38.5-38.5-76.9-76.9-115.4-115.4-2.2-12.1-5.3-24.3,4.8-34.6,11-6.7,21.5-3.4,32,1.7,2.3-1.5-.6-4,1.2-5.9.5.3,1.3.5,1.7,1,28.8,30.5,58.8,59.8,89,88.9,18.7,19,37.4,38,56.1,57-11.8-3.7-23.6-7.4-35.5-11.1-4.9-1.5-9.4-1.7-12.5,3.4-8,3.9-13.7,10.9-20.9,16-.2-.3-.4-.7-.6-1h0Z"/>
      <path class="st0" d="M518.4,447.9c-18.7-19-37.4-38-56.1-57,9.8-3,20-3.1,30-4.8,3.2-.5,5.2,1,6.8,3.2,10.4,14.1,25.1,20.7,41.5,25,11,2.9,21.5,7.2,32.9,10.1-15.7-22.4-27.2-47.1-43.7-68.7,2.9-2.5,3.2-5.5,2.2-9,1.8-5,2.2-10.3,3.1-15.5,1.5-10,.6-20.7,7.2-29.5.3-.3.6-.5,1-.6,1.8.4,2.9-.6,3.5-2.1.7-.5,1.4-.9,2.2-1.3,1.7.5,2.8-.3,3.6-1.7.7-.5,1.5-1,2.2-1.4.8-.3,1.6-.7,2.4-1,.7-.4,1.4-.9,2.1-1.3,6.9.8,10.5-4.3,14.7-8.4h0c3.7.6,5-2.5,6.8-4.6h0c3.1.8,4.2-1.6,5.7-3.4h0c3.3.7,4.4-1.9,5.9-3.9,0-.4.3-.6.7-.6,2.4.9,3.6-.6,4.7-2.4h0c7.4-1.6,12.8-6.5,18.3-11.2.4-.3.8-.6,1.2-.8,2.2.2,3.4-1.1,4.5-2.6,10.6-6.8,21.2-13.6,31.9-20.3,6.2-.6,9.7-5.1,13.6-9.1h0c5.9-.3,9.7-4.9,14.2-7.7,5.8-3.5,6.8-.9,7.1,4-1.9,1.9-3.9,3.8-5.8,5.7-.2-.4-.5-.6-.8-.6-4.2-.6-5.1,3.7-7.8,5.4-1.5,1.6-3.5,2.8-4,5.2-.8.7-1.7,1.4-2.5,2.1-.9.5-1.8,1.1-2.6,1.6h0c-1-.3-2.3-1.1-2.9-.7-8.9,5.4-16.1,12.7-22.4,21-6.5,5.7-13,11.4-19.4,17.1-4.7,2.5-9.1,5.3-12.9,9.1-17.7,17.8-35.5,35.6-53.2,53.3-3,3-5.8,6.2-6.4,10.7-.4.4-.8.9-1.2,1.3,0,.7.1,1.5.2,2.2,6.7,9.9,10.9,21.5,18.8,30.7h0c.2.8.5,1.6.7,2.3,10.9,19.6,21.8,39.3,32.7,58.9l.4,3.4c-24.2-.6-48.4,1-72.5,1.6-2.7-1.3-5.5-2.5-8.2-3.8h0Z"/>
      <path class="st0" d="M967,669.6c2.7-2,4.2,0,5.7,1.7-3.1,11.9-9,22.8-13.5,34.1-11.7,29.2-23.4,58.4-35.2,87.6-1.1,2.7-2.5,5.3-3.7,7.9-.7-.5-1.4-1-2.1-1.5-18-27.7-34.9-56.2-50.6-85.3-2.7-4.9-5.5-9.8-8.3-14.7,8.3-1.7,16.6-3.5,24.9-5.1,27.4-5.1,54-13.2,81.1-19.4,3.2-.7,7.2-1.7,1.7-5.4h0Z"/>
      <path class="st0" d="M695.6,924.4c9.9-8.8,12.3-21.6,17.7-32.8,8.9-18.6,17.7-37.1,26.3-55.8,2.4-5.3,5.3-5.8,10-3.4,28.8,14.6,58.9,26.7,87.2,42.4-7,7.6-17.1,11.1-24.7,18-4.8-.7-8.1,2.7-11.3,5-12.7,9.2-27.4,12.5-42.4,15.2-20.9,3.8-41.8,7.7-62.7,11.5h0Z"/>
      <path class="st0" d="M642.2,839.5c-8.5,8-19.8,11.3-29.3,17.6-15.1,10-31.5,18.1-45.7,29.6l-.4-.2-.3-.3c-.2-.3-.5-.7-.8-.9-.9-2.5-1.8-5.1-2.7-7.6-5-22.9-14-44.6-19.7-67.2-.3-1.4-1.8-2.5-2.8-3.7-.6-3.9-1-7.7-2.8-11.4-8.5-18.1-16.4-36.5-24.9-54.7-5.9-12.5-10-25.9-18.2-37.2-.5-1.8,0-3.2,1.9-3.7v.8c1.4,1.1,2.8,2.2,4.3,3.3,15,10.8,31.9,18.9,45.8,31.3.5.8.9,1.6,1.3,2.5-.5.9-1.4,1.8-1.5,2.8-.9,19.8-1.6,39.6-2.5,59.3-.2,4.3,2.6,4.1,5.3,3.9,9.3-.5,18.7-1.1,28-1.7,6.8,4.1,13.8,8,20.5,12.3,14.4,9.1,30.5,15.2,44.3,25.3h0Z"/>
      <path class="st0" d="M747.7,239.5c3.4,4.9,5,10.9,9.8,15.1,3.1,2.8,1.6,6.3-1.5,8.9-12.2,10.2-24.6,20.2-36.5,30.7-9.3,8.3-18.5,16.9-26.8,26.2-4.5,5.1,4.6,4.8,5.1,8.4-5.7,1.3-8.7-3.1-12.5-6,.1-6.6.3-13.3.4-20,.4-24.1.4-48.2-1.5-72.2.5-.6.9-1.2,1.4-1.8,20.8,2.9,41.6,5.9,62.1,10.6h0Z"/>
      <path class="st0" d="M881,887.6c12.1-8.1,21.2-19.3,31.1-29.6,5.3-5.5,8.4-7.3,14.1-.5,8.4,10,19.4,17.6,26.6,28.8,10.9,11.7,18.7,24.4,14.7,41.3-2.6,10.9-10.5,18.2-18.1,25.7-11.7-8.8-21.7-19.4-32-29.6-4.5-6.1-2-10.6,3.2-14.7,2.1-1.7,4.8-3.4,4.9-6.8,2.1-5.5,8.2-8.7,8.7-15.4-9.6,6.9-18,15-25.5,24-1.6,2,.8,3.8,2,5.5-.3.5-.6,1.1-.9,1.7-1.3,1-2.6,2-3.9,3-1.3-1.3-2.7-2.6-4-3.8,0-.3,0-.6,0-.8v-4.6c9-9,18.6-17.5,25.9-28.1-9.6,6.1-15.7,16-25.7,21.6-.4.3-.8.6-1.2,1-7.3-4.9-11.8-13-19.5-17.4.1-.4,0-.8-.2-1.2h0Z"/>
      <path class="st0" d="M918.2,799.4c.7.5,1.4,1,2.1,1.5-8.3,8.1-16.5,16.2-24.8,24.3-11.8,8.8-21.7,19.6-32.3,29.6-7.3,6.9-15.5,12.6-24.3,17.6-5.8-22.2-11.5-44.3-17.3-66.5-1.7-6.6,0-8.5,7.1-8.2,26.9,1.2,53.9,1.7,80.9,2.3,2.9,0,5.9.7,8.7-.7h0Z"/>
      <path class="st0" d="M682.2,171.4c3.8-9.3,7.1-18.9,11.6-27.9,2.9-5.8,5.2-11.6,7.1-17.6.7.2,1.4.4,2.1.6h.2c7.7,1.8,15.3,3.7,22.6,6.8,9.2,5,18.9,8.9,29.2,10.7h-.3c3.1,3.5,8,4,11.9,6.1,4.4,2.4,5.5,3.7.6,7.6-12.8,10.2-27.5,17.1-41.7,25-8.4,4.6-15.4,11.4-24.3,15.3-2.1-2.3-4.1-5.3-7.4-5.6-5.9-.6-7.1-4.2-8.6-9.2-1.2-3.9,1.7-9-3.1-11.8h0Z"/>
      <path class="st0" d="M496.5,700.5s.1-.8.1-.8c3.1-7.6,9.1-13,14.3-19,13.7-15.9,27.8-31.5,41.7-47.2,25.1,1.4,50.2,2.7,75.3,4.2,3,.2,6.6-.8,8.7,2.6-.6,1.1-1.2,2.1-1.8,3.2-.7.6-1.4,1.2-2.1,1.8-.6.2-1.3.4-1.9.7-1.2.4-2.3.8-3.4,1.2-1.5-.5-2.5,0-3.3,1.4-11.8,6.1-23.7,12.2-35.5,18.4-12.3-9-24.5-18-38.2-28.1,2.5,16.7,1.9,31.5,1.5,46.3-2.5,1.1-5.1,2.3-7.6,3.4-15.9,3.9-31.8,7.9-47.7,11.8h0Z"/>
      <path class="st0" d="M917.4,923.6c10.3,10.2,20.3,20.8,32,29.6.7.6,1.4,1.2,2,1.8-5,6-10.2,11.9-16.6,16.2-16.5,11-34.2,9-49-5.2-3.5-3.3-6.9-6.7-10.4-10l24.1-24.1c-3.7-2.4-7.3,2-9-1.7-1.4-3,2.3-4.4,3.6-6.5.4,0,.8,0,1.2,0,4.8,4.5,7.5.6,10.3-2.6,1.3-1,2.6-2,3.9-3,.5,4.7,4.1,5.2,7.7,5.7h0Z"/>
      <path class="st0" d="M386.4,126.2c-2.6,6.2,1.2,7.3,5.9,7.1,11.6-.7,23.1-1.6,34.7-2.6,2.4-.2,4.7-.9,7,.1,7.6,15.5,18,29.2,27.4,43.6,1.1,6.3,2.2,12.6,3.4,18.9-.5.8-.4,1.5.4,2.1v.2c-1.7,1.7-3.6,3.5-5.4,5.2l-2.8-2.4c-.5-1.7-1.6-2.7-3.5-2.7-12.2-10.8-24.5-21.4-38.1-30.5-1.7-1.3-3.5-2.7-5.2-4-1.6-3.1-4.4-4.7-7.5-5.9-.9-.6-1.8-1.3-2.7-1.9-1-2.1-3-3.1-5-4.2-1.4-1-2.7-2-4-3-1.4-2.6-3.8-3.7-6.4-4.7-1.7-1.3-3.4-2.6-5.1-3.9-1.7-1.7-3.4-3.4-5.1-5.1.5-2.1,2.4-2.7,4.1-3.3h-.3c2.4-1.8,5.3-2.4,8.3-2.8h0Z"/>
      <path class="st0" d="M418.5,188.9c1.3,1.2,2.6,2.4,3.9,3.6,0,.8.3,1,1,.8,18.7,15.4,37.3,31,53.7,48.9,1.7,6,7.5,8.7,11.1,13.1,2.2,2.6,3.5,4.6,1.5,8.4-7.1,12.7-14.1,25.5-19.1,39.1-1.1,3.1-2.8,5.7-5.1,7.9-6.6-15-8.2-31.3-12.5-46.9-4.5-16.1-6.9-32.7-12.6-48.5,1.4-3.3-1.4-3.8-3.3-5.1-6.5-4.3-13.6-7.8-19-13.7-.2-4.2-3.1-7.2-6.1-11.6,3,1.8,4.8,2.8,6.6,3.9Z"/>
      <path class="st0" d="M418,196.7c5.4,5.9,12.5,9.4,19,13.7,1.9,1.3,4.7,1.8,3.3,5.1-5.5,1.2-7.8,5.5-10.5,9.9-4.4,7.1-7.4,15.2-13.9,20.9-13.1-16.6-23.7-34.8-34.8-52.7-6.9-11.1-12.8-22.7-18.4-34.5-1.3-2.8-3.4-6,1.5-7.7,2.3,2.6,4.4,5.4,7.1,7.6,12.9,10.7,25.9,21.3,38.9,31.9,1.6,1.7,2.9,3.8,5.6,3.8.8.7,1.5,1.4,2.3,2.1h0Z"/>
      <path class="st0" d="M630.3,914.7c3.1-6.3,4.2-13.2,5.3-20,2.4-15.2,4.6-30.5,6.9-45.7.2-1.5-.1-3.3,2.4-4.3,16.7,26.4,33.4,53,50.1,79.5-21.7-2.7-43.5-4.4-64.8-9.5h0Z"/>
      <path class="st0" d="M494.7,703.4c8.2,11.4,12.3,24.7,18.2,37.2,8.5,18.1,16.3,36.6,24.9,54.7,1.8,3.8,2.2,7.5,2.8,11.4-.2.4-.5.8-.9,1-14.2-15.2-33.3-22.4-51.5-31.3-2.4-1.6-2.4-4-1.9-6.5,4-22.1,5.6-44.5,8.4-66.7h0Z"/>
      <path class="st0" d="M338.3,305.2c-10.1,10.4-7,22.6-4.8,34.6-.9-.7-1.7-1.4-2.5-2-2.2-2.4-4.3-4.7-6.5-7.1-22.9-24.3-48.4-46.1-69.7-72,1.1-1.7,2.2-3.3,3.2-5,.5,0,.9,0,1.3-.2,25.1,15.8,50.2,31.7,75.3,47.6,1.5,1,2.5,2.7,3.7,4h0Z"/>
      <path class="st0" d="M685.6,228.9c-.5.6-.9,1.2-1.4,1.8-11.3,3.7-17.9,13.7-26.9,20.5-4.4,3.3-11.5,5.9-12.3,11.6-.8,6.2,5.9,9.4,10.6,12.9.6.4.6,1.6,1.1,2.1,8.8,7.8,7.8,20.7,15.2,29.2,3.5,4.1,2.4,7.2-1.4,10.1-21.7-8-43.5-15.9-65.2-23.9,4.9-5,9.9-10,14.8-15,6.5-5.7,13-11.4,19.4-17.1,9.6-5.3,17.3-12.9,25.3-20.3h0c1.4.3,2.2-.3,2.6-1.6.8-.7,1.7-1.4,2.5-2.1,1.7-1.5,3.3-2.9,5-4.4,2-2.4,5.5-3.1,6.9-6.2.4,0,.7.2.8.6,1,.6,2,1.3,3,1.9h0Z"/>
      <path class="st0" d="M298.2,345c-3.6,8-3.2,16-.2,23.9,1.4,3.6,1.2,6.1-3,7.2-5.5-3.6-7.1-9.8-10.1-15-16.5-28.9-32.8-58-49.1-87.1,3.6-2.7,5.7-7.5,11.1-7.5,6.8,9.8,13.9,19.4,20.4,29.3,10.5,16.2,20.6,32.7,30.8,49.1h0Z"/>
      <path class="st0" d="M465.4,310.8c2.3-2.3,4-4.9,5.1-7.9,5-13.7,12-26.5,19.1-39.1,2.1-3.7.7-5.7-1.5-8.4-3.6-4.4-9.4-7.1-11.1-13.1,20.3,18,36.5,39.6,53.7,60.4-7,3.7-14.7,4.1-22.3,5-13.1,1.5-26.2,2.8-39.1,5.9v.2c-.9,0-1.6.1-2.3.2h0c-.5-1-1-2-1.5-2.9h0Z"/>
      <path class="st0" d="M838.9,872.4c8.8-4.9,17-10.7,24.3-17.6,10.7-10,20.6-20.8,32.3-29.6.9,1.3,1.8,2.6,2.7,3.9-2.6.2-4.5.4-6.7,3-8.5,10.6-17.8,20.6-28.9,28.5-3.7,2.7-3.5,4.8-.5,7.6,3.6,3.5,7.1,7.3,10.6,10.9-3.5,3.7-7.1,7.4-10.7,11.2-1.4,1.4-2.8,2.9-4.2,4.3-1.1,1.2-2.2,2.4-3.3,3.7-5.8,5.2-12.2,9.9-15.7,17.2-2.8,3.3-4.1,0-5.5-1.4-7.2-7.1-14.2-14.3-21.3-21.5,7.6-6.9,17.7-10.4,24.7-18,.7-.7,1.4-1.5,2.2-2.2h0Z"/>
      <path class="st0" d="M465.4,310.8c.5,1,1,2,1.5,2.9-.2.4-.5.7-.8,1-13.9-13.9-23.1-31.4-34.9-46.9-5.4-7-10.2-14.4-15.3-21.6,6.5-5.7,9.6-13.8,13.9-20.9,2.7-4.4,5-8.7,10.5-9.9,5.7,15.8,8.2,32.4,12.6,48.5,4.4,15.6,5.9,31.9,12.5,46.8h0Z"/>
      <path class="st0" d="M469.3,313.4c12.9-3,26-4.3,39.1-5.9,7.6-.9,15.3-1.3,22.3-5,2.4.5,4.7.7,7-.5,1.5,0,2.9-.2,4.4-.3-6.6,8.8-5.7,19.5-7.2,29.5-.8,5.2-1.3,10.5-3.1,15.5-3,2.7-6.2,1.4-8.9-.3-17.8-11.2-34.8-23.7-53.7-33.1h0Z"/>
      <path class="st0" d="M881.2,888.8c7.7,4.5,12.2,12.5,19.5,17.4-3.9,3.8-2.7,7.1,1,10.1,0,.3,0,.6,0,.8-2.1,2.2-4.2,4.3-6.3,6.5-.4,0-.8,0-1.2,0-10.2-1.8-16.2,4.7-22,11.3-2.4,2.8-4.4,5.9-6.6,8.9-7.6-4.6-13.3-11.1-18.8-17.8,2.2-2.3,4.7-4.3,6.7-6.8,3.2-3.9,9.1-6.1,8.5-12.6,1.5-1.5,3-3,4.5-4.5,2.1,0,3.2-1,3.1-3.1,3.9-3.3,7.7-6.7,11.6-10.1h0Z"/>
      <path class="st0" d="M539.7,807.8c.4-.3.7-.6.9-1,.9,1.2,2.4,2.3,2.8,3.7,5.7,22.7,14.7,44.4,19.7,67.2-.8,1-1.5,1.9-2.3,2.9-.7-.4-1.3-.8-1.9-1.2-1.9-6.3-6.3-10.2-12.2-12.6-7.5-7.5-15-15.1-22.5-22.5-1.7-1.7-3-4.8-6.5-3-1.6-.6-1.5-2-1.7-3.3,9.4-8.9,15.6-20.4,23.8-30.2h0Z"/>
      <path class="st0" d="M539.7,807.8c-8.3,9.8-14.4,21.3-23.8,30.2-5.6-7.8-8-17.2-12-25.8-5.4-11.8-10.4-23.7-15.6-35.6,18.1,8.8,37.2,16,51.5,31.2h0Z"/>
      <path class="st0" d="M872.7,879.2c-3.5-3.6-7-7.3-10.6-10.9-2.9-2.9-3.2-4.9.5-7.6,11.1-8,20.4-17.9,28.9-28.5,2.1-2.6,4.1-2.8,6.7-3,2.7,1.8,5,4,6.8,6.8-.2,3.1,1.3,4.6,4.3,4.7.8,3.1-2,4-3.5,5.5-10.6,11.1-21.4,22-32.1,33-.3,0-.6,0-.9,0Z"/>
      <path class="st0" d="M259.3,253.5c-.4.2-.9.2-1.3.2-.6-1.1-1.4-1.5-2.6-1.2-2.6-1.9-5.4-3.5-7.7-5.7-11.3-10.2-22.5-20.6-33.7-30.9-3-3.3-6.4-6-9.9-8.6-2.4-1.8-7.1-3.4-4.6-8.3,23,11.3,44.4,25.4,66.9,37.5,1.4.8,2,1.6,2.1,2.4s-.5,2.2-1.3,3.4c-2.6,3.7-5.2,7.4-7.9,11.1h0Z"/>
      <path class="st0" d="M199.5,199c-2.6,4.9,2.1,6.5,4.6,8.3,3.6,2.6,7,5.4,9.9,8.6-1.4,2.3-1.8,4.7.4,6.5,4.8,4,8.3,9.1,11.3,14.2,4.9,8.1,14.2,12.8,17.1,22.4,1,3.3,3.9,3.4,6.4,1.4,2.7-2.1,5.3-4.5,6.2-8.1,1.2-.4,2.1,0,2.6,1.2-1.1,1.7-2.2,3.3-3.2,5-3.2,2.1-5.7,4.8-7.8,7.9-5.4,0-7.5,4.8-11.1,7.5-11.4-16.7-19.9-35-30.4-52.3-5.6-9.3-11.1-18.6-17.1-28.8,5.1.6,8.1,3.4,11,6h0Z"/>
      <path class="st0" d="M534.6,295.6c-10.3-16.6-20.2-33.5-32.3-48.9,1.5-1.9,4.4-3.2,2.9-6.4.6-.8,1.3-1.6,1.9-2.3,2.6-.2,2.2-1.9,1.7-3.6.3-.5.5-.9.8-1.4.6-.8,1.3-1.6,2-2.4,1.6-.5,3.1-.5,4.6.4,6.2,11.6,9.2,24.4,12.8,36.9,2.7,9.1,7.1,17.9,6.3,27.8h-.6s0,0,0,0Z"/>
      <path class="st0" d="M701.3,198c8.9-3.9,15.9-10.6,24.3-15.3,14.2-7.9,28.8-14.8,41.7-25,4.9-3.9,3.8-5.2-.6-7.6-3.9-2.2-8.8-2.6-11.9-6.3,6.3.4,11.4,4,17,6.1,5,1.8,4.6,4.1.3,7-11.4,7.7-22.7,15.7-34,23.6-9.8.4-15.8,7.6-22.9,12.8-.9.7-1.7,1.4-2.6,2.1-4,.8-7.2,2.8-9.8,5.9-.6.4-1.1.8-1.7,1.2-2.5-.2-3.8,1.7-5.2,3.2-9.5,6.5-20,11.6-28.7,19.3h0c-4.9,2.5-9.7,5.1-13.6,9.1-10.6,6.8-21.2,13.6-31.9,20.3-2,0-3.3,1.2-4.5,2.6-.4.2-.8.5-1.2.8-.4-.4-.8-.8-1.2-1.2,1.1-3,3.8-4.1,6.3-5.7,11.3-7.5,24-12.9,33.8-22.5.7-.7,1.4-1.3,2.2-2,2.8.2,5-1.2,7.2-2.7,12.3-8.6,24.7-17.1,37-25.7h0Z"/>
      <path class="st0" d="M391,146c1.4,1,2.7,2,4,3,.4,2.9,1.8,4.6,5,4.2.9.6,1.8,1.3,2.7,1.9,1.6,3.1,3.3,6.1,7.5,5.9,1.7,1.3,3.5,2.7,5.2,4,.7,3.5,3.7,4.9,6.2,6.9,16.2,13,32.5,25.9,46.5,41.3-29.8-22.7-59.5-45.4-89.3-68-3.7-2.8-5.6-6.2-4.9-11,1.7,1.3,2.9,3.6,5.5,3,1.7,1.3,3.4,2.6,5.1,3.9.7,3.4,3.1,4.7,6.4,4.7h0Z"/>
      <path class="st0" d="M865.6,943.8c2.2-3,4.2-6.1,6.6-8.9,5.8-6.6,11.8-13.1,22-11.3-1.4,2.1-5,3.4-3.6,6.5,1.7,3.8,5.3-.6,9,1.7l-24.1,24.1c-2.2-5-9.3-5.9-9.9-12.2h0Z"/>
      <path class="st0" d="M418,196.7c-.8-.7-1.5-1.4-2.3-2.1-1.6-1.7-2.8-3.9-5.6-3.8-13-10.6-26-21.2-38.9-31.9-2.6-2.2-4.7-5.1-7.1-7.6,5.7-3.3,10.5,1,13.6,3.8,12.4,10.7,25.8,20.1,38.1,30.8,1,.9,1.7,2,2.6,3-1.8-1-3.5-2.1-6.6-3.9,3,4.4,5.9,7.4,6.1,11.6h0Z"/>
      <path class="st0" d="M469.3,313.4c18.9,9.4,35.9,22,53.7,33.1,2.7,1.7,5.8,3,8.9.3,1.1,3.4.7,6.5-2.2,9-21.2-13.6-42.4-27.3-63.5-41,.3-.3.6-.7.8-1h0c.7,0,1.5-.1,2.2-.2v-.2c.1,0,.1,0,.1,0Z"/>
      <path class="st0" d="M505.2,240.2c1.5,3.2-1.3,4.6-2.9,6.4-8.8-8.8-17.5-17.6-26.3-26.4-3.3-8.3-12.3-11.8-16.3-19.6,1.8-1.7,3.7-3.5,5.5-5.2,7,12.4,16.5,22.3,28.9,29.3-2.5,1.3-5-1.9-8.1.3,3.3,5,6.5,10,10.7,14.4,2.8,2.9,5.3,2.9,8.4.8h0ZM482.4,221.5c.5-.4.4-.8-.3-.9,0,0-.2.3-.3.5.2.1.4.2.6.3h0Z"/>
      <path class="st0" d="M862,906.5c.6,6.5-5.3,8.7-8.5,12.6-2,2.5-4.5,4.5-6.7,6.8-.2-5.3-4.1-7.9-7.9-10.5,3.6-7.3,10-11.9,15.7-17.2,2.5,2.7,4.9,5.5,7.4,8.2h0Z"/>
      <path class="st0" d="M951.4,955c-.7-.6-1.4-1.2-2-1.8,7.6-7.5,15.5-14.8,18.1-25.7,4.1-16.9-3.8-29.7-14.7-41.3,20.1,11.9,25.8,38.5,9.4,58.2-3.2,3.9-7.2,7.1-10.8,10.7h0Z"/>
      <path class="st0" d="M872.7,879.2c.3-.1.6-.2.9,0,2.4,2.8,4.9,5.7,7.3,8.5.2.4.3.8.2,1.2-3.9,3.4-7.7,6.7-11.6,10.1-2.5-2.8-5-5.7-7.5-8.5,3.5-3.7,7.1-7.4,10.7-11.1h0Z"/>
      <path class="st0" d="M542.1,301.8c-1.5,0-2.9.2-4.4.3-.5-1.1-1-2.2-1.5-3.3.4-.2.7-.6.9-1,.5-.4,1.1-.7,1.6-1,2.9,2.7,5.1.6,7.8-.8,20.4-10.2,38.6-24.2,58.9-34.7-2.6,2.5-5.2,5.1-7.9,7.6,0,0,0,0,0,0-2.1-.3-3.4,1-4.7,2.4-.4,0-.6.2-.7.6-2.6.4-4.4,2-5.9,3.9,0,0,0,0,0,0-2.6,0-4.2,1.6-5.7,3.4h0c-3.1.3-4.9,2.6-6.8,4.6h0c-5.8,1.3-9.9,5.4-14.7,8.4-.7.4-1.4.9-2.1,1.3-.8.3-1.6.7-2.4,1-.7.5-1.5,1-2.2,1.4-1.6-.2-2.7.6-3.6,1.7-.7.5-1.4.9-2.2,1.4-1.6,0-2.7.9-3.5,2.1-.4,0-.7.3-1,.6h0Z"/>
      <path class="st0" d="M701.1,202.5c.6-.4,1.1-.8,1.7-1.2,2.3.6,5,.2,6.8,2.4-1.1,1.4-2.4,2.1-4.2,1.5-.6.5-1.2,1.1-1.8,1.6-5.2,4.7-9,10.8-15.1,14.6-.3-4.9-1.4-7.6-7.1-4-4.5,2.8-8.3,7.4-14.2,7.7,8.8-7.6,19.2-12.8,28.7-19.3,2.5.2,3.6-1.9,5.2-3.2h0Z"/>
      <path class="st0" d="M459.8,200.7c3.9,7.8,13,11.3,16.3,19.6-2.6-2.3-5.3-4.6-7.9-6.9-14.1-15.4-30.4-28.3-46.5-41.3-2.5-2-5.5-3.4-6.2-6.9,13.5,9.1,25.9,19.7,38.1,30.5,1.1.9,2.3,1.8,3.5,2.7l2.8,2.4h0Z"/>
      <path class="st0" d="M715.2,193.3c7.1-5.2,13.1-12.4,22.9-12.8-5.9,7-13.7,11.7-21,17-.9-1.3,3.8-5.1-1.9-4.2Z"/>
      <path class="st0" d="M755,144c-10.4-1.8-20-5.7-29.2-10.7,9.9,3.1,20.1,5.4,29.2,10.7Z"/>
      <path class="st0" d="M517.5,841.4c3.4-1.8,4.8,1.3,6.5,3,7.6,7.4,15,15,22.5,22.5h0c-.3.3-.7.6-1,.8-9.3-8.8-18.7-17.5-28-26.3h0Z"/>
      <path class="st0" d="M715.2,193.3c5.7-.9,1,2.9,1.9,4.2-1.8,1.5-3.5,3-5.3,4.4-2.1-2.5-1.3-4.6.8-6.6.9-.7,1.7-1.4,2.6-2.1h0Z"/>
      <path class="st0" d="M546.5,866.8c5.9,2.4,10.3,6.3,12.2,12.6l-.4.4c-1.2-1.1-2.4-2.2-3.5-3.3-1.2-4.5-5.4-6.5-8.2-9.7h0s0,0,0,0Z"/>
      <path class="st0" d="M712.6,195.4c-2.1,2-2.8,4.1-.8,6.6-.8.6-1.5,1.1-2.2,1.7-1.8-2.1-4.5-1.7-6.8-2.4,2.6-3.1,5.9-5.1,9.8-5.9h0Z"/>
      <path class="st0" d="M546.6,866.8c2.8,3.2,7,5.2,8.2,9.7-3.1-3-6.2-5.9-9.2-8.9.3-.3.7-.6,1-.8Z"/>
      <path class="st0" d="M558.3,879.8l.4-.4c.6.4,1.3.8,1.9,1.2,1.7,1.6,3.3,3.1,5,4.7.3.2.6.5.8.9-4.1-.4-5.7-3.9-8.1-6.4h0Z"/>
      <path class="st0" d="M909.3,840.6c-3-.1-4.5-1.6-4.3-4.7,1.8,1.2,3.6,2.5,4.3,4.7Z"/>
      <path class="st0" d="M379.5,137.4c-2.7.6-3.9-1.7-5.5-3,.1-.7.3-1.4.4-2.1,1.7,1.7,3.4,3.4,5.1,5.1h0Z"/>
      <path class="st0" d="M703.6,206.7c.6-.5,1.2-1.1,1.8-1.6,1.1,2.4-1.3.9-1.8,1.6Z"/>
      <path class="st0" d="M537.1,297.8c-.2.4-.5.7-.9,1-.5-1-1.1-2.1-1.6-3.2h.6c.6.7,1.3,1.5,1.9,2.2h0Z"/>
      <path class="st0" d="M378.2,129.1s.3-.1.3-.1h-.3Z"/>
      <path class="st0" d="M703.2,126.5h-.2s.2,0,.2,0Z"/>
      <path class="st0" d="M423.4,193.3c-.7.2-1.1,0-1-.8.5,0,.9.3,1,.8Z"/>
      <path class="st0" d="M627.4,558c11.9,9.7,22,21.2,32.8,32-13.4,9.1-26.8,18.2-40.2,27.4-2,.7-5.9.4-2.4,4.2,2.3,2.5,4.8,4.8,6.3,8.1-36.3-36.3-72.5-72.5-110.1-110.1,16.7,4.6,32.5,6.4,48,9.8,6.2,1.3,12.2.8,18.3,1.4,11.9,1.2,22.8,3.9,31.4,13.8,4.4,5.2,8.1,12,15.9,13.5h0Z"/>
      <path class="st0" d="M760.2,690.4c-3,3.8-1.2,8-.7,12,3.1,22.2,6.3,44.3,9.4,66.4.2,1.3-.2,2.6-.4,5.9l-48.3-48.3-48-48c15.6,2.4,30.2,4.4,44.6,7.1,4.4.8,7.5.3,9.4-3.5,2.9-5.7,8-9.3,12.3-13.7,7.6,7,15.3,14,21.8,22.2h0Z"/>
      <path class="st0" d="M606.3,496.6c-10.2,4.4-21.3,4.6-31.8,7.4-15.2-1.8-30.5-3.7-45.7-5.4-11.9-1.3-23.9-1.1-35.7-3.6.3-4.9,4.7-6.8,7.3-10,8.2-10.4,17.5-19.9,24.1-31.5.3-.2.7-.4,1-.6,10.1,17,26.7,28.3,38.4,43.9,2.6,3.5,4.4,2.2,6.5-1.2,5.9-9.8,12-19.5,18.5-29,3-4.4,4.8-10,10.5-12.1.8,8.3,1.5,16.7,2.3,25,.6,6-.2,12.3,4.7,17.1h0Z"/>
      <path class="st0" d="M817.9,797.5c-19.4,7.4-38.7,14.9-58.1,22.2-4.2,1.6-8.4,3.4-13,3.5,12.4-27.7,27-54.3,41.9-80.6l.4.3.4.4c9.5,18.1,19,36.1,28.5,54.2h0Z"/>
      <path class="st0" d="M247,266.6c2.1-3.1,4.7-5.8,7.8-7.9,21.3,25.9,46.8,47.7,69.7,72,2.2,2.3,4.4,4.7,6.5,7.1-1.5,2.2-3.4.9-5.1.4-10.6-3.2-20.1-1.8-27.8,6.9-10.2-16.4-20.3-32.9-30.8-49.1-6.5-10-13.6-19.6-20.4-29.4h0Z"/>
      <path class="st0" d="M634.8,643.6c.6-1.1,1.2-2.1,1.8-3.2,9.3,6.6,14.8,16.6,21.8,25.2,7.8,9.5,15.1,19.3,23.1,28.7,3.6,4.2,4.9,7.9,3.3,13.5-4.3,15.3-7.8,30.9-11.6,46.4h-.4c-3.6-1.9-7.2-3.7-10.8-5.5,0-.6-.2-1.2-.3-1.8,5.6-6.6,8.2-14.9,11.2-22.7,2.5-6.5,8.2-12.1,6.8-19.9,2.3-4.1-1.7-3.6-3.4-4.3-9.2-3.5-18.8-5.8-28.5-7.2-5.4-.8-7.4-3-7.9-8.6-1.1-12.9-.1-26.1-4.3-38.7-.3-.7-.6-1.3-.9-2h0Z"/>
      <path class="st0" d="M715.3,645.6c-7.7.9-14.4-2.6-21.5-4.5-12-3.2-23.8-7.2-35.7-10.8,2.5-1.4,5-2.9,7.6-4.3,7.5-4.1,16.2-5.3,23.1-10.6h0c.8,0,1.6-.1,2.3-.2,10.2-4.8,20.4-9.6,30.6-14.4,1.8,2.7,6.4,3.6,5,8.2-3.8,12.2-7.6,24.4-11.4,36.7h0Z"/>
      <path class="st0" d="M785.3,642.6c-12.6,4.7-25.9,7.5-37.1,15.4-.6-.3-1.2-.5-1.8-.8,0-1.8.3-3.7,0-5.5-2.8-13.2-6.6-26.1-8.8-39.4-.8-5.2-1-11.3-5.7-15.4.8-.8,1.6-1.7,2.4-2.5.4-.4.9-.6,1.4-.5,3.5,3.6,7.3,7,11.3,10.1,14.7,11.5,29.2,23.1,42.8,35.9-1.5.9-3,1.8-4.6,2.7h0Z"/>
      <path class="st0" d="M785.3,642.6c1.5-.9,3-1.8,4.6-2.7.3.3.7.5,1.2.5.6.8,1.1,1.5,1.7,2.3-1.6,3-1,6.3-1,9.5.3,13.9.9,27.7,1.1,41.6.2,11.7,0,23.5-2,35.1-.8,4.3-1.8,8.8,6.1,4.5,7-3.8,13.3-8.4,20.2-12.2,12.2-6.8,23.2-15.8,36.4-20.8v.4c-2.5,2.7-5.5,4.8-8.7,6.8-18.5,11.8-37,23.8-55.5,35.8l-.4-.4-.4-.3c-5.2-9.8-10.5-19.6-15.4-29.6-1.8-3.7,0-8,.8-11.7,3.5-15.3,7.5-30.4,11.2-45.7,1-4.3,3.2-8.7,0-13h0Z"/>
      <path class="st0" d="M688.8,615.3c-6.9,5.3-15.6,6.6-23.1,10.6-2.5,1.4-5.1,2.9-7.6,4.3-13-3.5-25.8-7.5-38.1-13,13.4-9.1,26.8-18.2,40.2-27.4.8.4,1.7.8,2.5,1.1,7.6,9.2,17.2,16.3,26,24.2h0Z"/>
      <path class="st0" d="M488.1,495.4c-19.4,2.1-38.9,4.5-58.5,2.4,6-8,15-12.4,22.7-18.2,7.5-5.7,14.2-12.2,20.6-19.1.6,0,1.3,0,2-.1,4.9,11.5,10.8,22.6,13.2,35Z"/>
      <path class="st0" d="M488.1,495.4c-2.5-12.4-8.3-23.5-13.2-35l2.2-1.9c.4,0,.9.2,1.2.5,1.4.8,2.5.2,3.5-.8,14.1-3.2,28.4-4.2,42.8-4.8-6.5,11.6-15.9,21.1-24.1,31.5-2.5,3.2-7,5.2-7.3,10-1.6,1-3.3,1.1-5,.4h0Z"/>
      <path class="st0" d="M731.8,596.9c4.7,4.1,4.8,10.1,5.7,15.4,2.2,13.3,6,26.2,8.8,39.4.4,1.8,0,3.6,0,5.5-9.5-1.2-17.5-7-26.9-8.7-1.9-.2-3.1-1.5-4.2-2.9,3.8-12.2,7.6-24.4,11.4-36.7,1.4-4.6-3.2-5.6-5-8.3,2.9-2.5,6.6-2.8,10.1-3.8h0Z"/>
      <path class="st0" d="M472.9,460.6c-6.4,6.8-13.1,13.4-20.6,19.1-7.8,5.8-16.7,10.2-22.7,18.2,0,0-.3,0-.3,0-1.3-1.4-2.3-.5-3.2.5-3-1.2-2.1-3.6-1-5.2,7.9-11.4,13.8-24.1,22.5-35,8.1,4.1,17,.5,25.3,2.5h0Z"/>
      <path class="st0" d="M472.9,460.6c-8.3-2-17.2,1.6-25.3-2.5.1-.5.4-.8.8-1,.5-.2.9-.5,1.1-1,7.2-5,12.9-12,20.9-16,4.5,5.3,2,13.1,6.6,18.4l-2.2,1.9c-.6,0-1.3,0-2,.1h0Z"/>
      <path class="st0" d="M426.1,498.4c.9-1,1.9-1.9,3.2-.5-1,.8-2,1.1-3.2.5Z"/>
      <path class="st0" d="M449.5,456.2c-.3.4-.7.7-1.1,1,.2-.6.4-1.3.5-2,.2.3.4.6.6,1h0Z"/>
      <path class="st0" d="M745.2,824.2c-.5.6-.9.5-1.2-.2.4-.2.8,0,1.2.2Z"/>
      <path class="st0" d="M967,669.6c5.5,3.7,1.5,4.7-1.7,5.4-27.1,6.2-53.8,14.3-81.1,19.4-8.3,1.5-16.6,3.4-24.9,5.1-.6-.4-1.2-.8-1.8-1.2,2.6-5.7,2-11.6,1.6-17.5.5-15.2.9-30.4,1.5-45.5.4-10.6,1-10.8,10.2-6.2,23.9,12,48.9,21.3,73.9,30.7h0c1,.8,2,1.6,3.5,1.2h-.2c1,1.2,2.3,1.9,4,1.8,0,.5.3.7.7.6,1.1.3,2.3.7,3.4,1h-.2c1,.2,2,.5,2.9.8,2,2.7,5.5,2.8,8.1,4.6h0Z"/>
      <path class="st0" d="M792.7,642.7c-.6-.8-1.1-1.5-1.7-2.3,5.1-12,9.6-24.4,15.5-36,4.4-8.6,6.6-18.7,14.6-25.3,7.4,20.3,12.6,41.3,18.4,62,5.4,19.2,9.5,38.8,17.9,57-.2.2-.4.4-.7.5-.4-.3-.8-.4-1.2-.4-4.2-2.5-7.6-5.8-11-9.2-16.5-16.3-33.7-31.8-51.8-46.4h0Z"/>
      <path class="st0" d="M789.5,743.3c18.5-11.9,36.9-23.9,55.5-35.8,3.2-2,6.2-4,8.8-6.8,1.2-.5,2.3-1,3.5-1.5-10.8,31.8-23.1,62.9-35.8,94-.8,1.8-1.9,3.2-3.5,4.2-9.5-18.1-19-36.1-28.5-54.2h0Z"/>
      <path class="st0" d="M857.5,698.1c-8.4-18.2-12.5-37.8-17.9-57-5.8-20.8-11-41.7-18.4-62,.1-5.1-2.5-6.7-7.1-5.5-26.1,6.7-52.2,13.5-78.3,20.3-.6,0-1.1.1-1.4.5-4.2-2.6-9.5,3.4-13.3-1.9,12.9-6.1,27.1-8.4,40.4-13.4,2.5-.8,4.9-1.5,7.3-2.3,7.9,3.4,14.7.5,21.2-3.7.5-.3,1-.7,1.5-1,1.5,1.3,2.9,1.3,4.2-.2h.3c7.9,1,15.2-.1,21.3-5.7,5.6-2.2,7.2,1.3,8.7,5.7,11.8,32.7,21.3,66,28.1,100,.7,3.7,2.4,6.4,5.1,8.7.4,5.9,1,11.9-1.6,17.5h0c0-.1,0-.1,0-.1Z"/>
      <path class="st0" d="M857.3,699.3c-1.2.5-2.3,1-3.5,1.5v-.4c.6-.7,1.2-1.4,1.8-2.1.5,0,.8.1,1.2.4.3,0,.5.3.5.6h0Z"/>
      <path class="st0" d="M823.7,547.8c-.2.6-.3,1.1-.5,1.7-11.4-2.4-22.8-5-34.3-7.1-16.7-3.1-33.1-7.8-50.2-9.3-.7-1.3-1.5-2.6-2.2-4-1-10.5-2.1-21-2.9-31.6-.8-11-4.3-21.9-2.2-33.1,20,.1,40.1.6,60.1.1,7.9-.2,15.8,3,23.6-.4,2.1,24.8,4.2,49.6,6.3,74.5.3,3.2.7,6.3,2.2,9.2h0Z"/>
      <path class="st0" d="M815.2,464.1c-7.8,3.5-15.8.2-23.6.4-20,.5-40,0-60.1-.1.1-.4,0-.7,0-1,3-2.3,2.9-6.2,4.2-9.2,4.1-10,9.7-19.4,12.3-30,10.4-15.6,17.5-32.6,23.2-50.4,1-3.2-.6-4.4-2.8-5.6-6.4-3.7-12.9-7.5-19.3-11.2,11.1-.5,17.7,8.1,26.2,12.9,1.1.6,1.9,1.8,2.9,2.8-1.8,1.8-.5,3.4.3,5.1,5.4,12.6,10.7,25.2,17,37.5,8,15.7,13.9,32.4,19.9,49h0Z"/>
      <path class="st0" d="M905.4,540.1c-21.4-17.6-39.5-38.7-62-55.1-7.3-5.3-13.1-12.6-19.6-18.9-2.1-2-1.9-3.8-.3-6.3,6.2-9.3,12.3-18.6,18-28.2,3.2-5.3,5.9-4.9,8.7-.3,10.4,17,20.5,34.2,29.8,51.9,9.5,18.1,19.3,36.1,29,54.1,1,1.8,3.3,3.8,1.2,5.5-2.4,2-3.3-1.7-4.8-2.7h0Z"/>
      <path class="st0" d="M738.8,533c17,1.5,33.4,6.2,50.2,9.3,11.5,2.1,22.9,4.7,34.3,7.1,8.9,24.8,24,46.5,34.7,70.4,1.8,3.9,4.2,4.3,7.4,1.2,10.5-10.3,19.7-21.7,29.2-32.9,2.9-3.4,4.6-8.2,11.3-6.4,7,1.9,9.5,5.6,9.7,12.4.4,12.8,5.9,24.8,6.2,37.7,0,3.6.7,6.8-2.3,9.5-3.5,3.3-2.6,5.1,2,6.4,8.4,2.4,16.3,6.2,23.1,11.9-25-9.3-50-18.7-73.9-30.7-9.3-4.7-9.8-4.5-10.2,6.2-.5,15.2-1,30.4-1.5,45.5-2.7-2.3-4.4-5-5.1-8.7-6.8-34-16.2-67.3-28.1-100-1.6-4.4-3.1-7.9-8.7-5.7-7.5.6-15,.8-21.3,5.6h-.3c-1.5-1.3-2.9-1.4-4.2.2-.5.3-1,.7-1.5,1-8-4-14.5.3-21.2,3.7-2.5.8-4.9,1.5-7.3,2.3-8.5-14.9-16.3-30.1-22.5-46.1h0Z"/>
      <path class="st0" d="M948.2,660.9c-1.5.5-2.5-.3-3.5-1.2,1.5-.7,2.5.2,3.5,1.2Z"/>
      <path class="st0" d="M952,662.7c-1.7,0-3-.6-4-1.8,1.8-.5,3,.6,4,1.8Z"/>
      <path class="st0" d="M956.2,664.2c-1.1-.3-2.3-.7-3.4-1,1.4-.6,2.4.1,3.4,1Z"/>
      <path class="st0" d="M959,665c-1-.3-2-.5-2.9-.8,1,.3,2,.5,2.9.8Z"/>
      <path class="st0" d="M749.1,356.9c6.4,3.7,12.9,7.5,19.3,11.2,2.2,1.3,3.8,2.5,2.8,5.6-5.7,17.7-12.8,34.8-23.2,50.4-3.7-1.5-8-1.6-11-4.5-6.6-6.7-12.4-14.2-17.3-22.2-2.2-3.6-3.6-3.9-7.4-2.5-13.3,4.6-26.8,8.5-40.2,12.9-3.6,1.2-6.2,1.1-7.4-3,0-.7.1-1.5.2-2.2,0-.7,0-1.5.2-2.2.4-2.1.7-4.1,1.2-6.2,5.3-22.6,11.9-44.9,15.9-67.9,1.1-1.1,2.2-2.2,3.3-3.4,3.7,2.8,6.7,7.3,12.5,6,1.5,1.4,3.1,2.8,4.6,4.2,1.3.6,2.3.1,3.3-.6,1.9,1.7,3.9,3.5,5.8,5.2.8,0,1.5.2,2.3.3,1.9,1.1,3.8,2.2,5.7,3.3,4.8,3.5,8.3,9.8,15.8,7.1,1.9,1.7,3.9,3.4,5.8,5,1.3,1.7,2.8,1.7,4.5.5,1.2,1,2.3,2,3.5,3h0Z"/>
      <path class="st0" d="M735.3,348.3c-7.5,2.6-11.1-3.6-15.8-7.1,6.2.3,10.6,4.5,15.8,7.1Z"/>
      <path class="st0" d="M745.6,353.9c-1.7,1.2-3.2,1.2-4.5-.5,1.7-1.2,3.1-1.1,4.5.5Z"/>
      <path class="st0" d="M705.7,332.4c-1,.7-2.1,1.2-3.3.6,1-.8,2-1.4,3.3-.6Z"/>
      <path class="st0" d="M713.8,337.8c-.8,0-1.5-.2-2.3-.3.8,0,1.5.2,2.3.3Z"/>
      <path class="st0" d="M537.1,297.8c-.6-.8-1.3-1.5-1.9-2.2.8-9.9-3.7-18.7-6.3-27.8-3.6-12.5-6.5-25.3-12.8-36.9.7-.6,1.4-1.2,2.1-1.8.7-.1,1.5-.2,2.2-.4h0c1,.8,2.1,1.2,3.2.2,1.2-.7,2.4-1.5,3.6-2.2.8-.1,1.5-.3,2.3-.4,4.9-1.6,9.5-3.7,13.4-7.2,1.9-1.2,4.4-1.6,5.7-3.8.8-.6,1.5-1.2,2.3-1.8,10.9-5.8,17.2-14.8,18.5-27.1.3-1.2.7-2.3,1.1-3.5,2.2-3,2-6,.2-9h0c1.4-6.5-.6-12.2-4-17.5-9.6-15.3-24-24.4-40.4-31,.7-.7,1.3-1.4,2-2.2,10.7,1,17.8,9.5,27.4,12.9,12.2,11.1,21.2,23.9,22.2,41.1-.4,1.3-.9,2.5-1.2,3.8-7.7,40.2-22.9,77.9-37.7,115.8-.5.4-1.1.7-1.6,1h0Z"/>
      <path class="st0" d="M577.7,177.2c-.9-17.2-9.9-30-22.2-41.1,8.4-5.4,14.2-1.8,20.7,4.6,24.4,24.2,44,52.7,69,76.2,3.2,3.1,5.8,7.1,10.6,8.2.4.4.8.9,1.3,1.4-.7.7-1.4,1.3-2.2,2-2-1.3-4.4-2.2-6.1-3.8-11.9-11.4-26.2-19.1-40.1-27.6-10.4-6.4-21.9-11.3-31-19.8h0Z"/>
      <path class="st0" d="M461.5,174.3c-9.4-14.3-19.8-28.1-27.4-43.6,19-2.4,38-4.9,57-7.3,1.8-.2,3.6.4,5.4.6,0,.4,0,.7,0,1.1-9.9,3.7-17.1,10.6-22.8,19.2-5.4,6.2-9,13.1-9.2,21.5-.8,1-1.4,2-.9,3.3v.2c-.1.8-.2,1.5-.3,2.3-.4.4-.6.9-.5,1.4l-1.3,1.2h0Z"/>
      <path class="st0" d="M657.1,226.4c-.4-.4-.8-.9-1.3-1.4,10.6-17,16.4-36.4,26.4-53.7,4.8,2.8,1.9,7.9,3.1,11.8,1.5,5,2.7,8.6,8.6,9.2,3.3.3,5.3,3.2,7.4,5.6-12.3,8.6-24.7,17.1-37,25.7-2.2,1.6-4.4,2.9-7.2,2.7h0Z"/>
      <path class="st0" d="M528.1,123.2c-.7.7-1.3,1.4-2,2.2-2.3-.8-4.7-1.6-7-2.4,0-.4,0-.7,0-1.1,3.3-1.6,6.2-1,8.9,1.3Z"/>
      <path class="st0" d="M504.6,122.9c3.2-2.3,6.5-2.8,10.1-1.1,0,.3,0,.7,0,1-3.4.7-6.7,1.8-10.2,1.1,0-.3,0-.7,0-1Z"/>
      <path class="st0" d="M498.8,124.1c1.7-1.7,3.5-2.2,5.8-1.1,0,.3,0,.7,0,1-1.9.3-3.8.7-5.7,1v-.9h0Z"/>
      <path class="st0" d="M496.5,124.1c.8,0,1.5,0,2.3,0v.9c-.8,0-1.5.2-2.2.2,0-.4,0-.7,0-1.1h0Z"/>
      <path class="st0" d="M514.7,121.9h2.3c0,.3,0,.7,0,1-.8,0-1.5,0-2.3,0,0-.3,0-.7,0-1h0Z"/>
      <path class="st0" d="M517,121.9c.8,0,1.5,0,2.3,0,0,.4,0,.7,0,1.1-.8,0-1.5,0-2.2,0,0-.3,0-.7,0-1Z"/>
      <path class="st0" d="M477,458.6c-4.5-5.3-2-13.1-6.6-18.4,3-5.2,7.6-4.9,12.5-3.4,11.8,3.7,23.6,7.4,35.5,11.1,2.7,1.3,5.5,2.5,8.2,3.8-.4.3-.8.7-1.1,1.1-.3.2-.6.4-1,.6-14.4.6-28.7,1.6-42.8,4.8-1.1.3-2.3.5-3.5.8-.4-.2-.8-.4-1.2-.5h0Z"/>
      <path class="st0" d="M599.1,450.1c-.1-1.1-.2-2.3-.4-3.4.6-1.2,1.6-2.3,1.7-3.5,2.9-25.1,8-50,9.5-75.3.3-4.3-.5-9.4,5.5-11,.7,1.3,1.5,2.6,2.2,3.9,4.1,13.5,8.1,27,12.2,40.6-.1.6,0,1,.5,1.4v-.2c-.4,1.4,0,2.6,1,3.7v-.3c0,3.3.8,6.4,2.6,9.2h0c.8,5.1,1.2,10.4,2.6,15.4,4.7,16.7,9.8,33.3,14.7,49.9-3.8,1.2-6.4-1.2-9.1-3.2-1.2-1.1-2.3-2.4-4.1-2.4l-.6-.3c-2-1.5-3.5-4-6.5-4h-.3c-1.3-1-2.7-1.8-4.1-2.7-.5-.4-1.1-.7-1.6-1.1-5.3-4.8-11.2-8.8-18.1-10.8-.8-.6-1.6-1.3-2.4-1.9-1.2-2.2-3.4-2.9-5.4-3.9h0Z"/>
      <path class="st0" d="M617.7,360.7c-.7-1.3-1.5-2.6-2.2-4-.7-2.4-.2-5.7-4.2-5.8-6.1-3-12.4-1.2-18.6-1-15,.4-30,.8-45.1,1.3.6-4.5,3.4-7.7,6.4-10.7,17.8-17.8,35.5-35.5,53.2-53.3,3.8-3.8,8.2-6.6,12.9-9.1-4.9,5-9.9,10-14.8,15-.2.5-.4,1-.5,1.5,1.7,18.3,5.8,36.1,10.6,53.7.2.6,1.2,1,1.8,1.6,3.5,4.7,7.3,9.2,10.7,13.9,7.2,9.8,15.6,18.7,20.9,29.8-6.8-2.5-8.4-9.7-12.9-14.3-6.1-6.2-8.2-16.2-18.3-18.5h0Z"/>
      <path class="st0" d="M611.3,351c4,0,3.5,3.4,4.2,5.8-6,1.6-5.2,6.8-5.5,11-1.6,25.3-6.6,50.2-9.5,75.3-.1,1.2-1.1,2.4-1.7,3.5-10.9-19.6-21.8-39.3-32.7-58.9-.2-.7-.5-1.5-.7-2.2h0c15.7-11.1,31.1-22.5,46-34.5h0Z"/>
      <path class="st0" d="M599.1,450.1c2,1,4.2,1.8,5.4,3.9-1.7.1-3.5.3-5.2.5-5.8,2-7.5,7.7-10.5,12.1-6.5,9.5-12.5,19.2-18.5,29-2,3.4-3.8,4.7-6.5,1.2-11.7-15.6-28.2-27-38.4-43.9.3-.5.7-.8,1.1-1.1,24.2-.6,48.3-2.2,72.5-1.6h0Z"/>
      <path class="st0" d="M611.3,351c-14.9,12.1-30.3,23.4-46,34.4-7.9-9.2-12-20.7-18.8-30.7,0-.7-.1-1.5-.2-2.2.4-.4.8-.9,1.2-1.3,15-.4,30-.9,45.1-1.3,6.2-.1,12.6-1.9,18.6,1h0Z"/>
      <path class="st0" d="M664.8,240.8c-7.9,7.4-15.7,15-25.3,20.3,6.2-8.3,13.5-15.5,22.4-21,.6-.4,1.9.4,2.9.7h0Z"/>
      <path class="st0" d="M597.6,269c2.6-2.5,5.2-5.1,7.9-7.6,3.1-1.6,6.2-3.1,9.3-4.7.4.4.8.8,1.2,1.2-5.5,4.6-10.9,9.6-18.3,11.1h0Z"/>
      <path class="st0" d="M559.1,292.3c4.8-3,8.9-7.1,14.7-8.4-4.2,4-7.8,9.1-14.7,8.4Z"/>
      <path class="st0" d="M653.5,234.1c3.9-4,8.7-6.6,13.6-9.1-3.9,4-7.4,8.6-13.6,9.1Z"/>
      <path class="st0" d="M681.8,226.5c-1.3,3.1-4.8,3.8-6.9,6.2-.3-.3-.7-.6-1-.9,2.7-1.7,3.6-5.9,7.8-5.4h0Z"/>
      <path class="st0" d="M573.8,283.9c2-2,3.8-4.2,6.8-4.5-1.9,2.1-3.1,5.2-6.8,4.5Z"/>
      <path class="st0" d="M674,231.8c.3.3.6.6,1,.9-1.7,1.5-3.3,2.9-5,4.4.5-2.4,2.5-3.6,4-5.2h0Z"/>
      <path class="st0" d="M580.6,279.3c1.6-1.7,3.1-3.5,5.7-3.4-1.5,1.9-2.7,4.2-5.7,3.4Z"/>
      <path class="st0" d="M586.3,275.9c1.6-1.9,3.3-3.5,5.9-3.9-1.5,2-2.6,4.6-5.9,3.9Z"/>
      <path class="st0" d="M617.2,257c1.2-1.4,2.5-2.7,4.5-2.6-1.1,1.5-2.3,2.9-4.5,2.6Z"/>
      <path class="st0" d="M592.9,271.4c1.3-1.3,2.6-2.6,4.7-2.4-1.1,1.8-2.3,3.2-4.7,2.4Z"/>
      <path class="st0" d="M543.1,301.2c.9-1.2,2-2,3.5-2.1-.7,1.5-1.7,2.5-3.5,2.1Z"/>
      <path class="st0" d="M548.7,297.8c.9-1.1,2.1-1.9,3.6-1.7-.8,1.4-1.9,2.2-3.6,1.7Z"/>
      <path class="st0" d="M667.5,239.2c-.4,1.3-1.2,1.9-2.6,1.6.9-.5,1.8-1.1,2.6-1.6Z"/>
      <path class="st0" d="M554.6,294.6c.8-.3,1.6-.7,2.4-1-.8.3-1.6.7-2.4,1Z"/>
      <path class="st0" d="M565.4,385.6c.2.7.5,1.5.7,2.2-.2-.7-.5-1.5-.7-2.2Z"/>
      <path class="st0" d="M546.4,352.6c0,.7.1,1.5.2,2.2,0-.7-.1-1.5-.2-2.2Z"/>
      <path class="st0" d="M548,737.6c10.7,21.1,22,41.8,29.4,64.4-9.3.6-18.7,1.2-28,1.7-2.7.1-5.5.3-5.3-3.9.9-19.8,1.6-39.6,2.5-59.3,0-1,1-1.8,1.5-2.8h0Z"/>
      <path class="st0" d="M547.1,732.5c-.1.9-.3,1.7-.4,2.6-13.9-12.5-30.7-20.6-45.8-31.3-1.5-1.1-3-2.2-4.4-3.3,15.9-3.9,31.8-7.9,47.7-11.8,3.4,1.5,3,4.5,3,7.5,0,12.1,0,24.3,0,36.4h0Z"/>
      <path class="st0" d="M565.7,885.3c-1.7-1.6-3.3-3.1-5-4.7.8-1,1.5-1.9,2.3-2.9.9,2.5,1.8,5.1,2.7,7.6h0Z"/>
      <path class="st0" d="M685.4,322.9c-1.1,1.1-2.2,2.2-3.3,3.4-.5-.4-.9-.9-1.4-1.3,0-.7.1-1.4.2-2.1.2,0,.5-.1.7-.2-.2,0-.5.1-.7.2-2.5-3.5-7.5-2.9-10.3-5.9,3.8-2.9,5-6,1.4-10-7.4-8.5-6.4-21.4-15.2-29.2-.6-.5-.6-1.6-1.1-2.1-4.7-3.5-11.4-6.6-10.6-12.9.7-5.6,7.8-8.2,12.3-11.6,9-6.8,15.6-16.8,26.9-20.5,2,24,1.9,48.1,1.5,72.2,0,6.6-.3,13.3-.4,20h0Z"/>
      <path class="st0" d="M910.6,916.3c-1.2-1.7-3.6-3.6-2-5.5,7.5-9,15.9-17.1,25.5-24-.5,6.8-6.6,9.9-8.7,15.4-5.4,4.2-10.4,8.9-14.9,14.1Z"/>
      <path class="st0" d="M901.9,905.2c9.9-5.6,16.1-15.5,25.7-21.6-7.2,10.6-16.9,19.1-25.9,28.1.7-2.1,1.7-4.3.2-6.5h0Z"/>
      <path class="st0" d="M910.6,916.3c4.5-5.2,9.5-9.9,14.9-14.1-.2,3.3-2.8,5-4.9,6.8-5.2,4.2-7.7,8.6-3.2,14.7-3.6-.5-7.2-1-7.7-5.7.3-.5.6-1.1.9-1.7h0Z"/>
      <path class="st0" d="M895.4,923.6c2.1-2.2,4.2-4.3,6.3-6.5,1.3,1.3,2.7,2.6,4,3.9-2.9,3.2-5.5,7.1-10.4,2.6Z"/>
      <path class="st0" d="M901.9,905.2c1.5,2.2.5,4.3-.2,6.5v4.6c-3.8-3-4.9-6.3-1-10.1.4-.4.8-.7,1.2-1h0Z"/>
      <path class="st0" d="M551.9,685.2c.5-14.8,1-29.7-1.5-46.3,13.7,10.1,25.9,19.1,38.2,28.1v.7c-11.6,5.6-23.3,10.9-34,18.1-.9-.2-1.8-.4-2.7-.6h0Z"/>
      <path class="st0" d="M634.8,643.6c.3.7.6,1.3.9,2-8.1,13-14.2,27-19.7,41.2-1.6-.2-3.3-.4-4.9-.5-6.5-7.4-15.2-12.2-22.5-18.6,0,0,0-.6,0-.7,11.8-6.1,23.6-12.2,35.5-18.4,1.4.2,2.4-.3,3.3-1.4,1.2-.4,2.3-.8,3.4-1.2.8.3,1.5.2,1.9-.7.7-.6,1.4-1.2,2.1-1.8h0Z"/>
      <path class="st0" d="M551.9,685.2c.9.2,1.8.4,2.7.6,2.6,2.5,5.9,1.4,9,1.7,4.3.4,8.9-1.2,12.9,1.7-9.8,14.5-19.6,28.9-29.4,43.4,0-12.2,0-24.3,0-36.4,0-2.9.5-5.9-3-7.5,2.5-1.2,5.1-2.3,7.6-3.4h0Z"/>
      <path class="st0" d="M627.4,647.3c-.9,1-1.9,1.5-3.3,1.4.8-1.3,1.8-1.9,3.3-1.4Z"/>
      <path class="st0" d="M632.7,645.4c-.4.9-1.1,1-1.9.7.6-.2,1.3-.4,1.9-.7Z"/>
      <path class="st0" d="M461.5,174.3c.4-.4.9-.8,1.3-1.2,3.5,7.4,9,13.1,15.3,18,1,1.2,2.1,2.4,2.9,3.8,17,27.1,45.6,25.1,70.1,9.2,1.7.5,2.1-.7,2.8-1.9,5.2-10,8.3-20.5,8.4-31.8,3.4-.4,6,1.3,8.3,3.5h0c-2.5,3.1-2.3,6.1-.2,9.1-.3,1.2-.7,2.3-1.1,3.5-4.7,6.6-6.3,15.2-13.3,20.3-2.2,1.6-4.8,3.4-5.1,6.8-.8.6-1.5,1.2-2.3,1.9-3.6-1.2-5,.7-5.7,3.8-3.8,3.5-8.5,5.6-13.4,7.2-.8.1-1.5.3-2.3.4-1.2.7-2.4,1.5-3.6,2.2-1-.6-2.1-1-3.2-.2h0c-.7,0-1.5.2-2.2.3-.7.6-1.4,1.2-2.1,1.8-1.5-.9-3-.9-4.6-.4-1.8-1.1-3.6-2-5.8-1.3h0c-1.9-1.8-4-2.8-6.6-2.5h-.2c-1.1-.5-2.2-1-3.2-1.4-.4-.3-.8-.5-1.3-.6-12.4-7-21.9-16.9-28.9-29.3v-.2c-.3-.7-.4-1.4-.5-2.1-1.1-6.3-2.2-12.6-3.4-18.9h0Z"/>
      <path class="st0" d="M410.3,161.2c-4.2.2-5.9-2.8-7.5-5.9,3.1,1.2,5.9,2.9,7.5,5.9Z"/>
      <path class="st0" d="M391,146c-3.3,0-5.6-1.2-6.4-4.7,2.5,1,5,2.1,6.4,4.7Z"/>
      <path class="st0" d="M400,153.3c-3.2.4-4.6-1.3-5-4.2,1.9,1.1,3.9,2.1,5,4.2Z"/>
      <path class="st0" d="M457,198.3c-1.1-.9-2.3-1.8-3.5-2.7,1.9,0,2.9,1,3.5,2.7Z"/>
      <path class="st0" d="M464.8,193.3c.1.7.3,1.4.4,2.1-.8-.6-.9-1.2-.4-2.1Z"/>
      <path class="st0" d="M410.1,190.9c2.8-.2,4,2.1,5.6,3.8-2.7,0-4-2.1-5.6-3.8Z"/>
      <path class="st0" d="M680.8,322.9c0,.7-.1,1.4-.2,2.1-11.8,2.6-22.4,8.5-33.9,11.8-3.4-2.8-3.1-6.6-2.9-10.3.2-3.8-1.1-6.4-5.1-6.8-14.2-1.5-25.7-6.9-30.9-21.4-.5-1.4-2-2.4-3.1-3.6.2-.5.4-1,.5-1.5,21.7,8,43.5,15.9,65.2,23.9,2.8,3,7.7,2.4,10.3,5.9h0Z"/>
      <path class="st0" d="M469.1,313.6c-.7,0-1.5.1-2.2.2.7,0,1.5-.1,2.2-.2Z"/>
      <path class="st0" d="M862,906.5c-2.5-2.7-4.9-5.5-7.4-8.2,1.1-1.2,2.2-2.4,3.3-3.7,3.6,1.6,5.7,4.8,8.6,7.3-1.5,1.5-3,3-4.5,4.5Z"/>
      <path class="st0" d="M866.5,902c-2.8-2.5-5-5.7-8.6-7.3,1.4-1.4,2.8-2.9,4.2-4.3,2.5,2.8,5,5.7,7.5,8.5,0,2.2-1,3.1-3.1,3.1h0Z"/>
      <path class="st0" d="M255.4,252.5c-.9,3.6-3.5,5.9-6.2,8.1-2.5,2-5.4,1.9-6.4-1.4-2.9-9.7-12.1-14.3-17.1-22.4-3.1-5.1-6.6-10.2-11.3-14.2-2.1-1.8-1.8-4.2-.4-6.5,11.2,10.3,22.4,20.6,33.7,30.9,2.4,2.1,5.1,3.8,7.7,5.7h0Z"/>
      <path class="st0" d="M494.3,224.7c.5.1.9.3,1.3.6.6,1.5,1.6,2.3,3.2,1.4h.2c1.6,2.6,3.6,4,6.6,2.5h0c1.3,1.2,2.6,2.5,3.9,3.7-.3.5-.5.9-.8,1.4-1.6.7-2.4,1.8-1.7,3.6-.6.8-1.3,1.5-1.9,2.3-3,2.1-5.5,2.1-8.4-.8-4.2-4.4-7.4-9.4-10.7-14.4,3.1-2.2,5.6,1,8.1-.3h0Z"/>
      <path class="st0" d="M509.5,232.9c-1.3-1.2-2.6-2.4-3.9-3.7,2.2-.8,4,.2,5.8,1.3-.6.8-1.3,1.6-2,2.4h0Z"/>
      <path class="st0" d="M507.1,237.9c-.7-1.8,0-2.9,1.7-3.6.6,1.7,1,3.3-1.7,3.6Z"/>
      <path class="st0" d="M614.8,256.6c-3.1,1.6-6.2,3.1-9.3,4.7-20.3,10.5-38.5,24.5-58.9,34.7-2.7,1.4-4.9,3.5-7.8.8,14.8-37.9,30-75.6,37.7-115.8.2-1.3.8-2.5,1.2-3.8,9.1,8.5,20.6,13.4,31,19.8,13.9,8.5,28.2,16.2,40.1,27.6,1.7,1.6,4,2.6,6.1,3.8-9.8,9.6-22.5,15-33.8,22.5-2.5,1.6-5.2,2.7-6.3,5.7h0Z"/>
      <path class="st0" d="M701.1,202.5c-1.6,1.3-2.7,3.4-5.2,3.2,1.5-1.5,2.7-3.4,5.2-3.2Z"/>
      <path class="st0" d="M482.4,221.5c-.2-.1-.4-.2-.6-.3.1-.2.2-.5.3-.5.8.1.9.4.3.9h0Z"/>
      <path class="st0" d="M662.1,748.7c3.6,1.8,7.2,3.6,10.8,5.4-9.3,11.2-20.8,20.1-31.8,29.4-4.6-6.5-3.1-14.3-4.8-21.4-.4-1.8.2-5.4-3-4.4-5.4,1.8-11.8,2.3-15.2,8.1-10.8-1.3-16.4,2.1-16.5,10.1-8.7-1.4-13.8-6.2-15.3-14.5-1.3-7-2.6-14-3.9-21,4.6,2.5,6.8.3,8-4,.5-.2,1-.2,1.4.3,2.5,6.3,4.9,12.6,7.4,18.9-.2,3.8-4.5,6.4-3.1,12.3,4-6.5,9.5-7.9,15.5-7.8,2.1.7,4,3.1,6.5.7,6.3-2.8,12.6-5.5,18.9-8.3,6.7-.3,13.4-.7,20.2-1.1,2.7,1,3.6-1.3,5-2.6h0Z"/>
      <path class="st0" d="M576.5,689.2c-4-2.9-8.6-1.3-12.9-1.7-3-.3-6.3.9-9-1.7,10.7-7.2,22.5-12.5,34.1-18.1,7.4,6.4,16,11.2,22.5,18.6-.6.7-1.2,1.3-1.9,2-11-1.2-22-1.9-32.8,1Z"/>
      <path class="st0" d="M609.3,688.2c.6-.7,1.2-1.3,1.9-2,1.6.2,3.3.4,4.9.5,4.8,2.7,10.3,2.5,15.5,3.1,6.5.7,9.9,3.4,10.6,10.4.6,6.2-.4,12.9,3.7,18.5-.1,1.2-.3,2.3-.4,3.4-1.2,1.2-2.3,2.3-3.4,3.5,0-3.4-2.6-5-4.6-7.1-9.4-10.1-18.8-20.2-28.2-30.3h0Z"/>
      <path class="st0" d="M618,765.9c3.4-5.8,9.8-6.3,15.2-8.1,3.1-1.1,2.5,2.5,3,4.4,1.7,7.1.3,15,4.8,21.4-10.5,3-19.7-.9-28.6-5.8,2.5-2.1,4.5-4.9,8-5.6,0-.7.2-1.4.2-2.1-.1-1.9-1.4-3.1-2.6-4.2h0Z"/>
      <path class="st0" d="M618,760.7c-2.4,2.4-4.4,0-6.5-.7-3.9-2.2-4.3-13.9-12.4-4.5-2.5-6.3-4.9-12.6-7.4-18.9.4-.7.8-1.4,1.2-2.2,3.3-1.6,6.5-3.2,9.8-4.8,3.2,1,6.5,1.9,9.7,2.9-6.4,7.2-5.2,13.2,4.3,21.7.1,2.2-.7,4.5,1.2,6.4h0Z"/>
      <path class="st0" d="M642.1,725.6c1.2-1.2,2.3-2.3,3.4-3.5,7.2,7.1,9.8,17.2,16.2,24.8,0,.6.2,1.2.3,1.8-1.4,1.4-2.3,3.6-5,2.6,2.5-3.3,1.3-4.1-2.4-4.7-5.7-1-10.7-3.7-15-7.6.2-4.6,1-9,2.5-13.4h0Z"/>
      <path class="st0" d="M616.8,754.3c-9.5-8.5-10.7-14.5-4.3-21.7,3.3-3.3,6.5-6.5,9.8-9.8,3,.8,1.5,3,1.1,4.5-2.1,9-4.4,18-6.6,27h0Z"/>
      <path class="st0" d="M622.3,722.8c-3.3,3.3-6.5,6.5-9.8,9.8-3.2-1-6.5-1.9-9.7-2.9-2.5-2.6-5.4-4.8-9.1-2.9-3.7,1.9-1.6,5-.7,7.7-.4.7-.8,1.4-1.2,2.2-.4-.5-.9-.5-1.4-.3-1.7-1.1-3.4-2.2-5-3.2,1.4-6.6,7.4-9.6,11.3-14.2,4.1,7.8,14.5,8.8,20.5,2,2.2-.7,3.4,1.2,5.1,1.8h0Z"/>
      <path class="st0" d="M618,765.9c1.3,1.2,2.5,2.4,2.6,4.2,0,.7-.2,1.4-.2,2.1-3.5.6-5.5,3.4-8,5.6-3.8.5-7.4-.3-10.9-1.8,0-8,5.7-11.4,16.5-10.1h0Z"/>
      <path class="st0" d="M639.6,739c4.3,3.9,9.4,6.7,15,7.6,3.7.6,4.9,1.5,2.4,4.7-6.7.3-13.4.7-20.2,1,.9-4.5,1.8-8.9,2.7-13.4h0Z"/>
      <path class="st0" d="M617.1,720.9c-6,6.8-16.5,5.8-20.5-2,1.2-3.8,3.9-1.6,5.9-1.2,4.9.9,9.8,2.2,14.7,3.2h0Z"/>
      <path class="st0" d="M585.3,733.1c1.7,1.1,3.4,2.2,5,3.2-1.2,4.3-3.5,6.5-8,4-2.4-3.8.6-5.4,3-7.2Z"/>
      <path class="st0" d="M738.8,533c6.2,16,14,31.2,22.5,46.1-13.3,5-27.5,7.3-40.4,13.4-.3,0-.6,0-.9,0-12.7-17.7-27.4-33.6-40.9-50.6-9.7-12.1-20.2-23.6-29.1-36.4,3.2-4,9.5-2.8,12.4-7.4.9,0,1.7-.1,2.6-.2,20.8,12.5,43.5,21,65.3,31.2,2.2,1,4.1.7,6.1,0,.7,1.3,1.5,2.6,2.2,4h0Z"/>
      <path class="st0" d="M662.5,498.1c-2.9,4.6-9.2,3.4-12.4,7.4-4.3-5.3-8.6-10.7-12.9-16,2.7-2.9,6.8-2.2,9.9-4,2-1.1,5.6-1.1,4.1-5.1-4.9-16.6-10-33.2-14.7-49.9-1.4-5-1.7-10.3-2.6-15.5,9.7,5.9,17.8-.1,26.3-3.4.3,4.8.9,9.6,1,14.4.5,24,.8,48.1,1.3,72.1h0Z"/>
      <path class="st0" d="M651.2,480.4c1.5,4-2.1,4-4.1,5.1-3.1,1.7-7.2,1.1-9.9,4-10.8,0-20.3,5.8-30.9,7.1-5-4.8-4.2-11.1-4.7-17.1-.8-8.3-1.5-16.7-2.3-25,1.7-.1,3.5-.3,5.2-.5.8.6,1.6,1.3,2.4,2,3.9,7.2,11.3,8.5,18.1,10.8.5.4,1.1.7,1.6,1.1.7,1.8,1.7,3.2,4.1,2.5h.3c1.8,2,2.8,5.2,6.5,4.2l.6.3c.8,1.8,1.9,3,4.1,2.4,2.7,2,5.2,4.4,9.1,3.2h0Z"/>
      <path class="st0" d="M720.1,592.5c.3,0,.6,0,.9,0,3.8,5.3,9.2-.7,13.3,1.9-.8.8-1.6,1.7-2.4,2.5-3.5,1-7.2,1.3-10.1,3.8-10.2,4.8-20.4,9.6-30.7,14.4-.8,0-1.6.1-2.3.2h0c-8.8-7.9-18.4-15-26-24.2,15.1-1.4,29.9,1.6,44.9,1.9,4.1,0,8.4,2,12.4-.5h0Z"/>
      <path class="st0" d="M646,718.7c-4.2-5.5-3.1-12.3-3.7-18.5-.7-7-4.2-9.7-10.6-10.4-5.2-.6-10.7-.3-15.5-3.1,5.5-14.2,11.6-28.2,19.7-41.2,4.1,12.6,3.1,25.7,4.3,38.7.5,5.6,2.5,7.8,7.9,8.6,9.7,1.4,19.3,3.7,28.5,7.2,1.7.6,5.7.2,3.4,4.3-1.2.3-2.6.3-3.7.8-10.1,4.5-20.1,9-30.1,13.6h0Z"/>
      <path class="st0" d="M646,718.7c10-4.5,20.1-9.1,30.1-13.6,1.1-.5,2.5-.5,3.7-.8,1.4,7.9-4.3,13.4-6.8,19.9-3,7.9-5.6,16.1-11.2,22.7-6.4-7.6-9-17.7-16.2-24.8.1-1.2.3-2.3.4-3.4h0Z"/>
      <path class="st0" d="M688.7,615.3c.8,0,1.6-.1,2.3-.2-.8,0-1.6.1-2.3.2Z"/>
      <path class="st0" d="M735.7,593.9c26.1-6.8,52.2-13.5,78.3-20.3,4.7-1.2,7.3.4,7.1,5.5-8,6.6-10.2,16.7-14.6,25.3-5.9,11.6-10.4,24-15.5,36-.5,0-.9-.2-1.2-.5-13.6-12.7-28.2-24.4-42.8-35.9-4-3.2-7.8-6.5-11.3-10.1h0Z"/>
      <path class="st0" d="M855.6,698.3c-.6.7-1.3,1.4-1.9,2.1-13.3,5-24.2,14-36.4,20.8-6.9,3.8-13.2,8.4-20.2,12.2-7.9,4.2-6.8-.2-6.1-4.5,2-11.7,2.2-23.4,2-35.1-.3-13.9-.8-27.7-1.1-41.6,0-3.2-.7-6.4,1-9.5,18.1,14.5,35.3,30.1,51.8,46.4,3.4,3.4,6.9,6.7,11,9.2h0Z"/>
      <path class="st0" d="M478.3,459c1.1-.3,2.3-.5,3.5-.8-1,1-2,1.6-3.5.8Z"/>
      <path class="st0" d="M768.7,576.9c6.7-3.4,13.2-7.7,21.2-3.7-6.5,4.2-13.3,7.1-21.2,3.7Z"/>
      <path class="st0" d="M795.8,572c6.3-4.8,13.9-5,21.3-5.6-6.1,5.6-13.5,6.7-21.3,5.6Z"/>
      <path class="st0" d="M791.4,572.2c1.3-1.6,2.8-1.5,4.2-.2-1.4,1.4-2.8,1.5-4.2.2Z"/>
      <path class="st0" d="M736.6,529.1c-2,.8-3.9,1.1-6.1,0-21.9-10.2-44.6-18.7-65.4-31.2,16.9-9.4,33.6-19.1,50.7-28,6.8-3.5,10.4-6.8,4.8-14,3.6,2.5,7.2,4.9,10.8,7.4.2.3.2.7,0,1-2.1,11.2,1.3,22,2.2,33.1.8,10.5,1.9,21.1,2.9,31.6h0Z"/>
      <path class="st0" d="M731.5,463.4c-3.6-2.5-7.2-4.9-10.8-7.4-1.2-1.1-2.3-2.1-3.5-3.2-.5-.4-1-.9-1.4-1.3-.7-.6-1.4-1.2-2-1.8-3-2.7-6-5.3-9.8-6.8-.9-.7-1.7-1.4-2.6-2.2-.7-.6-1.4-1.3-2.1-1.9-2.2-1.7-4.4-3.4-6.6-5-1.1-3.2-4.2-3.5-6.8-4.7-5.8-4.8-11.6-9.5-17.4-14.2.2-2-.7-2.6-2.5-2-1.3-1.7-2.7-3.4-4-5,.9-1,1.9-2.1,2.8-3.1,1.2,4.1,3.8,4.2,7.4,3,13.4-4.4,26.9-8.3,40.2-12.9,3.8-1.3,5.2-1,7.4,2.5,4.9,8,10.7,15.5,17.3,22.2,2.9,3,7.3,3,11,4.5-2.6,10.6-8.2,20-12.3,30-1.2,3-1.2,6.9-4.2,9.2h0Z"/>
      <path class="st0" d="M664.6,404.8c-.9,1-1.9,2.1-2.8,3.1l-1.5,1.2c-.6-.7-1.2-1.3-1.8-2,1.1-6.2-4.8-7.7-7.6-11.3-.7-.8-1.4-1.5-2.1-2.3-5.3-11.1-13.7-20-20.9-29.8-3.4-4.7-7.3-9.1-10.7-13.9,9.8-4.4,19.7-8.7,29.5-13.1,11.5-3.4,22.2-9.2,33.9-11.8.5.4.9.9,1.4,1.3-3.9,22.9-10.6,45.2-15.9,67.9-.5,2-.8,4.1-1.2,6.2,0,.7,0,1.5-.2,2.2,0,.7-.1,1.5-.2,2.2h0Z"/>
      <path class="st0" d="M664.8,402.5c0-.7,0-1.5.2-2.2,0,.7,0,1.5-.2,2.2Z"/>
      <path class="st0" d="M570.5,173.8c-2.3-2.2-4.9-3.9-8.3-3.5-.9-1.7-1.8-3.5-2.8-5.2.8-2.4-.5-4.2-1.4-6.2-.5-1.2-.7-2.6-1.5-3.5-20.7-25.9-46.2-29.5-73.5-10.5-.7.9-1.4,1.9-2.1,2.8-.6-4.7,1.7-7.2,6-9,4.5-1.8,8.7-4.3,13.1-6.5-5.8-2.4-10.7-2-15.1,2.1-3.7,3.4-6.7,7.6-11.1,10.1,5.7-8.7,12.9-15.6,22.8-19.2.8,0,1.5-.2,2.2-.2,1.9-.3,3.8-.7,5.7-1,3.5.7,6.9-.3,10.2-1.1.8,0,1.5,0,2.3,0,.8,0,1.5,0,2.2,0,2.3.8,4.7,1.6,7,2.4,16.3,6.6,30.8,15.7,40.4,31,3.3,5.3,5.3,11,4,17.4h0Z"/>
      <path class="st0" d="M550.9,213.5c.3-3.3,2.9-5.1,5.1-6.8,7-5.2,8.6-13.8,13.3-20.3-1.3,12.3-7.6,21.3-18.5,27.1h0Z"/>
      <path class="st0" d="M570.4,182.9c-2.1-3.1-2.3-6.1.2-9,1.8,3.1,2,6.1-.2,9Z"/>
      <path class="st0" d="M542.9,219.2c.6-3.1,2.1-5.1,5.7-3.8-1.2,2.3-3.7,2.6-5.7,3.8Z"/>
      <path class="st0" d="M520.4,228.8c1.1-.8,2.2-.4,3.2.2-1.1,1-2.2.5-3.2-.2Z"/>
      <path class="st0" d="M518.2,229.2c.7-.1,1.5-.2,2.2-.4-.7.1-1.5.2-2.2.4Z"/>
      <path class="st0" d="M527.2,226.8c.8-.1,1.5-.3,2.3-.4-.8.1-1.5.3-2.3.4Z"/>
      <path class="st0" d="M473.7,144.4c4.5-2.5,7.5-6.7,11.1-10.1,4.4-4.1,9.4-4.5,15.1-2.1-4.4,2.2-8.6,4.7-13.1,6.5-4.2,1.7-6.5,4.3-6,9-3.3,11.4-7.9,22.7-4,34.9-1.3,3.1,1.6,5.5,1.2,8.4-6.4-4.9-11.9-10.6-15.3-18-.1-.6,0-1.1.5-1.4.1-.8.2-1.5.3-2.3v-.2c.9-.9,1.5-2,.9-3.3.3-8.4,3.8-15.3,9.2-21.5h0Z"/>
      <path class="st0" d="M464.5,165.9c.6,1.3,0,2.4-.9,3.3-.5-1.3,0-2.4.9-3.3Z"/>
      <path class="st0" d="M463.5,169.4c0,.8-.2,1.5-.3,2.3,0-.8.2-1.5.3-2.3Z"/>
      <path class="st0" d="M648.8,393.5c.7.8,1.4,1.5,2.1,2.3-1.5,6.5,4.8,7.8,7.6,11.3.6.7,1.2,1.3,1.8,2,0,.9,0,1.7,0,2.6-8.5,3.2-16.7,9.2-26.3,3.4h0c2.8-4.1.4-6.7-2.7-9.1,0,0,0,.3,0,.2,1-1.6.2-2.7-1-3.7v.2c.5-.7.7-1.3-.5-1.4-4-13.5-8.1-27-12.2-40.6,10.1,2.2,12.2,12.3,18.3,18.5,4.5,4.6,6,11.9,12.9,14.3h0Z"/>
      <path class="st0" d="M625,466.8c-6.8-2.4-14.3-3.5-18.1-10.8,7,2,12.8,6,18.1,10.8Z"/>
      <path class="st0" d="M631.3,405.9c3.1,2.4,5.5,5,2.7,9.2-1.9-2.8-2.5-5.9-2.7-9.2Z"/>
      <path class="st0" d="M637.4,474.5c-3.6,1-4.6-2.2-6.5-4,3,0,4.4,2.5,6.5,4Z"/>
      <path class="st0" d="M630.7,470.4c-2.3.7-3.3-.7-4.1-2.5,1.4.8,2.7,1.7,4.1,2.5Z"/>
      <path class="st0" d="M642.1,477.2c-2.2.6-3.3-.6-4.1-2.4,1.8,0,2.9,1.3,4.1,2.4Z"/>
      <path class="st0" d="M630.4,402.5c1.2,1,2,2.1,1,3.7-.9-1.1-1.4-2.3-1-3.7Z"/>
      <path class="st0" d="M629.8,401.3c1.2,0,1,.6.5,1.4-.5-.3-.7-.8-.5-1.4Z"/>
      <path class="st0" d="M646.7,336.8c-9.8,4.4-19.7,8.7-29.5,13.1-.6-.5-1.6-.9-1.8-1.6-4.8-17.6-9-35.4-10.6-53.7,1,1.2,2.6,2.2,3.1,3.6,5.2,14.5,16.7,19.9,30.9,21.4,4,.4,5.2,3,5.1,6.8-.2,3.7-.5,7.6,2.9,10.3h0Z"/>
      <path class="st0" d="M680.8,322.9c.2,0,.5-.1.7-.2-.2,0-.5.1-.7.2h0Z"/>
      <path class="st0" d="M551,204.1c-13.9-11.5-24.7-25.8-35.1-40.3,2.5-1.5,4.1.1,5.9,1.5,2.6,7.1,8.1,12.5,11.7,18.9,2.4,4.2,5.2,3.5,8.2.2,5.8-6.5,11.8-12.9,17.7-19.4.9,1.8,1.8,3.5,2.8,5.2-.1,11.3-3.2,21.8-8.4,31.8-.6,1.2-1,2.4-2.8,1.9h0Z"/>
      <path class="st0" d="M505.6,229.3c-3.1,1.5-5.1,0-6.6-2.4,2.6-.3,4.8.7,6.6,2.4Z"/>
      <path class="st0" d="M498.8,226.8c-1.7.9-2.6.1-3.2-1.4,1.1.5,2.2.9,3.2,1.4Z"/>
      <path class="st0" d="M599.1,755.6c8.1-9.4,8.5,2.3,12.4,4.5-6-.1-11.5,1.3-15.5,7.8-1.3-5.8,2.9-8.5,3.1-12.3h0Z"/>
      <path class="st0" d="M620.4,772.2c0-.7.2-1.4.2-2.1,0,.7-.2,1.4-.2,2.1Z"/>
      <path class="st0" d="M593,734.5c-.9-2.7-3-5.7.7-7.7,3.7-1.9,6.6.3,9.1,2.9-3.3,1.6-6.5,3.2-9.8,4.8Z"/>
      <path class="st0" d="M660.3,411.7c0-.9,0-1.7,0-2.6l1.5-1.2c1.3,1.7,2.7,3.4,4,5-.1,1.9.8,2.5,2.5,2,5.8,4.8,11.6,9.5,17.4,14.2,1.6,2.5,2.9,5.4,6.8,4.7,2.2,1.7,4.4,3.4,6.6,5-.4,1.8.2,2.6,2.1,1.9.9.7,1.7,1.4,2.6,2.2,2.7,3.1,4.4,7.6,9.8,6.8.7.6,1.4,1.2,2,1.8-.1,1.1.4,1.5,1.4,1.3,1.2,1.1,2.3,2.1,3.5,3.2,5.5,7.2,1.9,10.4-4.8,14-17.1,8.9-33.8,18.6-50.7,28-.9,0-1.7.1-2.6.2-.4-24-.8-48.1-1.3-72.1,0-4.8-.7-9.6-1-14.4h0Z"/>
      <path class="st0" d="M713.7,449.8c-5.4.8-7.1-3.7-9.8-6.8,3.8,1.5,6.9,4,9.8,6.8Z"/>
      <path class="st0" d="M692.6,433.9c-3.8.7-5.2-2.1-6.8-4.7,2.5,1.2,5.6,1.5,6.8,4.7Z"/>
      <path class="st0" d="M668.4,414.9c-1.8.5-2.6-.1-2.5-2,1.8-.5,2.7,0,2.5,2Z"/>
      <path class="st0" d="M701.3,440.8c-1.9.7-2.5,0-2.1-1.9.7.6,1.4,1.3,2.1,1.9Z"/>
      <path class="st0" d="M717.2,452.8c-1.1.2-1.5-.2-1.4-1.3.5.4,1,.9,1.4,1.3Z"/>
      <path class="st0" d="M658.6,407.1c-2.9-3.6-9.1-4.9-7.6-11.3,2.8,3.6,8.7,5.1,7.6,11.3Z"/>
      <path class="st0" d="M521.8,165.3c7.4-3.4,15.3-3,23.2-3.6,4.5-.3,9-.5,13.1-2.8.9,2,2.3,3.8,1.5,6.2-5.9,6.4-11.9,12.9-17.7,19.4-2.9,3.3-5.8,4-8.2-.2-3.7-6.5-9.1-11.8-11.7-18.9h0Z"/>
      <path class="st0" d="M513.7,162c.7.6,1.5,1.3,2.2,1.9-11.7,8.9-26.3,12-39,18.8-3.9-12.2.7-23.5,4-34.9.7-.9,1.4-1.9,2.1-2.8,3.4,3.7,8.6,4.5,12.5,7.5,2,7.6-5.8,7.7-9,11.3-1.3,1.4-2.9,2.5-2.4,4.6.6,2.5,2.7,1.7,4.6,1.8,9.4.4,17.8-1.9,24.9-8.1h0Z"/>
      <path class="st0" d="M513.7,162c-7.2,6.2-15.6,8.6-24.9,8.1-1.8,0-3.9.8-4.6-1.8-.5-2.1,1.1-3.2,2.4-4.6,3.2-3.6,10.9-3.7,9-11.3,6.6,2.2,13,4.6,18.2,9.5h0Z"/>
    </g>
    <g>
      <g>
        <path class="st0" d="M244.5,483.2c.5,3.2,9.8,30,11.4,30,.8-1.2,1.8-1.8,2.9-2.6-.7,2.5-4.4,5.4-6.5,7.2-5.4-2.5-14.4-3-20.9-3.9-6.1-.9-12.1-2.1-18.2-2.6v-1.3c.3-.1,3.7-3.8,4.6-4.6.3.5.9,2,1,2,1.8-.3,20.6-22.8,25.7-24.1h0Z"/>
        <path class="st0" d="M266.7,500.8c-2.5,3.6-4.1,7.1-7.8,9.8-1.1.8-2.1,1.4-2.9,2.6-1.6,0-10.9-26.8-11.4-30-.2-1.4-1.2-2.8-.3-3.3,3.5.7,26.2,11.9,26.4,13.4.2,1.3-5.5,6.5-3.9,7.5h0Z"/>
      </g>
      <path class="st0" d="M128.6,358.1c.3,4.5,12.5,15.4,14.3,21.5-7.8-.5-17.5-6.2-15.6,0-2.8-.5-8.1-2.2-2.6,2-.1.8.3,1.4.7,2,.2,1.5-.6,1.2-.7,1.3-.5.5-1.4.9-1.9,1.3-9.6-7.2-7-2.6-11.1,2,2.8-10,5-12.4,5.2-13,4.6,3,5.5-10.9,9.1-16.9,0-.1,1.9-1.2,1.9-1.3,0,.6.6.7.6,1.3h0Z"/>
      <path class="st0" d="M282.3,437.6c.6,9.5.7,14.7-.6,24.1-1.8-.3-3.5-1.5-5.2-2,7.8,1.7-7.8-10.5-10.4-17.3-1.1-2.8-3-15.4-2-18.6,3.7,1.6,13.9,1.2,5.2,13.4,7.5,2.3,5.3,11.8,10.8,16.6,2-11.1-7.2-15.9,2.3-16.3h0Z"/>
      <path class="st0" d="M271.9,386.8c1.1,3.5,2.3,7,3.3,10.4-.7.1-2.2.5-2.6.6-7.6-2.8-15.2-5.6-22.8-8.5-.1-.6-.5-.7-.6-1.3,5.6-3.5,7.3-9.6,10.4-15,3.8,4.6,10.3,13.7,12.4,13.7h0Z"/>
      <path class="st0" d="M163.1,272.1c-1.4,4.1-3.1,8.1-3.9,12.4-2.8,3.7-3.8,8.4-5.9,12.4-3.2,6.2-6.9,12.5-9.8,18.9-3,6.6-4.7,8.1-7.2,16.9-.2.8-.5,1.5-.6,2-1.8,7.4-4.2,11.6.6,11.7-2.8,3.5-6,6.8-8.5,10.4,0,.1-1.9,1.2-1.9,1.3.3-1.6-.8-3.3-2.6-3.3,12.7-32.3,30.1-60.4,37.8-79.2.4-.9-.9-3.6,1.9-3.6h0Z"/>
      <path class="st0" d="M235.4,302.1c-5.5,1.2-2,8.6-1.9,9.1.3,3.7,2.4,3.8-3.3,11.1-11-12.7-10.4-13.1-19.5-11.1,2.7-3.5,6.5-5.6,9.8-8.5.8-.7,2.2-1.1,1.9-2.6,2.6,1,10.3,1.4,11.7-.6.4.9.9,1.7,1.3,2.6Z"/>
      <path class="st0" d="M181.3,267.6c-6.6,11.7-11.1,3.9-10.4,7.5.5,2.6,7.1,1.9,11.1,5.5-.8.4-1.8,1-2.6,1.3-1,.4-1.5,1.3-2.3,2-5.7.2-11,.2-16.3-2-.4,1.1-1,1.7-1.6,2.6.9-4.2,2.5-8.3,3.9-12.4.1-.3-.1-1,0-1.3h.6c4.7.5,9.3-.7,13-3.3,3.3.8,3.9,0,4.6,0Z"/>
      <path class="st0" d="M247.1,354.2c1.3,0,1.3.5,1.9.6.2,3.2,14.1,14.2,15,11.4,0-.3-1.2-2.2-2-5.5,4.5,8,7.1,17.3,9.8,26.1-2,0-8.6-9.1-12.4-13.7-.4-.5-1-.9-1.3-1.3-.9-1.1-1.7-2.2-2.6-3.3-1.5-1.9-2.5-2.3-3.3-3.3-2.6-3.1-4.8-7.1-7.2-10.4.1,0-.6-.5,1.9-.6h0Z"/>
      <path class="st0" d="M243.9,319c3.4,7,8.3,13.7,9.8,21.5-1.2-1.7-1.5-4.6-2.6-2.6.8-7.9-8.6-11.5-15-8.5-.2,0-.5,0-.6,0-1.4-2.2-3.5-5.2-5.2-7.2,5.6-7.2,3.6-7.4,3.3-11.1,4.6,3.1,9.7,11.5,10.4,7.8h0Z"/>
      <path class="st0" d="M235.4,302.1c2.8,5.7,5.7,11.3,8.5,16.9-.7,3.7-5.8-4.7-10.4-7.8,0-.5-3.6-7.9,1.9-9.1Z"/>
      <path class="st0" d="M122.7,386.1c-4.9,3.5-9.2,7-13.7,11.1.8-3,1.8-6.1,2.6-9.1,4.1-4.5,1.5-9.1,11.1-2h0Z"/>
      <path class="st0" d="M126,358.1c-3.6,6-4.5,19.9-9.1,16.9,2.2-6.7,3.9-13.5,6.5-20.2,1.8,0,2.9,1.7,2.6,3.3Z"/>
      <path class="st0" d="M276.4,459.7c1.7.5,3.4,1.6,5.2,2-.5,3.2-.6,2.5-.6,2.6-1.5-.2-1.2.6-1.3.6-3.2,0-8.9-1.4-12.4-2-.4-1.6-1.8-3.3-1.3-5.2,3.5,0,7.2,1,10.4,2h0Z"/>
      <path class="st0" d="M262.1,358.8c.1.5-.1,1.4,0,2,.7,3.3,2,5.3,2,5.5-.9,2.8-14.8-8.2-15-11.4,4.4.7,8.5,3.4,13,3.9h0Z"/>
      <path class="st0" d="M253.6,340.5s.2-.2.6.6c-6.2,4.8-4.9,8.4,3.3,7.2.7,1.6,1.4,2.9,2,4.6-3.4-.7-7-1.2-10.4-2-.1,0,.3-1-1.9-.6,0-.5-.4-2-.6-2.6,1.2-2.4,4.3-7.3,4.6-9.8,1.1-2,1.4.9,2.6,2.6h0Z"/>
      <path class="st0" d="M259.5,352.9c.7,2,2,3.8,2.6,5.9-4.5-.5-8.6-3.2-13-3.9-.6-.1-.7-.7-1.9-.6l1.9-3.3c3.4.8,7,1.2,10.4,2h0Z"/>
      <path class="st0" d="M257.6,348.3c-8.2,1.2-9.4-2.4-3.3-7.2,1.8,3,2,4.4,3.3,7.2Z"/>
      <g>
        <path class="st0" d="M205.4,457.1c2.2,17.8,4.3,35.6,6.5,53.4-14.8-5.6-29.5-11.3-44.3-16.9.7-.7.6-1.9.6-2,12.4-11.5,24-23.8,35.8-35.8,1,.1,1.2,1.2,1.3,1.3h0Z"/>
        <path class="st0" d="M210,459.7c10.6,6.6,21.8,13.9,33.2,18.2v.6c-8.4,8.7-16.7,18.5-25.4,26.7-.9.8-4.3,4.4-4.6,4.6-.5.2-.8.6-1.3.6-2.2-17.8-4.3-35.6-6.5-53.4.2.1,2.7,1.4,4.6,2.6h0Z"/>
      </g>
      <g>
        <g>
          <path class="st0" d="M134.4,451.9c.7.9.6,1.9.6,2,.3,1.4-.5,1-1.3,2-10.5-2.8-20.4-7.4-30.6-11.1,0,0,.3-1-1.9-.6v-.6c4.9-1.4,10.5-13.2,13.7-18.2.2,0,.4,0,.7,0,5.4,9.5,12.4,17.9,18.9,26.7h0Z"/>
          <path class="st0" d="M114.9,425.2c-3.2,5-8.8,16.9-13.7,18.2.4-9.1,4.1-28.9,6.5-38.4-.2,1.9.8,10-1.3,18.6,3.6,1.7,7.1,1.3,8.5,1.6Z"/>
        </g>
        <g>
          <path class="st0" d="M144.2,490.4c0,7.3-.6,19.3.6,21.5-.2.1-2.4,3.2-2.9,3.9-3.4,1-18.3-10.3-22.5-12.4-6.4-8.9-12-19.2-15-30,7.2-2.7,21.5-11,27.4-15.6.9-.7,1.2-1.1,1.9-2,3.1,11.6,2.4,24.9,10.4,34.5h0Z"/>
          <path class="st0" d="M135.7,454.5c10,13.4,19.5,25.1,31.9,36.5,0,0-.1.7.6.6,0,0,0,1.3-.6,2-3.6,3.3-8.6,5.9-12.4,9.1-1.2-7.1-1.6-11-7.8-15.3-.7-5-1.3-10-1.9-15h-1.3c0,6,0,11.9,0,17.9-8-9.6-7.4-22.9-10.4-34.5.8-1,1.6-.6,1.3-2,0,0,.2,0,.6.6h0Z"/>
          <path class="st0" d="M155.3,502.7c-3.6,3-6.7,6.2-10.4,9.1-1.2-2.2-.7-14.1-.6-21.5,0-6,0-11.9,0-17.9h1.3c.7,5,1.3,10,1.9,15,6.2,4.3,6.6,8.2,7.8,15.3h0Z"/>
        </g>
        <g>
          <path class="st0" d="M103.1,444.8c-2.6,5.7,1.8,11.1,6.8,13.7s11.3,2.3,16.9.6c2.5-.7,5.4-3.7,4.9-1.3-5.9,4.6-20.2,13-27.4,15.6-2.6-9.6-3.7-19.5-3.3-29.3,2.2-.3,1.9.6,2,.6Z"/>
          <path class="st0" d="M133.8,455.8c-.7.9-1.1,1.2-1.9,2,.5-2.4-2.4.6-4.9,1.3-5.6,1.6-11.8,1.9-16.9-.6-5.1-2.6-9.4-8-6.8-13.7,10.2,3.6,20.1,8.3,30.6,11.1Z"/>
        </g>
      </g>
      <g>
        <path class="st0" d="M211.9,510.6c.5,0,.8-.4,1.3-.6v1.3c-5.4,5.3-10.9,10.6-16.3,16,2.9,4.8,14.3,6.5,2.9,12-13.5,6.6,2.4-4.8,2.3-5.5-6.9-7.5-16.9.7-9.8,7.5-29.4.3-55.9-14.2-73-37.8,4.2,2.1,19.1,13.4,22.5,12.4.6-.7,2.7-3.8,2.9-3.9,3.7-2.9,6.9-6.1,10.4-9.1,3.8-3.2,8.8-5.8,12.4-9.1,14.8,5.6,29.5,11.3,44.3,16.9h0Z"/>
        <path class="st0" d="M252.3,517.7c-3.2,2.8-7.5,6.2-11.1,8.5-1.7-.1-3.7-.7-3.9-.7,0-.8-.5-.6-.6-.7-1.7-3.7-3.5-7.4-5.2-11.1,6.5.9,15.4,1.4,20.9,3.9h0Z"/>
        <g>
          <path class="st0" d="M213.3,511.2c6.1.5,12.2,1.8,18.2,2.6,1.7,3.7,3.5,7.4,5.2,11.1-2.3-1.4-22.9-5.6-25.1-5.2-1.1.2-7.6,4.4-4.6,5.9,1.3.6,27.9,2.2,29.3,2,1-.2.9-1.9,1-2,.2,0,2.2.5,3.9.7-14.3,8.9-32,14.8-48.9,15-7.1-6.8,2.9-15,9.8-7.5.1.8-15.8,12.1-2.3,5.5,11.4-5.5,0-7.2-2.9-12,5.4-5.3,10.9-10.6,16.3-16h0Z"/>
          <path class="st0" d="M236.7,524.9c.1,0,.7-.1.6.7-.1,0,0,1.8-1,2-1.4.2-28-1.3-29.3-2-3.1-1.4,3.5-5.7,4.6-5.9,2.2-.4,22.8,3.8,25.1,5.2h0Z"/>
        </g>
      </g>
      <path class="st0" d="M231.5,426.5v1.3c-9.1,9.1-18.2,18.2-27.4,27.4-2.6-17.4-6-34.7-8.5-52.1,0-.4,0-.9,0-1.3h.6c11.7,8.3,23.5,16.5,35.2,24.8h0Z"/>
      <path class="st0" d="M238,433.7c8.7,8,17.7,15.7,26.1,24.1-1.1,1.9-4.8,5.3-6.5,7.2-4.4,4.8-9.8,9-14.3,13.7v-.6c-2.6-13.8-6.9-27.3-9.8-41-.6-2.8-.9-5.7-1.3-8.5,1.9,1.7,4,3.4,5.9,5.2h0Z"/>
      <path class="st0" d="M252.3,423.3c2.1,6.1,4.2,12.5,6.5,18.6,1.6,4.2,7.3,10.9,5.9,15.3-.3.9-.6.6-.6.6-8.3-8.4-17.4-16.1-26.1-24.1,1.3,0-.3-1.3-1.3-2.6,4.8-2.6,10.7-8,15.6-7.8h0Z"/>
      <path class="st0" d="M264.1,423.9c-1.1,3.1.9,15.8,2,18.6,2.6,6.7,18.2,19,10.4,17.3-3.2-1-7-2-10.4-2-.6,0-.7-.7-1.3-.6,1.5-4.4-4.2-11.1-5.9-15.3-2.3-6.1-4.4-12.4-6.5-18.6-.4-1.3-1.2-2.5-1.3-3.9,8.7,2.1,5.9.5,6.2.6,2.2.7,4.7,2.9,6.8,3.9h0Z"/>
      <path class="st0" d="M272.5,397.9c-4.1,2-15.5,10.3-20.2,13.7.3-2.2-.6-1.9-.6-2-.9-5-.8-15.8-1.9-20.2,7.6,2.8,15.2,5.6,22.8,8.5h0Z"/>
      <path class="st0" d="M232.1,428.5c.4,2.8.7,5.7,1.3,8.5-9.4,5.2-16.9,15-23.4,22.8-1.9-1.2-4.3-2.5-4.6-2.6,0,0-.3-1.2-1.3-1.3v-.6c9.1-9.1,18.2-18.2,27.4-27.4.8,0,.6.6.6.6h0Z"/>
      <path class="st0" d="M251,419.4c.1,1.4.9,2.6,1.3,3.9-4.9-.2-10.9,5.2-15.6,7.8,0-.1-1.9-1.2-1.9-1.6,0-1.5,13.1-11.2,14-11.4,2-.4,2.1,1.3,2.3,1.3Z"/>
      <g>
        <path class="st0" d="M275.1,397.2c3.5,13.3,6.3,26.6,7.2,40.4-9.5.4-.2,5.2-2.3,16.3-5.4-4.8-3.2-14.4-10.8-16.6,8.7-12.2-1.5-11.7-5.2-13.4-2.2-1-4.6-3.2-6.8-3.9-.3-.1,2.5,1.5-6.2-.6-.1,0-.3-1.7-2.3-1.3-.9.2-14,10-14,11.4s1.9,1.5,1.9,1.6c1,1.3,2.6,2.6,1.3,2.6-1.9-1.8-3.9-3.5-5.9-5.2,0,0,.1-.7-.6-.6v-.6c7.2-4.9,13.8-10.6,20.9-15.6,4.7-3.4,16.1-11.7,20.2-13.7.4-.2,1.9-.5,2.6-.6h0Z"/>
        <path class="st0" d="M275.8,410.9c-1.3,0-2.2.9-3.3,1.3-2.2.8-16.4,6.3-16.9,5.5-2.2-3.4,7.9-4.5-2.6-4.6,1.8-2.9,3.4-.3,4.9-1,2.5-1.1,11.3-9.5,13.7-7.8.8.6-1.3,3.5,4.2,6.5h0Z"/>
        <path class="st0" d="M275.8,410.9c3.1,6.1,4.2,20,0,15.3-.5-.5-3.9-12.5-3.3-14,1.1-.4,2-1.4,3.3-1.3Z"/>
      </g>
      <path class="st0" d="M279.7,465c1.2,2.2-8,8.6-7.2,10.1,1.8,3,9-4.8-1,16-1.9-6.5-2.6-13.5-3.6-20.2-.4-2.6,0-5.1-.6-7.8,3.5.6,9.1,1.9,12.4,2h0Z"/>
      <g>
        <path class="st0" d="M281,464.3c-2.5,14.2-6.2,24.5-14.3,36.5-1.6-1,4.1-6.2,3.9-7.5-.2-1.5-22.9-12.6-26.4-13.4-.9.5.1,1.8.3,3.3-5.1,1.3-24,23.8-25.7,24.1-.1,0-.7-1.5-1-2,8.7-8.3,17-18,25.4-26.7,4.6-4.7,9.9-8.9,14.3-13.7,3.5,2,6.9,3.9,10.4,5.9,1,6.7,1.7,13.7,3.6,20.2,10-20.7,2.8-12.9,1-16-.9-1.5,8.3-7.9,7.2-10.1,0,0-.2-.9,1.3-.6h0Z"/>
        <path class="st0" d="M266,457.8c-.5,1.9.9,3.6,1.3,5.2.6,2.7.3,5.3.6,7.8-3.5-2-6.9-3.9-10.4-5.9,1.7-1.9,5.5-5.2,6.5-7.2,0,0,.4.3.6-.6.6,0,.7.6,1.3.6h0Z"/>
      </g>
      <g>
        <path class="st0" d="M147.5,441.5c4.1-3.8,10-8.3,10.1-9.8-13.6-1.5-27.7-3.9-40.7-6.5,0-.4,0-1,0-1.3,5.9-5,11.3-10.5,16.9-15.6,5.1-4.6,12.3-11.7,16.9-15.6,2.6-2.2,6-4.4,9.1-5.9-.5,15.3.4,30.6,0,45.9l-12.4,8.8h0Z"/>
        <path class="st0" d="M116.8,425.2c13,2.6,27.1,5,40.7,6.5-.1,1.5-6,6-10.1,9.8-4.1,3.7-8.1,7.8-13,10.4-6.5-8.8-13.5-17.2-18.9-26.7.4,0,.9,0,1.3,0h0Z"/>
      </g>
      <path class="st0" d="M194.4,403.1c-3.9,2.7-32.9,27.8-33.2,30,1,10.9,2.6,21.7,3.9,32.6-9.9-1.9-19.1-8.5-29.3-11.1-.5-.6-.6-.6-.6-.6,0,0,0-1.1-.6-2,5-2.6,8.9-6.7,13-10.4l12.4-8.8c.4-15.3-.5-30.7,0-45.9,0-.7-.2-1.4.6-1.3,1.8.4,31.5,13.9,32.9,15,1,.8,1.1,1.4,1,2.6h0Z"/>
      <path class="st0" d="M153.3,352.9c0,0,0,.6-1,1.3-7.5,1.1-15.2,1.7-22.5,3.9-.3.1-.9,0-1.3,0,0-.6-.7-.7-.7-1.3,2.5-3.7,5.7-7,8.5-10.4,3.2-3.9,6.9-7.5,9.8-11.7.2-.3.4-1,.6-1.3,2.2,6.5,4.3,13,6.5,19.5h0Z"/>
      <path class="st0" d="M129.9,358.1l20.9,8.5c-.1.1,0,.5,0,.6,0,0-.6,0-1.3,1,4,5.1,10.3,7.4,9.8,10.1-1.8.8-13.8,1.5-16.3,1.3-1.8-6.1-14.1-17-14.3-21.5.4,0,1,.1,1.3,0h0Z"/>
      <path class="st0" d="M191.1,360.1v1.3c-11.1,7.8-22.1,15.6-33.2,23.5-3,.2-4.9,2.3-5.5,2-.3-.1-2.4-5.5-3.3-5.9-1-.4-4.9,1.4-21.8-1.3-1.9-6.2,7.8-.5,15.6,0,2.5.2,14.5-.6,16.3-1.3,2-.8,1.9-1.2,1.9-1.3,6.6.7,16-12.2,28.7-16.9h1.3Z"/>
      <g>
        <path class="st0" d="M116.8,423.9c0,.3,0,.9,0,1.3-.4,0-.9,0-1.3,0-.2,0-.4,0-.7,0-1.3-.3-4.9,0-8.5-1.6,2.1-8.6,1.1-16.6,1.3-18.6.1-1.1,0-2.2,0-3.3,5.9-5.2,11.7-10.4,17.6-15.6.9,8.6.4,17.2.7,25.7-2,2.5-8.5,10-9.1,12h0Z"/>
        <path class="st0" d="M125.3,386.1c-5.9,5.2-11.7,10.4-17.6,15.6.4-1.5.9-3,1.3-4.6,4.4-4,8.8-7.6,13.7-11.1.6-.4,1.4-.8,1.9-1.3,0,.6.6.6.7,1.3h0Z"/>
        <g>
          <path class="st0" d="M133.8,408.3c-5.7,5.2-11.1,10.7-16.9,15.6.6-2.1,7.1-9.6,9.1-12-.3-8.6.2-17.2-.7-25.7,0-.6-.7-.7-.7-1.3,0,0,.9.2.7-1.3,4.8,7.4,4,11.4,8.5,13.4v11.4h0Z"/>
          <path class="st0" d="M150.7,392.6c-4.6,3.9-11.9,11-16.9,15.6v-11.4c-4.5-2-3.7-5.9-8.5-13.4-.4-.6-.8-1.2-.7-2,1.6,1.2,22.5,5.8,26.1,11.1h0Z"/>
          <path class="st0" d="M127.3,379.6c16.9,2.7,20.8.9,21.8,1.3.9.4,2.9,5.7,3.3,5.9.6.3,2.5-1.8,5.5-2,3.1-.2,2.5.6,2.6.6-.9,0-.6.6-.6,1.3-3.1,1.5-6.5,3.6-9.1,5.9-3.6-5.2-24.5-9.9-26.1-11.1-5.5-4.1-.2-2.4,2.6-2h0Z"/>
        </g>
      </g>
      <path class="st0" d="M245.2,381.6c0,.1.4-.1,1.3,2,.4,1,2,2.7,2.6,4.6.2.6.5.7.6,1.3,1.1,4.4,1.1,15.2,1.9,20.2-9.1-6.2-18-15.2-27.4-22.1,3.8-4.2,13.8-3.6,17.3-4.6,1.7-.5,1-4,3.6-1.3h0Z"/>
      <path class="st0" d="M258.2,371.8c.3.4.9.8,1.3,1.3-3.1,5.4-4.8,11.5-10.4,15-.6-1.9-2.2-3.5-2.6-4.6,3.2.1,4.5-10,11.7-11.7h0Z"/>
      <path class="st0" d="M179.4,281.9c1.5,3.1,5.3-.2,7.8,1.3.5.3,2.9,4.6,3.9,5.9-2.9-.6-5.2-.6-7.8.6-2.1-1.2-4.9-3.2-6.5-3.3l-.3-1.3c-4.6,5.5-11.1,8.8-16.6,13h-1.3c12.2-13.6,4.3-9.2-5.2-1.3,2.1-4,3.1-8.7,5.9-12.4.6-.9,1.3-1.5,1.6-2.6,5.3,2.1,10.6,2.2,16.3,2,.8-.6,1.3-1.6,2.3-2h0Z"/>
      <path class="st0" d="M158.5,298.2c-1.5,1.6-10.3,2.1-2.6,16.9-2.9-.9-11.8,3.2-12.4,6.5,0-.3,0-.7-.6-.6.4-1.7.7-3.5.6-5.2,2.9-6.4,6.6-12.6,9.8-18.9,9.6-7.9,17.4-12.3,5.2,1.3h0Z"/>
      <path class="st0" d="M146.1,334.7c-2.9,4.2-6.6,7.8-9.8,11.7-4.9-.1-2.5-4.3-.6-11.7h10.4Z"/>
      <path class="st0" d="M148.8,329.4c0,1.6-1.2,2.7-1.9,3.9-.2.3-.4,1-.6,1.3h-10.4c.1-.5.4-1.1.6-2,1.8-1.2,3.7-3.3,4.6-5.2.5,1.6,2.2-.4,2.6-1.3,4.5,1.2,5,3.1,5.2,3.3h0Z"/>
      <path class="st0" d="M142.9,321c-.4,1.5-1.4,5.3-1.9,6.5-.9,1.9-2.7,4-4.6,5.2,2.5-8.9,4.2-10.4,7.2-16.9,0,1.7-.3,3.5-.6,5.2h0Z"/>
      <path class="st0" d="M191.1,289.1c2.4,2.9,3.7,6.7,7.5,8.5,5.8-2.2,15.6,1.4,18.6-2,1.6,1.2,3.6,4,5.2,4.6.3,1.5-1.1,1.9-1.9,2.6-3.7-2.7-13.5-.7-20.2-1.3h-.6c-4.8-4.5-10.7-8.4-16.3-11.7,2.6-1.2,5-1.3,7.8-.6h0Z"/>
      <path class="st0" d="M220.4,302.7c-3.2,2.8-7.1,5-9.8,8.5,0,0,.2.9-1.3.6-.8-1.2-6.9-6.6-9.1-10.4,6.6.6,16.5-1.4,20.2,1.3h0Z"/>
      <path class="st0" d="M183.9,267.6v.6c.6,3.5,2.6,5.8,4.6,8.8-2.2,1.2-4.4,2.4-6.5,3.6-3.9-3.7-10.6-3-11.1-5.5-.7-3.5,3.8,4.2,10.4-7.5.9,0,1.7,0,2.6,0h0Z"/>
      <path class="st0" d="M191.1,274.7c-.9,1.2,0,2.2.6,3.3.2,1.5-.6,1.2-.6,1.3-2.3-5-2.5,1.2-3.9,3.9-2.5-1.5-6.4,1.8-7.8-1.3.8-.3,1.8-.9,2.6-1.3,2.2-1.2,4.3-2.4,6.5-3.6-1.9-3-3.9-5.3-4.6-8.8,3.9,2.2,3,3.8,7.2,6.5h0Z"/>
      <path class="st0" d="M235.4,329.4c.1,0,.5,0,.6,0,1.6,4,3.8,7.9,5.9,11.7-1.1,1.2-3.6,7.8-3.3,8.8.2.5,7.9,4.9,8.5.3,2.2-.3,1.9.6,1.9.6l-1.9,3.3c-2.6.2-1.9.6-1.9.6-6.2,2.4-6.8,8-7.2,8.5-3.9-5.1-9.1-8.7-13.7-13,2.5-2.7,6.5-.5,9.8-1.3,2.2-2.1-3.3-11.8-3.3-15,0-3.2.9-4.5,2.3-1.3,1-3.7.8-2.4,2.3-3.3h0Z"/>
      <path class="st0" d="M252.3,365.3c.8.9,1.7,1.4,3.3,3.3-5.3,1.7-6.6,8.2-11.1,11.1-1-2.1-1.2-1.9-1.3-2-2.1-4-3.5-8.5-5.9-12.4.5-.7.6-.6.6-.6,4.8.2,9.6.4,14.3.6h0Z"/>
      <path class="st0" d="M252.3,365.3c-4.8-.2-9.6-.4-14.3-.6.1-.2-.1-1.1,0-1.3.3-.5,1-6,7.2-8.5,2.3,3.3,4.6,7.3,7.2,10.4h0Z"/>
      <path class="st0" d="M255.6,368.5c.9,1.1,1.7,2.2,2.6,3.3-7.2,1.8-8.6,11.9-11.7,11.7-.9-2.1-1.3-1.9-1.3-2,0,0,0-.6-.6-2,4.4-2.9,5.8-9.4,11.1-11.1h0Z"/>
      <path class="st0" d="M251,337.9c-.2,2.4-3.3,7.3-4.6,9.8-.2-.6-3.8-5.1-4.6-6.5-2.1-3.8-4.2-7.7-5.9-11.7,6.3-3,15.8.6,15,8.5h0Z"/>
      <path class="st0" d="M206.1,285.8c0,0,.2.6,1.3,1.3,1.4,1,2.7,3,3.9,3.9-1.2.2-2.4-1.2-3.3-1.3-2.4-3.9-11.5-4.3-16.3-5.9-.3-2.3-2.1-1.5-.6-4.6,0,0,.9.2.6-1.3,3.2,4.7,9,4.4,14.3,7.8h0Z"/>
      <g>
        <path class="st0" d="M208.7,246.7c.1.3-.1,1,0,1.3.1.3-1,1.8.6,7.2,1.5,4.7,2.8,5.7,4.6,9.8-7.3-4.4-7.7-9.6-13.4-10.4-.3-1.1-1-1.7-1.6-2.6-7.3-10.2,1-7.6,1.3-8.1.3-.5-9.1-5.1-9.1-5.9,5.4-2.1.6-6.5,0-10.1-.2-1-.6-1.6-.6-2.6-.3-3.1,1.9-6.9.3-12.4-2.3,3-4.6,6.1-6.8,9.1,1.3-3.5,2.4-8,3.3-11.7,5.3,4.5,2.6-5.2,2.6-8.5,0-1.8-.3-4.1,1.3-5.5,2.9,19.8,14.3,40.6,17.6,50.5h0Z"/>
        <path class="st0" d="M190.5,225.2c0,1,.5,1.6.6,2.6-4,4-13.7,13.5-11.7,15-5.8,1.6-1.2,6.8-1.9,10.1-.4,1.6-3.3,2.3-2.6,6.8-1.6,1.1-3.1,2.6-4.6,3.9-2.1,1.9-4.5,5-6.5,7.2h-.6c1.5-4,2.8-4.8,3.9-7.5,4.4-10.5,9.1-20.7,12.4-31.6.2-.4,1-1,1.9-3.3,3.3,1.5,6.3-1.5,9.1-3.3h0Z"/>
        <path class="st0" d="M190.5,225.2c-2.8,1.7-5.8,4.8-9.1,3.3.4-2.3,1.8-4.4,2.6-6.5,2.3-3,4.6-6.1,6.8-9.1,1.6,5.5-.6,9.3-.3,12.4h0Z"/>
        <path class="st0" d="M189.8,201.8c0,3.2,2.7,12.9-2.6,8.5,1-4.1,1.1-9.1,2.6-8.5Z"/>
        <path class="st0" d="M198.9,251.9c.6.9,1.3,1.5,1.6,2.6,5.7.9,6.1,6,13.4,10.4,1.1.7,1.7,1.7,3.3,1.3,1.3,2.6,2.6,5.2,3.9,7.8-4.2-1.7-3.7,1.4-6.5,2.6,2.4-6.2-2.8-7.1-9.8-8.5,0-.8-.6-.6-.6-.6-1.9-4-4.5-6.4-7.2-9.8-1.6-2-3.3-4.3-4.6-6.5,1.1.5,7.4,2.8,6.5.6h0Z"/>
        <path class="st0" d="M213.9,278.6c-.3,2.7,8,2.7,11.1,3.3.7,1.3,1.3,2.6,1.9,3.9-4.1-.3-7.8-2.3-11.7,0-.5-.6-3.1-3.9-3.6-3.9s-3.6,4.4-4.2,5.2c-1.1-.7-1.2-1.2-1.3-1.3-2.8-4.5-7.6-6.9-11.7-9.8,2.5-2,5-4.2,7.8-5.9,6.9,6.9,7.9,13.3,11.7,8.5h0Z"/>
        <path class="st0" d="M226.9,285.8c2.1,4.1,4.4,8.2,6.5,12.4-11.1,3.5-10.9-4.3-18.2-12.4,3.9-2.3,7.6-.3,11.7,0h0Z"/>
        <path class="st0" d="M215.2,285.8c7.4,8.1,7.1,15.8,18.2,12.4.2.4.4.9.6,1.3-1.4,2.1-9.1,1.7-11.7.6-1.6-.6-3.6-3.4-5.2-4.6-2-1.5-3.9-3.1-5.9-4.6-1.2-.9-2.5-2.9-3.9-3.9.7-.8,3.6-5.2,4.2-5.2s3.1,3.3,3.6,3.9h0Z"/>
        <path class="st0" d="M221.1,274.1c1.3,2.6,2.6,5.2,3.9,7.8-3.1-.6-11.4-.5-11.1-3.3.6-.8.5-1.5.6-2,2.9-1.2,2.3-4.4,6.5-2.6h0Z"/>
        <path class="st0" d="M211.9,255.2c1.7,3.7,3.4,7.4,5.2,11.1-1.5.4-2.2-.6-3.3-1.3-1.7-4.1-3.1-5.1-4.6-9.8h2.6,0Z"/>
        <path class="st0" d="M211.9,255.2h-2.6c-1.7-5.4-.5-6.8-.6-7.2,1.4,2.2,2.1,4.8,3.3,7.2Z"/>
        <path class="st0" d="M198.9,251.9c.9,2.1-5.4-.2-6.5-.6-2.7-1.2-3.7-2.3-5.2-3.3-2.6-1.6-5-3.8-7.8-5.2-2-1.5,7.8-10.9,11.7-15,.6,3.6,5.4,7.9,0,10.1,0,.8,9.4,5.3,9.1,5.9-.3.5-8.6-2-1.3,8.1h0Z"/>
        <path class="st0" d="M192.4,251.3c1.2,2.2,3,4.5,4.6,6.5l-12.4,9.8c-.2,0-.4,0-.6,0-.9,0-1.8,0-2.6,0-.7,0-1.3.8-4.6,0-.4,0-5.6-2.8-6.5-3.9,1.5-1.3,2.9-2.8,4.6-3.9.2-.1,3.5-1.2,4.9-1.9,2.8-2.1-1.8-1.8-1-4.2.4-1.2,8.3-3.3,8.5-5.5,1.5.9,2.5,2.1,5.2,3.3h0Z"/>
        <path class="st0" d="M187.2,248c-.1,2.3-8,4.3-8.5,5.5-.8,2.4,3.8,2.1,1,4.2-1.4.8-4.7,1.8-4.9,1.9-.7-4.5,2.2-5.2,2.6-6.8.7-3.4-3.9-8.5,1.9-10.1,2.8,1.4,5.2,3.6,7.8,5.2h0Z"/>
        <path class="st0" d="M176.8,267.6c-3.7,2.5-8.3,3.8-13,3.3,2.1-2.2,4.4-5.3,6.5-7.2.9,1.1,6.1,3.8,6.5,3.9h0Z"/>
        <path class="st0" d="M204.1,267.6c-6.5-.2-13.1.3-19.5,0l12.4-9.8c2.7,3.3,5.3,5.7,7.2,9.8h0Z"/>
        <path class="st0" d="M204.1,267.6s.7-.1.6.6c-.9.3-1.9,1.5-2.6,1.9-2.8,1.6-5.3,3.9-7.8,5.9-2.6-1.8-3.1-1.2-3.3-1.3-4.2-2.8-3.3-4.3-7.2-6.5v-.6c.2,0,.4,0,.6,0,6.5.3,13.1-.2,19.5,0h0Z"/>
        <path class="st0" d="M214.6,276.7c-.2.5,0,1.1-.6,2-3.8,4.9-4.8-1.5-11.7-8.5.8-.4,1.7-1.7,2.6-1.9,7,1.4,12.1,2.3,9.8,8.5h0Z"/>
        <path class="st0" d="M194.4,276c4.1,2.9,8.9,5.3,11.7,9.8-5.3-3.5-11.1-3.1-14.3-7.8-.7-1-1.5-2-.6-3.3.1.1.7-.5,3.3,1.3h0Z"/>
      </g>
      <path class="st0" d="M191.1,279.3c-1.5,3,.4,2.2.6,4.6l-1.3.3c6.3,6.4,13.1,4.8,17.6,5.5.9.1,2.1,1.5,3.3,1.3,2,1.5,3.9,3.1,5.9,4.6-2.9,3.4-12.8-.3-18.6,2-3.8-1.8-5.1-5.5-7.5-8.5-1-1.2-3.4-5.6-3.9-5.9,1.4-2.7,1.6-8.9,3.9-3.9h0Z"/>
      <path class="st0" d="M246.5,347.7c.2.7.7,2.1.6,2.6-.6,4.5-8.3.2-8.5-.3-.4-1,2.1-7.6,3.3-8.8.7,1.4,4.4,5.9,4.6,6.5h0Z"/>
      <path class="st0" d="M204.1,455.2v.6c-11.8,12-23.5,24.3-35.8,35.8-.8,0-.6-.6-.6-.6-.2-8.5-1.6-17-2.6-25.4-1.3-10.9-2.9-21.7-3.9-32.6,14.3,7.4,28.7,14.8,43,22.1Z"/>
      <path class="st0" d="M243.2,478c-11.5-4.4-22.6-11.6-33.2-18.2,6.6-7.8,14-17.6,23.4-22.8,2.9,13.7,7.2,27.2,9.8,41h0Z"/>
      <path class="st0" d="M165,465.6c1,8.4,2.4,16.9,2.6,25.4-12.4-11.4-21.9-23.1-31.9-36.5,10.2,2.6,19.4,9.2,29.3,11.1h0Z"/>
      <path class="st0" d="M195.7,403.1c2.4,17.4,5.9,34.7,8.5,52.1-14.3-7.4-28.7-14.8-43-22.1.4-2.2,29.3-27.2,33.2-30,.1,0,.8,0,1.3,0Z"/>
      <path class="st0" d="M195.7,401.8c0,.4,0,.9,0,1.3-.5,0-1.2,0-1.3,0,.1-1.2,0-1.8-1-2.6-1.4-1.1-31.1-14.6-32.9-15-.1,0,.5-.8-2.6-.6,11.1-7.8,22.2-15.6,33.2-23.5.8,13.5,2.7,27,4.6,40.4h0Z"/>
      <g>
        <path class="st0" d="M224.3,387.4c9.4,6.9,18.2,16,27.4,22.1,0,.1,1-.3.6,2-7,5-13.7,10.8-20.9,15.6v-.6c-3.7-13.7-7.4-27.4-11.1-41,1.2.8,2.7,1.1,3.9,2h0Z"/>
        <path class="st0" d="M220.4,385.5c3.7,13.7,7.4,27.4,11.1,41-11.7-8.3-23.5-16.5-35.2-24.8,5.5-5.9,17.1-12.5,22.1-17.6,1.5-.3,1,.6,1.9,1.3h0Z"/>
      </g>
      <path class="st0" d="M219.1,382.2c0,0,0,1.2-.6,2-5.1,5.1-16.6,11.7-22.1,17.6h-.6c-1.9-13.4-3.7-26.8-4.6-40.4,2.6-.3,24.4,17.8,28,20.9h0Z"/>
      <path class="st0" d="M224.3,350.3c4.6,4.3,9.8,7.9,13.7,13-.1.2.1,1.1,0,1.3,0,0-.2,0-.6.6-1.6,2.2-14.4,17.3-13,18.6,6.3-2.1,12.6-4.1,18.9-6.2,0,.1.3-.2,1.3,2,.6,1.3.6,1.9.6,2-2.6-2.7-1.9.8-3.6,1.3-3.5.9-13.4.4-17.3,4.6-1.2-.9-2.7-1.1-3.9-2-1-.7-.5-1.6-1.9-1.3.7-.7.6-1.9.6-2,4-4.1,6.8-8.8,10.4-13,.2-.3,5.8-2.9,4.9-5.2-4.2-.7-8.5-1.3-12.7-2,1.1-5-2.7-11-3.3-16.3h.6c.6,1.4,3.7,3.2,5.2,4.6h0Z"/>
      <path class="st0" d="M155.9,352.2c-.9.3-1.7.4-2.6.6-2.2-6.5-4.3-13-6.5-19.5.8-1.2,1.9-2.3,1.9-3.9,11.6,7.7,14.4,15.6,19.5,16.6.7,1.7-10.9,5.7-12.4,6.2h0Z"/>
      <path class="st0" d="M155.9,352.2c-.8,3.5,4.3,0,6.5,1.3-1.1,1.1-11.2,12.3-11.7,13l-20.9-8.5c7.3-2.2,15-2.9,22.5-3.9,1-.7.9-1.3,1-1.3.9-.3,1.7-.3,2.6-.6h0Z"/>
      <path class="st0" d="M178.1,361.4c-4.4,3.1-15.6,14.8-16.9,15.6-.1,0,0,.5-1.9,1.3.6-2.7-5.8-5-9.8-10.1.7-1,1.3-.9,1.3-1,5,1,14.8-4.2,19.9-5.2,2.3-.5,6-.3,7.5-.6Z"/>
      <path class="st0" d="M165.7,351.6c-.3.9-.7,1.7-1,2.6,4.9,2.4,9.8,4.8,14.7,7.2-.4,0-.9,0-1.3,0-1.5.3-5.2.2-7.5.6-5,1-14.8,6.2-19.9,5.2,0-.2-.1-.5,0-.6.5-.7,10.6-11.9,11.7-13,1.6-1.6,2.5-1.8,2.6-2h.6,0Z"/>
      <path class="st0" d="M200.9,354.9c7,2.4,13.7,4.7,20.2,8.5,3,1.7,5.8,3.7,8.5,5.9-3.7,4.2-6.4,8.9-10.4,13-3.6-3-25.4-21.1-28-20.9v-1.3c1.9.1,3.5-2.1,4.6-2.6,2.9-1.4,2.5-1.9,2.6-2,.4-.2,2.2-.5,2.6-.6h0Z"/>
      <path class="st0" d="M195.7,344.4c.2,4.9-1.6,9.1,0,13-1,.5-2.6,2.7-4.6,2.6h-1.3c-5.6-3.5-11.3-6.9-16.9-10.4,5.4,1.1,3.8-.6,8.8-2,4.6-1.2,9.3-2.5,14-3.3h0Z"/>
      <path class="st0" d="M189.8,360.1c-12.7,4.8-22.1,17.6-28.7,16.9,1.4-.8,12.6-12.5,16.9-15.6.4,0,.9,0,1.3,0,3.5-.7,6.9-1.3,10.4-1.3h0Z"/>
      <path class="st0" d="M158.5,298.2h1.3c-.7.5-4,2.6-3.6,3.3,7.7,3,15.4,6.1,23.1,9.1-.1.3,0,.9,0,1.3-.9.5-.6.6-.6.6-2.7,1.6-5.8,2.9-8.5,4.6-4.5.2-8.9.4-13.4.6-1.4-.9-.8-2.2-1-2.6-7.7-14.8,1.1-15.3,2.6-16.9h0Z"/>
      <g>
        <path class="st0" d="M176.8,286.4c.1,5.3,4,20.3,2.6,24.1-7.7-3-15.4-6.1-23.1-9.1-.4-.7,2.9-2.7,3.6-3.3,5.6-4.2,12-7.5,16.6-13l.3,1.3Z"/>
        <path class="st0" d="M183.3,289.7c5.6,3.4,11.5,7.3,16.3,11.7-.4,0-.9,0-1.3,0-3.1.5-7.3,3.6-10.4,5.2-1.9,1-4.1,2.9-5.9,3.9-.1,0-1.1.4-2.6,1.3,0-.4-.1-1,0-1.3,1.4-3.8-2.5-18.8-2.6-24.1,1.6,0,4.5,2,6.5,3.3h0Z"/>
      </g>
      <path class="st0" d="M155.9,315.1c.2.4-.5,1.7,1,2.6,4.5-.2,8.9-.4,13.4-.6-4.5,2.8-8.6,6.5-13.7,8.5.9-8.4,5.6-4-6.2-5.9-2.1,1.3-4.1,2.6-6.2,3.9,0-.1-.4-1-.6-2,.6-3.3,9.4-7.4,12.4-6.5h0Z"/>
      <path class="st0" d="M143.5,321.6c.3,1,.6,1.9.6,2s-.6,2.4-.6,2.6c-.4.9-2.1,2.9-2.6,1.3.6-1.2,1.6-5,1.9-6.5.7,0,.6.3.6.6h0Z"/>
      <path class="st0" d="M156.6,325.5v.6c-.6-.4-1.2-.7-1.6-1.3,3.4,6.3,10.6,22.3,17.3,16.9.8.8.9,1.7,1.9,2-3.3,2.6-6,5-9.1,7.8-.1.1-1,.4-2.6,2-2.2-1.3-7.3,2.2-6.5-1.3,1.5-.5,13.1-4.5,12.4-6.2-5.2-1-7.9-8.9-19.5-16.6-.3-.2-.7-2.1-5.2-3.3,0-.2.6-2.5.6-2.6,2.1-1.3,4.1-2.6,6.2-3.9,11.8,1.8,7.1-2.6,6.2,5.9h0Z"/>
      <g>
        <path class="st0" d="M230.2,322.3c1.7,2,3.8,4.9,5.2,7.2-1.5.9-1.3-.4-2.3,3.3-1.4-3.2-2.3-1.9-2.3,1.3-1.5,1.3-1-.3-3.3-3.3-1.4-1.9-9.6-12.8-10.8-13-1.2-.2-1.5,1.3-1.6,1.3-2.6,1.1-4,3.4-4.6,2.3.3-5.9,1.7-4.7-1.3-9.5,1.5.2,1.2-.6,1.3-.6,9.2-2,8.5-1.6,19.5,11.1h0Z"/>
        <path class="st0" d="M227.6,330.7l-3.9,4.6c-2.5.2-5.4-5.8-8.5-9.1,3.9-1.9-3.2-1-3.3-2.3,0-.6,3.9-2.5,3.3-4.9.1,0,.4-1.5,1.6-1.3,1.1.2,9.4,11.1,10.8,13Z"/>
        <path class="st0" d="M227.6,330.7c2.2,3,1.7,4.6,3.3,3.3,0,3.2,5.4,12.9,3.3,15-2.8-3.6-6.9-7-9.8-10.4-.1-.1-1.4-2.7-.6-3.3l3.9-4.6h0Z"/>
      </g>
      <path class="st0" d="M234.1,349c-3.2.8-7.3-1.4-9.8,1.3-1.5-1.4-4.6-3.1-5.2-4.6-1.3-3.2,1.6-1.9,5.2-7.2,2.9,3.4,7,6.8,9.8,10.4h0Z"/>
      <path class="st0" d="M243.2,377.7c-6.3,2.1-12.6,4.1-18.9,6.2-1.4-1.2,11.4-16.4,13-18.6,2.3,3.9,3.8,8.4,5.9,12.4Z"/>
      <path class="st0" d="M191.8,283.8c4.8,1.6,13.9,2,16.3,5.9-4.5-.7-11.3.9-17.6-5.5l1.3-.3h0Z"/>
      <path class="st0" d="M215.2,326.2c3,3.4,6,9.4,8.5,9.1-.8.6.6,3.1.6,3.3-3.6,5.2-6.5,4-5.2,7.2h-.6c-.4-.1-1-.4-1.3-.6-6.8-4.6-12.6-10.8-18.6-16.3-1.6-.2-.8,1.5-1,3.3-5.8,2.7-10.9,5.4-15.6,8.5l-1.3-.6c3.1-2.3,6-5,9.1-7.2,2.8-1.9,5.7-3.8,7.8-6.5,1.5-2,11.8-.6,17.6,0h0Z"/>
      <path class="st0" d="M217.2,345.1c.4.2.9.5,1.3.6.6,5.2,4.4,11.3,3.3,16.3,0,0-.9-.2-.6,1.3-6.5-3.7-13.1-6.1-20.2-8.5,1.8-1,10.1-7.7,16.3-9.8Z"/>
      <path class="st0" d="M229.5,369.2c-2.7-2.2-5.5-4.1-8.5-5.9-.2-1.5.6-1.2.6-1.3,4.2.7,8.5,1.3,12.7,2,.9,2.4-4.6,4.9-4.9,5.2h0Z"/>
      <path class="st0" d="M170.9,349c0,1.1,1.1.5,1.9.6,5.6,3.5,11.3,6.9,16.9,10.4-3.6,0-6.9.6-10.4,1.3-4.9-2.4-9.8-4.8-14.7-7.2.3-.9.7-1.7,1-2.6,1.7-.7,3.7-1.6,5.2-2.6h0Z"/>
      <path class="st0" d="M180.7,339.9l1.3.6c-3.7,2.4-7.2,6-11.1,8.5-1.5,1-3.5,1.9-5.2,2.6h-.6c3.1-2.9,5.9-5.2,9.1-7.8,2.2-1.8,6.2-3.7,6.5-3.9h0Z"/>
      <path class="st0" d="M217.2,345.1c-6.2,2-14.5,8.8-16.3,9.8-.4.2-2.2.4-2.6.6-.6-6.3-1.3-17.6-.6-23.5.2-1.8-.6-3.5,1-3.3,6,5.5,11.8,11.7,18.6,16.3h0Z"/>
      <path class="st0" d="M197.6,332.1c-.7,5.8,0,17.1.6,23.5-.1,0,.2.6-2.6,2-1.6-4,.2-8.1,0-13,0-.8-.6-5.6-1-5.9-4.2.7-8.5,1.3-12.7,2,4.7-3.1,9.8-5.8,15.6-8.5h0Z"/>
      <path class="st0" d="M195.7,344.4c-4.7.8-9.4,2-14,3.3-4.9,1.3-3.4,3-8.8,2-.9-.2-2,.4-1.9-.6,3.9-2.4,7.4-6.1,11.1-8.5,4.2-.7,8.5-1.3,12.7-2,.4.2.9,5,1,5.9Z"/>
      <g>
        <path class="st0" d="M199.6,301.4h.6c2.2,3.8,8.3,9.2,9.1,10.4,3,4.7,1.6,3.5,1.3,9.5.6,1.1,2-1.1,4.6-2.3.6,2.4-3.3,4.3-3.3,4.9.1,1.3,7.1.4,3.3,2.3-5.8-.6-16.1-2-17.6,0-3.5-3.8-7.2-7.6-11.1-11.1,3.6,2.6,7.2,5.2,10.8,7.8.7-.6.2-8.7.3-10.4.2-3.7,1.2-7.3.6-11.1.4,0,.9,0,1.3,0h0Z"/>
        <path class="st0" d="M197.6,312.5c-.1,1.7.4,9.9-.3,10.4-3.6-2.6-7.2-5.2-10.8-7.8-2-1.8-4.7-2.6-4.6-4.6,1.8-1,4-2.9,5.9-3.9,3.9,3.7,6.8-.7,9.8,5.9h0Z"/>
        <path class="st0" d="M198.3,301.4c.5,3.7-.4,7.4-.6,11.1-3-6.6-5.8-2.2-9.8-5.9,3.1-1.6,7.4-4.7,10.4-5.2h0Z"/>
      </g>
      <path class="st0" d="M156.6,326.2c3.2,2,11.9,11.9,15.6,15.6-6.6,5.4-13.9-10.6-17.3-16.9.4.6,1,.9,1.6,1.3h0Z"/>
      <g>
        <path class="st0" d="M177.4,326.8c0,1-.3,2.6.3,3.3.3.3,6.9,1.1,8.1,1.3,1.3.2,3-.3,3.9,1.3-3.1,2.2-6.1,4.9-9.1,7.2-.3.2-4.3,2.1-6.5,3.9-1-.2-1.2-1.2-1.9-2-3.8-3.8-12.5-13.7-15.6-15.6v-.6c5.1-1.9,9.1-5.7,13.7-8.5,2.7-1.6,5.8-2.9,8.5-4.6,1.9,2.7-1.7,9.7-1.3,14.3h0Z"/>
        <path class="st0" d="M182,310.6c-.2,1.9,2.6,2.8,4.6,4.6,3.8,3.5,7.6,7.3,11.1,11.1-2.1,2.7-5.1,4.6-7.8,6.5-.9-1.6-2.6-1.1-3.9-1.3,1.9-1.6,6.6.8,6.2-3.3l-14.7-1.3c-.4-4.6,3.2-11.6,1.3-14.3,0,0-.2-.2.6-.6,1.5-.9,2.5-1.2,2.6-1.3h0Z"/>
        <path class="st0" d="M185.9,331.4c-1.2-.2-7.9-1-8.1-1.3-.6-.6-.2-2.3-.3-3.3l14.7,1.3c.5,4.1-4.3,1.6-6.2,3.3Z"/>
      </g>
    </g>
  </g>
  <polygon class="st0" points="371.5 300.9 266.4 236.5 259.3 253.5 338.3 305.1 370.3 306.9 375.2 304.1 371.5 300.9"/>
  <g>
    <g>
      <path class="st0" d="M134.1,811.3h-18l-5.6-18.8c-1.1-3.9-2.3-6.9-3.4-9-1.1-2.1-2.7-3.8-4.6-4.9-1.9-1.1-4.5-1.7-7.7-1.7h-12.2v34.4h-17.1v-84.7h34.2c10.3,0,17.9,2,22.9,6.1s7.4,10.4,7.4,19.1-1.5,10-4.4,13.4-7,5.6-12.2,6.5c4.1,1.4,7.2,3.8,9.3,7.1s4,8,5.8,13.8l5.6,18.6h0ZM109.4,760.6c2.4-2,3.6-4.9,3.6-8.9s-1.2-6.9-3.6-8.9c-2.4-2-5.4-3-9.1-3h-17.7v23.7h17.7c3.7,0,6.8-1,9.1-3h0Z"/>
      <path class="st0" d="M151.2,804.5c-4.7-4.5-7-11-7-19.6v-31.9c0-8.5,2.3-15.1,7-19.6,4.7-4.5,12.4-6.8,23.1-6.8h28.3v13.3h-28.3c-4.4,0-7.7,1-9.9,3.2-2.1,2.1-3.2,5.4-3.2,9.9v9.3h36.1v13.3h-36.1v9.3c0,4.4,1.1,7.7,3.2,9.9,2.1,2.1,5.4,3.2,9.9,3.2h28.6v13.3h-28.6c-10.7,0-18.4-2.3-23.1-6.8h0Z"/>
      <path class="st0" d="M221,804.9c-6.1-5.2-9.1-12.9-9.1-23v-25.9c0-10.2,3-17.8,9.1-23,6.1-5.2,14.9-7.8,26.4-7.8s15.1,1.3,20.4,4c5.3,2.7,9.5,6.6,12.5,11.9l-13,8.8c-2.5-4-5.2-6.9-8-8.7-2.8-1.8-6.8-2.7-12-2.7s-11.1,1.5-14.1,4.4c-2.9,3-4.4,7.3-4.4,13.1v25.9c0,5.8,1.5,10.2,4.4,13.1,2.9,3,7.6,4.4,14.1,4.4s9.9-1,12.9-2.8c2.9-1.9,4.4-4.7,4.4-8.3v-3.8c0-5-2.3-7.5-6.9-7.5h-13.8v-13.3h18.6c6.5,0,11.2,1.5,14.3,4.5,3.1,3,4.6,7.6,4.6,13.9v7.4c0,7.3-3.1,13-9.2,17.1s-14.4,6.2-24.9,6.2-20.4-2.6-26.4-7.8h0Z"/>
      <path class="st0" d="M300.2,804.5c-4.7-4.5-7-11-7-19.6v-31.9c0-8.5,2.3-15.1,7-19.6,4.7-4.5,12.4-6.8,23.1-6.8h28.3v13.3h-28.3c-4.4,0-7.7,1-9.9,3.2-2.1,2.1-3.2,5.4-3.2,9.9v9.3h36.1v13.3h-36.1v9.3c0,4.4,1.1,7.7,3.2,9.9,2.1,2.1,5.4,3.2,9.9,3.2h28.6v13.3h-28.6c-10.7,0-18.4-2.3-23.1-6.8h0Z"/>
      <path class="st0" d="M436.1,726.6v64.7c0,6.5-1.3,11.5-4,14.9-2.7,3.4-6.9,5.1-12.8,5.1h-12l-24.9-57.7v57.7h-16v-84.7h19.2l30.7,70.2h.2c1.4,0,2.3-.6,2.8-1.8s.7-3.3.7-6.3v-62.1h16Z"/>
    </g>
    <g>
      <path class="st0" d="M80.4,911.9c-4.4-2-8.2-5.1-11.6-9.5l2.5-2.3c3.2,4.2,6.7,7.3,10.4,9s8.5,2.6,14.4,2.6,13.8-1.6,18.2-4.8c4.4-3.2,6.5-7.7,6.5-13.4s-.8-5.9-2.4-8c-1.6-2.1-4.3-3.9-8.1-5.3-3.8-1.5-9.3-2.9-16.4-4.2-8.1-1.5-14-3.9-17.6-7.1s-5.4-7.6-5.4-13.2,1.1-7.3,3.2-10.4c2.1-3,5.1-5.4,8.9-7.1,3.8-1.7,8.2-2.5,13.1-2.5,12.2,0,20.8,4,25.7,12l-2.6,2.1c-2-3.6-4.9-6.3-8.9-8.2-3.9-1.9-8.7-2.8-14.2-2.8s-7.9.7-11.2,2.2c-3.3,1.5-5.9,3.5-7.7,6.2-1.8,2.6-2.8,5.6-2.8,8.9s1.8,8.2,5.3,10.9c3.6,2.7,9.2,4.8,16.9,6.2,7.1,1.2,12.7,2.7,16.6,4.4s6.8,3.8,8.5,6.4c1.7,2.6,2.6,5.9,2.6,10,0,6.8-2.4,11.9-7.3,15.6s-11.9,5.5-21,5.5-11.4-1-15.8-3h0Z"/>
      <path class="st0" d="M157.8,839.9h-26v-3.1h55.4v3.1h-26v73.9h-3.5v-73.9h0Z"/>
      <path class="st0" d="M207,909.3c-5.1-3.7-7.6-8.8-7.6-15.2v-57.3h3.5v57.3c0,5.4,2.3,9.7,6.8,12.9,4.5,3.2,10.5,4.8,18.1,4.8s13.6-1.6,18.1-4.8c4.5-3.2,6.8-7.5,6.8-12.9v-57.3h3.5v57.3c0,6.4-2.5,11.4-7.6,15.2-5.1,3.7-12,5.6-20.7,5.6s-15.6-1.9-20.7-5.6h0Z"/>
      <path class="st0" d="M275.4,836.8h26.6c7.8,0,13.9,1.2,18.5,3.7,4.5,2.5,7.9,6.5,9.9,12.1,2,5.6,3.1,13.1,3.1,22.7s-1,17.1-3.1,22.7c-2,5.6-5.4,9.6-9.9,12.1s-10.7,3.7-18.5,3.7h-26.6v-77h0ZM302,910.7c7,0,12.5-1.1,16.5-3.4,4-2.3,7-6,8.8-11.1s2.7-12.1,2.7-20.9-.9-15.7-2.8-20.8-4.8-8.9-8.8-11.2-9.5-3.5-16.4-3.5h-23.1v70.8h23.1,0Z"/>
      <path class="st0" d="M351.6,836.8h3.5v77h-3.5v-77Z"/>
      <path class="st0" d="M381.5,907.6c-5.1-4.8-7.6-11.7-7.6-20.7v-23.3c0-9,2.5-15.8,7.6-20.7,5.1-4.8,12.4-7.3,21.8-7.3s16.7,2.4,21.8,7.3c5.1,4.8,7.6,11.7,7.6,20.7v23.3c0,9-2.5,15.8-7.6,20.7-5.1,4.8-12.4,7.3-21.8,7.3s-16.7-2.4-21.8-7.3ZM422.5,905.4c4.5-4.3,6.8-10.4,6.8-18.4v-23.3c0-8-2.2-14.1-6.8-18.4s-10.9-6.4-19.2-6.4-14.7,2.2-19.2,6.4-6.8,10.4-6.8,18.4v23.3c0,8,2.2,14.1,6.8,18.4,4.5,4.3,10.9,6.4,19.2,6.4s14.7-2.1,19.2-6.4Z"/>
    </g>
  </g>
</svg>