<svg xmlns="http://www.w3.org/2000/svg" viewBox="0 0 900 410" width="100%">

  <!-- Background -->
  <rect x="0" y="0" width="900" height="410" rx="14" fill="#F8F9FA"/>

  <!-- Header -->
  <text x="450" y="34" text-anchor="middle" fill="#1A2533" font-size="14" font-weight="700" font-family="Inter,sans-serif">Regen Studio — Service Entry Points</text>
  <text x="450" y="52" text-anchor="middle" fill="#6B7280" font-size="11" font-family="Inter,sans-serif">Engage at any phase, or across the full process</text>

  <!-- ── ROW 1 ── -->

  <!-- Card: Phase 0 -->
  <rect x="16" y="66" width="420" height="70" rx="10" fill="white" stroke="#E5E7EB" stroke-width="1"/>
  <rect x="16" y="66" width="5" height="70" rx="3" fill="#00914B"/>
  <circle cx="50" cy="101" r="16" fill="#00914B"/>
  <text x="50" y="107" text-anchor="middle" fill="white" font-size="13" font-weight="700" font-family="Inter,sans-serif">0</text>
  <text x="78" y="90" fill="#1A2533" font-size="12" font-weight="700" font-family="Inter,sans-serif">Start Project</text>
  <text x="78" y="108" fill="#4A5568" font-size="10.5" font-family="Inter,sans-serif">Process setup · Intake assessment · Scope definition</text>
  <rect x="340" y="80" width="84" height="20" rx="10" fill="#F0FAF4" stroke="#D1FAE5" stroke-width="1"/>
  <text x="382" y="94" text-anchor="middle" fill="#00914B" font-size="9.5" font-weight="600" font-family="Inter,sans-serif">Full process</text>

  <!-- Card: Phase 1 -->
  <rect x="464" y="66" width="420" height="70" rx="10" fill="white" stroke="#E5E7EB" stroke-width="1"/>
  <rect x="464" y="66" width="5" height="70" rx="3" fill="#007A3E"/>
  <circle cx="498" cy="101" r="16" fill="#007A3E"/>
  <text x="498" y="107" text-anchor="middle" fill="white" font-size="13" font-weight="700" font-family="Inter,sans-serif">1</text>
  <text x="526" y="90" fill="#1A2533" font-size="12" font-weight="700" font-family="Inter,sans-serif">Problem Analysis</text>
  <text x="526" y="108" fill="#4A5568" font-size="10.5" font-family="Inter,sans-serif">Workshop facilitation · Problem mapping · Stakeholder analysis</text>
  <rect x="790" y="80" width="82" height="20" rx="10" fill="#F0FAF4" stroke="#D1FAE5" stroke-width="1"/>
  <text x="831" y="94" text-anchor="middle" fill="#00914B" font-size="9.5" font-weight="600" font-family="Inter,sans-serif">Standalone</text>

  <!-- ── ROW 2 ── -->

  <!-- Card: Phase 2 -->
  <rect x="16" y="152" width="420" height="70" rx="10" fill="white" stroke="#E5E7EB" stroke-width="1"/>
  <rect x="16" y="152" width="5" height="70" rx="3" fill="#00914B"/>
  <circle cx="50" cy="187" r="16" fill="#00914B"/>
  <text x="50" y="193" text-anchor="middle" fill="white" font-size="13" font-weight="700" font-family="Inter,sans-serif">2</text>
  <text x="78" y="176" fill="#1A2533" font-size="12" font-weight="700" font-family="Inter,sans-serif">Idea Generation</text>
  <text x="78" y="194" fill="#4A5568" font-size="10.5" font-family="Inter,sans-serif">Ideation session design · Concept development · Ethics workshop</text>
  <rect x="340" y="166" width="82" height="20" rx="10" fill="#F0FAF4" stroke="#D1FAE5" stroke-width="1"/>
  <text x="381" y="180" text-anchor="middle" fill="#00914B" font-size="9.5" font-weight="600" font-family="Inter,sans-serif">Standalone</text>

  <!-- Card: Phase 3 -->
  <rect x="464" y="152" width="420" height="70" rx="10" fill="white" stroke="#E5E7EB" stroke-width="1"/>
  <rect x="464" y="152" width="5" height="70" rx="3" fill="#007A3E"/>
  <circle cx="498" cy="187" r="16" fill="#007A3E"/>
  <text x="498" y="193" text-anchor="middle" fill="white" font-size="13" font-weight="700" font-family="Inter,sans-serif">3</text>
  <text x="526" y="176" fill="#1A2533" font-size="12" font-weight="700" font-family="Inter,sans-serif">Prototyping</text>
  <text x="526" y="194" fill="#4A5568" font-size="10.5" font-family="Inter,sans-serif">Supplier selection · Design sessions · User testing</text>
  <rect x="790" y="166" width="82" height="20" rx="10" fill="#F0FAF4" stroke="#D1FAE5" stroke-width="1"/>
  <text x="831" y="180" text-anchor="middle" fill="#00914B" font-size="9.5" font-weight="600" font-family="Inter,sans-serif">Standalone</text>

  <!-- ── ROW 3 ── -->

  <!-- Card: Phase 4 (highlighted) -->
  <rect x="16" y="238" width="420" height="70" rx="10" fill="#FFFBF0" stroke="#FDE68A" stroke-width="1.5"/>
  <rect x="16" y="238" width="5" height="70" rx="3" fill="#A0701A"/>
  <circle cx="50" cy="273" r="16" fill="#A0701A"/>
  <text x="50" y="279" text-anchor="middle" fill="white" font-size="13" font-weight="700" font-family="Inter,sans-serif">4</text>
  <text x="78" y="262" fill="#1A2533" font-size="12" font-weight="700" font-family="Inter,sans-serif">Validation  ★ Case study below</text>
  <text x="78" y="280" fill="#4A5568" font-size="10.5" font-family="Inter,sans-serif">Privacy &amp; legal architecture · Impact design · DPIA facilitation</text>
  <rect x="340" y="252" width="82" height="20" rx="10" fill="#FEF3C7" stroke="#FDE68A" stroke-width="1"/>
  <text x="381" y="266" text-anchor="middle" fill="#A0701A" font-size="9.5" font-weight="600" font-family="Inter,sans-serif">Standalone</text>

  <!-- Card: Phase 5 -->
  <rect x="464" y="238" width="420" height="70" rx="10" fill="white" stroke="#E5E7EB" stroke-width="1"/>
  <rect x="464" y="238" width="5" height="70" rx="3" fill="#007A3E"/>
  <circle cx="498" cy="273" r="16" fill="#007A3E"/>
  <text x="498" y="279" text-anchor="middle" fill="white" font-size="13" font-weight="700" font-family="Inter,sans-serif">5</text>
  <text x="526" y="262" fill="#1A2533" font-size="12" font-weight="700" font-family="Inter,sans-serif">Experiment</text>
  <text x="526" y="280" fill="#4A5568" font-size="10.5" font-family="Inter,sans-serif">Experiment plan design · Work package management · Reporting</text>
  <rect x="790" y="252" width="82" height="20" rx="10" fill="#F0FAF4" stroke="#D1FAE5" stroke-width="1"/>
  <text x="831" y="266" text-anchor="middle" fill="#00914B" font-size="9.5" font-weight="600" font-family="Inter,sans-serif">Standalone</text>

  <!-- ── ROW 4 ── -->

  <!-- Card: Phase 6 (advisory) -->
  <rect x="16" y="324" width="420" height="70" rx="10" fill="white" stroke="#E5E7EB" stroke-width="1"/>
  <rect x="16" y="324" width="5" height="70" rx="3" fill="#9CA3AF"/>
  <circle cx="50" cy="359" r="16" fill="#9CA3AF"/>
  <text x="50" y="365" text-anchor="middle" fill="white" font-size="13" font-weight="700" font-family="Inter,sans-serif">6</text>
  <text x="78" y="348" fill="#1A2533" font-size="12" font-weight="700" font-family="Inter,sans-serif">Feasibility</text>
  <text x="78" y="366" fill="#4A5568" font-size="10.5" font-family="Inter,sans-serif">Feasibility assessment · Scale-up strategy · Advisory role</text>
  <rect x="340" y="338" width="70" height="20" rx="10" fill="#F3F4F6" stroke="#E5E7EB" stroke-width="1"/>
  <text x="375" y="352" text-anchor="middle" fill="#6B7280" font-size="9.5" font-weight="600" font-family="Inter,sans-serif">Advisory</text>

  <!-- Card: Phase 7 (advisory) -->
  <rect x="464" y="324" width="420" height="70" rx="10" fill="white" stroke="#E5E7EB" stroke-width="1"/>
  <rect x="464" y="324" width="5" height="70" rx="3" fill="#6B7280"/>
  <circle cx="498" cy="359" r="16" fill="#6B7280"/>
  <text x="498" y="365" text-anchor="middle" fill="white" font-size="13" font-weight="700" font-family="Inter,sans-serif">7</text>
  <text x="526" y="348" fill="#1A2533" font-size="12" font-weight="700" font-family="Inter,sans-serif">Adoption</text>
  <text x="526" y="366" fill="#4A5568" font-size="10.5" font-family="Inter,sans-serif">Adoption strategy · Knowledge transfer · Advisory role</text>
  <rect x="790" y="338" width="70" height="20" rx="10" fill="#F3F4F6" stroke="#E5E7EB" stroke-width="1"/>
  <text x="825" y="352" text-anchor="middle" fill="#6B7280" font-size="9.5" font-weight="600" font-family="Inter,sans-serif">Advisory</text>
</svg>
